<svg
  width="1200"
  height="630"
  viewBox="0 0 1200 630"
  xmlns="http://www.w3.org/2000/svg">
  <path
    style="fill:#0b121b;stroke-width:1.3262"
    d="M 0,0 H 1200 V 630 H 0 Z" />
  <path
    style="fill:#e3eaf2;stroke-width:1.29406"
    d="m 600,10 h 590 V 620 H 600 Z" />
  <path
    style="fill:#111b27;fill-opacity:1;stroke-width:1.29406"
    d="M 10,10 H 600 V 619.99999 H 10 Z" />
  <path
    style="fill:#e3eaf2;stroke-width:1.29406;fill-opacity:1"
    d="M 181.6875 250.5 C 159.625 250.5 142.9375 256.09375 131.625 267.28125 C 120.375 278.40625 114.75 294.71875 114.75 316.21875 C 114.75 336.03125 120.65625 351.53125 132.46875 362.71875 C 144.28125 373.90625 160.71875 379.5 181.78125 379.5 C 189.53125 379.5 197.90625 378.75 206.90625 377.25 C 215.90625 375.6875 223.21875 373.8125 228.84375 371.625 L 229.40625 339.75 L 220.875 339.75 L 217.875 360.375 C 214.875 362.9375 210.71875 365.15625 205.40625 367.03125 C 200.15625 368.90625 194 369.84375 186.9375 369.84375 C 173.5625 369.84375 163.375 365.25 156.375 356.0625 C 149.375 346.875 145.875 333.5 145.875 315.9375 C 145.875 296.9375 149.21875 282.9375 155.90625 273.9375 C 162.59375 264.875 173.1875 260.34375 187.6875 260.34375 C 198.625 260.34375 208.21875 263.15625 216.46875 268.78125 L 219.09375 286.96875 L 227.53125 286.96875 L 226.96875 256.78125 C 211.34375 252.59375 196.25 250.5 181.6875 250.5 z M 318.75 250.5 C 275.1875 250.5 253.40625 271.875 253.40625 314.625 C 253.40625 336 259 352.15625 270.1875 363.09375 C 281.375 374.03125 297.5625 379.5 318.75 379.5 C 340 379.5 356.1875 374.03125 367.3125 363.09375 C 378.4375 352.09375 384 335.9375 384 314.625 C 384 293.5625 378.5 277.625 367.5 266.8125 C 356.5 255.9375 340.25 250.5 318.75 250.5 z M 396.75 251.90625 L 396.75 258.75 L 412.78125 261.1875 L 412.78125 368.25 L 396.65625 370.78125 L 396.65625 377.625 L 509.8125 377.625 L 513.375 339.65625 L 504.9375 339.65625 L 497.25 365.8125 C 491 367.0625 481.21875 367.6875 467.90625 367.6875 L 442.3125 367.6875 L 442.3125 261.1875 L 461.71875 258.75 L 461.71875 251.90625 L 396.75 251.90625 z M 524.8125 251.90625 L 524.8125 258.75 L 540.9375 261.1875 L 540.9375 368.25 L 524.8125 370.78125 L 524.8125 377.625 L 546.375 377.625 L 588.46875 378 C 592.51048 378 596.35423 377.80377 600 377.41016 L 600 365.60352 C 596.24501 366.99335 591.80751 367.6875 586.6875 367.6875 C 581.8125 367.6875 576.375 367.4375 570.375 366.9375 L 570.375 262.21875 L 577.3125 262.21875 C 586.42009 262.21875 593.98258 263.79911 600 266.95898 L 600 252.82227 C 595.19577 252.21135 590.03952 251.90625 584.53125 251.90625 L 524.8125 251.90625 z M 318.75 259.96875 C 330.5625 259.96875 339.1875 264.125 344.625 272.4375 C 350.125 280.75 352.875 294.8125 352.875 314.625 C 352.875 334.5 350.125 348.71875 344.625 357.28125 C 339.1875 365.84375 330.5625 370.125 318.75 370.125 C 306.875 370.125 298.1875 365.875 292.6875 357.375 C 287.25 348.8125 284.53125 334.5625 284.53125 314.625 C 284.53125 294.8125 287.25 280.75 292.6875 272.4375 C 298.1875 264.125 306.875 259.96875 318.75 259.96875 z " />
      <path
    style="fill:#111b27;stroke-width:1.29406;fill-opacity:1"
    d="M 716.0625 250.875 L 671.34375 368.25 L 661.96875 370.78125 L 661.96875 377.625 L 700.21875 377.625 L 700.21875 370.78125 L 684.09375 368.25 L 695.625 335.71875 L 743.90625 335.71875 L 755.90625 368.25 L 741.375 370.78125 L 741.375 377.625 L 797.34375 377.625 L 797.34375 370.78125 L 787.78125 368.25 L 743.25 250.875 L 716.0625 250.875 z M 802.03125 251.90625 L 802.03125 258.75 L 818.15625 261.1875 L 818.15625 368.25 L 803.25 370.78125 L 803.25 377.625 L 863.90625 377.625 L 863.90625 370.78125 L 847.78125 368.25 L 847.78125 324.375 L 863.34375 324.375 L 898.40625 377.625 L 939.09375 377.625 L 939.09375 370.78125 L 925.5 368.25 L 891.9375 321.75 C 908.8125 316.625 917.25 305.0625 917.25 287.0625 C 917.25 275 912.6875 266.125 903.5625 260.4375 C 894.4375 254.75 880.625 251.90625 862.125 251.90625 L 802.03125 251.90625 z M 940.6875 251.90625 L 940.6875 258.75 L 956.8125 261.1875 L 956.8125 368.25 L 940.6875 370.78125 L 940.6875 377.625 L 1004.4375 377.625 L 1004.4375 370.78125 L 986.34375 368.25 L 986.34375 326.4375 L 997.21875 317.0625 L 1044.1875 377.625 L 1085.25 377.625 L 1085.25 370.78125 L 1073.5312 368.25 L 1018.2188 297.84375 L 1059.75 261.1875 L 1075.125 258.75 L 1075.125 251.90625 L 1032.0938 251.90625 L 1032.0938 258.75 L 1043.625 261.1875 L 986.34375 312.375 L 986.34375 261.1875 L 1002.5625 258.75 L 1002.5625 251.90625 L 940.6875 251.90625 z M 600 252.82227 L 600 266.95898 C 603.85185 268.98167 607.0706 271.65131 609.65625 274.96875 C 616.28125 283.40625 619.59375 296.6875 619.59375 314.8125 C 619.59375 328.125 618.5 338.53125 616.3125 346.03125 C 614.125 353.46875 610.65625 358.9375 605.90625 362.4375 C 604.1726 363.73196 602.20385 364.78781 600 365.60352 L 600 377.41016 C 615.18416 375.7708 626.93416 370.71703 635.25 362.25 C 645.5625 351.6875 650.71875 335.625 650.71875 314.0625 C 650.71875 293.0625 645.3125 277.46875 634.5 267.28125 C 626.37444 259.53362 614.87444 254.71372 600 252.82227 z M 847.78125 262.21875 L 860.90625 262.21875 C 871.21875 262.21875 878.3125 264.0625 882.1875 267.75 C 886.0625 271.375 888 277.875 888 287.25 C 888 297.125 885.96875 304.0625 881.90625 308.0625 C 877.84375 312.0625 871 314.0625 861.375 314.0625 L 847.78125 314.0625 L 847.78125 262.21875 z M 720.1875 269.8125 L 740.34375 325.40625 L 699.46875 325.40625 L 720.1875 269.8125 z " />
</svg>
