<svg
  width="48"
  height="48"
  viewBox="0 0 48 48"
  xmlns="http://www.w3.org/2000/svg">
  <path
    style="fill:#0b121b;stroke-width:1.13008"
    d="M 48,24 A 24,24 0 0 1 24,48 24,24 0 0 1 0,24 24,24 0 0 1 24,0 24,24 0 0 1 48,24 Z" />
  <path
    style="fill:#e3eaf2;fill-opacity:1;stroke-width:0.988814"
    d="M 24,45 C 35.597979,45 45,35.597979 45,24 45,12.402021 35.597979,3 24,3 Z" />
  <path
    style="fill:#111b27;fill-opacity:1;stroke-width:0.988814"
    d="M 24,45 C 12.402021,45 3,35.597979 3,24 3,12.402021 12.402021,3 24,3 Z" />
  <path
    style="fill:#111b27;fill-opacity:1;stroke-width:0.988814"
    d="M 26.134766 9.6660156 C 25.395827 9.6660156 24.684673 9.6954786 24 9.7519531 L 24 12.34375 C 25.015638 12.017528 26.171887 11.853516 27.46875 11.853516 C 29.899307 11.853516 32.0319 12.478515 33.865234 13.728516 L 34.447266 17.771484 L 36.322266 17.771484 L 36.197266 11.0625 C 32.725041 10.131944 29.370879 9.6660156 26.134766 9.6660156 z M 34.84375 29.5 L 34.177734 34.083984 C 33.511067 34.653429 32.586806 35.145833 31.40625 35.5625 C 30.239582 35.979167 28.87218 36.1875 27.302734 36.1875 C 26.082688 36.1875 24.981344 36.015888 24 35.671875 L 24 38.238281 C 24.692728 38.301228 25.411477 38.333984 26.15625 38.333984 C 27.878474 38.333984 29.740233 38.167318 31.740234 37.833984 C 33.740236 37.486762 35.365233 37.070096 36.615234 36.583984 L 36.740234 29.5 L 34.84375 29.5 z " />
  <path
    style="fill:#e3eaf2;fill-opacity:1;stroke-width:0.988814"
    d="M 24 9.7519531 C 20.141941 10.070181 17.144767 11.285074 15.009766 13.396484 C 12.509764 15.868708 11.259766 19.493703 11.259766 24.271484 C 11.259766 28.674265 12.572264 32.117403 15.197266 34.603516 C 17.404576 36.694037 20.33925 37.905636 24 38.238281 L 24 35.671875 C 22.590637 35.177819 21.426793 34.328599 20.509766 33.125 C 18.954209 31.083332 18.177734 28.111765 18.177734 24.208984 C 18.177734 19.986759 18.920138 16.875001 20.40625 14.875 C 21.29424 13.671649 22.492154 12.828068 24 12.34375 L 24 9.7519531 z " />
</svg>
