<svg
  width="1200"
  height="630"
  viewBox="0 0 1200 630"
  xmlns="http://www.w3.org/2000/svg">
  <path
    style="fill:#111b27"
    d="M 0,530 H 1200 V 630 H 0 Z" />
  <path
    style="fill:#111b27"
    d="M 0,0 H 1200 V 198 H 0 Z" />
  <path
    style="fill:#111b27"
    d="m 0,202 h 1200 v 20 H 0 Z" />
  <path
    style="fill:#0b121b"
    d="M 0,526 V 226 h 150 v 300 z" />
  <path
    style="fill:#111b27"
    d="M 150,526 V 226 h 150 v 300 z" />
  <path
    style="fill:#213043"
    d="M 300,526 V 226 h 150 v 300 z" />
  <path
    style="fill:#3c526d"
    d="M 450,526 V 226 h 150 v 300 z" />
  <path
    style="fill:#8da1b9"
    d="M 600,526 V 226 h 150 v 300 z" />
  <path
    style="fill:#d0dae7"
    d="M 750,526 V 226 h 150 v 300 z" />
  <path
    style="fill:#e3eaf2"
    d="M 900,526 V 226 h 150 v 300 z" />
  <path
    style="fill:#f0f4f8"
    d="M 1050,526 V 226 h 150 v 300 z" />
  <path
    style="fill:#e3eaf2"
    d="m 40.664055,583.39258 -0.89062,4.8164 h -1.67578 l 0.89062,-4.8164 h -3.16406 l -0.86719,4.8164 h -1.71093 l 0.89062,-4.8164 h -1.83984 v -1.4414 h 2.13281 l 0.62109,-3.36328 h -2.7539 v -1.44142 h 3.02343 l 0.85547,-4.65233 h 1.6875 l -0.86718,4.65233 h 3.16406 l 0.86719,-4.65233 h 1.67578 l -0.86719,4.65233 h 1.82812 v 1.44142 h -2.08593 l -0.59766,3.36328 h 2.68359 v 1.4414 z m -3.9375,-4.80469 -0.62109,3.36328 h 3.16406 l 0.63282,-3.36328 z m 18.33985,1.69921 q 0,8.15625 -5.15625,8.15625 -2.48438,0 -3.75,-2.08593 -1.26563,-2.08594 -1.26563,-6.07032 0,-3.90233 1.26563,-5.96483 1.26562,-2.07422 3.84375,-2.07422 2.48437,0 3.77344,2.05077 1.28906,2.03907 1.28906,5.98828 z m -3.4336,0 q 0,-3.65625 -0.41015,-5.25 -0.41016,-1.60546 -1.28906,-1.60546 -0.86719,0 -1.24219,1.54688 -0.36328,1.54687 -0.36328,5.30858 0,3.82032 0.375,5.40235 0.375,1.58203 1.23047,1.58203 0.86718,0 1.27734,-1.61718 0.42187,-1.62891 0.42187,-5.3672 z m 13.28907,2.09767 q 0,-2.16797 -0.53907,-3.17579 -0.52734,-1.0078 -1.74609,-1.0078 -0.44531,0 -0.97266,0.10547 -0.52734,0.0937 -0.86718,0.29296 v 8.42579 q 0.75,0.1875 1.83984,0.1875 1.16016,0 1.72266,-1.125 0.5625,-1.13672 0.5625,-3.70313 z m -7.51172,-9.79688 -1.125,-0.26954 v -0.76171 h 4.51172 v 4.04296 q 0,1.08985 -0.11719,2.21485 0.46875,-0.38672 1.34766,-0.64452 0.89062,-0.26953 1.73437,-0.26953 2.39063,0 3.49219,1.3125 1.10156,1.3125 1.10156,4.18358 0,2.83595 -1.41797,4.44142 -1.40625,1.60546 -3.97265,1.60546 -1.89844,0 -5.55469,-0.79688 z m 19.94531,14.33203 2.73047,0.28125 v 1.00781 h -8.83594 v -1.00781 l 2.71875,-0.28125 v -11.84765 l -2.70703,0.89062 v -0.9961 l 4.42969,-2.60156 h 1.66406 z m 14.94141,1.28906 h -9.96094 v -2.21484 q 1.00781,-1.07812 1.86328,-1.93359 1.875,-1.85157 2.74219,-2.90625 0.86719,-1.06641 1.26562,-2.20313 0.41016,-1.13672 0.41016,-2.58985 0,-1.27734 -0.62109,-2.0625 -0.6211,-0.78515 -1.65235,-0.78515 -0.72656,0 -1.16015,0.15235 -0.4336,0.15233 -0.79688,0.45702 l -0.50391,2.27344 h -1.01953 v -3.57422 q 0.9375,-0.21094 1.82813,-0.35156 0.90234,-0.15235 1.95703,-0.15235 2.58984,0 3.96094,1.06641 1.38281,1.06641 1.38281,3.03516 0,1.23047 -0.41016,2.23828 -0.41015,0.99609 -1.30078,1.94531 -0.8789,0.94922 -3.51562,3.09375 -1.00782,0.82031 -2.17969,1.86328 h 7.71094 z m 9.058585,-1.28906 2.73048,0.28125 v 1.00781 h -8.835945 v -1.00781 l 2.71875,-0.28125 v -11.84765 l -2.70703,0.89062 v -0.9961 l 4.42969,-2.60156 h 1.664065 z m 12.91406,-4.53515 q 0,-2.16798 -0.53906,-3.17579 -0.52733,-1.00781 -1.74608,-1.00781 -0.44532,0 -0.97267,0.10547 -0.52733,0.0937 -0.86719,0.29296 v 8.42579 q 0.75,0.1875 1.83986,0.1875 1.16014,0 1.72264,-1.125 0.5625,-1.13672 0.5625,-3.70312 z m -7.51172,-9.79688 -1.125,-0.26954 v -0.76171 h 4.51172 v 4.04296 q 0,1.08985 -0.11718,2.21485 0.46875,-0.38672 1.34765,-0.64453 0.89063,-0.26953 1.73438,-0.26953 2.39062,0 3.49218,1.3125 1.10157,1.3125 1.10157,4.18359 0,2.83594 -1.41797,4.44141 -1.40625,1.60546 -3.97266,1.60546 -1.89844,0 -5.55469,-0.79687 z"
    aria-label="#0b121b" />
  <path
    style="fill:#e3eaf2"
    d="m 192.46875,583.39258 -0.89063,4.81641 h -1.67577 l 0.89062,-4.81641 h -3.16406 l -0.86719,4.81641 h -1.71093 l 0.89062,-4.81641 h -1.83984 v -1.4414 h 2.13281 l 0.62109,-3.36328 h -2.7539 v -1.44141 h 3.02343 l 0.85547,-4.65234 h 1.6875 l -0.86718,4.65234 h 3.16406 l 0.86719,-4.65234 h 1.67578 l -0.86719,4.65234 h 1.82812 v 1.44141 h -2.08593 l -0.59766,3.36328 h 2.68359 v 1.4414 z m -3.9375,-4.80468 -0.62109,3.36328 h 3.16406 l 0.63282,-3.36328 z m 15.28125,8.33203 2.73047,0.28125 v 1.0078 h -8.83593 v -1.0078 l 2.71875,-0.28125 v -11.84766 l -2.70704,0.89062 v -0.99609 l 4.42968,-2.60157 h 1.66407 z m 10.67579,0 2.73046,0.28125 v 1.0078 h -8.83594 v -1.0078 l 2.71875,-0.28125 v -11.84766 l -2.70702,0.89062 v -0.99609 l 4.42968,-2.60157 h 1.66407 z m 10.67577,0 2.73048,0.28125 v 1.0078 h -8.83594 v -1.0078 l 2.71875,-0.28125 v -11.84766 l -2.70703,0.89062 V 574.9668 L 223.5,572.36523 h 1.66407 z m 12.91406,-4.53516 q 0,-2.16797 -0.53906,-3.17579 -0.52735,-1.0078 -1.7461,-1.0078 -0.44531,0 -0.97265,0.10547 -0.52735,0.0937 -0.86719,0.29296 v 8.42579 q 0.75,0.1875 1.83984,0.1875 1.16016,0 1.72266,-1.125 0.5625,-1.13672 0.5625,-3.70313 z m -7.51172,-9.79688 -1.125,-0.26954 v -0.76171 h 4.51172 v 4.04296 q 0,1.08985 -0.11719,2.21485 0.46875,-0.38672 1.34767,-0.64452 0.89062,-0.26953 1.73437,-0.26953 2.39063,0 3.49219,1.3125 1.10156,1.3125 1.10156,4.18358 0,2.83595 -1.41797,4.44142 -1.40625,1.60546 -3.97265,1.60546 -1.89844,0 -5.55469,-0.79688 z m 22.88672,15.62109 h -9.96094 v -2.21484 q 1.00782,-1.07812 1.86328,-1.93359 1.875,-1.85157 2.74219,-2.90625 0.86719,-1.06641 1.26563,-2.20313 0.41015,-1.13672 0.41015,-2.58985 0,-1.27734 -0.62109,-2.0625 -0.6211,-0.78515 -1.65235,-0.78515 -0.72656,0 -1.16015,0.15235 -0.4336,0.15233 -0.79688,0.45702 l -0.5039,2.27344 h -1.01952 v -3.57422 q 0.9375,-0.21094 1.82812,-0.35156 0.90234,-0.15235 1.95702,-0.15235 2.58986,0 3.96094,1.06641 1.38281,1.06641 1.38281,3.03516 0,1.23047 -0.41014,2.23828 -0.41017,0.99609 -1.30079,1.94531 -0.8789,0.94922 -3.51563,3.09375 -1.00781,0.82031 -2.17969,1.86328 h 7.71094 z m 3.42188,-11.22656 h -1.01953 v -4.48828 h 10.04297 v 0.92578 l -6.10547,14.78906 h -2.80078 l 6.6211,-13.10156 h -6.19922 z"
    aria-label="#111b27" />
  <path
    style="fill:#e3eaf2"
    d="m 341.93554,583.04687 -0.89062,4.81642 h -1.67578 l 0.89062,-4.81642 h -3.16406 l -0.86719,4.81642 h -1.71093 l 0.89062,-4.81642 h -1.83984 v -1.44139 h 2.13281 l 0.62109,-3.36328 h -2.7539 v -1.44141 h 3.02343 l 0.85547,-4.65234 h 1.6875 l -0.86718,4.65234 h 3.16406 l 0.86719,-4.65234 h 1.67578 l -0.86719,4.65234 h 1.82812 v 1.44141 h -2.08593 l -0.59766,3.36328 h 2.68359 v 1.44139 z m -3.9375,-4.80467 -0.62109,3.36327 h 3.16406 l 0.63282,-3.36327 z m 18.22266,9.62108 h -9.96094 v -2.21483 q 1.00782,-1.07814 1.86328,-1.93361 1.875,-1.85156 2.74219,-2.90625 0.86719,-1.06639 1.26563,-2.20312 0.41015,-1.13672 0.41015,-2.58985 0,-1.27734 -0.62109,-2.0625 -0.62109,-0.78515 -1.65234,-0.78515 -0.72657,0 -1.16016,0.15234 -0.43359,0.15234 -0.79688,0.45703 l -0.5039,2.27344 h -1.01953 v -3.57422 q 0.9375,-0.21094 1.82812,-0.35156 0.90235,-0.15235 1.95703,-0.15235 2.58985,0 3.96094,1.06641 1.38281,1.06641 1.38281,3.03516 0,1.23047 -0.41015,2.23828 -0.41016,0.99609 -1.30078,1.94531 -0.87891,0.94922 -3.51563,3.09375 -1.00781,0.82031 -2.17969,1.86328 h 7.71094 z m 9.05859,-1.28906 2.73047,0.28125 v 1.00781 h -8.83593 v -1.00781 l 2.71875,-0.28125 v -11.84766 l -2.70704,0.89063 v -0.9961 l 4.42969,-2.60156 h 1.66406 z m 15.15235,-2.98827 q 0,2.14452 -1.53516,3.32811 -1.53515,1.1836 -4.26562,1.1836 -2.17969,0 -4.33594,-0.46875 l -0.14063,-3.8086 h 1.07813 l 0.60937,2.51953 q 1.01954,0.57422 2.13282,0.57422 1.41797,0 2.21484,-0.90233 0.79688,-0.91407 0.79688,-2.54298 0,-1.41797 -0.64454,-2.16797 -0.63281,-0.76172 -2.0625,-0.85547 l -1.35937,-0.082 v -1.41797 l 1.3125,-0.0937 q 1.04297,-0.0703 1.53516,-0.76172 0.5039,-0.70312 0.5039,-2.10937 0,-1.3125 -0.59765,-2.0625 -0.58594,-0.75 -1.67579,-0.75 -0.63281,0 -1.04296,0.19922 -0.39844,0.1875 -0.76172,0.41015 l -0.50391,2.27344 h -1.01953 v -3.57422 q 1.19531,-0.30469 2.0625,-0.39844 0.86719,-0.10547 1.71094,-0.10547 5.28515,0 5.28515,3.86719 0,1.59375 -0.84375,2.57813 -0.84375,0.98437 -2.41406,1.21875 3.96094,0.48047 3.96094,3.94922 z m 11.90625,-3.64454 q 0,8.15625 -5.15625,8.15625 -2.48438,0 -3.75,-2.08594 -1.26563,-2.08594 -1.26563,-6.07031 0,-3.90235 1.26563,-5.96485 1.26562,-2.07422 3.84375,-2.07422 2.48437,0 3.77344,2.05078 1.28906,2.03907 1.28906,5.98829 z m -3.4336,0 q 0,-3.65625 -0.41015,-5.25 -0.41016,-1.60546 -1.28906,-1.60546 -0.86719,0 -1.24219,1.54686 -0.36328,1.54689 -0.36328,5.3086 0,3.82031 0.375,5.40234 0.375,1.58203 1.23047,1.58203 0.86718,0 1.27734,-1.61719 0.42187,-1.62889 0.42187,-5.36718 z m 14.33204,4.8164 v 3.10548 h -3.15235 v -3.10548 h -6.5039 v -1.91015 l 7.07812,-10.78125 h 2.57813 v 10.28906 h 1.57031 v 2.40234 z m -3.15235,-7.05469 q 0,-1.3125 0.11719,-2.48437 l -4.67578,7.13673 h 4.55859 z m 16.34766,5.88283 q 0,2.14452 -1.53516,3.32811 -1.53515,1.1836 -4.26562,1.1836 -2.17969,0 -4.33594,-0.46875 l -0.14063,-3.8086 h 1.07813 l 0.60937,2.51953 q 1.01954,0.57422 2.13282,0.57422 1.41797,0 2.21484,-0.90233 0.79688,-0.91407 0.79688,-2.54298 0,-1.41797 -0.64454,-2.16797 -0.63281,-0.76172 -2.0625,-0.85547 l -1.35937,-0.082 v -1.41797 l 1.3125,-0.0937 q 1.04297,-0.0703 1.53516,-0.76172 0.5039,-0.70312 0.5039,-2.10937 0,-1.3125 -0.59765,-2.0625 -0.58594,-0.75 -1.67579,-0.75 -0.63281,0 -1.04296,0.19922 -0.39844,0.1875 -0.76172,0.41015 l -0.50391,2.27344 h -1.01953 v -3.57422 q 1.19531,-0.30469 2.0625,-0.39844 0.86719,-0.10547 1.71094,-0.10547 5.28515,0 5.28515,3.86719 0,1.59375 -0.84375,2.57813 -0.84375,0.98437 -2.41406,1.21875 3.96094,0.48047 3.96094,3.94922 z"
    aria-label="#213043" />
  <path
    style="fill:#e3eaf2"
    d="m 491.66014,583.39259 -0.89062,4.81641 h -1.67578 l 0.89062,-4.81641 h -3.16406 l -0.86719,4.81641 h -1.71093 l 0.89062,-4.81641 h -1.83984 v -1.4414 h 2.13281 l 0.62109,-3.36328 h -2.7539 v -1.44141 h 3.02343 l 0.85548,-4.65234 h 1.6875 l -0.86719,4.65234 h 3.16407 l 0.86718,-4.65234 h 1.67578 l -0.86719,4.65234 h 1.82812 v 1.44141 h -2.08593 l -0.59766,3.36328 h 2.68359 v 1.4414 z m -3.9375,-4.80468 -0.62109,3.36328 h 3.16406 l 0.63282,-3.36328 z m 18.4336,5.34375 q 0,2.14453 -1.53516,3.32812 -1.53515,1.18359 -4.26562,1.18359 -2.17969,0 -4.33594,-0.46875 l -0.14063,-3.80859 h 1.07813 l 0.60937,2.51953 q 1.01954,0.57422 2.13282,0.57422 1.41797,0 2.21484,-0.90234 0.79688,-0.91407 0.79688,-2.54297 0,-1.41797 -0.64454,-2.16797 -0.63281,-0.76172 -2.0625,-0.85547 l -1.35937,-0.082 v -1.41797 l 1.3125,-0.0937 q 1.04297,-0.0703 1.53516,-0.76172 0.5039,-0.70312 0.5039,-2.10937 0,-1.3125 -0.59765,-2.0625 -0.58594,-0.75 -1.67579,-0.75 -0.63281,0 -1.04296,0.19922 -0.39844,0.1875 -0.76172,0.41015 l -0.50391,2.27344 h -1.01953 v -3.57422 q 1.19531,-0.30469 2.0625,-0.39844 0.86719,-0.10547 1.71094,-0.10547 5.28515,0 5.28515,3.86719 0,1.59375 -0.84375,2.57813 -0.84375,0.98437 -2.41406,1.21875 3.96094,0.48047 3.96094,3.94922 z m 10.875,3.60937 q -0.52735,0.42188 -1.46485,0.65625 -0.92577,0.23438 -1.91015,0.23438 -2.94141,0 -4.40625,-1.41797 -1.45313,-1.41797 -1.45313,-4.33594 0,-1.81641 0.65625,-3.10547 0.66797,-1.30078 1.89844,-1.98047 1.23047,-0.6914 2.85938,-0.6914 1.64062,0 3.57421,0.41015 v 3.25781 h -0.84375 l -0.49218,-1.93359 q -0.39844,-0.29297 -0.78516,-0.41016 -0.38672,-0.11718 -1.01953,-0.11718 -0.69141,0 -1.25391,0.55078 -0.5625,0.55078 -0.8789,1.55859 -0.30469,0.9961 -0.30469,2.39063 0,2.35547 0.72656,3.36328 0.73828,1.00781 2.33203,1.00781 1.61719,0 2.76563,-0.33984 z m 6.22265,-8.625 q 2.78907,0 4.13673,1.14844 1.35937,1.14844 1.35937,3.46875 0,2.36719 -1.47656,3.64453 -1.46485,1.26562 -4.20704,1.26562 -2.17968,0 -4.33593,-0.46875 l -0.14063,-3.80859 h 1.07813 l 0.60937,2.51953 q 0.45703,0.25781 1.125,0.42188 0.66797,0.15234 1.20703,0.15234 2.69532,0 2.69532,-3.60937 0,-1.875 -0.69141,-2.70704 -0.67969,-0.84375 -2.17969,-0.84375 -0.83203,0 -1.52344,0.30469 l -0.36328,0.15235 h -1.17187 v -8.0625 h 8.20312 v 2.61328 h -6.90234 v 4.125 q 1.42969,-0.31641 2.57812,-0.31641 z m 17.34375,9.29297 h -9.96093 v -2.21484 q 1.00781,-1.07813 1.86328,-1.9336 1.875,-1.85156 2.74219,-2.90625 0.86718,-1.0664 1.26562,-2.20312 0.41016,-1.13672 0.41016,-2.58985 0,-1.27734 -0.6211,-2.0625 -0.62109,-0.78515 -1.65234,-0.78515 -0.72656,0 -1.16016,0.15234 -0.43359,0.15234 -0.79687,0.45703 l -0.50391,2.27344 h -1.01953 v -3.57422 q 0.9375,-0.21094 1.82813,-0.35156 0.90234,-0.15235 1.95703,-0.15235 2.58984,0 3.96093,1.06641 1.38282,1.06641 1.38282,3.03516 0,1.23047 -0.41016,2.23828 -0.41016,0.99609 -1.30078,1.94531 -0.87891,0.94922 -3.51563,3.09375 -1.00781,0.82031 -2.17968,1.86328 h 7.71093 z m 12.32813,-4.875 q 0,2.47266 -1.27734,3.79687 -1.27735,1.3125 -3.63281,1.3125 -2.69532,0 -4.13673,-2.05078 -1.42968,-2.05078 -1.42968,-5.9414 0,-2.53125 0.75,-4.3711 0.76172,-1.83984 2.12109,-2.80078 1.35938,-0.96094 3.12891,-0.96094 1.82812,0 3.52734,0.50391 v 3.57422 h -1.01953 l -0.50391,-2.27344 q -0.80859,-0.60937 -1.76953,-0.60937 -1.17187,0 -1.91015,1.5 -0.72656,1.5 -0.85547,4.19531 1.27734,-0.55078 2.53125,-0.55078 2.14453,0 3.30468,1.20703 1.17188,1.20703 1.17188,3.46875 z m -4.95703,3.92578 q 0.85547,0 1.18359,-0.92578 0.32813,-0.92578 0.32813,-2.77734 0,-1.65235 -0.45703,-2.54297 -0.45704,-0.89063 -1.35938,-0.89063 -0.86718,0 -1.76953,0.26953 v 0.0586 q 0,6.80859 2.07422,6.80859 z m 14.25,0.32813 q -0.65625,0.42187 -1.00781,0.5625 -0.35156,0.1289 -0.79688,0.21093 -0.44531,0.082 -0.98437,0.082 -2.4375,0 -3.63281,-1.39453 -1.19532,-1.40625 -1.19532,-4.3125 0,-2.85937 1.27734,-4.34765 1.28907,-1.48828 3.72657,-1.48828 1.27734,0 2.57812,0.3164 -0.0703,-0.38672 -0.0703,-1.8164 v -2.78907 l -1.125,-0.28125 v -0.77343 H 565.5 v 15.59765 l 1.20703,0.28125 v 0.77344 h -4.24219 z m -4.1836,-4.94532 q 0,2.19141 0.55079,3.35157 0.55078,1.14843 1.58203,1.14843 0.9375,0 1.94531,-0.5039 v -8.29688 q -0.91406,-0.24609 -1.85156,-0.24609 -1.05469,0 -1.64063,1.16015 -0.58594,1.14844 -0.58594,3.38672 z"
    aria-label="#3c526d" />
  <path
    style="fill:#e3eaf2"
    d="m 640.61132,583.39259 -0.89062,4.81641 h -1.67578 l 0.89062,-4.81641 h -3.16406 l -0.86719,4.81641 h -1.71093 l 0.89062,-4.81641 h -1.83984 v -1.4414 h 2.13281 l 0.62109,-3.36328 h -2.7539 v -1.44141 h 3.02343 l 0.85547,-4.65234 h 1.6875 l -0.86718,4.65234 h 3.16406 l 0.86719,-4.65234 h 1.67578 l -0.86719,4.65234 h 1.82812 v 1.44141 h -2.08593 l -0.59766,3.36328 h 2.68359 v 1.4414 z m -3.9375,-4.80468 -0.62109,3.36328 h 3.16406 l 0.63282,-3.36328 z m 18.09375,-2.22657 q 0,1.28907 -0.63281,2.20313 -0.63281,0.90234 -1.78125,1.3125 1.34766,0.5039 2.0625,1.55859 0.71485,1.05469 0.71485,2.53125 0,2.22656 -1.28907,3.35156 -1.27734,1.125 -3.98437,1.125 -5.13281,0 -5.13281,-4.47656 0,-1.5 0.72656,-2.55469 0.72656,-1.05468 2.01562,-1.53515 -1.13672,-0.4336 -1.75781,-1.33594 -0.62109,-0.90234 -0.62109,-2.21484 0,-1.92188 1.26562,-3 1.27735,-1.07813 3.59766,-1.07813 2.27344,0 3.53906,1.10156 1.27734,1.08985 1.27734,3.01172 z m -2.96484,7.60547 q 0,-1.80469 -0.46875,-2.625 -0.46875,-0.82031 -1.47656,-0.82031 -0.96094,0 -1.38281,0.79687 -0.42188,0.79688 -0.42188,2.64844 0,1.81641 0.42188,2.55469 0.43359,0.73828 1.38281,0.73828 1.00781,0 1.47656,-0.77344 0.46875,-0.77343 0.46875,-2.51953 z m -0.36328,-7.60547 q 0,-1.53515 -0.38672,-2.22656 -0.38672,-0.70312 -1.17187,-0.70312 -0.75,0 -1.11329,0.6914 -0.35156,0.69141 -0.35156,2.23828 0,1.59375 0.35156,2.25 0.35157,0.65625 1.11329,0.65625 0.80859,0 1.18359,-0.66797 0.375,-0.67968 0.375,-2.23828 z m 13.07812,11.22657 q -0.65625,0.42187 -1.00781,0.5625 -0.35156,0.1289 -0.79687,0.21093 -0.44532,0.082 -0.98438,0.082 -2.4375,0 -3.63281,-1.39453 -1.19531,-1.40625 -1.19531,-4.3125 0,-2.85937 1.27734,-4.34765 1.28906,-1.48828 3.72656,-1.48828 1.27735,0 2.57813,0.3164 -0.0703,-0.38672 -0.0703,-1.8164 v -2.78907 l -1.125,-0.28125 v -0.77343 h 4.51171 v 15.59765 l 1.20704,0.28125 v 0.77344 h -4.24219 z m -4.18359,-4.94532 q 0,2.19141 0.55078,3.35157 0.55078,1.14843 1.58203,1.14843 0.9375,0 1.94532,-0.5039 v -8.29688 q -0.91407,-0.24609 -1.85157,-0.24609 -1.05468,0 -1.64062,1.16015 -0.58594,1.14844 -0.58594,3.38672 z m 15.33984,-5.69531 q 4.13672,0 4.13672,3.04688 v 7.16015 l 1.10157,0.28125 v 0.77344 h -4.05469 l -0.25781,-0.84375 q -0.91407,0.62109 -1.65235,0.84375 -0.73828,0.23437 -1.48828,0.23437 -3.41016,0 -3.41016,-3.28125 0,-1.24218 0.50391,-1.98046 0.50391,-0.75 1.45313,-1.10157 0.94921,-0.36328 2.98828,-0.41015 l 1.42968,-0.0352 v -1.60547 q 0,-1.99219 -1.6289,-1.99219 -0.98438,0 -2.20313,0.60938 l -0.44531,1.37109 h -0.77344 v -2.66015 q 1.76953,-0.26953 2.60157,-0.33985 0.83203,-0.0703 1.69921,-0.0703 z m 0.75,5.73047 -0.98437,0.0352 q -1.13672,0.0469 -1.58203,0.59765 -0.4336,0.55078 -0.4336,1.78125 0,0.9961 0.35157,1.46485 0.35156,0.46875 0.91406,0.46875 0.79687,0 1.73437,-0.41016 z m 12.87891,4.24219 2.73047,0.28125 v 1.00781 h -8.83594 v -1.00781 l 2.71875,-0.28125 v -11.84766 l -2.70703,0.89063 v -0.9961 l 4.42969,-2.60156 h 1.66406 z m 12.91406,-4.53516 q 0,-2.16797 -0.53906,-3.17578 -0.52734,-1.00781 -1.74609,-1.00781 -0.44532,0 -0.97266,0.10547 -0.52734,0.0937 -0.86719,0.29296 v 8.42579 q 0.75,0.1875 1.83985,0.1875 1.16015,0 1.72265,-1.125 0.5625,-1.13672 0.5625,-3.70313 z m -7.51172,-9.79687 -1.125,-0.26954 v -0.76171 h 4.51172 v 4.04296 q 0,1.08985 -0.11718,2.21485 0.46875,-0.38672 1.34765,-0.64453 0.89063,-0.26953 1.73438,-0.26953 2.39062,0 3.49218,1.3125 1.10157,1.3125 1.10157,4.18359 0,2.83594 -1.41797,4.44141 -1.40625,1.60546 -3.97266,1.60546 -1.89844,0 -5.55469,-0.79687 z m 12.57422,4.69921 q 0,-2.39062 1.3711,-3.67968 1.37109,-1.28907 3.80859,-1.28907 2.75391,0 4.01953,1.9336 1.27735,1.93359 1.27735,6.05859 0,2.64844 -0.75,4.46485 -0.73829,1.8164 -2.13282,2.74218 -1.39453,0.92578 -3.35156,0.92578 -1.94531,0 -3.64453,-0.5039 v -3.57422 h 1.01953 l 0.50391,2.27344 q 0.41015,0.29297 0.97265,0.45703 0.57422,0.16406 1.10157,0.16406 1.26562,0 1.96875,-1.42969 0.71484,-1.4414 0.83203,-4.16015 -1.21875,0.43359 -2.42578,0.43359 -2.1211,0 -3.35157,-1.26562 -1.21875,-1.26563 -1.21875,-3.55079 z m 3.44532,0.0469 q 0,3.35156 1.82812,3.35156 0.89063,0 1.75781,-0.21094 v -0.16406 q 0,-3.38672 -0.41015,-5.09765 -0.39844,-1.71094 -1.41797,-1.71094 -1.75781,0 -1.75781,3.83203 z"
    aria-label="#8da1b9" />
  <path
    style="fill:#e3eaf2"
    d="m 791.14453,583.39259 -0.89062,4.81641 h -1.67579 l 0.89063,-4.81641 h -3.16406 l -0.86719,4.81641 h -1.71093 l 0.89062,-4.81641 h -1.83984 v -1.4414 h 2.13281 l 0.62109,-3.36328 h -2.7539 v -1.44141 h 3.02343 l 0.85547,-4.65234 h 1.6875 l -0.86718,4.65234 h 3.16406 l 0.86719,-4.65234 h 1.67578 l -0.86719,4.65234 h 1.82812 v 1.44141 h -2.08593 l -0.59766,3.36328 h 2.68359 v 1.4414 z m -3.9375,-4.80468 -0.62109,3.36328 H 789.75 l 0.63282,-3.36328 z m 15.84375,9 q -0.65625,0.42187 -1.00781,0.5625 -0.35156,0.1289 -0.79688,0.21093 -0.44531,0.082 -0.98437,0.082 -2.4375,0 -3.63281,-1.39453 -1.19532,-1.40625 -1.19532,-4.3125 0,-2.85937 1.27735,-4.34765 1.28906,-1.48828 3.72656,-1.48828 1.27734,0 2.57812,0.3164 -0.0703,-0.38672 -0.0703,-1.8164 v -2.78907 l -1.125,-0.28125 v -0.77343 h 4.51171 v 15.59765 l 1.20704,0.28125 v 0.77344 h -4.2422 z m -4.18359,-4.94532 q 0,2.19141 0.55078,3.35157 0.55078,1.14843 1.58203,1.14843 0.9375,0 1.94531,-0.5039 v -8.29688 q -0.91406,-0.24609 -1.85156,-0.24609 -1.05469,0 -1.64063,1.16015 -0.58593,1.14844 -0.58593,3.38672 z m 20.02734,-2.35547 q 0,8.15625 -5.15625,8.15625 -2.48437,0 -3.75,-2.08593 -1.26562,-2.08594 -1.26562,-6.07032 0,-3.90234 1.26562,-5.96484 1.26563,-2.07422 3.84375,-2.07422 2.48438,0 3.77344,2.05078 1.28906,2.03907 1.28906,5.98828 z m -3.43359,0 q 0,-3.65625 -0.41016,-5.25 -0.41016,-1.60546 -1.28906,-1.60546 -0.86719,0 -1.24219,1.54687 -0.36328,1.54688 -0.36328,5.30859 0,3.82032 0.375,5.40235 0.375,1.58203 1.23047,1.58203 0.86719,0 1.27735,-1.61719 0.42187,-1.6289 0.42187,-5.36719 z m 12.9375,7.30079 q -0.65625,0.42187 -1.00782,0.5625 -0.35155,0.1289 -0.79687,0.21093 -0.44531,0.082 -0.98438,0.082 -2.4375,0 -3.6328,-1.39453 -1.19532,-1.40625 -1.19532,-4.3125 0,-2.85937 1.27735,-4.34765 1.28906,-1.48828 3.72656,-1.48828 1.27734,0 2.57812,0.3164 -0.0703,-0.38672 -0.0703,-1.8164 v -2.78907 l -1.125,-0.28125 v -0.77343 h 4.51172 v 15.59765 l 1.20703,0.28125 v 0.77344 h -4.24219 z m -4.18359,-4.94532 q 0,2.19141 0.55077,3.35157 0.55079,1.14843 1.58204,1.14843 0.9375,0 1.94531,-0.5039 v -8.29688 q -0.91406,-0.24609 -1.85156,-0.24609 -1.05469,0 -1.64063,1.16015 -0.58594,1.14844 -0.58593,3.38672 z m 15.33984,-5.69531 q 4.13672,0 4.13672,3.04688 v 7.16015 l 1.10156,0.28125 v 0.77344 h -4.05469 l -0.25781,-0.84375 q -0.91406,0.62109 -1.65234,0.84375 -0.73828,0.23437 -1.48828,0.23437 -3.41016,0 -3.41016,-3.28125 0,-1.24218 0.50391,-1.98046 0.5039,-0.75 1.45312,-1.10157 0.94922,-0.36328 2.98828,-0.41015 l 1.42969,-0.0352 v -1.60547 q 0,-1.99219 -1.62891,-1.99219 -0.98437,0 -2.20312,0.60938 l -0.44531,1.37109 h -0.77344 v -2.66015 q 1.76953,-0.26953 2.60156,-0.33985 0.83203,-0.0703 1.69922,-0.0703 z m 0.75,5.73047 -0.98437,0.0352 q -1.13673,0.0469 -1.58204,0.59765 -0.43359,0.55078 -0.43359,1.78125 0,0.9961 0.35156,1.46485 0.35157,0.46875 0.91407,0.46875 0.79687,0 1.73437,-0.41016 z m 10.64063,-5.75391 q 2.23827,0 3.23437,1.19532 1.00781,1.19531 1.00781,3.71484 v 0.96094 h -5.77734 v 0.1875 q 0,1.74609 0.28125,2.48437 0.28125,0.73828 0.91406,1.125 0.63281,0.38672 1.73438,0.38672 1.03125,0 2.60156,-0.33984 v 0.90234 q -0.64453,0.38672 -1.67578,0.64453 -1.01953,0.2461 -1.99219,0.2461 -2.70703,0 -4.00781,-1.40625 -1.28906,-1.41797 -1.28906,-4.38282 0,-2.88281 1.23046,-4.30078 1.24219,-1.41797 3.73829,-1.41797 z m -0.12891,1.1836 q -0.70313,0 -1.05469,0.76172 -0.33985,0.76171 -0.33985,2.69531 h 2.5547 q 0,-1.57031 -0.10548,-2.20313 -0.10547,-0.64453 -0.36327,-0.94922 -0.2461,-0.30468 -0.69141,-0.30468 z m 7.38281,-1.125 h -1.01953 v -4.48828 h 10.04297 v 0.92578 l -6.10547,14.78906 h -2.80078 l 6.62109,-13.10156 h -6.19922 z"
    aria-label="#d0dae7" />
  <path
    style="fill:#e3eaf2"
    d="m 945.39257,583.51562 -0.89062,4.81641 h -1.67578 l 0.89062,-4.81641 h -3.16406 l -0.86719,4.81641 h -1.71093 l 0.89062,-4.81641 h -1.83984 v -1.4414 h 2.13281 l 0.62109,-3.36328 h -2.7539 v -1.44141 h 3.02343 l 0.85547,-4.65234 h 1.6875 l -0.86718,4.65234 h 3.16406 l 0.86719,-4.65234 h 1.67578 l -0.86719,4.65234 h 1.82812 v 1.44141 h -2.08593 l -0.59766,3.36328 h 2.68359 v 1.4414 z m -3.9375,-4.80468 -0.62109,3.36328 h 3.16406 l 0.63282,-3.36328 z m 13.04297,-1.66407 q 2.23828,0 3.23438,1.19532 1.00781,1.19531 1.00781,3.71484 v 0.96094 h -5.77734 v 0.1875 q 0,1.74609 0.28125,2.48437 0.28125,0.73828 0.91406,1.125 0.63281,0.38672 1.73437,0.38672 1.03125,0 2.60157,-0.33984 v 0.90234 q -0.64453,0.38672 -1.67578,0.64453 -1.01954,0.2461 -1.99219,0.2461 -2.70703,0 -4.00781,-1.40625 -1.28907,-1.41797 -1.28907,-4.38282 0,-2.88281 1.23047,-4.30078 1.24219,-1.41797 3.73828,-1.41797 z m -0.1289,1.1836 q -0.70313,0 -1.05469,0.76172 -0.33984,0.76171 -0.33984,2.69531 h 2.55468 q 0,-1.57031 -0.10547,-2.20313 -0.10546,-0.64453 -0.36328,-0.94922 -0.24609,-0.30468 -0.6914,-0.30468 z m 16.17187,5.82422 q 0,2.14453 -1.53515,3.32812 -1.53516,1.18359 -4.26563,1.18359 -2.17969,0 -4.33594,-0.46875 l -0.14062,-3.80859 h 1.07812 l 0.60938,2.51953 q 1.01953,0.57422 2.13281,0.57422 1.41797,0 2.21484,-0.90234 0.79688,-0.91406 0.79688,-2.54297 0,-1.41797 -0.64453,-2.16797 -0.63281,-0.76172 -2.0625,-0.85547 l -1.35938,-0.082 v -1.41797 l 1.3125,-0.0937 q 1.04297,-0.0703 1.53516,-0.76172 0.50391,-0.70312 0.50391,-2.10937 0,-1.3125 -0.59766,-2.0625 -0.58594,-0.75 -1.67578,-0.75 -0.63281,0 -1.04297,0.19922 -0.39844,0.1875 -0.76172,0.41015 l -0.50391,2.27344 h -1.01953 v -3.57422 q 1.19532,-0.30469 2.0625,-0.39844 0.86719,-0.10547 1.71094,-0.10547 5.28516,0 5.28516,3.86719 0,1.59375 -0.84375,2.57813 -0.84375,0.98437 -2.41407,1.21875 3.96094,0.48047 3.96094,3.94922 z m 6.60938,-7.00782 q 2.23828,0 3.23437,1.19532 1.00781,1.19531 1.00781,3.71484 v 0.96094 h -5.77734 v 0.1875 q 0,1.74609 0.28125,2.48437 0.28125,0.73828 0.91406,1.125 0.63282,0.38672 1.73438,0.38672 1.03125,0 2.60156,-0.33984 v 0.90234 q -0.64453,0.38672 -1.67578,0.64453 -1.01953,0.2461 -1.99219,0.2461 -2.70703,0 -4.00781,-1.40625 -1.28906,-1.41797 -1.28906,-4.38282 0,-2.88281 1.23047,-4.30078 1.24218,-1.41797 3.73828,-1.41797 z m -0.12891,1.1836 q -0.70312,0 -1.05469,0.76173 -0.33984,0.76171 -0.33984,2.6953 h 2.55469 q 0,-1.5703 -0.10547,-2.20313 -0.10547,-0.64453 -0.36328,-0.94921 -0.2461,-0.30469 -0.69141,-0.30469 z m 11.39063,-1.16016 q 4.13671,0 4.13671,3.04688 v 7.16015 l 1.10157,0.28125 v 0.77344 h -4.05469 l -0.25781,-0.84375 q -0.91407,0.62109 -1.65235,0.84375 -0.73828,0.23437 -1.48828,0.23437 -3.41015,0 -3.41015,-3.28125 0,-1.24218 0.5039,-1.98046 0.50391,-0.75 1.45313,-1.10157 0.94922,-0.36328 2.98828,-0.41015 l 1.42969,-0.0352 v -1.60548 q 0,-1.99219 -1.62891,-1.99219 -0.98438,0 -2.20313,0.60938 l -0.44531,1.37109 h -0.77344 v -2.66015 q 1.76954,-0.26953 2.60157,-0.33985 0.83203,-0.0703 1.69922,-0.0703 z m 0.75,5.73047 -0.98438,0.0352 q -1.13672,0.0469 -1.58203,0.59765 -0.43359,0.55078 -0.43359,1.78125 0,0.9961 0.35156,1.46485 0.35156,0.46875 0.91406,0.46875 0.79688,0 1.73438,-0.41016 z m 6.6914,-4.26562 h -1.66406 v -0.8086 l 1.66406,-0.45702 v -1.18359 q 0,-2.25 1.14844,-3.44533 1.14844,-1.20702 3.29295,-1.20702 1.1602,0 1.9453,0.22266 v 2.625 h -0.75 l -0.3398,-1.27735 q -0.2813,-0.28125 -0.7383,-0.28125 -1.17187,0 -1.17187,2.98829 v 1.60546 h 2.23827 v 1.21875 h -2.23827 v 8.74219 l 1.79297,0.28125 v 0.77344 h -6.375 v -0.77344 l 1.19531,-0.28125 z m 17.12109,9.79687 h -9.9609 v -2.21483 q 1.0078,-1.07814 1.8632,-1.93361 1.875,-1.85156 2.7422,-2.90625 0.8672,-1.06639 1.2657,-2.20312 0.4101,-1.13672 0.4101,-2.58985 0,-1.27734 -0.6211,-2.0625 -0.6211,-0.78515 -1.6523,-0.78515 -0.7266,0 -1.1602,0.15234 -0.4336,0.15234 -0.7969,0.45703 l -0.5039,2.27344 h -1.0195 v -3.57422 q 0.9375,-0.21094 1.8281,-0.35156 0.9024,-0.15235 1.9571,-0.15235 2.5898,0 3.9609,1.06641 1.3828,1.06641 1.3828,3.03516 0,1.23047 -0.4101,2.23828 -0.4102,0.99609 -1.3008,1.94531 -0.8789,0.94922 -3.5156,3.09375 -1.0079,0.82031 -2.1797,1.86328 h 7.7109 z"
    aria-label="#e3eaf2" />
  <path
    style="fill:#e3eaf2"
    d="m 1097.9355,583.51562 -0.8906,4.81642 h -1.6758 l 0.8907,-4.81642 h -3.1641 l -0.8672,4.81642 h -1.7109 l 0.8906,-4.81642 h -1.8398 v -1.44139 h 2.1328 l 0.6211,-3.36328 h -2.7539 v -1.44141 h 3.0234 l 0.8555,-4.65234 h 1.6875 l -0.8672,4.65234 h 3.164 l 0.8672,-4.65234 h 1.6758 l -0.8672,4.65234 h 1.8281 v 1.44141 h -2.0859 l -0.5977,3.36328 h 2.6836 v 1.44139 z m -3.9375,-4.80467 -0.6211,3.36327 h 3.1641 l 0.6328,-3.36327 z m 9.0938,-0.17579 h -1.6641 v -0.8086 l 1.6641,-0.45702 v -1.18359 q 0,-2.25 1.1484,-3.44533 1.1485,-1.20702 3.293,-1.20702 1.1602,0 1.9453,0.22266 v 2.625 h -0.75 l -0.3398,-1.27735 q -0.2813,-0.28125 -0.7383,-0.28125 -1.1719,0 -1.1719,2.98829 v 1.60546 h 2.2383 v 1.21875 h -2.2383 v 8.74219 l 1.793,0.28125 v 0.77344 h -6.375 v -0.77344 l 1.1953,-0.28125 z m 17.2383,1.875 q 0,8.15625 -5.1563,8.15625 -2.4844,0 -3.75,-2.08594 -1.2656,-2.08594 -1.2656,-6.07031 0,-3.90235 1.2656,-5.96485 1.2656,-2.07422 3.8438,-2.07422 2.4843,0 3.7734,2.05078 1.2891,2.03907 1.2891,5.98829 z m -3.4336,0 q 0,-3.65625 -0.4102,-5.25 -0.4101,-1.60546 -1.289,-1.60546 -0.8672,0 -1.2422,1.54686 -0.3633,1.54689 -0.3633,5.3086 0,3.82031 0.375,5.40234 0.375,1.58203 1.2305,1.58203 0.8671,0 1.2773,-1.61719 0.4219,-1.62889 0.4219,-5.36718 z m 6.1875,-1.875 h -1.6641 v -0.8086 l 1.6641,-0.45702 v -1.18359 q 0,-2.25 1.1484,-3.44533 1.1485,-1.20702 3.293,-1.20702 1.1601,0 1.9453,0.22266 v 2.625 h -0.75 l -0.3398,-1.27735 q -0.2813,-0.28125 -0.7383,-0.28125 -1.1719,0 -1.1719,2.98829 v 1.60546 h 2.2383 v 1.21875 h -2.2383 v 8.74219 l 1.793,0.28125 v 0.77344 h -6.375 v -0.77344 l 1.1953,-0.28125 z m 16.1367,6.6914 v 3.10548 h -3.1523 v -3.10548 h -6.504 v -1.91015 l 7.0782,-10.78125 h 2.5781 v 10.28906 h 1.5703 v 2.40234 z m -3.1523,-7.05469 q 0,-1.3125 0.1171,-2.48437 l -4.6757,7.13673 h 4.5586 z m 7.0078,0.36329 h -1.6641 v -0.8086 l 1.6641,-0.45702 v -1.18359 q 0,-2.25 1.1484,-3.44533 1.1484,-1.20702 3.293,-1.20702 1.1601,0 1.9453,0.22266 v 2.625 h -0.75 l -0.3399,-1.27735 q -0.2812,-0.28125 -0.7382,-0.28125 -1.1719,0 -1.1719,2.98829 v 1.60546 h 2.2383 v 1.21875 h -2.2383 v 8.74219 l 1.793,0.28125 v 0.77344 h -6.375 v -0.77344 l 1.1953,-0.28125 z m 16.9922,-2.05079 q 0,1.28908 -0.6329,2.20313 -0.6328,0.90234 -1.7812,1.3125 1.3476,0.50391 2.0625,1.55859 0.7148,1.05469 0.7148,2.53125 0,2.22657 -1.289,3.35157 -1.2774,1.125 -3.9844,1.125 -5.1328,0 -5.1328,-4.47657 0,-1.5 0.7265,-2.55468 0.7266,-1.05469 2.0157,-1.53516 -1.1367,-0.43359 -1.7578,-1.33594 -0.6211,-0.90233 -0.6211,-2.21483 0,-1.92189 1.2656,-3 1.2773,-1.07814 3.5976,-1.07814 2.2735,0 3.5391,1.10157 1.2774,1.08985 1.2774,3.01171 z m -2.9649,7.60547 q 0,-1.80468 -0.4687,-2.625 -0.4688,-0.8203 -1.4766,-0.8203 -0.9609,0 -1.3828,0.79687 -0.4219,0.79688 -0.4219,2.64843 0,1.81642 0.4219,2.5547 0.4336,0.73827 1.3828,0.73827 1.0078,0 1.4766,-0.77344 0.4687,-0.77342 0.4687,-2.51953 z m -0.3633,-7.60547 q 0,-1.53514 -0.3867,-2.22656 -0.3867,-0.70311 -1.1719,-0.70311 -0.75,0 -1.1132,0.69139 -0.3516,0.69141 -0.3516,2.23828 0,1.59375 0.3516,2.25 0.3515,0.65625 1.1132,0.65625 0.8086,0 1.1836,-0.66797 0.375,-0.67968 0.375,-2.23828 z"
    aria-label="#f0f4f8" />
  <path
    style="fill:#e3eaf2"
    d="m 333.02093,129.02082 q -14.04166,0 -21.91666,-7.45833 -7.87499,-7.45833 -7.87499,-20.66666 0,-14.333325 7.49999,-21.749988 7.54166,-7.45833 22.24999,-7.45833 9.70833,0 20.12499,2.791665 l 0.25,13.416661 h -3.74999 l -1.16667,-8.08333 q -5.5,-3.749998 -12.79166,-3.749998 -9.66667,0 -14.125,6.041664 -4.45833,5.999998 -4.45833,18.666656 0,11.70833 4.66667,17.83333 4.66666,6.125 13.58332,6.125 4.70834,0 8.20834,-1.25 3.54166,-1.25 5.54166,-2.95834 l 1.33333,-9.16666 h 3.79167 l -0.25,14.16666 q -3.75,1.45833 -9.75,2.5 -6,1 -11.16666,1 z m 67.08331,-20.62499 q 0,10.54166 -4.54168,15.58333 -4.49998,5.04166 -13.79165,5.04166 -8.99999,0 -13.41666,-5.08333 -4.41667,-5.125 -4.41667,-15.54166 0,-10.374996 4.45833,-15.374994 4.50001,-5.041664 13.70834,-5.041664 9.29166,0 13.62499,5.208331 4.375,5.166664 4.375,15.208327 z m -12.20833,0 q 0,-9.166663 -1.375,-12.666662 -1.33333,-3.541665 -4.66667,-3.541665 -3.20833,0 -4.45833,3.374999 -1.24999,3.374998 -1.24999,12.833328 0,9.625 1.24999,13.04166 1.29167,3.41667 4.45833,3.41667 3.29167,0 4.66667,-3.58334 1.375,-3.62499 1.375,-12.87499 z m 33.54165,-15.958327 2.83333,-1.458333 q 5.83333,-2.999998 10.45833,-2.999998 6.99999,0 9.33333,5.083331 8.54166,-5.083331 14.41666,-5.083331 10.58333,0 10.58333,11.541661 v 24.916657 l 3.91666,1 v 2.75 h -19.45831 v -2.75 l 3.5,-1 v -23.29166 q 0,-3.499996 -1.375,-5.458328 -1.33335,-1.958333 -4.08335,-1.958333 -3.08333,0 -6.66665,1.749999 0.41666,1.75 0.41666,4.041665 v 24.916657 l 3.91666,1 v 2.75 h -19.45832 v -2.75 l 3.5,-1 v -23.29166 q 0,-3.499996 -1.375,-5.458328 -1.33334,-1.958333 -4.08334,-1.958333 -2.74999,0 -6.29166,1.624999 v 29.083322 l 3.58333,1 v 2.75 H 405.6459 v -2.75 l 3.83333,-1 V 92.770836 l -3.83333,-0.999999 v -2.749999 h 15.20832 z m 71.08329,0 2.83334,-1.458333 q 5.83333,-2.999998 10.45833,-2.999998 6.99999,0 9.33333,5.083331 8.54166,-5.083331 14.41666,-5.083331 10.58333,0 10.58333,11.541661 v 24.916657 l 3.91666,1 v 2.75 h -19.45833 v -2.75 l 3.5,-1 v -23.29166 q 0,-3.499996 -1.375,-5.458328 -1.33333,-1.958333 -4.08333,-1.958333 -3.08332,0 -6.66665,1.749999 0.41665,1.75 0.41665,4.041665 v 24.916657 l 3.91668,1 v 2.75 h -19.45833 v -2.75 l 3.5,-1 v -23.29166 q 0,-3.499996 -1.375,-5.458328 -1.33334,-1.958333 -4.08334,-1.958333 -2.75,0 -6.29166,1.624999 v 29.083322 l 3.58333,1 v 2.75 h -19.45833 v -2.75 l 3.83335,-1 V 92.770836 l -3.83335,-0.999999 v -2.749999 h 15.20833 z m 92.41665,15.958327 q 0,10.54166 -4.54166,15.58333 -4.5,5.04166 -13.79166,5.04166 -9,0 -13.41666,-5.08333 -4.41668,-5.125 -4.41668,-15.54166 0,-10.374996 4.45834,-15.374994 4.5,-5.041664 13.70833,-5.041664 9.29165,0 13.62499,5.208331 4.375,5.166664 4.375,15.208327 z m -12.20834,0 q 0,-9.166663 -1.375,-12.666662 -1.33332,-3.541665 -4.66665,-3.541665 -3.20833,0 -4.45833,3.374999 -1.25,3.374998 -1.25,12.833328 0,9.625 1.25,13.04166 1.29166,3.41667 4.45833,3.41667 3.29165,0 4.66665,-3.58334 1.375,-3.62499 1.375,-12.87499 z m 33.54166,-15.958327 2.83333,-1.458333 q 5.83332,-2.999998 10.5,-2.999998 10.83332,0 10.83332,11.541661 v 24.916657 l 3.91667,1 v 2.75 h -19.45833 v -2.75 l 3.49999,-1 v -23.29166 q 0,-3.499996 -1.5,-5.458328 -1.45833,-1.958333 -4.20833,-1.958333 -3.16665,0 -6.33332,1.416666 v 29.291655 l 3.58332,1 v 2.75 h -19.45832 v -2.75 l 3.83333,-1 V 92.770836 l -3.83333,-0.999999 v -2.749999 h 15.20833 z m 81.83329,23.333327 q 0,6.54166 -4.04167,9.91666 -4,3.33333 -11.66666,3.33333 -3.16667,0 -7,-0.70833 -3.79166,-0.66667 -5.75,-1.41667 v -10.66666 h 2.75 l 1.58334,5.5 q 1.45833,1.45833 3.83333,2.45833 2.375,0.95833 4.83333,0.95833 3.625,0 5.375,-1.54166 1.79166,-1.58334 1.79166,-4 0,-2.29167 -1.70833,-3.66667 -1.70833,-1.375 -7.45833,-3.16666 -6.04166,-1.875 -8.58333,-5.125 -2.5,-3.25 -2.5,-7.999997 0,-5.333331 3.95833,-8.499996 3.95833,-3.166665 10.20833,-3.166665 4.29167,0 11.54165,1.208332 v 10.041663 h -2.75 l -1.33332,-4.583332 q -1.20833,-1.208332 -3.41666,-1.958332 -2.16667,-0.791666 -4.125,-0.791666 -3,0 -4.45833,1.249999 -1.41667,1.208333 -1.41667,3.333332 0,2.208332 1.79167,3.625002 1.79166,1.41666 7.37499,3.08333 6.08333,1.875 8.625,4.95833 2.54167,3.04166 2.54167,7.625 z m 20.25001,-29.833324 q 0,2.749999 -0.25,6.499997 l 2.875,-1.458333 q 5.91665,-2.999998 10.625,-2.999998 10.83332,0 10.83332,11.541661 v 24.916657 l 3.91667,1 v 2.75 h -19.45833 v -2.75 l 3.5,-1 v -23.29166 q 0,-3.499996 -1.5,-5.458328 -1.45833,-1.958333 -4.20833,-1.958333 -3.16666,0 -6.33333,1.416666 v 29.291655 l 3.58333,1 v 2.75 h -19.45832 v -2.75 l 3.83332,-1 V 72.729178 l -4,-1 v -2.749999 h 16.04167 z m 52.04164,2.208332 q 14.70833,0 14.70833,10.833329 v 25.458323 l 3.91666,1 v 2.75 H 764.6041 l -0.91667,-3 q -3.25,2.20833 -5.875,3 -2.625,0.83333 -5.29166,0.83333 -12.125,0 -12.125,-11.66666 0,-4.41667 1.79167,-7.04166 1.79167,-2.66667 5.16666,-3.91667 3.375,-1.29167 10.625,-1.45833 l 5.08333,-0.125 v -5.708333 q 0,-7.08333 -5.79166,-7.08333 -3.5,0 -7.83333,2.166665 L 747.8541,99.0625 h -2.74999 v -9.458329 q 6.29165,-0.958333 9.24999,-1.208333 2.95833,-0.25 6.04166,-0.25 z m 2.66667,20.374992 -3.5,0.125 q -4.04167,0.16667 -5.62499,2.125 -1.54168,1.95833 -1.54168,6.33333 0,3.54167 1.25,5.20833 1.25,1.66667 3.25,1.66667 2.83333,0 6.16666,-1.45834 z m 47.79165,17.45833 q -2.33333,1.49999 -3.58333,1.99999 -1.25,0.45834 -2.83334,0.75 -1.58333,0.29167 -3.5,0.29167 -8.66666,0 -12.91666,-4.95833 -4.25,-5 -4.25,-15.33333 0,-10.16666 4.54167,-15.458324 4.58333,-5.291664 13.24999,-5.291664 4.54167,0 9.16667,1.124999 -0.25,-1.374999 -0.25,-6.458331 v -9.916662 l -4,-1 v -2.749999 h 16.04166 v 55.458311 l 4.29166,1 v 2.75 h -15.08332 z m -14.875,-17.58333 q 0,7.79166 1.95834,11.91666 1.95833,4.08333 5.625,4.08333 3.33333,0 6.91666,-1.79166 V 93.104169 q -3.25,-0.874999 -6.58333,-0.874999 -3.75,0 -5.83334,4.124998 -2.08333,4.083332 -2.08333,12.041662 z m 52.37498,-20.333325 q 7.95834,0 11.5,4.249998 3.58334,4.249998 3.58334,13.208327 v 3.41667 h -20.54166 v 0.66666 q 0,6.20833 1,8.83333 1,2.625 3.25,4 2.25,1.375 6.16666,1.375 3.66666,0 9.25,-1.20833 v 3.20833 q -2.29167,1.375 -5.95834,2.29167 -3.625,0.87499 -7.08332,0.87499 -9.625,0 -14.25,-4.99999 -4.58334,-5.04167 -4.58334,-15.58333 0,-10.249996 4.375,-15.291661 4.41666,-5.041664 13.29166,-5.041664 z m -0.45832,4.208331 q -2.5,0 -3.75,2.708333 -1.20834,2.708332 -1.20834,9.583331 h 9.08332 q 0,-5.583333 -0.375,-7.833332 -0.37499,-2.291666 -1.29166,-3.374999 -0.875,-1.083333 -2.45832,-1.083333 z m 48.87499,23.499994 q 0,6.54166 -4.04167,9.91666 -4,3.33333 -11.66665,3.33333 -3.16667,0 -7,-0.70833 -3.79167,-0.66667 -5.75,-1.41667 v -10.66666 h 2.75 l 1.58333,5.5 q 1.45833,1.45833 3.83333,2.45833 2.375,0.95833 4.83334,0.95833 3.62499,0 5.37499,-1.54166 1.79167,-1.58334 1.79167,-4 0,-2.29167 -1.70833,-3.66667 -1.70834,-1.375 -7.45833,-3.16666 -6.04167,-1.875 -8.58334,-5.125 -2.5,-3.25 -2.5,-7.999997 0,-5.333331 3.95834,-8.499996 3.95833,-3.166665 10.20833,-3.166665 4.29166,0 11.54166,1.208332 v 10.041663 h -2.75 l -1.33334,-4.583332 q -1.20832,-1.208332 -3.41666,-1.958332 -2.16666,-0.791666 -4.125,-0.791666 -2.99999,0 -4.45834,1.249999 -1.41665,1.208333 -1.41665,3.333332 0,2.208332 1.79165,3.625002 1.79168,1.41666 7.375,3.08333 6.08334,1.875 8.625,4.95833 2.54167,3.04166 2.54167,7.625 z" />
</svg>
