<svg
  width="1200"
  height="630"
  viewBox="0 0 1200 630"
  xmlns="http://www.w3.org/2000/svg">
  <path
    style="fill:#111b27"
    d="M 0,0 H 1200 V 198 H 0 Z" />
  <path
    style="fill:#111b27"
    d="m 0,202 h 1200 v 20 H 0 Z" />
  <path
    style="fill:#111b27"
    d="M 0,530 H 1200 V 630 H 0 Z" />
  <path
    style="fill:#e3eaf2"
    d="m 325.89599,129.02082 q -14.04166,0 -21.91666,-7.45833 -7.875,-7.45833 -7.875,-20.66666 0,-14.333328 7.5,-21.749991 7.54166,-7.458331 22.24999,-7.458331 9.70833,0 20.12499,2.791666 l 0.25,13.416661 h -3.75 l -1.16666,-8.08333 q -5.5,-3.749999 -12.79166,-3.749999 -9.66667,0 -14.125,6.041665 -4.45833,5.999997 -4.45833,18.666659 0,11.70833 4.66667,17.83333 4.66666,6.12499 13.58332,6.12499 4.70834,0 8.20833,-1.25 3.54167,-1.25 5.54167,-2.95833 l 1.33333,-9.16666 h 3.79167 l -0.25,14.16666 q -3.75,1.45833 -9.75,2.5 -6,1 -11.16666,1 z m 67.0833,-20.62499 q 0,10.54166 -4.54166,15.58332 -4.5,5.04167 -13.79166,5.04167 -9,0 -13.41666,-5.08333 -4.41667,-5.125 -4.41667,-15.54166 0,-10.374999 4.45833,-15.374997 4.5,-5.041665 13.70833,-5.041665 9.29166,0 13.62499,5.208331 4.375,5.166665 4.375,15.208331 z m -12.20833,0 q 0,-9.166667 -1.375,-12.666665 -1.33333,-3.541665 -4.66666,-3.541665 -3.20833,0 -4.45833,3.374998 -1.25,3.374999 -1.25,12.833332 0,9.62499 1.25,13.04166 1.29166,3.41666 4.45833,3.41666 3.29167,0 4.66666,-3.58333 1.375,-3.625 1.375,-12.87499 z m 33.54166,-15.95833 2.83333,-1.458333 q 5.83333,-2.999999 10.45833,-2.999999 7,0 9.33333,5.083331 8.54166,-5.083331 14.41666,-5.083331 10.58333,0 10.58333,11.541662 v 24.91666 l 3.91667,1 v 2.74999 h -19.45833 v -2.74999 l 3.5,-1 v -23.29166 q 0,-3.499999 -1.375,-5.458332 -1.33333,-1.958332 -4.08333,-1.958332 -3.08333,0 -6.66667,1.749999 0.41667,1.749999 0.41667,4.041665 v 24.91666 l 3.91667,1 v 2.74999 h -19.45833 v -2.74999 l 3.5,-1 v -23.29166 q 0,-3.499999 -1.375,-5.458332 -1.33333,-1.958332 -4.08333,-1.958332 -2.75,0 -6.29167,1.624999 v 29.083325 l 3.58334,1 v 2.74999 h -19.45833 v -2.74999 l 3.83333,-1 V 92.770833 l -3.83333,-1 v -2.749999 h 15.20833 z m 71.0833,0 2.83333,-1.458333 q 5.83333,-2.999999 10.45833,-2.999999 7,0 9.33333,5.083331 8.54166,-5.083331 14.41666,-5.083331 10.58333,0 10.58333,11.541662 v 24.91666 l 3.91666,1 v 2.74999 h -19.45832 v -2.74999 l 3.5,-1 v -23.29166 q 0,-3.499999 -1.375,-5.458332 -1.33334,-1.958332 -4.08333,-1.958332 -3.08334,0 -6.66667,1.749999 0.41667,1.749999 0.41667,4.041665 v 24.91666 l 3.91666,1 v 2.74999 h -19.45832 v -2.74999 l 3.5,-1 v -23.29166 q 0,-3.499999 -1.375,-5.458332 -1.33334,-1.958332 -4.08333,-1.958332 -2.75,0 -6.29167,1.624999 v 29.083325 l 3.58333,1 v 2.74999 h -19.45832 v -2.74999 l 3.83333,-1 V 92.770833 l -3.83333,-1 v -2.749999 h 15.20833 z m 92.41664,15.95833 q 0,10.54166 -4.54167,15.58332 -4.5,5.04167 -13.79166,5.04167 -9,0 -13.41666,-5.08333 -4.41667,-5.125 -4.41667,-15.54166 0,-10.374999 4.45834,-15.374997 4.49999,-5.041665 13.70832,-5.041665 9.29167,0 13.625,5.208331 4.375,5.166665 4.375,15.208331 z m -12.20833,0 q 0,-9.166667 -1.375,-12.666665 -1.33333,-3.541665 -4.66667,-3.541665 -3.20833,0 -4.45833,3.374998 -1.25,3.374999 -1.25,12.833332 0,9.62499 1.25,13.04166 1.29167,3.41666 4.45833,3.41666 3.29167,0 4.66667,-3.58333 1.375,-3.625 1.375,-12.87499 z m 33.54164,-15.95833 2.83333,-1.458333 q 5.83334,-2.999999 10.5,-2.999999 10.83333,0 10.83333,11.541662 v 24.91666 l 3.91666,1 v 2.74999 h -19.45832 v -2.74999 l 3.5,-1 v -23.29166 q 0,-3.499999 -1.5,-5.458332 -1.45833,-1.958332 -4.20833,-1.958332 -3.16667,0 -6.33333,1.416666 v 29.291658 l 3.58333,1 v 2.74999 h -19.45833 v -2.74999 l 3.83333,-1 V 92.770833 l -3.83333,-1 v -2.749999 h 15.20833 z m 55.24997,18.62499 h 3.66666 l 1.875,8.95833 q 1.75,2.04167 5.29167,3.41667 3.54166,1.375 7.33333,1.375 11.95832,0 11.95832,-9.83333 0,-3.08334 -2.29166,-5.20833 -2.25,-2.125 -7.125,-3.79167 -7.16666,-2.375 -10.33333,-3.83333 -3.125,-1.5 -5.29166,-3.5 -2.16667,-1.999999 -3.45833,-4.833331 -1.29167,-2.874999 -1.29167,-7.041664 0,-7.374997 5,-11.208328 5.04166,-3.874999 14.70833,-3.874999 6.99999,0 15.49999,1.791666 v 13.291661 h -3.70833 l -1.875,-7.666663 q -4.25,-3.083332 -9.91666,-3.083332 -5.125,0 -7.875,1.916666 -2.75,1.874999 -2.75,5.791664 0,2.791665 2.29167,4.791665 2.29166,1.958332 7.16666,3.499998 9.54166,3.124999 13.08333,5.458331 3.58333,2.291666 5.45833,5.708336 1.875,3.41666 1.875,8.04166 0,17.79166 -20.95833,17.79166 -4.79166,0 -9.79166,-0.83334 -4.95833,-0.79166 -8.54166,-2.12499 z m 61.0833,-25.124988 q 0,2.749999 -0.25,6.499998 l 2.875,-1.458333 q 5.91667,-2.999999 10.625,-2.999999 10.83333,0 10.83333,11.541662 v 24.91666 l 3.91666,1 v 2.74999 h -19.45832 v -2.74999 l 3.5,-1 v -23.29166 q 0,-3.499999 -1.5,-5.458332 -1.45834,-1.958332 -4.20833,-1.958332 -3.16667,0 -6.33334,1.416666 v 29.291658 l 3.58334,1 v 2.74999 h -19.45833 v -2.74999 l 3.83333,-1 V 72.729175 l -4,-1 v -2.749999 h 16.04166 z m 52.04165,2.208333 q 14.70833,0 14.70833,10.833329 v 25.458326 l 3.91666,1 v 2.74999 h -14.41666 l -0.91667,-2.99999 q -3.24999,2.20833 -5.87499,2.99999 -2.625,0.83334 -5.29167,0.83334 -12.12499,0 -12.12499,-11.66666 0,-4.41667 1.79166,-7.04167 1.79167,-2.66666 5.16667,-3.91666 3.375,-1.29167 10.62499,-1.45834 l 5.08333,-0.125 v -5.708326 q 0,-7.083331 -5.79166,-7.083331 -3.5,0 -7.83333,2.166666 l -1.58333,4.874998 h -2.75 v -9.458329 q 6.29166,-0.958333 9.25,-1.208333 2.95833,-0.25 6.04166,-0.25 z m 2.66666,20.374995 -3.49999,0.125 q -4.04167,0.16666 -5.625,2.125 -1.54167,1.95833 -1.54167,6.33333 0,3.54166 1.25,5.20833 1.25,1.66666 3.25,1.66666 2.83333,0 6.16666,-1.45833 z m 47.79166,17.45832 q -2.33333,1.5 -3.58333,2 -1.25,0.45833 -2.83333,0.75 -1.58334,0.29167 -3.5,0.29167 -8.66667,0 -12.91666,-4.95833 -4.25,-5 -4.25,-15.33333 0,-10.166663 4.54166,-15.458327 4.58333,-5.291665 13.25,-5.291665 4.54166,0 9.16666,1.125 -0.25,-1.375 -0.25,-6.458331 v -9.916662 l -4,-1 v -2.749999 h 16.04166 v 55.458314 l 4.29167,1 v 2.74999 h -15.08333 z m -14.87499,-17.58332 q 0,7.79166 1.95833,11.91666 1.95833,4.08333 5.625,4.08333 3.33333,0 6.91666,-1.79167 V 93.104166 q -3.25,-0.875 -6.58333,-0.875 -3.75,0 -5.83333,4.124999 -2.08333,4.083335 -2.08333,12.041665 z m 52.375,-20.333329 q 7.95833,0 11.5,4.249999 3.58333,4.249998 3.58333,13.20833 v 3.41666 h -20.54166 v 0.66667 q 0,6.20833 1,8.83333 1,2.625 3.25,4 2.25,1.375 6.16666,1.375 3.66667,0 9.25,-1.20834 v 3.20834 q -2.29166,1.375 -5.95833,2.29166 -3.625,0.875 -7.08333,0.875 -9.625,0 -14.24999,-5 -4.58334,-5.04166 -4.58334,-15.58332 0,-10.249999 4.375,-15.291664 4.41667,-5.041665 13.29166,-5.041665 z m -0.45833,4.208332 q -2.5,0 -3.75,2.708332 -1.20833,2.708332 -1.20833,9.583325 h 9.08333 q 0,-5.583326 -0.375,-7.833325 -0.375,-2.291666 -1.29167,-3.374999 -0.875,-1.083333 -2.45833,-1.083333 z m 48.87493,23.499987 q 0,6.54167 -4.04166,9.91667 -4,3.33333 -11.66666,3.33333 -3.16667,0 -7,-0.70834 -3.79166,-0.66666 -5.75,-1.41666 v -10.66666 h 2.75 l 1.58333,5.49999 q 1.45834,1.45834 3.83334,2.45834 2.375,0.95833 4.83333,0.95833 3.625,0 5.375,-1.54167 1.79166,-1.58333 1.79166,-4 0,-2.29166 -1.70833,-3.66666 -1.70833,-1.375 -7.45833,-3.16667 -6.04167,-1.87499 -8.58333,-5.12499 -2.5,-3.25 -2.5,-8 0,-5.333331 3.95833,-8.499996 3.95833,-3.166666 10.20833,-3.166666 4.29167,0 11.54166,1.208333 v 10.041662 h -2.75 l -1.33333,-4.583331 q -1.20833,-1.208333 -3.41666,-1.958332 -2.16667,-0.791667 -4.125,-0.791667 -3,0 -4.45833,1.25 -1.41667,1.208333 -1.41667,3.333332 0,2.208332 1.79167,3.624995 1.79166,1.41667 7.37499,3.08334 6.08333,1.87499 8.625,4.95833 2.54166,3.04166 2.54166,7.62499 z"
    aria-label="Common Shades" />
  <path
    style="fill:#f0f4f8"
    d="M 0,226 H 150 V 526 H 0 Z" />
  <path
    style="fill:#e3eaf2"
    d="M 150,226 H 300 V 526 H 150 Z" />
  <path
    style="fill:#d0dae7"
    d="M 300,226 H 450 V 526 H 300 Z" />
  <path
    style="fill:#8da1b9"
    d="M 450,226 H 600 V 526 H 450 Z" />
  <path
    style="fill:#3c526d"
    d="M 600,226 H 750 V 526 H 600 Z" />
  <path
    style="fill:#213043"
    d="M 750,226 H 900 V 526 H 750 Z" />
  <path
    style="fill:#111b27"
    d="m 900,226 h 150 V 526 H 900 Z" />
  <path
    style="fill:#0b121b"
    d="m 1050,226 h 150 v 300 h -150 z" />
  <path
    d="m 47.935547,583.51562 -0.890625,4.81641 h -1.675781 l 0.890625,-4.81641 h -3.164063 l -0.867187,4.81641 h -1.710938 l 0.890625,-4.81641 h -1.839844 v -1.4414 h 2.132813 l 0.621094,-3.36328 h -2.753907 v -1.44141 h 3.023438 l 0.855469,-4.65234 h 1.6875 l -0.867188,4.65234 h 3.164063 l 0.867187,-4.65234 h 1.675781 l -0.867187,4.65234 h 1.828125 v 1.44141 h -2.085938 l -0.597656,3.36328 h 2.683594 v 1.4414 z m -3.9375,-4.80468 -0.621094,3.36328 h 3.164063 l 0.632812,-3.36328 z m 9.09375,-0.17578 h -1.664063 v -0.8086 l 1.664063,-0.45703 v -1.18359 q 0,-2.25 1.148437,-3.44532 1.148438,-1.20703 3.292969,-1.20703 1.160156,0 1.945313,0.22266 v 2.625 h -0.75 l -0.339844,-1.27734 q -0.28125,-0.28125 -0.738281,-0.28125 -1.171875,0 -1.171875,2.98828 v 1.60547 h 2.238281 v 1.21875 h -2.238281 v 8.74218 l 1.792968,0.28125 v 0.77344 h -6.375 v -0.77344 l 1.195313,-0.28125 z m 17.238281,1.875 q 0,8.15625 -5.15625,8.15625 -2.484375,0 -3.75,-2.08594 -1.265625,-2.08594 -1.265625,-6.07031 0,-3.90235 1.265625,-5.96485 1.265625,-2.07422 3.84375,-2.07422 2.484375,0 3.773438,2.05078 1.289062,2.03907 1.289062,5.98829 z m -3.433594,0 q 0,-3.65625 -0.410156,-5.25 -0.410156,-1.60547 -1.289062,-1.60547 -0.867188,0 -1.242188,1.54687 -0.363281,1.54688 -0.363281,5.3086 0,3.82031 0.375,5.40234 0.375,1.58203 1.230469,1.58203 0.867187,0 1.277343,-1.61719 0.421875,-1.6289 0.421875,-5.36718 z m 6.1875,-1.875 h -1.664062 v -0.8086 l 1.664062,-0.45703 v -1.18359 q 0,-2.25 1.148438,-3.44532 1.148437,-1.20703 3.292969,-1.20703 1.160156,0 1.945312,0.22266 v 2.625 h -0.75 l -0.339844,-1.27734 q -0.28125,-0.28125 -0.738281,-0.28125 -1.171875,0 -1.171875,2.98828 v 1.60547 h 2.238281 v 1.21875 h -2.238281 v 8.74218 l 1.792969,0.28125 v 0.77344 h -6.375 v -0.77344 l 1.195312,-0.28125 z m 16.136719,6.6914 v 3.10547 h -3.152344 v -3.10547 h -6.503906 v -1.91015 l 7.078125,-10.78125 h 2.578125 v 10.28906 h 1.570313 v 2.40234 z m -3.152344,-7.05469 q 0,-1.3125 0.117188,-2.48437 l -4.675781,7.13672 h 4.558593 z m 7.007813,0.36329 h -1.664063 v -0.8086 l 1.664063,-0.45703 v -1.18359 q 0,-2.25 1.148437,-3.44532 1.148438,-1.20703 3.292969,-1.20703 1.160156,0 1.945313,0.22266 v 2.625 h -0.75 l -0.339844,-1.27734 q -0.28125,-0.28125 -0.738281,-0.28125 -1.171875,0 -1.171875,2.98828 v 1.60547 h 2.238281 v 1.21875 h -2.238281 v 8.74218 l 1.792968,0.28125 v 0.77344 h -6.375 v -0.77344 l 1.195313,-0.28125 z m 16.992188,-2.05079 q 0,1.28907 -0.63281,2.20313 -0.63282,0.90234 -1.78125,1.3125 1.34765,0.50391 2.0625,1.55859 0.71484,1.05469 0.71484,2.53125 0,2.22657 -1.28906,3.35157 -1.27735,1.125 -3.98438,1.125 -5.13281,0 -5.13281,-4.47657 0,-1.5 0.72656,-2.55468 0.72657,-1.05469 2.01563,-1.53516 -1.13672,-0.43359 -1.75781,-1.33594 -0.6211,-0.90234 -0.6211,-2.21484 0,-1.92188 1.26563,-3 1.27734,-1.07813 3.59765,-1.07813 2.27344,0 3.53907,1.10157 1.27734,1.08984 1.27734,3.01171 z m -2.96484,7.60547 q 0,-1.80468 -0.46875,-2.625 -0.46875,-0.82031 -1.47657,-0.82031 -0.96093,0 -1.38281,0.79688 -0.42187,0.79687 -0.42187,2.64843 0,1.81641 0.42187,2.55469 0.43359,0.73828 1.38281,0.73828 1.00782,0 1.47657,-0.77344 0.46875,-0.77343 0.46875,-2.51953 z m -0.36329,-7.60547 q 0,-1.53515 -0.38671,-2.22656 -0.38672,-0.70312 -1.17188,-0.70312 -0.75,0 -1.11328,0.6914 -0.35156,0.69141 -0.35156,2.23828 0,1.59375 0.35156,2.25 0.35156,0.65625 1.11328,0.65625 0.80859,0 1.18359,-0.66796 0.375,-0.67969 0.375,-2.23829 z"
    style="fill:#e3eaf2"
    aria-label="#f0f4f8" />
  <path
    d="m 195.39258,583.51562 -0.89063,4.81641 h -1.67578 l 0.89063,-4.81641 h -3.16407 l -0.86718,4.81641 h -1.71094 l 0.89062,-4.81641 h -1.83984 v -1.4414 h 2.13281 l 0.6211,-3.36328 h -2.75391 v -1.44141 h 3.02344 l 0.85547,-4.65234 h 1.6875 l -0.86719,4.65234 h 3.16406 l 0.86719,-4.65234 h 1.67578 l -0.86719,4.65234 h 1.82813 v 1.44141 h -2.08594 l -0.59766,3.36328 h 2.6836 v 1.4414 z m -3.9375,-4.80468 -0.6211,3.36328 h 3.16407 l 0.63281,-3.36328 z m 13.04297,-1.66407 q 2.23828,0 3.23437,1.19532 1.00781,1.19531 1.00781,3.71484 v 0.96094 h -5.77734 v 0.1875 q 0,1.74609 0.28125,2.48437 0.28125,0.73828 0.91406,1.125 0.63282,0.38672 1.73438,0.38672 1.03125,0 2.60156,-0.33984 v 0.90234 q -0.64453,0.38672 -1.67578,0.64453 -1.01953,0.2461 -1.99219,0.2461 -2.70703,0 -4.00781,-1.40625 -1.28906,-1.41797 -1.28906,-4.38282 0,-2.88281 1.23047,-4.30078 1.24218,-1.41797 3.73828,-1.41797 z m -0.12891,1.1836 q -0.70312,0 -1.05469,0.76172 -0.33984,0.76172 -0.33984,2.69531 h 2.55469 q 0,-1.57031 -0.10547,-2.20313 -0.10547,-0.64453 -0.36328,-0.94921 -0.2461,-0.30469 -0.69141,-0.30469 z m 16.17188,5.82422 q 0,2.14453 -1.53516,3.32812 -1.53516,1.1836 -4.26563,1.1836 -2.17968,0 -4.33593,-0.46875 l -0.14063,-3.8086 h 1.07813 l 0.60937,2.51953 q 1.01953,0.57422 2.13281,0.57422 1.41797,0 2.21485,-0.90234 0.79687,-0.91406 0.79687,-2.54297 0,-1.41797 -0.64453,-2.16797 -0.63281,-0.76172 -2.0625,-0.85547 l -1.35937,-0.082 v -1.41797 l 1.3125,-0.0937 q 1.04297,-0.0703 1.53515,-0.76172 0.50391,-0.70312 0.50391,-2.10937 0,-1.3125 -0.59766,-2.0625 -0.58593,-0.75 -1.67578,-0.75 -0.63281,0 -1.04297,0.19922 -0.39843,0.1875 -0.76172,0.41015 l -0.5039,2.27344 h -1.01953 v -3.57422 q 1.19531,-0.30469 2.0625,-0.39844 0.86718,-0.10546 1.71093,-0.10546 5.28516,0 5.28516,3.86718 0,1.59375 -0.84375,2.57813 -0.84375,0.98437 -2.41406,1.21875 3.96094,0.48047 3.96094,3.94922 z m 6.60937,-7.00782 q 2.23828,0 3.23438,1.19532 1.00781,1.19531 1.00781,3.71484 v 0.96094 h -5.77735 v 0.1875 q 0,1.74609 0.28125,2.48437 0.28125,0.73828 0.91407,1.125 0.63281,0.38672 1.73437,0.38672 1.03125,0 2.60156,-0.33984 v 0.90234 q -0.64453,0.38672 -1.67578,0.64453 -1.01953,0.2461 -1.99218,0.2461 -2.70704,0 -4.00782,-1.40625 -1.28906,-1.41797 -1.28906,-4.38282 0,-2.88281 1.23047,-4.30078 1.24219,-1.41797 3.73828,-1.41797 z m -0.12891,1.1836 q -0.70312,0 -1.05468,0.76172 -0.33985,0.76172 -0.33985,2.69531 h 2.55469 q 0,-1.57031 -0.10547,-2.20313 -0.10547,-0.64453 -0.36328,-0.94921 -0.24609,-0.30469 -0.69141,-0.30469 z m 11.39063,-1.16016 q 4.13672,0 4.13672,3.04688 v 7.16015 l 1.10156,0.28125 v 0.77344 h -4.05469 l -0.25781,-0.84375 q -0.91406,0.62109 -1.65234,0.84375 -0.73828,0.23438 -1.48828,0.23438 -3.41016,0 -3.41016,-3.28125 0,-1.24219 0.50391,-1.98047 0.5039,-0.75 1.45312,-1.10157 0.94922,-0.36328 2.98828,-0.41015 l 1.42969,-0.0352 v -1.60547 q 0,-1.99218 -1.62891,-1.99218 -0.98437,0 -2.20312,0.60937 l -0.44531,1.37109 h -0.77344 v -2.66015 q 1.76953,-0.26953 2.60156,-0.33985 0.83203,-0.0703 1.69922,-0.0703 z m 0.75,5.73047 -0.98438,0.0352 q -1.13671,0.0469 -1.58203,0.59765 -0.43359,0.55078 -0.43359,1.78125 0,0.9961 0.35156,1.46485 0.35156,0.46875 0.91406,0.46875 0.79688,0 1.73438,-0.41016 z m 6.69141,-4.26562 h -1.66407 v -0.8086 l 1.66407,-0.45703 v -1.18359 q 0,-2.25 1.14843,-3.44532 1.14844,-1.20703 3.29297,-1.20703 1.16016,0 1.94531,0.22266 v 2.625 h -0.75 l -0.33984,-1.27734 q -0.28125,-0.28125 -0.73828,-0.28125 -1.17188,0 -1.17188,2.98828 v 1.60547 h 2.23829 v 1.21875 h -2.23829 v 8.74218 l 1.79297,0.28125 v 0.77344 h -6.375 v -0.77344 l 1.19532,-0.28125 z m 17.12109,9.79687 h -9.96094 v -2.21484 q 1.00781,-1.07813 1.86328,-1.9336 1.875,-1.85156 2.74219,-2.90625 0.86719,-1.0664 1.26563,-2.20312 0.41015,-1.13672 0.41015,-2.58985 0,-1.27734 -0.62109,-2.0625 -0.6211,-0.78515 -1.65235,-0.78515 -0.72656,0 -1.16015,0.15234 -0.4336,0.15235 -0.79688,0.45703 l -0.5039,2.27344 h -1.01953 v -3.57422 q 0.9375,-0.21094 1.82812,-0.35156 0.90234,-0.15234 1.95703,-0.15234 2.58985,0 3.96094,1.0664 1.38281,1.06641 1.38281,3.03516 0,1.23047 -0.41015,2.23828 -0.41016,0.99609 -1.30079,1.94531 -0.8789,0.94922 -3.51562,3.09375 -1.00781,0.82031 -2.17969,1.86328 h 7.71094 z"
    style="fill:#e3eaf2"
    aria-label="#e3eaf2" />
  <path
    d="m 341.14453,583.39258 -0.89062,4.8164 h -1.67579 l 0.89063,-4.8164 h -3.16406 l -0.86719,4.8164 h -1.71094 l 0.89063,-4.8164 h -1.83985 v -1.44141 h 2.13282 l 0.62109,-3.36328 h -2.75391 v -1.44141 h 3.02344 l 0.85547,-4.65234 h 1.6875 l -0.86719,4.65234 h 3.16406 l 0.86719,-4.65234 h 1.67578 l -0.86718,4.65234 h 1.82812 v 1.44141 h -2.08594 l -0.59765,3.36328 h 2.68359 v 1.44141 z m -3.9375,-4.80469 -0.62109,3.36328 H 339.75 l 0.63281,-3.36328 z m 15.84375,9 q -0.65625,0.42188 -1.00781,0.5625 -0.35156,0.12891 -0.79688,0.21094 -0.44531,0.082 -0.98437,0.082 -2.4375,0 -3.63281,-1.39453 -1.19532,-1.40625 -1.19532,-4.3125 0,-2.85938 1.27735,-4.34766 1.28906,-1.48828 3.72656,-1.48828 1.27734,0 2.57812,0.31641 -0.0703,-0.38672 -0.0703,-1.81641 v -2.78906 l -1.125,-0.28125 v -0.77344 h 4.51172 v 15.59766 l 1.20703,0.28125 v 0.77343 h -4.24219 z m -4.18359,-4.94531 q 0,2.1914 0.55078,3.35156 0.55078,1.14844 1.58203,1.14844 0.9375,0 1.94531,-0.50391 v -8.29687 q -0.91406,-0.2461 -1.85156,-0.2461 -1.05469,0 -1.64063,1.16016 -0.58593,1.14844 -0.58593,3.38672 z m 20.02734,-2.35547 q 0,8.15625 -5.15625,8.15625 -2.48437,0 -3.75,-2.08594 -1.26562,-2.08594 -1.26562,-6.07031 0,-3.90234 1.26562,-5.96484 1.26563,-2.07422 3.84375,-2.07422 2.48438,0 3.77344,2.05078 1.28906,2.03906 1.28906,5.98828 z m -3.43359,0 q 0,-3.65625 -0.41016,-5.25 -0.41016,-1.60547 -1.28906,-1.60547 -0.86719,0 -1.24219,1.54688 -0.36328,1.54687 -0.36328,5.30859 0,3.82031 0.375,5.40234 0.375,1.58203 1.23047,1.58203 0.86719,0 1.27734,-1.61718 0.42188,-1.62891 0.42188,-5.36719 z m 12.9375,7.30078 q -0.65625,0.42188 -1.00782,0.5625 -0.35156,0.12891 -0.79687,0.21094 -0.44531,0.082 -0.98438,0.082 -2.4375,0 -3.63281,-1.39453 -1.19531,-1.40625 -1.19531,-4.3125 0,-2.85938 1.27734,-4.34766 1.28907,-1.48828 3.72657,-1.48828 1.27734,0 2.57812,0.31641 -0.0703,-0.38672 -0.0703,-1.81641 v -2.78906 l -1.125,-0.28125 v -0.77344 h 4.51172 v 15.59766 l 1.20703,0.28125 v 0.77343 h -4.24219 z m -4.1836,-4.94531 q 0,2.1914 0.55078,3.35156 0.55079,1.14844 1.58204,1.14844 0.9375,0 1.94531,-0.50391 v -8.29687 q -0.91406,-0.2461 -1.85156,-0.2461 -1.05469,0 -1.64063,1.16016 -0.58594,1.14844 -0.58594,3.38672 z m 15.33985,-5.69531 q 4.13672,0 4.13672,3.04687 v 7.16016 l 1.10156,0.28125 v 0.77343 h -4.05469 l -0.25781,-0.84375 q -0.91406,0.6211 -1.65235,0.84375 -0.73828,0.23438 -1.48828,0.23438 -3.41015,0 -3.41015,-3.28125 0,-1.24219 0.5039,-1.98047 0.50391,-0.75 1.45313,-1.10156 0.94922,-0.36328 2.98828,-0.41016 l 1.42969,-0.0352 v -1.60547 q 0,-1.99219 -1.62891,-1.99219 -0.98437,0 -2.20312,0.60937 l -0.44532,1.3711 h -0.77343 v -2.66016 q 1.76953,-0.26953 2.60156,-0.33984 0.83203,-0.0703 1.69922,-0.0703 z m 0.75,5.73046 -0.98438,0.0352 q -1.13672,0.0469 -1.58203,0.59766 -0.43359,0.55078 -0.43359,1.78125 0,0.99609 0.35156,1.46484 0.35156,0.46875 0.91406,0.46875 0.79688,0 1.73438,-0.41016 z m 10.64062,-5.7539 q 2.23828,0 3.23438,1.19531 1.00781,1.19531 1.00781,3.71484 v 0.96094 h -5.77734 v 0.1875 q 0,1.7461 0.28125,2.48438 0.28125,0.73828 0.91406,1.125 0.63281,0.38672 1.73437,0.38672 1.03125,0 2.60157,-0.33985 v 0.90235 q -0.64454,0.38671 -1.67579,0.64453 -1.01953,0.24609 -1.99218,0.24609 -2.70703,0 -4.00782,-1.40625 -1.28906,-1.41797 -1.28906,-4.38281 0,-2.88281 1.23047,-4.30078 1.24219,-1.41797 3.73828,-1.41797 z m -0.1289,1.18359 q -0.70313,0 -1.05469,0.76172 -0.33985,0.76172 -0.33985,2.69531 h 2.55469 q 0,-1.57031 -0.10547,-2.20312 -0.10547,-0.64453 -0.36328,-0.94922 -0.24609,-0.30469 -0.6914,-0.30469 z m 7.38281,-1.125 h -1.01953 v -4.48828 h 10.04297 v 0.92578 l -6.10547,14.78906 h -2.80078 l 6.62109,-13.10156 h -6.19922 z"
    style="fill:#e3eaf2"
    aria-label="#d0dae7" />
  <path
    d="m 490.61133,583.39258 -0.89063,4.8164 h -1.67578 l 0.89063,-4.8164 h -3.16407 l -0.86718,4.8164 h -1.71094 l 0.89062,-4.8164 h -1.83984 v -1.44141 h 2.13281 l 0.6211,-3.36328 h -2.75391 v -1.44141 h 3.02344 l 0.85547,-4.65234 h 1.6875 l -0.86719,4.65234 h 3.16406 l 0.86719,-4.65234 h 1.67578 l -0.86719,4.65234 h 1.82813 v 1.44141 h -2.08594 l -0.59766,3.36328 h 2.6836 v 1.44141 z m -3.9375,-4.80469 -0.6211,3.36328 h 3.16407 l 0.63281,-3.36328 z m 18.09375,-2.22656 q 0,1.28906 -0.63281,2.20312 -0.63282,0.90235 -1.78125,1.3125 1.34765,0.50391 2.0625,1.5586 0.71484,1.05468 0.71484,2.53125 0,2.22656 -1.28906,3.35156 -1.27735,1.125 -3.98438,1.125 -5.13281,0 -5.13281,-4.47656 0,-1.5 0.72656,-2.55469 0.72656,-1.05469 2.01563,-1.53516 -1.13672,-0.43359 -1.75782,-1.33593 -0.62109,-0.90235 -0.62109,-2.21485 0,-1.92187 1.26563,-3 1.27734,-1.07812 3.59765,-1.07812 2.27344,0 3.53906,1.10156 1.27735,1.08984 1.27735,3.01172 z m -2.96485,7.60547 q 0,-1.80469 -0.46875,-2.625 -0.46875,-0.82032 -1.47656,-0.82032 -0.96094,0 -1.38281,0.79688 -0.42188,0.79687 -0.42188,2.64844 0,1.8164 0.42188,2.55468 0.43359,0.73829 1.38281,0.73829 1.00781,0 1.47656,-0.77344 0.46875,-0.77344 0.46875,-2.51953 z m -0.36328,-7.60547 q 0,-1.53516 -0.38672,-2.22656 -0.38671,-0.70313 -1.17187,-0.70313 -0.75,0 -1.11328,0.69141 -0.35156,0.6914 -0.35156,2.23828 0,1.59375 0.35156,2.25 0.35156,0.65625 1.11328,0.65625 0.80859,0 1.18359,-0.66797 0.375,-0.67969 0.375,-2.23828 z m 13.07813,11.22656 q -0.65625,0.42188 -1.00781,0.5625 -0.35157,0.12891 -0.79688,0.21094 -0.44531,0.082 -0.98437,0.082 -2.4375,0 -3.63282,-1.39453 -1.19531,-1.40625 -1.19531,-4.3125 0,-2.85938 1.27734,-4.34766 1.28907,-1.48828 3.72657,-1.48828 1.27734,0 2.57812,0.31641 -0.0703,-0.38672 -0.0703,-1.81641 v -2.78906 l -1.125,-0.28125 v -0.77344 h 4.51172 v 15.59766 l 1.20703,0.28125 v 0.77343 h -4.24219 z m -4.1836,-4.94531 q 0,2.1914 0.55079,3.35156 0.55078,1.14844 1.58203,1.14844 0.9375,0 1.94531,-0.50391 v -8.29687 q -0.91406,-0.2461 -1.85156,-0.2461 -1.05469,0 -1.64063,1.16016 -0.58594,1.14844 -0.58594,3.38672 z m 15.33985,-5.69531 q 4.13672,0 4.13672,3.04687 v 7.16016 l 1.10156,0.28125 v 0.77343 h -4.05469 l -0.25781,-0.84375 q -0.91406,0.6211 -1.65234,0.84375 -0.73829,0.23438 -1.48829,0.23438 -3.41015,0 -3.41015,-3.28125 0,-1.24219 0.5039,-1.98047 0.50391,-0.75 1.45313,-1.10156 0.94922,-0.36328 2.98828,-0.41016 l 1.42969,-0.0352 v -1.60547 q 0,-1.99219 -1.62891,-1.99219 -0.98437,0 -2.20312,0.60937 l -0.44532,1.3711 h -0.77343 v -2.66016 q 1.76953,-0.26953 2.60156,-0.33984 0.83203,-0.0703 1.69922,-0.0703 z m 0.75,5.73046 -0.98438,0.0352 q -1.13672,0.0469 -1.58203,0.59766 -0.43359,0.55078 -0.43359,1.78125 0,0.99609 0.35156,1.46484 0.35156,0.46875 0.91406,0.46875 0.79688,0 1.73438,-0.41016 z m 12.8789,4.24219 2.73047,0.28125 v 1.00781 h -8.83593 v -1.00781 l 2.71875,-0.28125 v -11.84765 l -2.70704,0.89062 v -0.99609 l 4.42969,-2.60157 h 1.66406 z m 12.91407,-4.53515 q 0,-2.16797 -0.53907,-3.17579 -0.52734,-1.00781 -1.74609,-1.00781 -0.44531,0 -0.97266,0.10547 -0.52734,0.0937 -0.86718,0.29297 v 8.42578 q 0.75,0.1875 1.83984,0.1875 1.16016,0 1.72266,-1.125 0.5625,-1.13672 0.5625,-3.70312 z m -7.51172,-9.79688 -1.125,-0.26953 v -0.76172 h 4.51172 v 4.04297 q 0,1.08984 -0.11719,2.21484 0.46875,-0.38672 1.34766,-0.64453 0.89062,-0.26953 1.73437,-0.26953 2.39063,0 3.49219,1.3125 1.10156,1.3125 1.10156,4.18359 0,2.83594 -1.41797,4.44141 -1.40625,1.60547 -3.97265,1.60547 -1.89844,0 -5.55469,-0.79688 z m 12.57422,4.69922 q 0,-2.39063 1.37109,-3.67969 1.37109,-1.28906 3.80859,-1.28906 2.75391,0 4.01954,1.93359 1.27734,1.9336 1.27734,6.0586 0,2.64843 -0.75,4.46484 -0.73828,1.81641 -2.13281,2.74219 -1.39453,0.92578 -3.35157,0.92578 -1.94531,0 -3.64453,-0.50391 v -3.57422 h 1.01953 l 0.50391,2.27344 q 0.41016,0.29297 0.97266,0.45703 0.57422,0.16407 1.10156,0.16407 1.26562,0 1.96875,-1.42969 0.71484,-1.44141 0.83203,-4.16016 -1.21875,0.4336 -2.42578,0.4336 -2.12109,0 -3.35156,-1.26563 -1.21875,-1.26562 -1.21875,-3.55078 z m 3.44531,0.0469 q 0,3.35157 1.82812,3.35157 0.89063,0 1.75782,-0.21094 v -0.16406 q 0,-3.38672 -0.41016,-5.09766 -0.39844,-1.71094 -1.41797,-1.71094 -1.75781,0 -1.75781,3.83203 z"
    style="fill:#e3eaf2"
    aria-label="#8da1b9" />
  <path
    d="m 641.66016,583.39258 -0.89063,4.8164 h -1.67578 l 0.89062,-4.8164 h -3.16406 l -0.86719,4.8164 h -1.71093 l 0.89062,-4.8164 h -1.83984 v -1.44141 h 2.13281 l 0.62109,-3.36328 h -2.7539 v -1.44141 h 3.02344 l 0.85546,-4.65234 h 1.6875 l -0.86718,4.65234 h 3.16406 l 0.86719,-4.65234 h 1.67578 l -0.86719,4.65234 h 1.82813 v 1.44141 h -2.08594 l -0.59766,3.36328 h 2.6836 v 1.44141 z m -3.9375,-4.80469 -0.6211,3.36328 h 3.16406 l 0.63282,-3.36328 z m 18.43359,5.34375 q 0,2.14453 -1.53516,3.32813 -1.53515,1.18359 -4.26562,1.18359 -2.17969,0 -4.33594,-0.46875 l -0.14062,-3.80859 h 1.07812 l 0.60938,2.51953 q 1.01953,0.57422 2.13281,0.57422 1.41797,0 2.21484,-0.90235 0.79688,-0.91406 0.79688,-2.54297 0,-1.41797 -0.64453,-2.16797 -0.63282,-0.76171 -2.0625,-0.85546 l -1.35938,-0.082 v -1.41796 l 1.3125,-0.0937 q 1.04297,-0.0703 1.53516,-0.76172 0.5039,-0.70313 0.5039,-2.10938 0,-1.3125 -0.59765,-2.0625 -0.58594,-0.75 -1.67578,-0.75 -0.63282,0 -1.04297,0.19922 -0.39844,0.1875 -0.76172,0.41016 l -0.50391,2.27343 h -1.01953 v -3.57421 q 1.19531,-0.30469 2.0625,-0.39844 0.86719,-0.10547 1.71094,-0.10547 5.28515,0 5.28515,3.86719 0,1.59375 -0.84375,2.57812 -0.84375,0.98438 -2.41406,1.21875 3.96094,0.48047 3.96094,3.94922 z m 10.875,3.60938 q -0.52734,0.42187 -1.46484,0.65625 -0.92579,0.23437 -1.91016,0.23437 -2.94141,0 -4.40625,-1.41797 -1.45313,-1.41797 -1.45313,-4.33594 0,-1.8164 0.65625,-3.10546 0.66797,-1.30079 1.89844,-1.98047 1.23047,-0.69141 2.85938,-0.69141 1.64062,0 3.57422,0.41016 v 3.25781 h -0.84375 l -0.49219,-1.93359 q -0.39844,-0.29297 -0.78516,-0.41016 -0.38672,-0.11719 -1.01953,-0.11719 -0.69141,0 -1.25391,0.55078 -0.5625,0.55078 -0.8789,1.5586 -0.30469,0.99609 -0.30469,2.39062 0,2.35547 0.72656,3.36328 0.73828,1.00782 2.33203,1.00782 1.61719,0 2.76563,-0.33985 z m 6.22266,-8.625 q 2.78906,0 4.13671,1.14843 1.35938,1.14844 1.35938,3.46875 0,2.36719 -1.47656,3.64453 -1.46485,1.26563 -4.20703,1.26563 -2.17969,0 -4.33594,-0.46875 l -0.14063,-3.80859 h 1.07813 l 0.60937,2.51953 q 0.45703,0.25781 1.125,0.42187 0.66797,0.15235 1.20703,0.15235 2.69532,0 2.69532,-3.60938 0,-1.875 -0.69141,-2.70703 -0.67969,-0.84375 -2.17969,-0.84375 -0.83203,0 -1.52343,0.30469 l -0.36329,0.15234 H 669.375 v -8.0625 h 8.20312 v 2.61328 h -6.90234 v 4.125 q 1.42969,-0.3164 2.57813,-0.3164 z m 17.34375,9.29296 h -9.96094 v -2.21484 q 1.00781,-1.07812 1.86328,-1.93359 1.875,-1.85157 2.74219,-2.90625 0.86718,-1.06641 1.26562,-2.20313 0.41016,-1.13672 0.41016,-2.58984 0,-1.27735 -0.6211,-2.0625 -0.62109,-0.78516 -1.65234,-0.78516 -0.72656,0 -1.16016,0.15235 -0.43359,0.15234 -0.79687,0.45703 l -0.50391,2.27343 h -1.01953 v -3.57421 q 0.9375,-0.21094 1.82813,-0.35157 0.90234,-0.15234 1.95703,-0.15234 2.58984,0 3.96094,1.06641 1.38281,1.0664 1.38281,3.03515 0,1.23047 -0.41016,2.23828 -0.41015,0.9961 -1.30078,1.94532 -0.87891,0.94921 -3.51562,3.09375 -1.00782,0.82031 -2.17969,1.86328 h 7.71094 z m 12.32812,-4.875 q 0,2.47266 -1.27734,3.79688 -1.27735,1.3125 -3.63282,1.3125 -2.69531,0 -4.13671,-2.05078 -1.42969,-2.05078 -1.42969,-5.94141 0,-2.53125 0.75,-4.37109 0.76172,-1.83985 2.12109,-2.80078 1.35938,-0.96094 3.12891,-0.96094 1.82812,0 3.52734,0.50391 v 3.57421 h -1.01953 l -0.50391,-2.27343 q -0.80859,-0.60938 -1.76953,-0.60938 -1.17187,0 -1.91015,1.5 -0.72657,1.5 -0.85547,4.19531 1.27734,-0.55078 2.53125,-0.55078 2.14453,0 3.30469,1.20703 1.17187,1.20704 1.17187,3.46875 z m -4.95703,3.92579 q 0.85547,0 1.18359,-0.92579 0.32813,-0.92578 0.32813,-2.77734 0,-1.65234 -0.45703,-2.54297 -0.45703,-0.89062 -1.35938,-0.89062 -0.86719,0 -1.76953,0.26953 v 0.0586 q 0,6.8086 2.07422,6.8086 z m 14.25,0.32812 q -0.65625,0.42188 -1.00781,0.5625 -0.35157,0.12891 -0.79688,0.21094 -0.44531,0.082 -0.98437,0.082 -2.4375,0 -3.63282,-1.39453 -1.19531,-1.40625 -1.19531,-4.3125 0,-2.85938 1.27735,-4.34766 1.28906,-1.48828 3.72656,-1.48828 1.27734,0 2.57812,0.31641 -0.0703,-0.38672 -0.0703,-1.81641 v -2.78906 l -1.125,-0.28125 v -0.77344 H 715.5 v 15.59766 l 1.20703,0.28125 v 0.77343 h -4.24219 z m -4.18359,-4.94531 q 0,2.1914 0.55078,3.35156 0.55078,1.14844 1.58203,1.14844 0.9375,0 1.94531,-0.50391 v -8.29687 q -0.91406,-0.2461 -1.85156,-0.2461 -1.05469,0 -1.64063,1.16016 -0.58593,1.14844 -0.58593,3.38672 z"
    style="fill:#e3eaf2"
    aria-label="#3c526d" />
  <path
    d="m 791.93555,583.04687 -0.89063,4.81641 h -1.67578 l 0.89063,-4.81641 h -3.16407 l -0.86718,4.81641 h -1.71094 l 0.89062,-4.81641 h -1.83984 v -1.4414 h 2.13281 l 0.6211,-3.36328 h -2.75391 v -1.44141 h 3.02344 l 0.85547,-4.65234 h 1.6875 l -0.86719,4.65234 h 3.16406 l 0.86719,-4.65234 h 1.67578 l -0.86719,4.65234 h 1.82813 v 1.44141 h -2.08594 l -0.59766,3.36328 h 2.6836 v 1.4414 z m -3.9375,-4.80468 -0.6211,3.36328 h 3.16407 l 0.63281,-3.36328 z m 18.22265,9.62109 h -9.96093 v -2.21484 q 1.00781,-1.07813 1.86328,-1.9336 1.875,-1.85156 2.74218,-2.90625 0.86719,-1.0664 1.26563,-2.20312 0.41016,-1.13672 0.41016,-2.58985 0,-1.27734 -0.6211,-2.0625 -0.62109,-0.78515 -1.65234,-0.78515 -0.72656,0 -1.16016,0.15234 -0.43359,0.15235 -0.79687,0.45703 l -0.50391,2.27344 h -1.01953 v -3.57422 q 0.9375,-0.21094 1.82812,-0.35156 0.90235,-0.15234 1.95704,-0.15234 2.58984,0 3.96093,1.0664 1.38282,1.06641 1.38282,3.03516 0,1.23047 -0.41016,2.23828 -0.41016,0.99609 -1.30078,1.94531 -0.87891,0.94922 -3.51563,3.09375 -1.00781,0.82031 -2.17968,1.86328 h 7.71093 z m 9.0586,-1.28906 2.73047,0.28125 v 1.00781 h -8.83594 v -1.00781 l 2.71875,-0.28125 v -11.84766 l -2.70703,0.89063 v -0.9961 l 4.42968,-2.60156 h 1.66407 z m 15.15234,-2.98828 q 0,2.14453 -1.53516,3.32812 -1.53515,1.1836 -4.26562,1.1836 -2.17969,0 -4.33594,-0.46875 l -0.14062,-3.8086 h 1.07812 l 0.60938,2.51953 q 1.01953,0.57422 2.13281,0.57422 1.41797,0 2.21484,-0.90234 0.79688,-0.91406 0.79688,-2.54297 0,-1.41797 -0.64453,-2.16797 -0.63282,-0.76172 -2.0625,-0.85547 l -1.35938,-0.082 v -1.41797 l 1.3125,-0.0937 q 1.04297,-0.0703 1.53516,-0.76172 0.5039,-0.70312 0.5039,-2.10937 0,-1.3125 -0.59765,-2.0625 -0.58594,-0.75 -1.67578,-0.75 -0.63282,0 -1.04297,0.19922 -0.39844,0.1875 -0.76172,0.41015 l -0.50391,2.27344 h -1.01953 v -3.57422 q 1.19531,-0.30469 2.0625,-0.39844 0.86719,-0.10546 1.71094,-0.10546 5.28516,0 5.28516,3.86718 0,1.59375 -0.84375,2.57813 -0.84375,0.98437 -2.41407,1.21875 3.96094,0.48047 3.96094,3.94922 z m 11.90625,-3.64453 q 0,8.15625 -5.15625,8.15625 -2.48437,0 -3.75,-2.08594 -1.26562,-2.08594 -1.26562,-6.07031 0,-3.90235 1.26562,-5.96485 1.26563,-2.07422 3.84375,-2.07422 2.48438,0 3.77344,2.05078 1.28906,2.03907 1.28906,5.98829 z m -3.43359,0 q 0,-3.65625 -0.41016,-5.25 -0.41016,-1.60547 -1.28906,-1.60547 -0.86719,0 -1.24219,1.54687 -0.36328,1.54688 -0.36328,5.3086 0,3.82031 0.375,5.40234 0.375,1.58203 1.23047,1.58203 0.86719,0 1.27734,-1.61719 0.42188,-1.6289 0.42188,-5.36718 z m 14.33203,4.8164 v 3.10547 h -3.15235 v -3.10547 h -6.5039 v -1.91015 l 7.07812,-10.78125 h 2.57813 v 10.28906 h 1.57031 v 2.40234 z m -3.15235,-7.05469 q 0,-1.3125 0.11719,-2.48437 l -4.67578,7.13672 h 4.55859 z m 16.34766,5.88282 q 0,2.14453 -1.53516,3.32812 -1.53515,1.1836 -4.26562,1.1836 -2.17969,0 -4.33594,-0.46875 l -0.14062,-3.8086 h 1.07812 l 0.60938,2.51953 q 1.01953,0.57422 2.13281,0.57422 1.41797,0 2.21484,-0.90234 0.79688,-0.91406 0.79688,-2.54297 0,-1.41797 -0.64453,-2.16797 -0.63282,-0.76172 -2.0625,-0.85547 l -1.35938,-0.082 v -1.41797 l 1.3125,-0.0937 q 1.04297,-0.0703 1.53516,-0.76172 0.5039,-0.70312 0.5039,-2.10937 0,-1.3125 -0.59765,-2.0625 -0.58594,-0.75 -1.67578,-0.75 -0.63282,0 -1.04297,0.19922 -0.39844,0.1875 -0.76172,0.41015 l -0.50391,2.27344 h -1.01953 v -3.57422 q 1.19531,-0.30469 2.0625,-0.39844 0.86719,-0.10546 1.71094,-0.10546 5.28516,0 5.28516,3.86718 0,1.59375 -0.84375,2.57813 -0.84375,0.98437 -2.41407,1.21875 3.96094,0.48047 3.96094,3.94922 z"
    style="fill:#e3eaf2"
    aria-label="#213043" />
  <path
    d="m 942.46875,583.39258 -0.89063,4.8164 h -1.67578 l 0.89063,-4.8164 h -3.16406 l -0.86719,4.8164 h -1.71094 l 0.89063,-4.8164 h -1.83985 v -1.44141 h 2.13281 l 0.6211,-3.36328 h -2.75391 v -1.44141 h 3.02344 l 0.85547,-4.65234 h 1.6875 l -0.86719,4.65234 h 3.16406 l 0.86719,-4.65234 h 1.67578 l -0.86719,4.65234 h 1.82813 v 1.44141 h -2.08594 l -0.59765,3.36328 h 2.68359 v 1.44141 z m -3.9375,-4.80469 -0.62109,3.36328 h 3.16406 l 0.63281,-3.36328 z m 15.28125,8.33203 2.73047,0.28125 v 1.00781 h -8.83594 v -1.00781 l 2.71875,-0.28125 v -11.84765 l -2.70703,0.89062 v -0.99609 l 4.42969,-2.60157 h 1.66406 z m 10.67578,0 2.73047,0.28125 v 1.00781 h -8.83594 v -1.00781 l 2.71875,-0.28125 v -11.84765 l -2.70703,0.89062 v -0.99609 l 4.42969,-2.60157 h 1.66406 z m 10.67578,0 2.73047,0.28125 v 1.00781 h -8.83594 v -1.00781 l 2.71875,-0.28125 v -11.84765 l -2.70703,0.89062 V 574.9668 L 973.5,572.36523 h 1.66406 z m 12.91406,-4.53515 q 0,-2.16797 -0.53906,-3.17579 -0.52734,-1.00781 -1.74609,-1.00781 -0.44531,0 -0.97266,0.10547 -0.52734,0.0937 -0.86719,0.29297 v 8.42578 q 0.75,0.1875 1.83985,0.1875 1.16015,0 1.72265,-1.125 0.5625,-1.13672 0.5625,-3.70312 z m -7.51171,-9.79688 -1.125,-0.26953 v -0.76172 h 4.51171 v 4.04297 q 0,1.08984 -0.11718,2.21484 0.46875,-0.38672 1.34765,-0.64453 0.89063,-0.26953 1.73438,-0.26953 2.39062,0 3.49219,1.3125 1.10156,1.3125 1.10156,4.18359 0,2.83594 -1.41797,4.44141 -1.40625,1.60547 -3.97266,1.60547 -1.89843,0 -5.55468,-0.79688 z m 22.88669,15.62109 h -9.96091 v -2.21484 q 1.00781,-1.07812 1.86328,-1.93359 1.875,-1.85157 2.74219,-2.90625 0.86718,-1.06641 1.26562,-2.20313 0.41016,-1.13672 0.41016,-2.58984 0,-1.27735 -0.6211,-2.0625 -0.62109,-0.78516 -1.65234,-0.78516 -0.72656,0 -1.16016,0.15235 -0.43359,0.15234 -0.79687,0.45703 l -0.50391,2.27343 h -1.01953 v -3.57421 q 0.9375,-0.21094 1.82813,-0.35157 0.90234,-0.15234 1.95703,-0.15234 2.58981,0 3.96091,1.06641 1.3828,1.0664 1.3828,3.03515 0,1.23047 -0.4101,2.23828 -0.4102,0.9961 -1.3008,1.94532 -0.8789,0.94921 -3.51563,3.09375 -1.00781,0.82031 -2.17968,1.86328 h 7.71091 z m 3.4219,-11.22656 h -1.0195 v -4.48828 h 10.0429 v 0.92578 l -6.1054,14.78906 h -2.8008 l 6.6211,-13.10156 h -6.1992 z"
    style="fill:#e3eaf2"
    aria-label="#111b27" />
  <path
    d="m 1090.6641,583.39258 -0.8907,4.8164 h -1.6757 l 0.8906,-4.8164 h -3.1641 l -0.8672,4.8164 h -1.7109 l 0.8906,-4.8164 h -1.8398 v -1.44141 h 2.1328 l 0.6211,-3.36328 h -2.7539 v -1.44141 h 3.0234 l 0.8555,-4.65234 h 1.6875 l -0.8672,4.65234 h 3.1641 l 0.8671,-4.65234 h 1.6758 l -0.8672,4.65234 h 1.8282 v 1.44141 h -2.086 l -0.5976,3.36328 h 2.6836 v 1.44141 z m -3.9375,-4.80469 -0.6211,3.36328 h 3.164 l 0.6328,-3.36328 z m 18.3398,1.69922 q 0,8.15625 -5.1562,8.15625 -2.4844,0 -3.75,-2.08594 -1.2657,-2.08594 -1.2657,-6.07031 0,-3.90234 1.2657,-5.96484 1.2656,-2.07422 3.8437,-2.07422 2.4844,0 3.7734,2.05078 1.2891,2.03906 1.2891,5.98828 z m -3.4336,0 q 0,-3.65625 -0.4101,-5.25 -0.4102,-1.60547 -1.2891,-1.60547 -0.8672,0 -1.2422,1.54688 -0.3633,1.54687 -0.3633,5.30859 0,3.82031 0.375,5.40234 0.375,1.58203 1.2305,1.58203 0.8672,0 1.2773,-1.61718 0.4219,-1.62891 0.4219,-5.36719 z m 13.2891,2.09766 q 0,-2.16797 -0.5391,-3.17579 -0.5273,-1.00781 -1.7461,-1.00781 -0.4453,0 -0.9726,0.10547 -0.5274,0.0937 -0.8672,0.29297 v 8.42578 q 0.75,0.1875 1.8398,0.1875 1.1602,0 1.7227,-1.125 0.5625,-1.13672 0.5625,-3.70312 z m -7.5117,-9.79688 -1.125,-0.26953 v -0.76172 h 4.5117 v 4.04297 q 0,1.08984 -0.1172,2.21484 0.4687,-0.38672 1.3476,-0.64453 0.8907,-0.26953 1.7344,-0.26953 2.3906,0 3.4922,1.3125 1.1016,1.3125 1.1016,4.18359 0,2.83594 -1.418,4.44141 -1.4062,1.60547 -3.9727,1.60547 -1.8984,0 -5.5546,-0.79688 z m 19.9453,14.33203 2.7304,0.28125 v 1.00781 h -8.8359 v -1.00781 l 2.7188,-0.28125 v -11.84765 l -2.7071,0.89062 v -0.99609 l 4.4297,-2.60157 h 1.6641 z m 14.9414,1.28906 h -9.961 v -2.21484 q 1.0079,-1.07812 1.8633,-1.93359 1.875,-1.85157 2.7422,-2.90625 0.8672,-1.06641 1.2656,-2.20313 0.4102,-1.13672 0.4102,-2.58984 0,-1.27735 -0.6211,-2.0625 -0.6211,-0.78516 -1.6523,-0.78516 -0.7266,0 -1.1602,0.15235 -0.4336,0.15234 -0.7969,0.45703 l -0.5039,2.27343 h -1.0195 v -3.57421 q 0.9375,-0.21094 1.8281,-0.35157 0.9024,-0.15234 1.957,-0.15234 2.5899,0 3.961,1.06641 1.3828,1.0664 1.3828,3.03515 0,1.23047 -0.4102,2.23828 -0.4101,0.9961 -1.3007,1.94532 -0.879,0.94921 -3.5157,3.09375 -1.0078,0.82031 -2.1797,1.86328 h 7.711 z m 9.0586,-1.28906 2.7304,0.28125 v 1.00781 h -8.8359 v -1.00781 l 2.7188,-0.28125 v -11.84765 l -2.7071,0.89062 v -0.99609 l 4.4297,-2.60157 h 1.6641 z m 12.914,-4.53515 q 0,-2.16797 -0.539,-3.17579 -0.5274,-1.00781 -1.7461,-1.00781 -0.4453,0 -0.9727,0.10547 -0.5273,0.0937 -0.8672,0.29297 v 8.42578 q 0.75,0.1875 1.8399,0.1875 1.1601,0 1.7226,-1.125 0.5625,-1.13672 0.5625,-3.70312 z m -7.5117,-9.79688 -1.125,-0.26953 v -0.76172 h 4.5117 v 4.04297 q 0,1.08984 -0.1172,2.21484 0.4688,-0.38672 1.3477,-0.64453 0.8906,-0.26953 1.7344,-0.26953 2.3906,0 3.4922,1.3125 1.1015,1.3125 1.1015,4.18359 0,2.83594 -1.4179,4.44141 -1.4063,1.60547 -3.9727,1.60547 -1.8984,0 -5.5547,-0.79688 z"
    style="fill:#e3eaf2"
    aria-label="#0b121b" />
</svg>
