<svg
  width="1200"
  height="630"
  viewBox="0 0 1200 630"
  xmlns="http://www.w3.org/2000/svg">
  <path
    style="fill:#111b27;"
    d="M 0,0 H 1200 V 188 H 0 Z"
  />
  <path
    style="fill:#111b27;"
    d="m 0,540 h 1200 v 90 H 0 Z"
  />
  <path
    style="fill:#f0f4f8;"
    d="M 0,286 H 150 V 536 H 0 Z"
  />
  <path
    style="fill:#e3eaf2;"
    d="M 150,286 H 300 V 536 H 150 Z"
  />
  <path
    style="fill:#d0dae7;"
    d="M 300,286 H 450 V 536 H 300 Z"
  />
  <path
    style="fill:#8da1b9;"
    d="M 450,286 H 600 V 536 H 450 Z"
  />
  <path
    style="fill:#3c526d;"
    d="M 600,286 H 750 V 536 H 600 Z"
  />
  <path
    style="fill:#213043;"
    d="M 750,286 H 900 V 536 H 750 Z"
  />
  <path
    style="fill:#111b27;"
    d="m 900,286 h 150 V 536 H 900 Z"
  />
  <path
    style="fill:#0b121b;"
    d="m 1050,286 h 150 v 250 h -150 z"
  />
  <path
    d="m 47.935547,588.51562 -0.890625,4.81641 h -1.675781 l 0.890625,-4.81641 h -3.164063 l -0.867187,4.81641 h -1.710938 l 0.890625,-4.81641 h -1.839844 v -1.4414 h 2.132813 l 0.621094,-3.36328 h -2.753907 v -1.44141 h 3.023438 l 0.855469,-4.65234 h 1.6875 l -0.867188,4.65234 h 3.164063 l 0.867187,-4.65234 h 1.675781 l -0.867187,4.65234 h 1.828125 v 1.44141 h -2.085938 l -0.597656,3.36328 h 2.683594 v 1.4414 z m -3.9375,-4.80468 -0.621094,3.36328 h 3.164063 l 0.632812,-3.36328 z m 9.09375,-0.17578 h -1.664063 v -0.8086 l 1.664063,-0.45703 v -1.18359 q 0,-2.25 1.148437,-3.44532 1.148438,-1.20703 3.292969,-1.20703 1.160156,0 1.945313,0.22266 v 2.625 h -0.75 l -0.339844,-1.27734 q -0.28125,-0.28125 -0.738281,-0.28125 -1.171875,0 -1.171875,2.98828 v 1.60547 h 2.238281 v 1.21875 h -2.238281 v 8.74218 l 1.792968,0.28125 v 0.77344 h -6.375 v -0.77344 l 1.195313,-0.28125 z m 17.238281,1.875 q 0,8.15625 -5.15625,8.15625 -2.484375,0 -3.75,-2.08594 -1.265625,-2.08594 -1.265625,-6.07031 0,-3.90235 1.265625,-5.96485 1.265625,-2.07422 3.84375,-2.07422 2.484375,0 3.773438,2.05078 1.289062,2.03907 1.289062,5.98829 z m -3.433594,0 q 0,-3.65625 -0.410156,-5.25 -0.410156,-1.60547 -1.289062,-1.60547 -0.867188,0 -1.242188,1.54687 -0.363281,1.54688 -0.363281,5.3086 0,3.82031 0.375,5.40234 0.375,1.58203 1.230469,1.58203 0.867187,0 1.277343,-1.61719 0.421875,-1.6289 0.421875,-5.36718 z m 6.1875,-1.875 h -1.664062 v -0.8086 l 1.664062,-0.45703 v -1.18359 q 0,-2.25 1.148438,-3.44532 1.148437,-1.20703 3.292969,-1.20703 1.160156,0 1.945312,0.22266 v 2.625 h -0.75 l -0.339844,-1.27734 q -0.28125,-0.28125 -0.738281,-0.28125 -1.171875,0 -1.171875,2.98828 v 1.60547 h 2.238281 v 1.21875 h -2.238281 v 8.74218 l 1.792969,0.28125 v 0.77344 h -6.375 v -0.77344 l 1.195312,-0.28125 z m 16.136719,6.6914 v 3.10547 h -3.152344 v -3.10547 h -6.503906 v -1.91015 l 7.078125,-10.78125 h 2.578125 v 10.28906 h 1.570313 v 2.40234 z m -3.152344,-7.05469 q 0,-1.3125 0.117188,-2.48437 l -4.675781,7.13672 h 4.558593 z m 7.007813,0.36329 h -1.664063 v -0.8086 l 1.664063,-0.45703 v -1.18359 q 0,-2.25 1.148437,-3.44532 1.148438,-1.20703 3.292969,-1.20703 1.160156,0 1.945313,0.22266 v 2.625 h -0.75 l -0.339844,-1.27734 q -0.28125,-0.28125 -0.738281,-0.28125 -1.171875,0 -1.171875,2.98828 v 1.60547 h 2.238281 v 1.21875 h -2.238281 v 8.74218 l 1.792968,0.28125 v 0.77344 h -6.375 v -0.77344 l 1.195313,-0.28125 z m 16.992188,-2.05079 q 0,1.28907 -0.63281,2.20313 -0.63282,0.90234 -1.78125,1.3125 1.34765,0.50391 2.0625,1.55859 0.71484,1.05469 0.71484,2.53125 0,2.22657 -1.28906,3.35157 -1.27735,1.125 -3.98438,1.125 -5.13281,0 -5.13281,-4.47657 0,-1.5 0.72656,-2.55468 0.72657,-1.05469 2.01563,-1.53516 -1.13672,-0.43359 -1.75781,-1.33594 -0.6211,-0.90234 -0.6211,-2.21484 0,-1.92188 1.26563,-3 1.27734,-1.07813 3.59765,-1.07813 2.27344,0 3.53907,1.10157 1.27734,1.08984 1.27734,3.01171 z m -2.96484,7.60547 q 0,-1.80468 -0.46875,-2.625 -0.46875,-0.82031 -1.47657,-0.82031 -0.96093,0 -1.38281,0.79688 -0.42187,0.79687 -0.42187,2.64843 0,1.81641 0.42187,2.55469 0.43359,0.73828 1.38281,0.73828 1.00782,0 1.47657,-0.77344 0.46875,-0.77343 0.46875,-2.51953 z m -0.36329,-7.60547 q 0,-1.53515 -0.38671,-2.22656 -0.38672,-0.70312 -1.17188,-0.70312 -0.75,0 -1.11328,0.6914 -0.35156,0.69141 -0.35156,2.23828 0,1.59375 0.35156,2.25 0.35156,0.65625 1.11328,0.65625 0.80859,0 1.18359,-0.66796 0.375,-0.67969 0.375,-2.23829 z"
    style="fill:#e3eaf2"
    aria-label="#f0f4f8"
  />
  <path
    d="m 195.39258,588.51562 -0.89063,4.81641 h -1.67578 l 0.89063,-4.81641 h -3.16407 l -0.86718,4.81641 h -1.71094 l 0.89062,-4.81641 h -1.83984 v -1.4414 h 2.13281 l 0.6211,-3.36328 h -2.75391 v -1.44141 h 3.02344 l 0.85547,-4.65234 h 1.6875 l -0.86719,4.65234 h 3.16406 l 0.86719,-4.65234 h 1.67578 l -0.86719,4.65234 h 1.82813 v 1.44141 h -2.08594 l -0.59766,3.36328 h 2.6836 v 1.4414 z m -3.9375,-4.80468 -0.6211,3.36328 h 3.16407 l 0.63281,-3.36328 z m 13.04297,-1.66407 q 2.23828,0 3.23437,1.19532 1.00781,1.19531 1.00781,3.71484 v 0.96094 h -5.77734 v 0.1875 q 0,1.74609 0.28125,2.48437 0.28125,0.73828 0.91406,1.125 0.63282,0.38672 1.73438,0.38672 1.03125,0 2.60156,-0.33984 v 0.90234 q -0.64453,0.38672 -1.67578,0.64453 -1.01953,0.2461 -1.99219,0.2461 -2.70703,0 -4.00781,-1.40625 -1.28906,-1.41797 -1.28906,-4.38282 0,-2.88281 1.23047,-4.30078 1.24218,-1.41797 3.73828,-1.41797 z m -0.12891,1.1836 q -0.70312,0 -1.05469,0.76172 -0.33984,0.76172 -0.33984,2.69531 h 2.55469 q 0,-1.57031 -0.10547,-2.20313 -0.10547,-0.64453 -0.36328,-0.94921 -0.2461,-0.30469 -0.69141,-0.30469 z m 16.17188,5.82422 q 0,2.14453 -1.53516,3.32812 -1.53516,1.1836 -4.26563,1.1836 -2.17968,0 -4.33593,-0.46875 l -0.14063,-3.8086 h 1.07813 l 0.60937,2.51953 q 1.01953,0.57422 2.13281,0.57422 1.41797,0 2.21485,-0.90234 0.79687,-0.91406 0.79687,-2.54297 0,-1.41797 -0.64453,-2.16797 -0.63281,-0.76172 -2.0625,-0.85547 l -1.35937,-0.082 v -1.41797 l 1.3125,-0.0937 q 1.04297,-0.0703 1.53515,-0.76172 0.50391,-0.70312 0.50391,-2.10937 0,-1.3125 -0.59766,-2.0625 -0.58593,-0.75 -1.67578,-0.75 -0.63281,0 -1.04297,0.19922 -0.39843,0.1875 -0.76172,0.41015 l -0.5039,2.27344 h -1.01953 v -3.57422 q 1.19531,-0.30469 2.0625,-0.39844 0.86718,-0.10546 1.71093,-0.10546 5.28516,0 5.28516,3.86718 0,1.59375 -0.84375,2.57813 -0.84375,0.98437 -2.41406,1.21875 3.96094,0.48047 3.96094,3.94922 z m 6.60937,-7.00782 q 2.23828,0 3.23438,1.19532 1.00781,1.19531 1.00781,3.71484 v 0.96094 h -5.77735 v 0.1875 q 0,1.74609 0.28125,2.48437 0.28125,0.73828 0.91407,1.125 0.63281,0.38672 1.73437,0.38672 1.03125,0 2.60156,-0.33984 v 0.90234 q -0.64453,0.38672 -1.67578,0.64453 -1.01953,0.2461 -1.99218,0.2461 -2.70704,0 -4.00782,-1.40625 -1.28906,-1.41797 -1.28906,-4.38282 0,-2.88281 1.23047,-4.30078 1.24219,-1.41797 3.73828,-1.41797 z m -0.12891,1.1836 q -0.70312,0 -1.05468,0.76172 -0.33985,0.76172 -0.33985,2.69531 h 2.55469 q 0,-1.57031 -0.10547,-2.20313 -0.10547,-0.64453 -0.36328,-0.94921 -0.24609,-0.30469 -0.69141,-0.30469 z m 11.39063,-1.16016 q 4.13672,0 4.13672,3.04688 v 7.16015 l 1.10156,0.28125 v 0.77344 h -4.05469 l -0.25781,-0.84375 q -0.91406,0.62109 -1.65234,0.84375 -0.73828,0.23438 -1.48828,0.23438 -3.41016,0 -3.41016,-3.28125 0,-1.24219 0.50391,-1.98047 0.5039,-0.75 1.45312,-1.10157 0.94922,-0.36328 2.98828,-0.41015 l 1.42969,-0.0352 v -1.60547 q 0,-1.99218 -1.62891,-1.99218 -0.98437,0 -2.20312,0.60937 l -0.44531,1.37109 h -0.77344 v -2.66015 q 1.76953,-0.26953 2.60156,-0.33985 0.83203,-0.0703 1.69922,-0.0703 z m 0.75,5.73047 -0.98438,0.0352 q -1.13671,0.0469 -1.58203,0.59765 -0.43359,0.55078 -0.43359,1.78125 0,0.9961 0.35156,1.46485 0.35156,0.46875 0.91406,0.46875 0.79688,0 1.73438,-0.41016 z m 6.69141,-4.26562 h -1.66407 v -0.8086 l 1.66407,-0.45703 v -1.18359 q 0,-2.25 1.14843,-3.44532 1.14844,-1.20703 3.29297,-1.20703 1.16016,0 1.94531,0.22266 v 2.625 h -0.75 l -0.33984,-1.27734 q -0.28125,-0.28125 -0.73828,-0.28125 -1.17188,0 -1.17188,2.98828 v 1.60547 h 2.23829 v 1.21875 h -2.23829 v 8.74218 l 1.79297,0.28125 v 0.77344 h -6.375 v -0.77344 l 1.19532,-0.28125 z m 17.12109,9.79687 h -9.96094 v -2.21484 q 1.00781,-1.07813 1.86328,-1.9336 1.875,-1.85156 2.74219,-2.90625 0.86719,-1.0664 1.26563,-2.20312 0.41015,-1.13672 0.41015,-2.58985 0,-1.27734 -0.62109,-2.0625 -0.6211,-0.78515 -1.65235,-0.78515 -0.72656,0 -1.16015,0.15234 -0.4336,0.15235 -0.79688,0.45703 l -0.5039,2.27344 h -1.01953 v -3.57422 q 0.9375,-0.21094 1.82812,-0.35156 0.90234,-0.15234 1.95703,-0.15234 2.58985,0 3.96094,1.0664 1.38281,1.06641 1.38281,3.03516 0,1.23047 -0.41015,2.23828 -0.41016,0.99609 -1.30079,1.94531 -0.8789,0.94922 -3.51562,3.09375 -1.00781,0.82031 -2.17969,1.86328 h 7.71094 z"
    style="fill:#e3eaf2"
    aria-label="#e3eaf2"
  />
  <path
    d="m 341.14453,588.39258 -0.89062,4.8164 h -1.67579 l 0.89063,-4.8164 h -3.16406 l -0.86719,4.8164 h -1.71094 l 0.89063,-4.8164 h -1.83985 v -1.44141 h 2.13282 l 0.62109,-3.36328 h -2.75391 v -1.44141 h 3.02344 l 0.85547,-4.65234 h 1.6875 l -0.86719,4.65234 h 3.16406 l 0.86719,-4.65234 h 1.67578 l -0.86718,4.65234 h 1.82812 v 1.44141 h -2.08594 l -0.59765,3.36328 h 2.68359 v 1.44141 z m -3.9375,-4.80469 -0.62109,3.36328 H 339.75 l 0.63281,-3.36328 z m 15.84375,9 q -0.65625,0.42188 -1.00781,0.5625 -0.35156,0.12891 -0.79688,0.21094 -0.44531,0.082 -0.98437,0.082 -2.4375,0 -3.63281,-1.39453 -1.19532,-1.40625 -1.19532,-4.3125 0,-2.85938 1.27735,-4.34766 1.28906,-1.48828 3.72656,-1.48828 1.27734,0 2.57812,0.31641 -0.0703,-0.38672 -0.0703,-1.81641 v -2.78906 l -1.125,-0.28125 v -0.77344 h 4.51172 v 15.59766 l 1.20703,0.28125 v 0.77343 h -4.24219 z m -4.18359,-4.94531 q 0,2.1914 0.55078,3.35156 0.55078,1.14844 1.58203,1.14844 0.9375,0 1.94531,-0.50391 v -8.29687 q -0.91406,-0.2461 -1.85156,-0.2461 -1.05469,0 -1.64063,1.16016 -0.58593,1.14844 -0.58593,3.38672 z m 20.02734,-2.35547 q 0,8.15625 -5.15625,8.15625 -2.48437,0 -3.75,-2.08594 -1.26562,-2.08594 -1.26562,-6.07031 0,-3.90234 1.26562,-5.96484 1.26563,-2.07422 3.84375,-2.07422 2.48438,0 3.77344,2.05078 1.28906,2.03906 1.28906,5.98828 z m -3.43359,0 q 0,-3.65625 -0.41016,-5.25 -0.41016,-1.60547 -1.28906,-1.60547 -0.86719,0 -1.24219,1.54688 -0.36328,1.54687 -0.36328,5.30859 0,3.82031 0.375,5.40234 0.375,1.58203 1.23047,1.58203 0.86719,0 1.27734,-1.61718 0.42188,-1.62891 0.42188,-5.36719 z m 12.9375,7.30078 q -0.65625,0.42188 -1.00782,0.5625 -0.35156,0.12891 -0.79687,0.21094 -0.44531,0.082 -0.98438,0.082 -2.4375,0 -3.63281,-1.39453 -1.19531,-1.40625 -1.19531,-4.3125 0,-2.85938 1.27734,-4.34766 1.28907,-1.48828 3.72657,-1.48828 1.27734,0 2.57812,0.31641 -0.0703,-0.38672 -0.0703,-1.81641 v -2.78906 l -1.125,-0.28125 v -0.77344 h 4.51172 v 15.59766 l 1.20703,0.28125 v 0.77343 h -4.24219 z m -4.1836,-4.94531 q 0,2.1914 0.55078,3.35156 0.55079,1.14844 1.58204,1.14844 0.9375,0 1.94531,-0.50391 v -8.29687 q -0.91406,-0.2461 -1.85156,-0.2461 -1.05469,0 -1.64063,1.16016 -0.58594,1.14844 -0.58594,3.38672 z m 15.33985,-5.69531 q 4.13672,0 4.13672,3.04687 v 7.16016 l 1.10156,0.28125 v 0.77343 h -4.05469 l -0.25781,-0.84375 q -0.91406,0.6211 -1.65235,0.84375 -0.73828,0.23438 -1.48828,0.23438 -3.41015,0 -3.41015,-3.28125 0,-1.24219 0.5039,-1.98047 0.50391,-0.75 1.45313,-1.10156 0.94922,-0.36328 2.98828,-0.41016 l 1.42969,-0.0352 v -1.60547 q 0,-1.99219 -1.62891,-1.99219 -0.98437,0 -2.20312,0.60937 l -0.44532,1.3711 h -0.77343 v -2.66016 q 1.76953,-0.26953 2.60156,-0.33984 0.83203,-0.0703 1.69922,-0.0703 z m 0.75,5.73046 -0.98438,0.0352 q -1.13672,0.0469 -1.58203,0.59766 -0.43359,0.55078 -0.43359,1.78125 0,0.99609 0.35156,1.46484 0.35156,0.46875 0.91406,0.46875 0.79688,0 1.73438,-0.41016 z m 10.64062,-5.7539 q 2.23828,0 3.23438,1.19531 1.00781,1.19531 1.00781,3.71484 v 0.96094 h -5.77734 v 0.1875 q 0,1.7461 0.28125,2.48438 0.28125,0.73828 0.91406,1.125 0.63281,0.38672 1.73437,0.38672 1.03125,0 2.60157,-0.33985 v 0.90235 q -0.64454,0.38671 -1.67579,0.64453 -1.01953,0.24609 -1.99218,0.24609 -2.70703,0 -4.00782,-1.40625 -1.28906,-1.41797 -1.28906,-4.38281 0,-2.88281 1.23047,-4.30078 1.24219,-1.41797 3.73828,-1.41797 z m -0.1289,1.18359 q -0.70313,0 -1.05469,0.76172 -0.33985,0.76172 -0.33985,2.69531 h 2.55469 q 0,-1.57031 -0.10547,-2.20312 -0.10547,-0.64453 -0.36328,-0.94922 -0.24609,-0.30469 -0.6914,-0.30469 z m 7.38281,-1.125 h -1.01953 v -4.48828 h 10.04297 v 0.92578 l -6.10547,14.78906 h -2.80078 l 6.62109,-13.10156 h -6.19922 z"
    style="fill:#e3eaf2"
    aria-label="#d0dae7"
  />
  <path
    d="m 490.61133,588.39258 -0.89063,4.8164 h -1.67578 l 0.89063,-4.8164 h -3.16407 l -0.86718,4.8164 h -1.71094 l 0.89062,-4.8164 h -1.83984 v -1.44141 h 2.13281 l 0.6211,-3.36328 h -2.75391 v -1.44141 h 3.02344 l 0.85547,-4.65234 h 1.6875 l -0.86719,4.65234 h 3.16406 l 0.86719,-4.65234 h 1.67578 l -0.86719,4.65234 h 1.82813 v 1.44141 h -2.08594 l -0.59766,3.36328 h 2.6836 v 1.44141 z m -3.9375,-4.80469 -0.6211,3.36328 h 3.16407 l 0.63281,-3.36328 z m 18.09375,-2.22656 q 0,1.28906 -0.63281,2.20312 -0.63282,0.90235 -1.78125,1.3125 1.34765,0.50391 2.0625,1.5586 0.71484,1.05468 0.71484,2.53125 0,2.22656 -1.28906,3.35156 -1.27735,1.125 -3.98438,1.125 -5.13281,0 -5.13281,-4.47656 0,-1.5 0.72656,-2.55469 0.72656,-1.05469 2.01563,-1.53516 -1.13672,-0.43359 -1.75782,-1.33593 -0.62109,-0.90235 -0.62109,-2.21485 0,-1.92187 1.26563,-3 1.27734,-1.07812 3.59765,-1.07812 2.27344,0 3.53906,1.10156 1.27735,1.08984 1.27735,3.01172 z m -2.96485,7.60547 q 0,-1.80469 -0.46875,-2.625 -0.46875,-0.82032 -1.47656,-0.82032 -0.96094,0 -1.38281,0.79688 -0.42188,0.79687 -0.42188,2.64844 0,1.8164 0.42188,2.55468 0.43359,0.73829 1.38281,0.73829 1.00781,0 1.47656,-0.77344 0.46875,-0.77344 0.46875,-2.51953 z m -0.36328,-7.60547 q 0,-1.53516 -0.38672,-2.22656 -0.38671,-0.70313 -1.17187,-0.70313 -0.75,0 -1.11328,0.69141 -0.35156,0.6914 -0.35156,2.23828 0,1.59375 0.35156,2.25 0.35156,0.65625 1.11328,0.65625 0.80859,0 1.18359,-0.66797 0.375,-0.67969 0.375,-2.23828 z m 13.07813,11.22656 q -0.65625,0.42188 -1.00781,0.5625 -0.35157,0.12891 -0.79688,0.21094 -0.44531,0.082 -0.98437,0.082 -2.4375,0 -3.63282,-1.39453 -1.19531,-1.40625 -1.19531,-4.3125 0,-2.85938 1.27734,-4.34766 1.28907,-1.48828 3.72657,-1.48828 1.27734,0 2.57812,0.31641 -0.0703,-0.38672 -0.0703,-1.81641 v -2.78906 l -1.125,-0.28125 v -0.77344 h 4.51172 v 15.59766 l 1.20703,0.28125 v 0.77343 h -4.24219 z m -4.1836,-4.94531 q 0,2.1914 0.55079,3.35156 0.55078,1.14844 1.58203,1.14844 0.9375,0 1.94531,-0.50391 v -8.29687 q -0.91406,-0.2461 -1.85156,-0.2461 -1.05469,0 -1.64063,1.16016 -0.58594,1.14844 -0.58594,3.38672 z m 15.33985,-5.69531 q 4.13672,0 4.13672,3.04687 v 7.16016 l 1.10156,0.28125 v 0.77343 h -4.05469 l -0.25781,-0.84375 q -0.91406,0.6211 -1.65234,0.84375 -0.73829,0.23438 -1.48829,0.23438 -3.41015,0 -3.41015,-3.28125 0,-1.24219 0.5039,-1.98047 0.50391,-0.75 1.45313,-1.10156 0.94922,-0.36328 2.98828,-0.41016 l 1.42969,-0.0352 v -1.60547 q 0,-1.99219 -1.62891,-1.99219 -0.98437,0 -2.20312,0.60937 l -0.44532,1.3711 h -0.77343 v -2.66016 q 1.76953,-0.26953 2.60156,-0.33984 0.83203,-0.0703 1.69922,-0.0703 z m 0.75,5.73046 -0.98438,0.0352 q -1.13672,0.0469 -1.58203,0.59766 -0.43359,0.55078 -0.43359,1.78125 0,0.99609 0.35156,1.46484 0.35156,0.46875 0.91406,0.46875 0.79688,0 1.73438,-0.41016 z m 12.8789,4.24219 2.73047,0.28125 v 1.00781 h -8.83593 v -1.00781 l 2.71875,-0.28125 v -11.84765 l -2.70704,0.89062 v -0.99609 l 4.42969,-2.60157 h 1.66406 z m 12.91407,-4.53515 q 0,-2.16797 -0.53907,-3.17579 -0.52734,-1.00781 -1.74609,-1.00781 -0.44531,0 -0.97266,0.10547 -0.52734,0.0937 -0.86718,0.29297 v 8.42578 q 0.75,0.1875 1.83984,0.1875 1.16016,0 1.72266,-1.125 0.5625,-1.13672 0.5625,-3.70312 z m -7.51172,-9.79688 -1.125,-0.26953 v -0.76172 h 4.51172 v 4.04297 q 0,1.08984 -0.11719,2.21484 0.46875,-0.38672 1.34766,-0.64453 0.89062,-0.26953 1.73437,-0.26953 2.39063,0 3.49219,1.3125 1.10156,1.3125 1.10156,4.18359 0,2.83594 -1.41797,4.44141 -1.40625,1.60547 -3.97265,1.60547 -1.89844,0 -5.55469,-0.79688 z m 12.57422,4.69922 q 0,-2.39063 1.37109,-3.67969 1.37109,-1.28906 3.80859,-1.28906 2.75391,0 4.01954,1.93359 1.27734,1.9336 1.27734,6.0586 0,2.64843 -0.75,4.46484 -0.73828,1.81641 -2.13281,2.74219 -1.39453,0.92578 -3.35157,0.92578 -1.94531,0 -3.64453,-0.50391 v -3.57422 h 1.01953 l 0.50391,2.27344 q 0.41016,0.29297 0.97266,0.45703 0.57422,0.16407 1.10156,0.16407 1.26562,0 1.96875,-1.42969 0.71484,-1.44141 0.83203,-4.16016 -1.21875,0.4336 -2.42578,0.4336 -2.12109,0 -3.35156,-1.26563 -1.21875,-1.26562 -1.21875,-3.55078 z m 3.44531,0.0469 q 0,3.35157 1.82812,3.35157 0.89063,0 1.75782,-0.21094 v -0.16406 q 0,-3.38672 -0.41016,-5.09766 -0.39844,-1.71094 -1.41797,-1.71094 -1.75781,0 -1.75781,3.83203 z"
    style="fill:#e3eaf2"
    aria-label="#8da1b9"
  />
  <path
    d="m 641.66016,588.39258 -0.89063,4.8164 h -1.67578 l 0.89062,-4.8164 h -3.16406 l -0.86719,4.8164 h -1.71093 l 0.89062,-4.8164 h -1.83984 v -1.44141 h 2.13281 l 0.62109,-3.36328 h -2.7539 v -1.44141 h 3.02344 l 0.85546,-4.65234 h 1.6875 l -0.86718,4.65234 h 3.16406 l 0.86719,-4.65234 h 1.67578 l -0.86719,4.65234 h 1.82813 v 1.44141 h -2.08594 l -0.59766,3.36328 h 2.6836 v 1.44141 z m -3.9375,-4.80469 -0.6211,3.36328 h 3.16406 l 0.63282,-3.36328 z m 18.43359,5.34375 q 0,2.14453 -1.53516,3.32813 -1.53515,1.18359 -4.26562,1.18359 -2.17969,0 -4.33594,-0.46875 l -0.14062,-3.80859 h 1.07812 l 0.60938,2.51953 q 1.01953,0.57422 2.13281,0.57422 1.41797,0 2.21484,-0.90235 0.79688,-0.91406 0.79688,-2.54297 0,-1.41797 -0.64453,-2.16797 -0.63282,-0.76171 -2.0625,-0.85546 l -1.35938,-0.082 v -1.41796 l 1.3125,-0.0937 q 1.04297,-0.0703 1.53516,-0.76172 0.5039,-0.70313 0.5039,-2.10938 0,-1.3125 -0.59765,-2.0625 -0.58594,-0.75 -1.67578,-0.75 -0.63282,0 -1.04297,0.19922 -0.39844,0.1875 -0.76172,0.41016 l -0.50391,2.27343 h -1.01953 v -3.57421 q 1.19531,-0.30469 2.0625,-0.39844 0.86719,-0.10547 1.71094,-0.10547 5.28515,0 5.28515,3.86719 0,1.59375 -0.84375,2.57812 -0.84375,0.98438 -2.41406,1.21875 3.96094,0.48047 3.96094,3.94922 z m 10.875,3.60938 q -0.52734,0.42187 -1.46484,0.65625 -0.92579,0.23437 -1.91016,0.23437 -2.94141,0 -4.40625,-1.41797 -1.45313,-1.41797 -1.45313,-4.33594 0,-1.8164 0.65625,-3.10546 0.66797,-1.30079 1.89844,-1.98047 1.23047,-0.69141 2.85938,-0.69141 1.64062,0 3.57422,0.41016 v 3.25781 h -0.84375 l -0.49219,-1.93359 q -0.39844,-0.29297 -0.78516,-0.41016 -0.38672,-0.11719 -1.01953,-0.11719 -0.69141,0 -1.25391,0.55078 -0.5625,0.55078 -0.8789,1.5586 -0.30469,0.99609 -0.30469,2.39062 0,2.35547 0.72656,3.36328 0.73828,1.00782 2.33203,1.00782 1.61719,0 2.76563,-0.33985 z m 6.22266,-8.625 q 2.78906,0 4.13671,1.14843 1.35938,1.14844 1.35938,3.46875 0,2.36719 -1.47656,3.64453 -1.46485,1.26563 -4.20703,1.26563 -2.17969,0 -4.33594,-0.46875 l -0.14063,-3.80859 h 1.07813 l 0.60937,2.51953 q 0.45703,0.25781 1.125,0.42187 0.66797,0.15235 1.20703,0.15235 2.69532,0 2.69532,-3.60938 0,-1.875 -0.69141,-2.70703 -0.67969,-0.84375 -2.17969,-0.84375 -0.83203,0 -1.52343,0.30469 l -0.36329,0.15234 H 669.375 v -8.0625 h 8.20312 v 2.61328 h -6.90234 v 4.125 q 1.42969,-0.3164 2.57813,-0.3164 z m 17.34375,9.29296 h -9.96094 v -2.21484 q 1.00781,-1.07812 1.86328,-1.93359 1.875,-1.85157 2.74219,-2.90625 0.86718,-1.06641 1.26562,-2.20313 0.41016,-1.13672 0.41016,-2.58984 0,-1.27735 -0.6211,-2.0625 -0.62109,-0.78516 -1.65234,-0.78516 -0.72656,0 -1.16016,0.15235 -0.43359,0.15234 -0.79687,0.45703 l -0.50391,2.27343 h -1.01953 v -3.57421 q 0.9375,-0.21094 1.82813,-0.35157 0.90234,-0.15234 1.95703,-0.15234 2.58984,0 3.96094,1.06641 1.38281,1.0664 1.38281,3.03515 0,1.23047 -0.41016,2.23828 -0.41015,0.9961 -1.30078,1.94532 -0.87891,0.94921 -3.51562,3.09375 -1.00782,0.82031 -2.17969,1.86328 h 7.71094 z m 12.32812,-4.875 q 0,2.47266 -1.27734,3.79688 -1.27735,1.3125 -3.63282,1.3125 -2.69531,0 -4.13671,-2.05078 -1.42969,-2.05078 -1.42969,-5.94141 0,-2.53125 0.75,-4.37109 0.76172,-1.83985 2.12109,-2.80078 1.35938,-0.96094 3.12891,-0.96094 1.82812,0 3.52734,0.50391 v 3.57421 h -1.01953 l -0.50391,-2.27343 q -0.80859,-0.60938 -1.76953,-0.60938 -1.17187,0 -1.91015,1.5 -0.72657,1.5 -0.85547,4.19531 1.27734,-0.55078 2.53125,-0.55078 2.14453,0 3.30469,1.20703 1.17187,1.20704 1.17187,3.46875 z m -4.95703,3.92579 q 0.85547,0 1.18359,-0.92579 0.32813,-0.92578 0.32813,-2.77734 0,-1.65234 -0.45703,-2.54297 -0.45703,-0.89062 -1.35938,-0.89062 -0.86719,0 -1.76953,0.26953 v 0.0586 q 0,6.8086 2.07422,6.8086 z m 14.25,0.32812 q -0.65625,0.42188 -1.00781,0.5625 -0.35157,0.12891 -0.79688,0.21094 -0.44531,0.082 -0.98437,0.082 -2.4375,0 -3.63282,-1.39453 -1.19531,-1.40625 -1.19531,-4.3125 0,-2.85938 1.27735,-4.34766 1.28906,-1.48828 3.72656,-1.48828 1.27734,0 2.57812,0.31641 -0.0703,-0.38672 -0.0703,-1.81641 v -2.78906 l -1.125,-0.28125 v -0.77344 H 715.5 v 15.59766 l 1.20703,0.28125 v 0.77343 h -4.24219 z m -4.18359,-4.94531 q 0,2.1914 0.55078,3.35156 0.55078,1.14844 1.58203,1.14844 0.9375,0 1.94531,-0.50391 v -8.29687 q -0.91406,-0.2461 -1.85156,-0.2461 -1.05469,0 -1.64063,1.16016 -0.58593,1.14844 -0.58593,3.38672 z"
    style="fill:#e3eaf2"
    aria-label="#3c526d"
  />
  <path
    d="m 791.93555,588.04687 -0.89063,4.81641 h -1.67578 l 0.89063,-4.81641 h -3.16407 l -0.86718,4.81641 h -1.71094 l 0.89062,-4.81641 h -1.83984 v -1.4414 h 2.13281 l 0.6211,-3.36328 h -2.75391 v -1.44141 h 3.02344 l 0.85547,-4.65234 h 1.6875 l -0.86719,4.65234 h 3.16406 l 0.86719,-4.65234 h 1.67578 l -0.86719,4.65234 h 1.82813 v 1.44141 h -2.08594 l -0.59766,3.36328 h 2.6836 v 1.4414 z m -3.9375,-4.80468 -0.6211,3.36328 h 3.16407 l 0.63281,-3.36328 z m 18.22265,9.62109 h -9.96093 v -2.21484 q 1.00781,-1.07813 1.86328,-1.9336 1.875,-1.85156 2.74218,-2.90625 0.86719,-1.0664 1.26563,-2.20312 0.41016,-1.13672 0.41016,-2.58985 0,-1.27734 -0.6211,-2.0625 -0.62109,-0.78515 -1.65234,-0.78515 -0.72656,0 -1.16016,0.15234 -0.43359,0.15235 -0.79687,0.45703 l -0.50391,2.27344 h -1.01953 v -3.57422 q 0.9375,-0.21094 1.82812,-0.35156 0.90235,-0.15234 1.95704,-0.15234 2.58984,0 3.96093,1.0664 1.38282,1.06641 1.38282,3.03516 0,1.23047 -0.41016,2.23828 -0.41016,0.99609 -1.30078,1.94531 -0.87891,0.94922 -3.51563,3.09375 -1.00781,0.82031 -2.17968,1.86328 h 7.71093 z m 9.0586,-1.28906 2.73047,0.28125 v 1.00781 h -8.83594 v -1.00781 l 2.71875,-0.28125 v -11.84766 l -2.70703,0.89063 v -0.9961 l 4.42968,-2.60156 h 1.66407 z m 15.15234,-2.98828 q 0,2.14453 -1.53516,3.32812 -1.53515,1.1836 -4.26562,1.1836 -2.17969,0 -4.33594,-0.46875 l -0.14062,-3.8086 h 1.07812 l 0.60938,2.51953 q 1.01953,0.57422 2.13281,0.57422 1.41797,0 2.21484,-0.90234 0.79688,-0.91406 0.79688,-2.54297 0,-1.41797 -0.64453,-2.16797 -0.63282,-0.76172 -2.0625,-0.85547 l -1.35938,-0.082 v -1.41797 l 1.3125,-0.0937 q 1.04297,-0.0703 1.53516,-0.76172 0.5039,-0.70312 0.5039,-2.10937 0,-1.3125 -0.59765,-2.0625 -0.58594,-0.75 -1.67578,-0.75 -0.63282,0 -1.04297,0.19922 -0.39844,0.1875 -0.76172,0.41015 l -0.50391,2.27344 h -1.01953 v -3.57422 q 1.19531,-0.30469 2.0625,-0.39844 0.86719,-0.10546 1.71094,-0.10546 5.28516,0 5.28516,3.86718 0,1.59375 -0.84375,2.57813 -0.84375,0.98437 -2.41407,1.21875 3.96094,0.48047 3.96094,3.94922 z m 11.90625,-3.64453 q 0,8.15625 -5.15625,8.15625 -2.48437,0 -3.75,-2.08594 -1.26562,-2.08594 -1.26562,-6.07031 0,-3.90235 1.26562,-5.96485 1.26563,-2.07422 3.84375,-2.07422 2.48438,0 3.77344,2.05078 1.28906,2.03907 1.28906,5.98829 z m -3.43359,0 q 0,-3.65625 -0.41016,-5.25 -0.41016,-1.60547 -1.28906,-1.60547 -0.86719,0 -1.24219,1.54687 -0.36328,1.54688 -0.36328,5.3086 0,3.82031 0.375,5.40234 0.375,1.58203 1.23047,1.58203 0.86719,0 1.27734,-1.61719 0.42188,-1.6289 0.42188,-5.36718 z m 14.33203,4.8164 v 3.10547 h -3.15235 v -3.10547 h -6.5039 v -1.91015 l 7.07812,-10.78125 h 2.57813 v 10.28906 h 1.57031 v 2.40234 z m -3.15235,-7.05469 q 0,-1.3125 0.11719,-2.48437 l -4.67578,7.13672 h 4.55859 z m 16.34766,5.88282 q 0,2.14453 -1.53516,3.32812 -1.53515,1.1836 -4.26562,1.1836 -2.17969,0 -4.33594,-0.46875 l -0.14062,-3.8086 h 1.07812 l 0.60938,2.51953 q 1.01953,0.57422 2.13281,0.57422 1.41797,0 2.21484,-0.90234 0.79688,-0.91406 0.79688,-2.54297 0,-1.41797 -0.64453,-2.16797 -0.63282,-0.76172 -2.0625,-0.85547 l -1.35938,-0.082 v -1.41797 l 1.3125,-0.0937 q 1.04297,-0.0703 1.53516,-0.76172 0.5039,-0.70312 0.5039,-2.10937 0,-1.3125 -0.59765,-2.0625 -0.58594,-0.75 -1.67578,-0.75 -0.63282,0 -1.04297,0.19922 -0.39844,0.1875 -0.76172,0.41015 l -0.50391,2.27344 h -1.01953 v -3.57422 q 1.19531,-0.30469 2.0625,-0.39844 0.86719,-0.10546 1.71094,-0.10546 5.28516,0 5.28516,3.86718 0,1.59375 -0.84375,2.57813 -0.84375,0.98437 -2.41407,1.21875 3.96094,0.48047 3.96094,3.94922 z"
    style="fill:#e3eaf2"
    aria-label="#213043"
  />
  <path
    d="m 942.46875,588.39258 -0.89063,4.8164 h -1.67578 l 0.89063,-4.8164 h -3.16406 l -0.86719,4.8164 h -1.71094 l 0.89063,-4.8164 h -1.83985 v -1.44141 h 2.13281 l 0.6211,-3.36328 h -2.75391 v -1.44141 h 3.02344 l 0.85547,-4.65234 h 1.6875 l -0.86719,4.65234 h 3.16406 l 0.86719,-4.65234 h 1.67578 l -0.86719,4.65234 h 1.82813 v 1.44141 h -2.08594 l -0.59765,3.36328 h 2.68359 v 1.44141 z m -3.9375,-4.80469 -0.62109,3.36328 h 3.16406 l 0.63281,-3.36328 z m 15.28125,8.33203 2.73047,0.28125 v 1.00781 h -8.83594 v -1.00781 l 2.71875,-0.28125 v -11.84765 l -2.70703,0.89062 v -0.99609 l 4.42969,-2.60157 h 1.66406 z m 10.67578,0 2.73047,0.28125 v 1.00781 h -8.83594 v -1.00781 l 2.71875,-0.28125 v -11.84765 l -2.70703,0.89062 v -0.99609 l 4.42969,-2.60157 h 1.66406 z m 10.67578,0 2.73047,0.28125 v 1.00781 h -8.83594 v -1.00781 l 2.71875,-0.28125 v -11.84765 l -2.70703,0.89062 V 579.9668 L 973.5,577.36523 h 1.66406 z m 12.91406,-4.53515 q 0,-2.16797 -0.53906,-3.17579 -0.52734,-1.00781 -1.74609,-1.00781 -0.44531,0 -0.97266,0.10547 -0.52734,0.0937 -0.86719,0.29297 v 8.42578 q 0.75,0.1875 1.83985,0.1875 1.16015,0 1.72265,-1.125 0.5625,-1.13672 0.5625,-3.70312 z m -7.51171,-9.79688 -1.125,-0.26953 v -0.76172 h 4.51171 v 4.04297 q 0,1.08984 -0.11718,2.21484 0.46875,-0.38672 1.34765,-0.64453 0.89063,-0.26953 1.73438,-0.26953 2.39062,0 3.49219,1.3125 1.10156,1.3125 1.10156,4.18359 0,2.83594 -1.41797,4.44141 -1.40625,1.60547 -3.97266,1.60547 -1.89843,0 -5.55468,-0.79688 z m 22.88669,15.62109 h -9.96091 v -2.21484 q 1.00781,-1.07812 1.86328,-1.93359 1.875,-1.85157 2.74219,-2.90625 0.86718,-1.06641 1.26562,-2.20313 0.41016,-1.13672 0.41016,-2.58984 0,-1.27735 -0.6211,-2.0625 -0.62109,-0.78516 -1.65234,-0.78516 -0.72656,0 -1.16016,0.15235 -0.43359,0.15234 -0.79687,0.45703 l -0.50391,2.27343 h -1.01953 v -3.57421 q 0.9375,-0.21094 1.82813,-0.35157 0.90234,-0.15234 1.95703,-0.15234 2.58981,0 3.96091,1.06641 1.3828,1.0664 1.3828,3.03515 0,1.23047 -0.4101,2.23828 -0.4102,0.9961 -1.3008,1.94532 -0.8789,0.94921 -3.51563,3.09375 -1.00781,0.82031 -2.17968,1.86328 h 7.71091 z m 3.4219,-11.22656 h -1.0195 v -4.48828 h 10.0429 v 0.92578 l -6.1054,14.78906 h -2.8008 l 6.6211,-13.10156 h -6.1992 z"
    style="fill:#e3eaf2"
    aria-label="#111b27"
  />
  <path
    d="m 1090.6641,588.39258 -0.8907,4.8164 h -1.6757 l 0.8906,-4.8164 h -3.1641 l -0.8672,4.8164 h -1.7109 l 0.8906,-4.8164 h -1.8398 v -1.44141 h 2.1328 l 0.6211,-3.36328 h -2.7539 v -1.44141 h 3.0234 l 0.8555,-4.65234 h 1.6875 l -0.8672,4.65234 h 3.1641 l 0.8671,-4.65234 h 1.6758 l -0.8672,4.65234 h 1.8282 v 1.44141 h -2.086 l -0.5976,3.36328 h 2.6836 v 1.44141 z m -3.9375,-4.80469 -0.6211,3.36328 h 3.164 l 0.6328,-3.36328 z m 18.3398,1.69922 q 0,8.15625 -5.1562,8.15625 -2.4844,0 -3.75,-2.08594 -1.2657,-2.08594 -1.2657,-6.07031 0,-3.90234 1.2657,-5.96484 1.2656,-2.07422 3.8437,-2.07422 2.4844,0 3.7734,2.05078 1.2891,2.03906 1.2891,5.98828 z m -3.4336,0 q 0,-3.65625 -0.4101,-5.25 -0.4102,-1.60547 -1.2891,-1.60547 -0.8672,0 -1.2422,1.54688 -0.3633,1.54687 -0.3633,5.30859 0,3.82031 0.375,5.40234 0.375,1.58203 1.2305,1.58203 0.8672,0 1.2773,-1.61718 0.4219,-1.62891 0.4219,-5.36719 z m 13.2891,2.09766 q 0,-2.16797 -0.5391,-3.17579 -0.5273,-1.00781 -1.7461,-1.00781 -0.4453,0 -0.9726,0.10547 -0.5274,0.0937 -0.8672,0.29297 v 8.42578 q 0.75,0.1875 1.8398,0.1875 1.1602,0 1.7227,-1.125 0.5625,-1.13672 0.5625,-3.70312 z m -7.5117,-9.79688 -1.125,-0.26953 v -0.76172 h 4.5117 v 4.04297 q 0,1.08984 -0.1172,2.21484 0.4687,-0.38672 1.3476,-0.64453 0.8907,-0.26953 1.7344,-0.26953 2.3906,0 3.4922,1.3125 1.1016,1.3125 1.1016,4.18359 0,2.83594 -1.418,4.44141 -1.4062,1.60547 -3.9727,1.60547 -1.8984,0 -5.5546,-0.79688 z m 19.9453,14.33203 2.7304,0.28125 v 1.00781 h -8.8359 v -1.00781 l 2.7188,-0.28125 v -11.84765 l -2.7071,0.89062 v -0.99609 l 4.4297,-2.60157 h 1.6641 z m 14.9414,1.28906 h -9.961 v -2.21484 q 1.0079,-1.07812 1.8633,-1.93359 1.875,-1.85157 2.7422,-2.90625 0.8672,-1.06641 1.2656,-2.20313 0.4102,-1.13672 0.4102,-2.58984 0,-1.27735 -0.6211,-2.0625 -0.6211,-0.78516 -1.6523,-0.78516 -0.7266,0 -1.1602,0.15235 -0.4336,0.15234 -0.7969,0.45703 l -0.5039,2.27343 h -1.0195 v -3.57421 q 0.9375,-0.21094 1.8281,-0.35157 0.9024,-0.15234 1.957,-0.15234 2.5899,0 3.961,1.06641 1.3828,1.0664 1.3828,3.03515 0,1.23047 -0.4102,2.23828 -0.4101,0.9961 -1.3007,1.94532 -0.879,0.94921 -3.5157,3.09375 -1.0078,0.82031 -2.1797,1.86328 h 7.711 z m 9.0586,-1.28906 2.7304,0.28125 v 1.00781 h -8.8359 v -1.00781 l 2.7188,-0.28125 v -11.84765 l -2.7071,0.89062 v -0.99609 l 4.4297,-2.60157 h 1.6641 z m 12.914,-4.53515 q 0,-2.16797 -0.539,-3.17579 -0.5274,-1.00781 -1.7461,-1.00781 -0.4453,0 -0.9727,0.10547 -0.5273,0.0937 -0.8672,0.29297 v 8.42578 q 0.75,0.1875 1.8399,0.1875 1.1601,0 1.7226,-1.125 0.5625,-1.13672 0.5625,-3.70312 z m -7.5117,-9.79688 -1.125,-0.26953 v -0.76172 h 4.5117 v 4.04297 q 0,1.08984 -0.1172,2.21484 0.4688,-0.38672 1.3477,-0.64453 0.8906,-0.26953 1.7344,-0.26953 2.3906,0 3.4922,1.3125 1.1015,1.3125 1.1015,4.18359 0,2.83594 -1.4179,4.44141 -1.4063,1.60547 -3.9727,1.60547 -1.8984,0 -5.5547,-0.79688 z"
    style="fill:#e3eaf2"
    aria-label="#0b121b"
  />
  <path
    d="m 399.76562,116.51563 q -10.53125,0 -16.4375,-5.59375 -5.90625,-5.59375 -5.90625,-15.500005 0,-10.75 5.625,-16.3125 5.65625,-5.59375 16.6875,-5.59375 7.28125,0 15.09375,2.09375 l 0.1875,10.0625 h -2.8125 l -0.875,-6.0625 q -4.125,-2.8125 -9.59375,-2.8125 -7.25,0 -10.59375,4.53125 -3.34375,4.5 -3.34375,14 0,8.781255 3.5,13.375005 3.5,4.59375 10.1875,4.59375 3.53125,0 6.15625,-0.9375 2.65625,-0.9375 4.15625,-2.21875 l 1,-6.875 h 2.84375 l -0.1875,10.625 q -2.8125,1.09375 -7.3125,1.875 -4.5,0.75 -8.375,0.75 z m 50.3125,-15.46875 q 0,7.90625 -3.40625,11.6875 -3.375,3.78125 -10.34375,3.78125 -6.75,0 -10.0625,-3.8125 -3.3125,-3.84375 -3.3125,-11.65625 0,-7.781255 3.34375,-11.531255 3.375,-3.78125 10.28125,-3.78125 6.96875,0 10.21875,3.90625 3.28125,3.875 3.28125,11.406255 z m -9.15625,0 q 0,-6.875005 -1.03125,-9.500005 -1,-2.65625 -3.5,-2.65625 -2.40625,0 -3.34375,2.53125 -0.9375,2.53125 -0.9375,9.625005 0,7.21875 0.9375,9.78125 0.96875,2.5625 3.34375,2.5625 2.46875,0 3.5,-2.6875 1.03125,-2.71875 1.03125,-9.65625 z m 25.15625,-11.968755 2.125,-1.09375 q 4.375,-2.25 7.84375,-2.25 5.25,0 7,3.8125 6.40625,-3.8125 10.8125,-3.8125 7.9375,0 7.9375,8.65625 v 18.687505 l 2.9375,0.75 v 2.0625 h -14.59375 v -2.0625 l 2.625,-0.75 V 95.609375 q 0,-2.625 -1.03125,-4.09375 -1,-1.46875 -3.0625,-1.46875 -2.3125,0 -5,1.3125 0.3125,1.3125 0.3125,3.03125 v 18.687505 l 2.9375,0.75 v 2.0625 h -14.59375 v -2.0625 l 2.625,-0.75 V 95.609375 q 0,-2.625 -1.03125,-4.09375 -1,-1.46875 -3.0625,-1.46875 -2.0625,0 -4.71875,1.21875 v 21.812505 l 2.6875,0.75 v 2.0625 h -14.59375 v -2.0625 l 2.875,-0.75 V 89.328125 l -2.875,-0.75 v -2.0625 h 11.40625 z m 53.3125,0 2.125,-1.09375 q 4.375,-2.25 7.84375,-2.25 5.25,0 7,3.8125 6.40625,-3.8125 10.8125,-3.8125 7.9375,0 7.9375,8.65625 v 18.687505 l 2.9375,0.75 v 2.0625 h -14.59375 v -2.0625 l 2.625,-0.75 V 95.609375 q 0,-2.625 -1.03125,-4.09375 -1,-1.46875 -3.0625,-1.46875 -2.3125,0 -5,1.3125 0.3125,1.3125 0.3125,3.03125 v 18.687505 l 2.9375,0.75 v 2.0625 h -14.59375 v -2.0625 l 2.625,-0.75 V 95.609375 q 0,-2.625 -1.03125,-4.09375 -1,-1.46875 -3.0625,-1.46875 -2.0625,0 -4.71875,1.21875 v 21.812505 l 2.6875,0.75 v 2.0625 h -14.59375 v -2.0625 l 2.875,-0.75 V 89.328125 l -2.875,-0.75 v -2.0625 h 11.40625 z m 69.3125,11.968755 q 0,7.90625 -3.40625,11.6875 -3.375,3.78125 -10.34375,3.78125 -6.75,0 -10.0625,-3.8125 -3.3125,-3.84375 -3.3125,-11.65625 0,-7.781255 3.34375,-11.531255 3.375,-3.78125 10.28125,-3.78125 6.96875,0 10.21875,3.90625 3.28125,3.875 3.28125,11.406255 z m -9.15625,0 q 0,-6.875005 -1.03125,-9.500005 -1,-2.65625 -3.5,-2.65625 -2.40625,0 -3.34375,2.53125 -0.9375,2.53125 -0.9375,9.625005 0,7.21875 0.9375,9.78125 0.96875,2.5625 3.34375,2.5625 2.46875,0 3.5,-2.6875 1.03125,-2.71875 1.03125,-9.65625 z m 25.15625,-11.968755 2.125,-1.09375 q 4.375,-2.25 7.875,-2.25 8.125,0 8.125,8.65625 v 18.687505 l 2.9375,0.75 v 2.0625 h -14.59375 v -2.0625 l 2.625,-0.75 V 95.609375 q 0,-2.625 -1.125,-4.09375 -1.09375,-1.46875 -3.15625,-1.46875 -2.375,0 -4.75,1.0625 v 21.968755 l 2.6875,0.75 v 2.0625 h -14.59375 v -2.0625 l 2.875,-0.75 V 89.328125 l -2.875,-0.75 v -2.0625 h 11.40625 z m 61.375,17.500005 q 0,4.90625 -3.03125,7.4375 -3,2.5 -8.75,2.5 -2.375,0 -5.25,-0.53125 -2.84375,-0.5 -4.3125,-1.0625 v -8 h 2.0625 l 1.1875,4.125 q 1.09375,1.09375 2.875,1.84375 1.78125,0.71875 3.625,0.71875 2.71875,0 4.03125,-1.15625 1.34375,-1.1875 1.34375,-3 0,-1.71875 -1.28125,-2.75 -1.28125,-1.03125 -5.59375,-2.375 -4.53125,-1.40625 -6.4375,-3.84375 -1.875,-2.437505 -1.875,-6.000005 0,-4 2.96875,-6.375 2.96875,-2.375 7.65625,-2.375 3.21875,0 8.65625,0.90625 v 7.53125 h -2.0625 l -1,-3.4375 q -0.90625,-0.90625 -2.5625,-1.46875 -1.625,-0.59375 -3.09375,-0.59375 -2.25,0 -3.34375,0.9375 -1.0625,0.90625 -1.0625,2.5 0,1.65625 1.34375,2.71875 1.34375,1.0625 5.53125,2.3125 4.5625,1.40625 6.46875,3.718755 1.90625,2.28125 1.90625,5.71875 z m 15.1875,-22.375005 q 0,2.0625 -0.1875,4.875 l 2.15625,-1.09375 q 4.4375,-2.25 7.96875,-2.25 8.125,0 8.125,8.65625 v 18.687505 l 2.9375,0.75 v 2.0625 h -14.59375 v -2.0625 l 2.625,-0.75 V 95.609375 q 0,-2.625 -1.125,-4.09375 -1.09375,-1.46875 -3.15625,-1.46875 -2.375,0 -4.75,1.0625 v 21.968755 l 2.6875,0.75 v 2.0625 h -14.59375 v -2.0625 l 2.875,-0.75 V 74.296875 l -3,-0.75 v -2.0625 h 12.03125 z m 39.03125,1.65625 q 11.03125,0 11.03125,8.125 v 19.093755 l 2.9375,0.75 v 2.0625 h -10.8125 l -0.6875,-2.25 q -2.4375,1.65625 -4.40625,2.25 -1.96875,0.625 -3.96875,0.625 -9.09375,0 -9.09375,-8.75 0,-3.3125 1.34375,-5.28125 1.34375,-2 3.875,-2.937505 2.53125,-0.96875 7.96875,-1.09375 l 3.8125,-0.0937 v -4.28125 q 0,-5.3125 -4.34375,-5.3125 -2.625,0 -5.875,1.625 l -1.1875,3.65625 h -2.0625 v -7.09375 q 4.71875,-0.71875 6.9375,-0.90625 2.21875,-0.1875 4.53125,-0.1875 z m 2,15.281255 -2.625,0.0937 q -3.03125,0.125 -4.21875,1.59375 -1.15625,1.46875 -1.15625,4.75 0,2.65625 0.9375,3.90625 0.9375,1.25 2.4375,1.25 2.125,0 4.625,-1.09375 z m 35.84375,13.09375 q -1.75,1.125 -2.6875,1.5 -0.9375,0.34375 -2.125,0.5625 -1.1875,0.21875 -2.625,0.21875 -6.5,0 -9.6875,-3.71875 -3.1875,-3.75 -3.1875,-11.5 0,-7.625005 3.40625,-11.593755 3.4375,-3.96875 9.9375,-3.96875 3.40625,0 6.875,0.84375 -0.1875,-1.03125 -0.1875,-4.84375 v -7.4375 l -3,-0.75 v -2.0625 h 12.03125 v 41.593755 l 3.21875,0.75 v 2.0625 h -11.3125 z m -11.15625,-13.1875 q 0,5.84375 1.46875,8.9375 1.46875,3.0625 4.21875,3.0625 2.5,0 5.1875,-1.34375 V 89.578125 q -2.4375,-0.65625 -4.9375,-0.65625 -2.8125,0 -4.375,3.09375 -1.5625,3.0625 -1.5625,9.031255 z m 39.28125,-15.250005 q 5.96875,0 8.625,3.1875 2.6875,3.1875 2.6875,9.90625 v 2.562505 h -15.40625 v 0.5 q 0,4.65625 0.75,6.625 0.75,1.96875 2.4375,3 1.6875,1.03125 4.625,1.03125 2.75,0 6.9375,-0.90625 v 2.40625 q -1.71875,1.03125 -4.46875,1.71875 -2.71875,0.65625 -5.3125,0.65625 -7.21875,0 -10.6875,-3.75 -3.4375,-3.78125 -3.4375,-11.6875 0,-7.687505 3.28125,-11.468755 3.3125,-3.78125 9.96875,-3.78125 z m -0.34375,3.15625 q -1.875,0 -2.8125,2.03125 -0.90625,2.03125 -0.90625,7.1875 h 6.8125 q 0,-4.1875 -0.28125,-5.875 -0.28125,-1.71875 -0.96875,-2.53125 -0.65625,-0.8125 -1.84375,-0.8125 z m 36.65625,17.625005 q 0,4.90625 -3.03125,7.4375 -3,2.5 -8.75,2.5 -2.375,0 -5.25,-0.53125 -2.84375,-0.5 -4.3125,-1.0625 v -8 h 2.0625 l 1.1875,4.125 q 1.09375,1.09375 2.875,1.84375 1.78125,0.71875 3.625,0.71875 2.71875,0 4.03125,-1.15625 1.34375,-1.1875 1.34375,-3 0,-1.71875 -1.28125,-2.75 -1.28125,-1.03125 -5.59375,-2.375 -4.53125,-1.40625 -6.4375,-3.84375 -1.875,-2.437505 -1.875,-6.000005 0,-4 2.96875,-6.375 2.96875,-2.375 7.65625,-2.375 3.21875,0 8.65625,0.90625 v 7.53125 h -2.0625 l -1,-3.4375 q -0.90625,-0.90625 -2.5625,-1.46875 -1.625,-0.59375 -3.09375,-0.59375 -2.25,0 -3.34375,0.9375 -1.0625,0.90625 -1.0625,2.5 0,1.65625 1.34375,2.71875 1.34375,1.0625 5.53125,2.3125 4.5625,1.40625 6.46875,3.718755 1.90625,2.28125 1.90625,5.71875 z"
    style="fill:#e3eaf2"
    aria-label="Common shades"
  />
  <path
    style="fill:#111b27;"
    d="m 0,192 h 1200 v 90 H 0 Z"
  />
  <path
    d="m 33.767575,244.54102 q -0.52734,0.42188 -1.46484,0.65625 -0.92578,0.23438 -1.91016,0.23438 -2.9414,0 -4.40625,-1.41797 -1.45312,-1.41797 -1.45312,-4.33594 0,-1.8164 0.65625,-3.10547 0.66797,-1.30078 1.89844,-1.98046 1.23046,-0.69141 2.85937,-0.69141 1.64063,0 3.57422,0.41016 v 3.25781 h -0.84375 l -0.49219,-1.9336 q -0.39844,-0.29296 -0.78515,-0.41015 -0.38672,-0.11719 -1.01954,-0.11719 -0.6914,0 -1.2539,0.55079 -0.5625,0.55078 -0.87891,1.5586 -0.30469,0.99609 -0.30469,2.39062 0,2.35547 0.72657,3.36328 0.73828,1.00781 2.33203,1.00781 1.61719,0 2.76562,-0.33984 z m 11.6836,-4.89843 q 0,2.96484 -1.27735,4.38281 -1.26562,1.41797 -3.8789,1.41797 -2.53125,0 -3.77344,-1.42969 -1.24219,-1.4414 -1.24219,-4.37109 0,-2.91797 1.25391,-4.32422 1.26562,-1.41797 3.85547,-1.41797 2.61328,0 3.83203,1.46485 1.23047,1.45312 1.23047,4.27734 z m -3.4336,0 q 0,-2.57812 -0.38672,-3.5625 -0.375,-0.9961 -1.3125,-0.9961 -0.90234,0 -1.2539,0.94922 -0.35156,0.94922 -0.35156,3.60938 0,2.70703 0.35156,3.66797 0.36328,0.96093 1.2539,0.96093 0.92579,0 1.3125,-1.00781 0.38672,-1.01953 0.38672,-3.62109 z m 9.39844,4.51172 1.20703,0.28125 v 0.77343 h -5.78906 v -0.77343 l 1.19531,-0.28125 v -14.54297 l -1.125,-0.28125 v -0.77344 h 4.51172 z m 10.20703,0.43359 q -0.65625,0.42188 -1.00781,0.5625 -0.35156,0.12891 -0.79688,0.21094 -0.44531,0.082 -0.98437,0.082 -2.4375,0 -3.63281,-1.39453 -1.19532,-1.40625 -1.19532,-4.3125 0,-2.85938 1.27735,-4.34766 1.28906,-1.48828 3.72656,-1.48828 1.27734,0 2.57813,0.31641 -0.0703,-0.38672 -0.0703,-1.81641 v -2.78906 l -1.125,-0.28125 v -0.77344 h 4.51172 v 15.59766 l 1.20703,0.28125 v 0.77343 h -4.24218 z m -4.18359,-4.94531 q 0,2.1914 0.55078,3.35156 0.55078,1.14844 1.58203,1.14844 0.9375,0 1.94531,-0.50391 v -8.29687 q -0.91406,-0.2461 -1.85156,-0.2461 -1.05469,0 -1.64062,1.16016 -0.58594,1.14844 -0.58594,3.38672 z m 15.33984,-5.69532 q 4.13672,0 4.13672,3.04688 v 7.16016 l 1.10156,0.28125 v 0.77343 h -4.05468 l -0.25782,-0.84375 q -0.91406,0.6211 -1.65234,0.84375 -0.73828,0.23438 -1.48828,0.23438 -3.41016,0 -3.41016,-3.28125 0,-1.24219 0.50391,-1.98047 0.5039,-0.75 1.45312,-1.10156 0.94922,-0.36328 2.98828,-0.41016 l 1.42969,-0.0352 v -1.60546 q 0,-1.99219 -1.6289,-1.99219 -0.98438,0 -2.20313,0.60937 l -0.44531,1.3711 h -0.77344 v -2.66016 q 1.76953,-0.26953 2.60156,-0.33984 0.83203,-0.0703 1.69922,-0.0703 z m 0.75,5.73047 -0.98437,0.0352 q -1.13672,0.0469 -1.58203,0.59766 -0.4336,0.55078 -0.4336,1.78125 0,0.99609 0.35156,1.46484 0.35157,0.46875 0.91407,0.46875 0.79687,0 1.73437,-0.41016 z m 10.25391,-3.19922 q 1.26562,-1.40625 2.26172,-2.01562 1.00781,-0.62109 1.83984,-0.62109 h 0.63281 v 4.01953 h -0.65625 l -0.6914,-1.47657 q -0.73828,0 -1.67578,0.32813 -0.9375,0.31641 -1.65235,0.75 v 6.69141 l 1.76953,0.28125 v 0.77343 h -6.58593 v -0.77343 l 1.42968,-0.28125 v -8.90625 l -1.42968,-0.28125 v -0.77344 h 4.6289 z m 10.35937,3.44532 4.30078,-4.6875 -1.17187,-0.26953 v -0.77344 h 4.195315 v 0.77344 l -1.26562,0.25781 -2.625005,2.76563 3.785155,6.16407 0.98438,0.28125 v 0.77343 h -5.296885 v -0.77343 l 0.64453,-0.28125 -2.20312,-3.85547 -1.34766,0.9375 v 2.91797 l 1.08985,0.28125 v 0.77343 h -5.51953 v -0.77343 l 1.04296,-0.28125 v -14.54298 l -1.125,-0.28125 v -0.77344 h 4.51172 z m 19.324225,-2.63672 q 0,8.15625 -5.15625,8.15625 -2.48437,0 -3.75,-2.08594 -1.26562,-2.08593 -1.26562,-6.07031 0,-3.90235 1.26562,-5.96485 1.26563,-2.07421 3.84375,-2.07421 2.48438,0 3.77344,2.05078 1.28906,2.03906 1.28906,5.98828 z m -3.43359,0 q 0,-3.65625 -0.41016,-5.25 -0.41015,-1.60547 -1.28906,-1.60547 -0.86719,0 -1.24219,1.54688 -0.36328,1.54687 -0.36328,5.3086 0,3.82031 0.375,5.40234 0.375,1.58203 1.23046,1.58203 0.8672,0 1.27734,-1.61718 0.42188,-1.62891 0.42189,-5.3672 z m 15.43359,0 q 0,8.15625 -5.15625,8.15625 -2.48437,0 -3.75,-2.08594 -1.26562,-2.08593 -1.26562,-6.07031 0,-3.90235 1.26562,-5.96485 1.26563,-2.07421 3.84375,-2.07421 2.48438,0 3.77344,2.05078 1.28906,2.03906 1.28906,5.98828 z m -3.43359,0 q 0,-3.65625 -0.41016,-5.25 -0.41015,-1.60547 -1.28906,-1.60547 -0.86719,0 -1.24219,1.54688 -0.36328,1.54687 -0.36328,5.3086 0,3.82031 0.375,5.40234 0.375,1.58203 1.23046,1.58203 0.8672,0 1.27734,-1.61718 0.42188,-1.62891 0.42189,-5.3672 z"
    style="fill:#e3eaf2"
    aria-label="coldark00"
  />
  <path
    d="m 183.93164,244.54102 q -0.52734,0.42188 -1.46484,0.65625 -0.92578,0.23438 -1.91016,0.23438 -2.94141,0 -4.40625,-1.41797 -1.45312,-1.41797 -1.45312,-4.33594 0,-1.8164 0.65625,-3.10547 0.66796,-1.30078 1.89844,-1.98046 1.23046,-0.69141 2.85937,-0.69141 1.64063,0 3.57422,0.41016 v 3.25781 h -0.84375 l -0.4922,-1.9336 q -0.39844,-0.29296 -0.78515,-0.41015 -0.38672,-0.11719 -1.01954,-0.11719 -0.6914,0 -1.2539,0.55079 -0.5625,0.55078 -0.87891,1.5586 -0.30469,0.99609 -0.30469,2.39062 0,2.35547 0.72657,3.36328 0.73828,1.00781 2.33203,1.00781 1.61719,0 2.76562,-0.33984 z m 11.68359,-4.89843 q 0,2.96484 -1.27734,4.38281 -1.26562,1.41797 -3.87891,1.41797 -2.53125,0 -3.77344,-1.42969 -1.24219,-1.4414 -1.24219,-4.37109 0,-2.91797 1.25391,-4.32422 1.26562,-1.41797 3.85547,-1.41797 2.61328,0 3.83203,1.46485 1.23047,1.45312 1.23047,4.27734 z m -3.43359,0 q 0,-2.57812 -0.38672,-3.5625 -0.375,-0.9961 -1.3125,-0.9961 -0.90234,0 -1.2539,0.94922 -0.35156,0.94922 -0.35156,3.60938 0,2.70703 0.35156,3.66797 0.36328,0.96093 1.2539,0.96093 0.92579,0 1.3125,-1.00781 0.38672,-1.01953 0.38672,-3.62109 z m 9.39844,4.51172 1.20703,0.28125 v 0.77343 h -5.78906 v -0.77343 l 1.19531,-0.28125 v -14.54297 l -1.125,-0.28125 v -0.77344 h 4.51172 z m 10.20703,0.43359 q -0.65625,0.42188 -1.00781,0.5625 -0.35156,0.12891 -0.79688,0.21094 -0.44531,0.082 -0.98437,0.082 -2.4375,0 -3.63281,-1.39453 -1.19532,-1.40625 -1.19532,-4.3125 0,-2.85938 1.27735,-4.34766 1.28906,-1.48828 3.72656,-1.48828 1.27734,0 2.57813,0.31641 -0.0703,-0.38672 -0.0703,-1.81641 v -2.78906 l -1.125,-0.28125 v -0.77344 h 4.51172 v 15.59766 l 1.20703,0.28125 v 0.77343 h -4.24218 z m -4.18359,-4.94531 q 0,2.1914 0.55078,3.35156 0.55078,1.14844 1.58203,1.14844 0.9375,0 1.94531,-0.50391 v -8.29687 q -0.91406,-0.2461 -1.85156,-0.2461 -1.05469,0 -1.64062,1.16016 -0.58594,1.14844 -0.58594,3.38672 z m 15.33984,-5.69532 q 4.13672,0 4.13672,3.04688 v 7.16016 l 1.10156,0.28125 v 0.77343 h -4.05468 l -0.25782,-0.84375 q -0.91406,0.6211 -1.65234,0.84375 -0.73828,0.23438 -1.48828,0.23438 -3.41017,0 -3.41017,-3.28125 0,-1.24219 0.50392,-1.98047 0.5039,-0.75 1.45312,-1.10156 0.94921,-0.36328 2.98828,-0.41016 l 1.42969,-0.0352 v -1.60546 q 0,-1.99219 -1.6289,-1.99219 -0.98438,0 -2.20313,0.60937 l -0.44531,1.3711 h -0.77344 v -2.66016 q 1.76953,-0.26953 2.60156,-0.33984 0.83203,-0.0703 1.69921,-0.0703 z m 0.75,5.73047 -0.98437,0.0352 q -1.13672,0.0469 -1.58203,0.59766 -0.4336,0.55078 -0.4336,1.78125 0,0.99609 0.35156,1.46484 0.35157,0.46875 0.91407,0.46875 0.79687,0 1.73437,-0.41016 z m 10.25391,-3.19922 q 1.26562,-1.40625 2.26172,-2.01562 1.00781,-0.62109 1.83984,-0.62109 h 0.63281 v 4.01953 h -0.65625 l -0.69141,-1.47657 q -0.73828,0 -1.67578,0.32813 -0.9375,0.31641 -1.65235,0.75 v 6.69141 l 1.76954,0.28125 v 0.77343 h -6.58593 v -0.77343 l 1.42968,-0.28125 v -8.90625 l -1.42968,-0.28125 v -0.77344 h 4.6289 z m 10.35937,3.44532 4.30078,-4.6875 -1.17187,-0.26953 v -0.77344 h 4.19531 v 0.77344 l -1.26562,0.25781 -2.625,2.76563 3.78515,6.16407 0.98438,0.28125 v 0.77343 h -5.29688 v -0.77343 l 0.64453,-0.28125 -2.20312,-3.85547 -1.34766,0.9375 v 2.91797 l 1.08985,0.28125 v 0.77343 h -5.51953 v -0.77343 l 1.04296,-0.28125 v -14.54298 l -1.125,-0.28125 v -0.77344 h 4.51172 z m 19.32422,-2.63672 q 0,8.15625 -5.15625,8.15625 -2.48437,0 -3.75,-2.08594 -1.26562,-2.08593 -1.26562,-6.07031 0,-3.90235 1.26562,-5.96485 1.26563,-2.07421 3.84375,-2.07421 2.48438,0 3.77344,2.05078 1.28906,2.03906 1.28906,5.98828 z m -3.43359,0 q 0,-3.65625 -0.41016,-5.25 -0.41015,-1.60547 -1.28906,-1.60547 -0.86719,0 -1.24219,1.54688 -0.36328,1.54687 -0.36328,5.3086 0,3.82031 0.375,5.40234 0.375,1.58203 1.23047,1.58203 0.86719,0 1.27734,-1.61718 0.42188,-1.62891 0.42188,-5.3672 z m 12.375,6.63281 2.73047,0.28125 v 1.00782 h -8.83594 v -1.00782 l 2.71875,-0.28125 v -11.84765 l -2.70703,0.89062 v -0.99609 l 4.42969,-2.60157 h 1.66406 z"
    style="fill:#e3eaf2"
    aria-label="coldark01"
  />
  <path
    d="m 333.82617,244.54102 q -0.52734,0.42188 -1.46484,0.65625 -0.92578,0.23438 -1.91016,0.23438 -2.9414,0 -4.40625,-1.41797 -1.45312,-1.41797 -1.45312,-4.33594 0,-1.8164 0.65625,-3.10547 0.66797,-1.30078 1.89844,-1.98046 1.23046,-0.69141 2.85937,-0.69141 1.64063,0 3.57422,0.41016 v 3.25781 h -0.84375 l -0.49219,-1.9336 q -0.39844,-0.29296 -0.78515,-0.41015 -0.38672,-0.11719 -1.01954,-0.11719 -0.6914,0 -1.2539,0.55079 -0.5625,0.55078 -0.87891,1.5586 -0.30469,0.99609 -0.30469,2.39062 0,2.35547 0.72657,3.36328 0.73828,1.00781 2.33203,1.00781 1.61719,0 2.76562,-0.33984 z m 11.6836,-4.89843 q 0,2.96484 -1.27735,4.38281 -1.26562,1.41797 -3.8789,1.41797 -2.53125,0 -3.77344,-1.42969 -1.24219,-1.4414 -1.24219,-4.37109 0,-2.91797 1.25391,-4.32422 1.26562,-1.41797 3.85547,-1.41797 2.61328,0 3.83203,1.46485 1.23047,1.45312 1.23047,4.27734 z m -3.4336,0 q 0,-2.57812 -0.38672,-3.5625 -0.375,-0.9961 -1.3125,-0.9961 -0.90234,0 -1.2539,0.94922 -0.35156,0.94922 -0.35156,3.60938 0,2.70703 0.35156,3.66797 0.36328,0.96093 1.2539,0.96093 0.92579,0 1.3125,-1.00781 0.38672,-1.01953 0.38672,-3.62109 z m 9.39844,4.51172 1.20703,0.28125 v 0.77343 h -5.78906 v -0.77343 l 1.19531,-0.28125 v -14.54297 l -1.125,-0.28125 v -0.77344 h 4.51172 z m 10.20703,0.43359 q -0.65625,0.42188 -1.00781,0.5625 -0.35156,0.12891 -0.79688,0.21094 -0.44531,0.082 -0.98437,0.082 -2.4375,0 -3.63281,-1.39453 -1.19532,-1.40625 -1.19532,-4.3125 0,-2.85938 1.27735,-4.34766 1.28906,-1.48828 3.72656,-1.48828 1.27734,0 2.57813,0.31641 -0.0703,-0.38672 -0.0703,-1.81641 v -2.78906 l -1.125,-0.28125 v -0.77344 h 4.51172 v 15.59766 l 1.20703,0.28125 v 0.77343 h -4.24218 z m -4.18359,-4.94531 q 0,2.1914 0.55078,3.35156 0.55078,1.14844 1.58203,1.14844 0.9375,0 1.94531,-0.50391 v -8.29687 q -0.91406,-0.2461 -1.85156,-0.2461 -1.05469,0 -1.64062,1.16016 -0.58594,1.14844 -0.58594,3.38672 z m 15.33984,-5.69532 q 4.13672,0 4.13672,3.04688 v 7.16016 l 1.10156,0.28125 v 0.77343 h -4.05468 l -0.25782,-0.84375 q -0.91406,0.6211 -1.65234,0.84375 -0.73828,0.23438 -1.48828,0.23438 -3.41016,0 -3.41016,-3.28125 0,-1.24219 0.50391,-1.98047 0.5039,-0.75 1.45312,-1.10156 0.94922,-0.36328 2.98828,-0.41016 l 1.42969,-0.0352 v -1.60546 q 0,-1.99219 -1.6289,-1.99219 -0.98438,0 -2.20313,0.60937 l -0.44531,1.3711 h -0.77344 v -2.66016 q 1.76953,-0.26953 2.60156,-0.33984 0.83203,-0.0703 1.69922,-0.0703 z m 0.75,5.73047 -0.98437,0.0352 q -1.13672,0.0469 -1.58203,0.59766 -0.4336,0.55078 -0.4336,1.78125 0,0.99609 0.35156,1.46484 0.35157,0.46875 0.91407,0.46875 0.79687,0 1.73437,-0.41016 z m 10.25391,-3.19922 q 1.26562,-1.40625 2.26172,-2.01562 1.00781,-0.62109 1.83984,-0.62109 h 0.63281 v 4.01953 h -0.65625 l -0.6914,-1.47657 q -0.73828,0 -1.67578,0.32813 -0.9375,0.31641 -1.65235,0.75 v 6.69141 l 1.76953,0.28125 v 0.77343 h -6.58593 v -0.77343 l 1.42968,-0.28125 v -8.90625 l -1.42968,-0.28125 v -0.77344 h 4.6289 z m 10.35937,3.44532 4.30078,-4.6875 -1.17187,-0.26953 v -0.77344 h 4.19531 v 0.77344 l -1.26562,0.25781 -2.625,2.76563 3.78515,6.16407 0.98438,0.28125 v 0.77343 h -5.29688 v -0.77343 l 0.64453,-0.28125 -2.20312,-3.85547 -1.34766,0.9375 v 2.91797 l 1.08985,0.28125 v 0.77343 h -5.51953 v -0.77343 l 1.04296,-0.28125 v -14.54298 l -1.125,-0.28125 v -0.77344 h 4.51172 z m 19.32422,-2.63672 q 0,8.15625 -5.15625,8.15625 -2.48437,0 -3.75,-2.08594 -1.26562,-2.08593 -1.26562,-6.07031 0,-3.90235 1.26562,-5.96485 1.26563,-2.07421 3.84375,-2.07421 2.48438,0 3.77344,2.05078 1.28906,2.03906 1.28906,5.98828 z m -3.43359,0 q 0,-3.65625 -0.41016,-5.25 -0.41015,-1.60547 -1.28906,-1.60547 -0.86719,0 -1.24219,1.54688 -0.36328,1.54687 -0.36328,5.3086 0,3.82031 0.375,5.40234 0.375,1.58203 1.23047,1.58203 0.86719,0 1.27734,-1.61718 0.42188,-1.62891 0.42188,-5.3672 z m 15.3164,7.92188 h -9.96093 v -2.21485 q 1.00781,-1.07812 1.86328,-1.93359 1.875,-1.85157 2.74219,-2.90625 0.86718,-1.06641 1.26562,-2.20313 0.41016,-1.13671 0.41016,-2.58984 0,-1.27735 -0.6211,-2.0625 -0.62109,-0.78516 -1.65234,-0.78516 -0.72656,0 -1.16016,0.15235 -0.43359,0.15235 -0.79687,0.45704 l -0.50391,2.27343 h -1.01953 v -3.57422 q 0.9375,-0.21093 1.82813,-0.35156 0.90234,-0.15235 1.95703,-0.15235 2.58984,0 3.96093,1.0664 1.38282,1.06641 1.38282,3.03516 0,1.23047 -0.41016,2.23828 -0.41016,0.9961 -1.30078,1.94531 -0.87891,0.94922 -3.51563,3.09375 -1.00781,0.82032 -2.17968,1.86329 h 7.71093 z"
    style="fill:#e3eaf2"
    aria-label="coldark02"
  />
  <path
    d="m 483.7207,244.54102 q -0.52734,0.42188 -1.46484,0.65625 -0.92578,0.23438 -1.91016,0.23438 -2.9414,0 -4.40625,-1.41797 -1.45312,-1.41797 -1.45312,-4.33594 0,-1.8164 0.65625,-3.10547 0.66797,-1.30078 1.89844,-1.98046 1.23046,-0.69141 2.85937,-0.69141 1.64063,0 3.57422,0.41016 v 3.25781 h -0.84375 l -0.49219,-1.9336 q -0.39844,-0.29296 -0.78515,-0.41015 -0.38672,-0.11719 -1.01954,-0.11719 -0.6914,0 -1.2539,0.55079 -0.5625,0.55078 -0.87891,1.5586 -0.30469,0.99609 -0.30469,2.39062 0,2.35547 0.72657,3.36328 0.73828,1.00781 2.33203,1.00781 1.61719,0 2.76562,-0.33984 z m 11.6836,-4.89843 q 0,2.96484 -1.27735,4.38281 -1.26562,1.41797 -3.8789,1.41797 -2.53125,0 -3.77344,-1.42969 -1.24219,-1.4414 -1.24219,-4.37109 0,-2.91797 1.25391,-4.32422 1.26562,-1.41797 3.85547,-1.41797 2.61328,0 3.83203,1.46485 1.23047,1.45312 1.23047,4.27734 z m -3.4336,0 q 0,-2.57812 -0.38672,-3.5625 -0.375,-0.9961 -1.3125,-0.9961 -0.90234,0 -1.2539,0.94922 -0.35156,0.94922 -0.35156,3.60938 0,2.70703 0.35156,3.66797 0.36328,0.96093 1.2539,0.96093 0.92579,0 1.3125,-1.00781 0.38672,-1.01953 0.38672,-3.62109 z m 9.39844,4.51172 1.20703,0.28125 v 0.77343 h -5.78906 v -0.77343 l 1.19531,-0.28125 v -14.54297 l -1.125,-0.28125 v -0.77344 h 4.51172 z m 10.20703,0.43359 q -0.65625,0.42188 -1.00781,0.5625 -0.35156,0.12891 -0.79688,0.21094 -0.44531,0.082 -0.98437,0.082 -2.4375,0 -3.63281,-1.39453 -1.19532,-1.40625 -1.19532,-4.3125 0,-2.85938 1.27735,-4.34766 1.28906,-1.48828 3.72656,-1.48828 1.27734,0 2.57813,0.31641 -0.0703,-0.38672 -0.0703,-1.81641 v -2.78906 l -1.125,-0.28125 v -0.77344 h 4.51172 v 15.59766 l 1.20703,0.28125 v 0.77343 h -4.24218 z m -4.18359,-4.94531 q 0,2.1914 0.55078,3.35156 0.55078,1.14844 1.58203,1.14844 0.9375,0 1.94531,-0.50391 v -8.29687 q -0.91406,-0.2461 -1.85156,-0.2461 -1.05469,0 -1.64062,1.16016 -0.58594,1.14844 -0.58594,3.38672 z m 15.33984,-5.69532 q 4.13672,0 4.13672,3.04688 v 7.16016 l 1.10156,0.28125 v 0.77343 h -4.05468 l -0.25782,-0.84375 q -0.91406,0.6211 -1.65234,0.84375 -0.73828,0.23438 -1.48828,0.23438 -3.41016,0 -3.41016,-3.28125 0,-1.24219 0.50391,-1.98047 0.5039,-0.75 1.45312,-1.10156 0.94922,-0.36328 2.98828,-0.41016 l 1.42969,-0.0352 v -1.60546 q 0,-1.99219 -1.6289,-1.99219 -0.98438,0 -2.20313,0.60937 l -0.44531,1.3711 h -0.77344 v -2.66016 q 1.76953,-0.26953 2.60156,-0.33984 0.83203,-0.0703 1.69922,-0.0703 z m 0.75,5.73047 -0.98437,0.0352 q -1.13672,0.0469 -1.58203,0.59766 -0.4336,0.55078 -0.4336,1.78125 0,0.99609 0.35156,1.46484 0.35157,0.46875 0.91407,0.46875 0.79687,0 1.73437,-0.41016 z m 10.25391,-3.19922 q 1.26562,-1.40625 2.26172,-2.01562 1.00781,-0.62109 1.83984,-0.62109 h 0.63281 v 4.01953 h -0.65625 l -0.6914,-1.47657 q -0.73828,0 -1.67578,0.32813 -0.9375,0.31641 -1.65235,0.75 v 6.69141 l 1.76953,0.28125 v 0.77343 h -6.58593 v -0.77343 l 1.42968,-0.28125 v -8.90625 l -1.42968,-0.28125 v -0.77344 h 4.6289 z m 10.35937,3.44532 4.30078,-4.6875 -1.17187,-0.26953 v -0.77344 h 4.19531 v 0.77344 l -1.26562,0.25781 -2.625,2.76563 3.78515,6.16407 0.98438,0.28125 v 0.77343 h -5.29688 v -0.77343 l 0.64453,-0.28125 -2.20312,-3.85547 -1.34766,0.9375 v 2.91797 l 1.08985,0.28125 v 0.77343 h -5.51953 v -0.77343 l 1.04296,-0.28125 v -14.54298 l -1.125,-0.28125 v -0.77344 h 4.51172 z m 19.32422,-2.63672 q 0,8.15625 -5.15625,8.15625 -2.48437,0 -3.75,-2.08594 -1.26562,-2.08593 -1.26562,-6.07031 0,-3.90235 1.26562,-5.96485 1.26563,-2.07421 3.84375,-2.07421 2.48438,0 3.77344,2.05078 1.28906,2.03906 1.28906,5.98828 z m -3.43359,0 q 0,-3.65625 -0.41016,-5.25 -0.41015,-1.60547 -1.28906,-1.60547 -0.86719,0 -1.24219,1.54688 -0.36328,1.54687 -0.36328,5.3086 0,3.82031 0.375,5.40234 0.375,1.58203 1.23047,1.58203 0.86719,0 1.27734,-1.61718 0.42188,-1.62891 0.42188,-5.3672 z m 15.52734,3.64453 q 0,2.14453 -1.53515,3.32813 -1.53516,1.1836 -4.26563,1.1836 -2.17969,0 -4.33594,-0.46875 l -0.14062,-3.8086 h 1.07812 l 0.60938,2.51954 q 1.01953,0.57421 2.13281,0.57421 1.41797,0 2.21484,-0.90235 0.79688,-0.91406 0.79688,-2.54296 0,-1.41797 -0.64453,-2.16797 -0.63281,-0.76172 -2.0625,-0.85547 l -1.35938,-0.082 v -1.41797 l 1.3125,-0.0937 q 1.04297,-0.0703 1.53516,-0.76171 0.50391,-0.70313 0.50391,-2.10938 0,-1.3125 -0.59766,-2.0625 -0.58594,-0.75 -1.67578,-0.75 -0.63281,0 -1.04297,0.19922 -0.39844,0.1875 -0.76172,0.41016 l -0.50391,2.27343 h -1.01953 v -3.57422 q 1.19532,-0.30468 2.0625,-0.39843 0.86719,-0.10547 1.71094,-0.10547 5.28516,0 5.28516,3.86719 0,1.59375 -0.84375,2.57812 -0.84375,0.98438 -2.41407,1.21875 3.96094,0.48047 3.96094,3.94922 z"
    style="fill:#e3eaf2"
    aria-label="coldark03"
  />
  <path
    d="m 633.5332,244.54102 q -0.52734,0.42188 -1.46484,0.65625 -0.92578,0.23438 -1.91016,0.23438 -2.9414,0 -4.40625,-1.41797 -1.45312,-1.41797 -1.45312,-4.33594 0,-1.8164 0.65625,-3.10547 0.66797,-1.30078 1.89844,-1.98046 1.23046,-0.69141 2.85937,-0.69141 1.64063,0 3.57422,0.41016 v 3.25781 h -0.84375 l -0.49219,-1.9336 q -0.39844,-0.29296 -0.78515,-0.41015 -0.38672,-0.11719 -1.01954,-0.11719 -0.6914,0 -1.2539,0.55079 -0.5625,0.55078 -0.87891,1.5586 -0.30469,0.99609 -0.30469,2.39062 0,2.35547 0.72657,3.36328 0.73828,1.00781 2.33203,1.00781 1.61719,0 2.76562,-0.33984 z m 11.6836,-4.89843 q 0,2.96484 -1.27735,4.38281 -1.26562,1.41797 -3.8789,1.41797 -2.53125,0 -3.77344,-1.42969 -1.24219,-1.4414 -1.24219,-4.37109 0,-2.91797 1.25391,-4.32422 1.26562,-1.41797 3.85547,-1.41797 2.61328,0 3.83203,1.46485 1.23047,1.45312 1.23047,4.27734 z m -3.4336,0 q 0,-2.57812 -0.38672,-3.5625 -0.375,-0.9961 -1.3125,-0.9961 -0.90234,0 -1.2539,0.94922 -0.35156,0.94922 -0.35156,3.60938 0,2.70703 0.35156,3.66797 0.36328,0.96093 1.2539,0.96093 0.92579,0 1.3125,-1.00781 0.38672,-1.01953 0.38672,-3.62109 z m 9.39844,4.51172 1.20703,0.28125 v 0.77343 h -5.78906 v -0.77343 l 1.19531,-0.28125 v -14.54297 l -1.125,-0.28125 v -0.77344 h 4.51172 z m 10.20703,0.43359 q -0.65625,0.42188 -1.00781,0.5625 -0.35156,0.12891 -0.79688,0.21094 -0.44531,0.082 -0.98437,0.082 -2.4375,0 -3.63281,-1.39453 -1.19532,-1.40625 -1.19532,-4.3125 0,-2.85938 1.27735,-4.34766 1.28906,-1.48828 3.72656,-1.48828 1.27734,0 2.57813,0.31641 -0.0703,-0.38672 -0.0703,-1.81641 v -2.78906 l -1.125,-0.28125 v -0.77344 h 4.51172 v 15.59766 l 1.20703,0.28125 v 0.77343 h -4.24218 z m -4.18359,-4.94531 q 0,2.1914 0.55078,3.35156 0.55078,1.14844 1.58203,1.14844 0.9375,0 1.94531,-0.50391 v -8.29687 q -0.91406,-0.2461 -1.85156,-0.2461 -1.05469,0 -1.64062,1.16016 -0.58594,1.14844 -0.58594,3.38672 z m 15.33984,-5.69532 q 4.13672,0 4.13672,3.04688 v 7.16016 l 1.10156,0.28125 v 0.77343 h -4.05468 l -0.25782,-0.84375 q -0.91406,0.6211 -1.65234,0.84375 -0.73828,0.23438 -1.48828,0.23438 -3.41016,0 -3.41016,-3.28125 0,-1.24219 0.50391,-1.98047 0.5039,-0.75 1.45312,-1.10156 0.94922,-0.36328 2.98828,-0.41016 l 1.42969,-0.0352 v -1.60546 q 0,-1.99219 -1.6289,-1.99219 -0.98438,0 -2.20313,0.60937 l -0.44531,1.3711 h -0.77344 v -2.66016 q 1.76953,-0.26953 2.60156,-0.33984 0.83203,-0.0703 1.69922,-0.0703 z m 0.75,5.73047 -0.98437,0.0352 q -1.13672,0.0469 -1.58203,0.59766 -0.4336,0.55078 -0.4336,1.78125 0,0.99609 0.35156,1.46484 0.35157,0.46875 0.91407,0.46875 0.79687,0 1.73437,-0.41016 z m 10.25391,-3.19922 q 1.26562,-1.40625 2.26172,-2.01562 1.00781,-0.62109 1.83984,-0.62109 h 0.63281 v 4.01953 h -0.65625 l -0.6914,-1.47657 q -0.73828,0 -1.67578,0.32813 -0.9375,0.31641 -1.65235,0.75 v 6.69141 l 1.76953,0.28125 v 0.77343 h -6.58593 v -0.77343 l 1.42968,-0.28125 v -8.90625 l -1.42968,-0.28125 v -0.77344 h 4.6289 z m 10.35937,3.44532 4.30078,-4.6875 -1.17187,-0.26953 v -0.77344 h 4.19531 v 0.77344 l -1.26562,0.25781 -2.625,2.76563 3.78515,6.16407 0.98438,0.28125 v 0.77343 h -5.29688 v -0.77343 l 0.64453,-0.28125 -2.20312,-3.85547 -1.34766,0.9375 v 2.91797 l 1.08985,0.28125 v 0.77343 h -5.51953 v -0.77343 l 1.04296,-0.28125 v -14.54298 l -1.125,-0.28125 v -0.77344 h 4.51172 z m 19.32422,-2.63672 q 0,8.15625 -5.15625,8.15625 -2.48437,0 -3.75,-2.08594 -1.26562,-2.08593 -1.26562,-6.07031 0,-3.90235 1.26562,-5.96485 1.26563,-2.07421 3.84375,-2.07421 2.48438,0 3.77344,2.05078 1.28906,2.03906 1.28906,5.98828 z m -3.43359,0 q 0,-3.65625 -0.41016,-5.25 -0.41015,-1.60547 -1.28906,-1.60547 -0.86719,0 -1.24219,1.54688 -0.36328,1.54687 -0.36328,5.3086 0,3.82031 0.375,5.40234 0.375,1.58203 1.23047,1.58203 0.86719,0 1.27734,-1.61718 0.42188,-1.62891 0.42188,-5.3672 z m 14.33203,4.8164 v 3.10547 h -3.15234 v -3.10547 h -6.50391 v -1.91015 l 7.07812,-10.78125 h 2.57813 v 10.28906 h 1.57031 v 2.40235 z m -3.15234,-7.05468 q 0,-1.3125 0.11718,-2.48437 l -4.67578,7.13671 h 4.5586 z"
    style="fill:#e3eaf2"
    aria-label="coldark04"
  />
  <path
    d="m 783.75,244.54102 q -0.52734,0.42188 -1.46484,0.65625 -0.92579,0.23438 -1.91016,0.23438 -2.94141,0 -4.40625,-1.41797 -1.45313,-1.41797 -1.45313,-4.33594 0,-1.8164 0.65625,-3.10547 0.66797,-1.30078 1.89845,-1.98046 1.23046,-0.69141 2.85937,-0.69141 1.64063,0 3.57422,0.41016 v 3.25781 h -0.84375 l -0.4922,-1.9336 q -0.39844,-0.29296 -0.78515,-0.41015 -0.38672,-0.11719 -1.01954,-0.11719 -0.6914,0 -1.2539,0.55079 -0.5625,0.55078 -0.87891,1.5586 -0.30469,0.99609 -0.30469,2.39062 0,2.35547 0.72657,3.36328 0.73828,1.00781 2.33203,1.00781 1.61719,0 2.76562,-0.33984 z m 11.68359,-4.89843 q 0,2.96484 -1.27734,4.38281 -1.26563,1.41797 -3.87891,1.41797 -2.53125,0 -3.77344,-1.42969 -1.24219,-1.4414 -1.24219,-4.37109 0,-2.91797 1.25391,-4.32422 1.26562,-1.41797 3.85547,-1.41797 2.61328,0 3.83203,1.46485 1.23047,1.45312 1.23047,4.27734 z m -3.43359,0 q 0,-2.57812 -0.38672,-3.5625 -0.375,-0.9961 -1.3125,-0.9961 -0.90234,0 -1.25391,0.94922 -0.35155,0.94922 -0.35155,3.60938 0,2.70703 0.35155,3.66797 0.36329,0.96093 1.25391,0.96093 0.92579,0 1.3125,-1.00781 Q 792,242.24415 792,239.64259 Z m 9.39844,4.51172 1.20703,0.28125 v 0.77343 h -5.78906 v -0.77343 l 1.19531,-0.28125 v -14.54297 l -1.125,-0.28125 v -0.77344 h 4.51172 z m 10.20703,0.43359 q -0.65625,0.42188 -1.00781,0.5625 -0.35156,0.12891 -0.79688,0.21094 -0.44531,0.082 -0.98437,0.082 -2.4375,0 -3.63281,-1.39453 -1.19532,-1.40625 -1.19532,-4.3125 0,-2.85938 1.27735,-4.34766 1.28906,-1.48828 3.72656,-1.48828 1.27734,0 2.57813,0.31641 -0.0703,-0.38672 -0.0703,-1.81641 v -2.78906 l -1.125,-0.28125 v -0.77344 h 4.51172 v 15.59766 l 1.20703,0.28125 v 0.77343 h -4.24218 z m -4.18359,-4.94531 q 0,2.1914 0.55078,3.35156 0.55078,1.14844 1.58203,1.14844 0.9375,0 1.94531,-0.50391 v -8.29687 q -0.91406,-0.2461 -1.85156,-0.2461 -1.05469,0 -1.64062,1.16016 -0.58594,1.14844 -0.58594,3.38672 z m 15.33984,-5.69532 q 4.13672,0 4.13672,3.04688 v 7.16016 L 828,244.43556 v 0.77343 h -4.05468 l -0.25782,-0.84375 q -0.91406,0.6211 -1.65234,0.84375 -0.73829,0.23438 -1.48829,0.23438 -3.41016,0 -3.41016,-3.28125 0,-1.24219 0.50391,-1.98047 0.50391,-0.75 1.45313,-1.10156 0.94921,-0.36328 2.98828,-0.41016 l 1.42969,-0.0352 v -1.60546 q 0,-1.99219 -1.6289,-1.99219 -0.98438,0 -2.20313,0.60937 l -0.44531,1.3711 h -0.77344 v -2.66016 q 1.76953,-0.26953 2.60156,-0.33984 0.83203,-0.0703 1.69921,-0.0703 z m 0.75,5.73047 -0.98437,0.0352 q -1.13672,0.0469 -1.58203,0.59766 -0.4336,0.55078 -0.4336,1.78125 0,0.99609 0.35156,1.46484 0.35157,0.46875 0.91407,0.46875 0.79687,0 1.73437,-0.41016 z m 10.25391,-3.19922 q 1.26562,-1.40625 2.26172,-2.01562 1.00781,-0.62109 1.83984,-0.62109 H 838.5 v 4.01953 h -0.65625 l -0.69141,-1.47657 q -0.73828,0 -1.67578,0.32813 -0.9375,0.31641 -1.65235,0.75 v 6.69141 l 1.76954,0.28125 v 0.77343 h -6.58593 v -0.77343 l 1.42968,-0.28125 v -8.90625 l -1.42968,-0.28125 v -0.77344 h 4.6289 z m 10.35937,3.44532 4.30078,-4.6875 -1.17187,-0.26953 v -0.77344 h 4.19531 v 0.77344 l -1.26562,0.25781 -2.625,2.76563 3.78515,6.16407 0.98438,0.28125 v 0.77343 h -5.29688 v -0.77343 l 0.64453,-0.28125 -2.20312,-3.85547 -1.34766,0.9375 v 2.91797 l 1.08985,0.28125 v 0.77343 h -5.51953 v -0.77343 l 1.04296,-0.28125 v -14.54298 l -1.125,-0.28125 v -0.77344 h 4.51172 z m 19.32422,-2.63672 q 0,8.15625 -5.15625,8.15625 -2.48437,0 -3.75,-2.08594 -1.26562,-2.08593 -1.26562,-6.07031 0,-3.90235 1.26562,-5.96485 1.26563,-2.07421 3.84375,-2.07421 2.48438,0 3.77344,2.05078 1.28906,2.03906 1.28906,5.98828 z m -3.43359,0 q 0,-3.65625 -0.41016,-5.25 -0.41015,-1.60547 -1.28906,-1.60547 -0.86719,0 -1.24219,1.54688 -0.36328,1.54687 -0.36328,5.3086 0,3.82031 0.375,5.40234 0.375,1.58203 1.23047,1.58203 0.86719,0 1.27734,-1.61718 0.42187,-1.62891 0.42188,-5.3672 z m 9.97265,-1.3711 q 2.78907,0 4.13672,1.14844 1.35938,1.14844 1.35938,3.46875 0,2.36719 -1.47656,3.64453 -1.46485,1.26563 -4.20704,1.26563 -2.17968,0 -4.33593,-0.46875 l -0.14063,-3.8086 h 1.07813 l 0.60937,2.51954 q 0.45703,0.25781 1.125,0.42187 0.66797,0.15234 1.20703,0.15234 2.69532,0 2.69532,-3.60937 0,-1.875 -0.69141,-2.70703 -0.67969,-0.84375 -2.17969,-0.84375 -0.83203,0 -1.52344,0.30469 l -0.36328,0.15234 h -1.17187 v -8.0625 h 8.20312 v 2.61328 h -6.90234 v 4.125 q 1.42969,-0.31641 2.57812,-0.31641 z"
    style="fill:#e3eaf2"
    aria-label="coldark05"
  />
  <path
    d="m 933.6621,244.54102 q -0.52733,0.42188 -1.46483,0.65625 -0.92579,0.23438 -1.91017,0.23438 -2.9414,0 -4.40625,-1.41797 -1.45312,-1.41797 -1.45312,-4.33594 0,-1.8164 0.65625,-3.10547 0.66797,-1.30078 1.89845,-1.98046 1.23046,-0.69141 2.85937,-0.69141 1.64063,0 3.57422,0.41016 v 3.25781 h -0.84375 l -0.4922,-1.9336 q -0.39844,-0.29296 -0.78515,-0.41015 -0.38672,-0.11719 -1.01954,-0.11719 -0.6914,0 -1.2539,0.55079 -0.5625,0.55078 -0.87891,1.5586 -0.30469,0.99609 -0.30469,2.39062 0,2.35547 0.72657,3.36328 0.73828,1.00781 2.33203,1.00781 1.61719,0 2.76562,-0.33984 z m 11.6836,-4.89843 q 0,2.96484 -1.27735,4.38281 -1.26562,1.41797 -3.8789,1.41797 -2.53125,0 -3.77344,-1.42969 -1.24219,-1.4414 -1.24219,-4.37109 0,-2.91797 1.25391,-4.32422 1.26562,-1.41797 3.85547,-1.41797 2.61328,0 3.83203,1.46485 1.23047,1.45312 1.23047,4.27734 z m -3.4336,0 q 0,-2.57812 -0.38671,-3.5625 -0.375,-0.9961 -1.3125,-0.9961 -0.90234,0 -1.25391,0.94922 -0.35155,0.94922 -0.35155,3.60938 0,2.70703 0.35155,3.66797 0.36329,0.96093 1.25391,0.96093 0.92579,0 1.3125,-1.00781 0.38671,-1.01953 0.38671,-3.62109 z m 9.39845,4.51172 1.20703,0.28125 v 0.77343 h -5.78906 v -0.77343 l 1.19531,-0.28125 v -14.54297 l -1.125,-0.28125 v -0.77344 h 4.51172 z m 10.20703,0.43359 q -0.65625,0.42188 -1.00781,0.5625 -0.35156,0.12891 -0.79688,0.21094 -0.44531,0.082 -0.98437,0.082 -2.4375,0 -3.63281,-1.39453 -1.19532,-1.40625 -1.19532,-4.3125 0,-2.85938 1.27735,-4.34766 1.28906,-1.48828 3.72656,-1.48828 1.27734,0 2.57813,0.31641 -0.0703,-0.38672 -0.0703,-1.81641 v -2.78906 l -1.125,-0.28125 v -0.77344 h 4.51172 v 15.59766 l 1.20703,0.28125 v 0.77343 h -4.24218 z m -4.18359,-4.94531 q 0,2.1914 0.55078,3.35156 0.55078,1.14844 1.58203,1.14844 0.9375,0 1.94531,-0.50391 v -8.29687 q -0.91406,-0.2461 -1.85156,-0.2461 -1.05469,0 -1.64062,1.16016 -0.58594,1.14844 -0.58594,3.38672 z m 15.33984,-5.69532 q 4.13672,0 4.13672,3.04688 v 7.16016 l 1.10155,0.28125 v 0.77343 h -4.05467 l -0.25783,-0.84375 q -0.91405,0.6211 -1.65233,0.84375 -0.73829,0.23438 -1.48829,0.23438 -3.41016,0 -3.41016,-3.28125 0,-1.24219 0.50391,-1.98047 0.50391,-0.75 1.45312,-1.10156 0.94922,-0.36328 2.98829,-0.41016 l 1.42969,-0.0352 v -1.60546 q 0,-1.99219 -1.6289,-1.99219 -0.98438,0 -2.20313,0.60937 l -0.44531,1.3711 h -0.77344 v -2.66016 q 1.76953,-0.26953 2.60155,-0.33984 0.83204,-0.0703 1.69922,-0.0703 z m 0.75,5.73047 -0.98437,0.0352 q -1.13672,0.0469 -1.58203,0.59766 -0.4336,0.55078 -0.4336,1.78125 0,0.99609 0.35156,1.46484 0.35157,0.46875 0.91407,0.46875 0.79687,0 1.73437,-0.41016 z m 10.25391,-3.19922 q 1.26562,-1.40625 2.26172,-2.01562 1.00781,-0.62109 1.83984,-0.62109 h 0.6328 v 4.01953 h -0.65625 l -0.6914,-1.47657 q -0.73828,0 -1.67578,0.32813 -0.9375,0.31641 -1.65235,0.75 v 6.69141 l 1.76953,0.28125 v 0.77343 h -6.58592 v -0.77343 l 1.42967,-0.28125 v -8.90625 l -1.42967,-0.28125 v -0.77344 h 4.6289 z m 10.35937,3.44532 4.30078,-4.6875 -1.17187,-0.26953 v -0.77344 h 4.19528 v 0.77344 l -1.2656,0.25781 -2.62499,2.76563 3.78519,6.16407 0.9843,0.28125 v 0.77343 h -5.29684 v -0.77343 l 0.64453,-0.28125 -2.20312,-3.85547 -1.34766,0.9375 v 2.91797 l 1.08985,0.28125 v 0.77343 h -5.51953 v -0.77343 l 1.04296,-0.28125 v -14.54298 l -1.125,-0.28125 v -0.77344 h 4.51171 z m 19.32419,-2.63672 q 0,8.15625 -5.1562,8.15625 -2.4844,0 -3.75,-2.08594 -1.2656,-2.08593 -1.2656,-6.07031 0,-3.90235 1.2656,-5.96485 1.2656,-2.07421 3.8437,-2.07421 2.4844,0 3.7735,2.05078 1.289,2.03906 1.289,5.98828 z m -3.4336,0 q 0,-3.65625 -0.4101,-5.25 -0.4102,-1.60547 -1.2891,-1.60547 -0.8672,0 -1.2422,1.54688 -0.3633,1.54687 -0.3633,5.3086 0,3.82031 0.375,5.40234 0.375,1.58203 1.2305,1.58203 0.8672,0 1.2774,-1.61718 0.4218,-1.62891 0.4218,-5.3672 z m 15.6446,3.04688 q 0,2.47265 -1.2774,3.79687 -1.2773,1.3125 -3.6328,1.3125 -2.6953,0 -4.1367,-2.05078 -1.4297,-2.05078 -1.4297,-5.94141 0,-2.53125 0.75,-4.37109 0.7617,-1.83985 2.1211,-2.80078 1.3594,-0.96094 3.1289,-0.96094 1.8281,0 3.5273,0.5039 v 3.57422 h -1.0195 l -0.5039,-2.27343 q -0.8086,-0.60938 -1.7695,-0.60938 -1.1719,0 -1.9102,1.5 -0.7265,1.5 -0.8554,4.19532 1.2773,-0.55078 2.5312,-0.55078 2.1445,0 3.3047,1.20703 1.1719,1.20703 1.1719,3.46875 z m -4.9571,3.92578 q 0.8555,0 1.1836,-0.92578 0.3282,-0.92578 0.3282,-2.77735 0,-1.65234 -0.4571,-2.54297 -0.457,-0.89062 -1.3594,-0.89062 -0.8671,0 -1.7695,0.26953 v 0.0586 q 0,6.80859 2.0742,6.80859 z"
    style="fill:#e3eaf2"
    aria-label="coldark06"
  />
  <path
    d="m 1083.6035,244.54102 q -0.5273,0.42188 -1.4648,0.65625 -0.9258,0.23438 -1.9102,0.23438 -2.9414,0 -4.4062,-1.41797 -1.4532,-1.41797 -1.4532,-4.33594 0,-1.8164 0.6563,-3.10547 0.668,-1.30078 1.8984,-1.98046 1.2305,-0.69141 2.8594,-0.69141 1.6406,0 3.5742,0.41016 v 3.25781 h -0.8437 l -0.4922,-1.9336 q -0.3985,-0.29296 -0.7852,-0.41015 -0.3867,-0.11719 -1.0195,-0.11719 -0.6914,0 -1.2539,0.55079 -0.5625,0.55078 -0.8789,1.5586 -0.3047,0.99609 -0.3047,2.39062 0,2.35547 0.7266,3.36328 0.7382,1.00781 2.332,1.00781 1.6172,0 2.7656,-0.33984 z m 11.6836,-4.89843 q 0,2.96484 -1.2773,4.38281 -1.2657,1.41797 -3.8789,1.41797 -2.5313,0 -3.7735,-1.42969 -1.2422,-1.4414 -1.2422,-4.37109 0,-2.91797 1.2539,-4.32422 1.2657,-1.41797 3.8555,-1.41797 2.6133,0 3.832,1.46485 1.2305,1.45312 1.2305,4.27734 z m -3.4336,0 q 0,-2.57812 -0.3867,-3.5625 -0.375,-0.9961 -1.3125,-0.9961 -0.9023,0 -1.2539,0.94922 -0.3516,0.94922 -0.3516,3.60938 0,2.70703 0.3516,3.66797 0.3633,0.96093 1.2539,0.96093 0.9258,0 1.3125,-1.00781 0.3867,-1.01953 0.3867,-3.62109 z m 9.3985,4.51172 1.207,0.28125 v 0.77343 h -5.7891 v -0.77343 l 1.1953,-0.28125 v -14.54297 l -1.125,-0.28125 v -0.77344 h 4.5118 z m 10.207,0.43359 q -0.6563,0.42188 -1.0078,0.5625 -0.3516,0.12891 -0.7969,0.21094 -0.4453,0.082 -0.9844,0.082 -2.4375,0 -3.6328,-1.39453 -1.1953,-1.40625 -1.1953,-4.3125 0,-2.85938 1.2773,-4.34766 1.2891,-1.48828 3.7266,-1.48828 1.2773,0 2.5781,0.31641 -0.07,-0.38672 -0.07,-1.81641 v -2.78906 l -1.125,-0.28125 v -0.77344 h 4.5118 v 15.59766 l 1.207,0.28125 v 0.77343 h -4.2422 z m -4.1836,-4.94531 q 0,2.1914 0.5508,3.35156 0.5508,1.14844 1.582,1.14844 0.9375,0 1.9453,-0.50391 v -8.29687 q -0.914,-0.2461 -1.8515,-0.2461 -1.0547,0 -1.6407,1.16016 -0.5859,1.14844 -0.5859,3.38672 z m 15.3398,-5.69532 q 4.1368,0 4.1368,3.04688 v 7.16016 l 1.1015,0.28125 v 0.77343 h -4.0547 l -0.2578,-0.84375 q -0.914,0.6211 -1.6523,0.84375 -0.7383,0.23438 -1.4883,0.23438 -3.4102,0 -3.4102,-3.28125 0,-1.24219 0.5039,-1.98047 0.5039,-0.75 1.4532,-1.10156 0.9492,-0.36328 2.9882,-0.41016 l 1.4297,-0.0352 v -1.60546 q 0,-1.99219 -1.6289,-1.99219 -0.9843,0 -2.2031,0.60937 l -0.4453,1.3711 h -0.7734 v -2.66016 q 1.7695,-0.26953 2.6015,-0.33984 0.832,-0.0703 1.6992,-0.0703 z m 0.75,5.73047 -0.9843,0.0352 q -1.1368,0.0469 -1.5821,0.59766 -0.4336,0.55078 -0.4336,1.78125 0,0.99609 0.3516,1.46484 0.3516,0.46875 0.9141,0.46875 0.7968,0 1.7343,-0.41016 z m 10.2539,-3.19922 q 1.2657,-1.40625 2.2618,-2.01562 1.0078,-0.62109 1.8398,-0.62109 h 0.6328 v 4.01953 h -0.6562 l -0.6914,-1.47657 q -0.7383,0 -1.6758,0.32813 -0.9375,0.31641 -1.6524,0.75 v 6.69141 l 1.7696,0.28125 v 0.77343 h -6.586 v -0.77343 l 1.4297,-0.28125 v -8.90625 l -1.4297,-0.28125 v -0.77344 h 4.6289 z m 10.3594,3.44532 4.3008,-4.6875 -1.1719,-0.26953 v -0.77344 h 4.1953 v 0.77344 l -1.2656,0.25781 -2.625,2.76563 3.7852,6.16407 0.9843,0.28125 v 0.77343 h -5.2968 v -0.77343 l 0.6445,-0.28125 -2.2031,-3.85547 -1.3477,0.9375 v 2.91797 l 1.0899,0.28125 v 0.77343 h -5.5196 v -0.77343 l 1.043,-0.28125 v -14.54298 l -1.125,-0.28125 v -0.77344 h 4.5117 z m 19.3242,-2.63672 q 0,8.15625 -5.1562,8.15625 -2.4844,0 -3.75,-2.08594 -1.2656,-2.08593 -1.2656,-6.07031 0,-3.90235 1.2656,-5.96485 1.2656,-2.07421 3.8437,-2.07421 2.4844,0 3.7735,2.05078 1.289,2.03906 1.289,5.98828 z m -3.4336,0 q 0,-3.65625 -0.4101,-5.25 -0.4102,-1.60547 -1.2891,-1.60547 -0.8672,0 -1.2422,1.54688 -0.3632,1.54687 -0.3632,5.3086 0,3.82031 0.375,5.40234 0.375,1.58203 1.2304,1.58203 0.8672,0 1.2774,-1.61718 0.4218,-1.62891 0.4218,-5.3672 z m 6.7383,-3.30469 h -1.0195 v -4.48828 h 10.043 v 0.92578 l -6.1055,14.78907 h -2.8008 l 6.6211,-13.10157 h -6.1992 z"
    style="fill:#e3eaf2"
    aria-label="coldark07"
  />
</svg>
