<svg
  width="1200"
  height="630"
  viewBox="0 0 1200 630"
  xmlns="http://www.w3.org/2000/svg">
  <path
    style="fill:#111b27"
    d="M 0,530 H 1200 V 630 H 0 Z" />
  <path
    style="fill:#111b27"
    d="m 0,202 h 1200 v 20 H 0 Z" />
  <path
    style="fill:#111b27"
    d="M 0,0 H 1200 V 198.00002 H 0 Z" />
  <path
    style="fill:#cd6660"
    d="M 0,526 V 226 h 150 v 300 z" />
  <path
    style="fill:#e9ae7e"
    d="M 150,526 V 226 h 150 v 300 z" />
  <path
    style="fill:#e6d37a"
    d="M 300,526 V 226 h 150 v 300 z" />
  <path
    style="fill:#91d076"
    d="M 450,526 V 226 h 150 v 300 z" />
  <path
    style="fill:#66cccc"
    d="M 600,526 V 226 h 150 v 300 z" />
  <path
    style="fill:#6cb8e6"
    d="M 750,526 V 226 h 150 v 300 z" />
  <path
    style="fill:#c699e3"
    d="M 900,526 V 226 h 150 v 300 z" />
  <path
    style="fill:#f4adf4"
    d="M 1050,526 V 226 h 150 v 300 z" />
  <path
    style="fill:#e3eaf2"
    d="m 41.982415,583.39257 -0.89062,4.81641 h -1.67578 l 0.89062,-4.81641 h -3.16406 l -0.86719,4.81641 h -1.71093 l 0.89062,-4.81641 h -1.83984 v -1.4414 h 2.13281 l 0.62109,-3.36328 h -2.7539 v -1.44141 h 3.02343 l 0.85547,-4.65234 h 1.6875 l -0.86718,4.65234 h 3.16406 l 0.86719,-4.65234 h 1.67578 l -0.86719,4.65234 h 1.82812 v 1.44141 h -2.08593 l -0.59766,3.36328 h 2.68359 v 1.4414 z m -3.9375,-4.80468 -0.62109,3.36328 h 3.16406 l 0.63282,-3.36328 z m 17.3086,8.95312 q -0.52735,0.42188 -1.46485,0.65625 -0.92578,0.23438 -1.91015,0.23438 -2.94141,0 -4.40625,-1.41797 -1.45313,-1.41797 -1.45313,-4.33594 0,-1.81641 0.65625,-3.10547 0.66797,-1.30078 1.89844,-1.98047 1.23047,-0.6914 2.85938,-0.6914 1.64062,0 3.57421,0.41015 v 3.25781 h -0.84375 l -0.49218,-1.93359 q -0.39844,-0.29297 -0.78516,-0.41016 -0.38672,-0.11718 -1.01953,-0.11718 -0.69141,0 -1.25391,0.55078 -0.5625,0.55078 -0.8789,1.55859 -0.30469,0.9961 -0.30469,2.39063 0,2.35547 0.72656,3.36328 0.73828,1.00781 2.33203,1.00781 1.61719,0 2.76563,-0.33984 z m 9.1875,0.0469 q -0.65625,0.42187 -1.00781,0.5625 -0.35157,0.1289 -0.79688,0.21093 -0.44531,0.082 -0.98437,0.082 -2.4375,0 -3.63282,-1.39453 -1.19531,-1.40625 -1.19531,-4.3125 0,-2.85937 1.27734,-4.34765 1.28907,-1.48828 3.72657,-1.48828 1.27734,0 2.57812,0.3164 -0.0703,-0.38672 -0.0703,-1.8164 v -2.78907 l -1.125,-0.28125 v -0.77343 h 4.51172 v 15.59765 l 1.20703,0.28125 v 0.77344 h -4.24219 z m -4.1836,-4.94532 q 0,2.19141 0.55079,3.35157 0.55078,1.14843 1.58203,1.14843 0.9375,0 1.94531,-0.5039 v -8.29688 q -0.91406,-0.24609 -1.85156,-0.24609 -1.05469,0 -1.64063,1.16015 -0.58594,1.14844 -0.58594,3.38672 z m 20.23829,0.69141 q 0,2.47266 -1.27735,3.79687 -1.27734,1.3125 -3.63281,1.3125 -2.69531,0 -4.13672,-2.05078 -1.42969,-2.05078 -1.42969,-5.9414 0,-2.53125 0.75,-4.3711 0.76172,-1.83984 2.1211,-2.80078 1.35937,-0.96094 3.1289,-0.96094 1.82813,0 3.52735,0.50391 v 3.57422 h -1.01953 l -0.50391,-2.27344 q -0.80859,-0.60937 -1.76953,-0.60937 -1.17188,0 -1.91016,1.5 -0.72656,1.5 -0.85547,4.19531 1.27735,-0.55078 2.53125,-0.55078 2.14453,0 3.30469,1.20703 1.17188,1.20703 1.17188,3.46875 z m -4.95704,3.92578 q 0.85547,0 1.1836,-0.92578 0.32812,-0.92578 0.32812,-2.77734 0,-1.65235 -0.45703,-2.54297 -0.45703,-0.89063 -1.35937,-0.89063 -0.86719,0 -1.76953,0.26953 v 0.0586 q 0,6.80859 2.07421,6.80859 z m 16.95704,-3.92578 q 0,2.47266 -1.27735,3.79687 -1.27734,1.3125 -3.63281,1.3125 -2.69531,0 -4.13672,-2.05078 -1.42969,-2.05078 -1.42969,-5.9414 0,-2.53125 0.75,-4.3711 0.76172,-1.83984 2.1211,-2.80078 1.35937,-0.96094 3.1289,-0.96094 1.82813,0 3.52735,0.50391 v 3.57422 h -1.01953 l -0.50391,-2.27344 q -0.80859,-0.60937 -1.76953,-0.60937 -1.17188,0 -1.91016,1.5 -0.72656,1.5 -0.85547,4.19531 1.27735,-0.55078 2.53125,-0.55078 2.14453,0 3.30469,1.20703 1.17188,1.20703 1.17188,3.46875 z m -4.95704,3.92578 q 0.85547,0 1.1836,-0.92578 0.32812,-0.92578 0.32812,-2.77734 0,-1.65235 -0.45703,-2.54297 -0.45703,-0.89063 -1.35937,-0.89063 -0.86719,0 -1.76953,0.26953 v 0.0586 q 0,6.80859 2.07421,6.80859 z M 104.5957,583.334 q 0,2.47266 -1.27735,3.79687 -1.27734,1.3125 -3.632805,1.3125 -2.69531,0 -4.13672,-2.05078 -1.42969,-2.05078 -1.42969,-5.9414 0,-2.53125 0.75,-4.3711 0.76172,-1.83984 2.1211,-2.80078 1.35937,-0.96094 3.128895,-0.96094 1.82813,0 3.52735,0.50391 v 3.57422 h -1.01953 l -0.50391,-2.27344 q -0.80859,-0.60937 -1.76953,-0.60937 -1.171875,0 -1.910155,1.5 -0.72656,1.5 -0.85547,4.19531 1.27735,-0.55078 2.531245,-0.55078 2.14453,0 3.30469,1.20703 1.17188,1.20703 1.17188,3.46875 z m -4.957035,3.92578 q 0.855465,0 1.183595,-0.92578 0.32812,-0.92578 0.32812,-2.77734 0,-1.65235 -0.45703,-2.54297 -0.45702,-0.89063 -1.359365,-0.89063 -0.86719,0 -1.76953,0.26953 v 0.0586 q 0,6.80859 2.07421,6.80859 z m 16.746095,-6.97266 q 0,8.15625 -5.15625,8.15625 -2.48438,0 -3.75,-2.08593 -1.26563,-2.08594 -1.26563,-6.07032 0,-3.90234 1.26563,-5.96484 1.26562,-2.07422 3.84375,-2.07422 2.48437,0 3.77344,2.05078 1.28906,2.03907 1.28906,5.98828 z m -3.4336,0 q 0,-3.65625 -0.41015,-5.25 -0.41016,-1.60546 -1.28906,-1.60546 -0.86719,0 -1.24219,1.54687 -0.36328,1.54688 -0.36328,5.30859 0,3.82032 0.375,5.40235 0.375,1.58203 1.23048,1.58203 0.86718,0 1.27733,-1.61719 0.42188,-1.6289 0.42187,-5.36719 z"
    aria-label="#cd6660" />
  <path
    style="fill:#e3eaf2"
    d="m 193.85741,583.01171 -0.89062,4.81641 h -1.67578 l 0.89062,-4.81641 h -3.16406 l -0.86719,4.81641 h -1.71093 l 0.89062,-4.81641 h -1.83984 v -1.4414 h 2.13281 l 0.62109,-3.36328 h -2.7539 v -1.44141 h 3.02343 l 0.85548,-4.65234 h 1.6875 l -0.86719,4.65234 h 3.16407 l 0.86718,-4.65234 h 1.67578 l -0.86719,4.65234 h 1.82812 v 1.44141 h -2.08593 l -0.59766,3.36328 h 2.68359 v 1.4414 z m -3.9375,-4.80468 -0.62109,3.36328 h 3.16406 l 0.63282,-3.36328 z m 13.04297,-1.66407 q 2.23828,0 3.23438,1.19532 1.00781,1.19531 1.00781,3.71484 v 0.96094 h -5.77734 v 0.1875 q 0,1.74609 0.28125,2.48437 0.28125,0.73828 0.91406,1.125 0.63281,0.38672 1.73437,0.38672 1.03125,0 2.60157,-0.33984 v 0.90234 q -0.64453,0.38672 -1.67578,0.64453 -1.01954,0.2461 -1.99218,0.2461 -2.70703,0 -4.00782,-1.40625 -1.28906,-1.41797 -1.28906,-4.38282 0,-2.88281 1.23047,-4.30078 1.24219,-1.41797 3.73827,-1.41797 z m -0.1289,1.1836 q -0.70313,0 -1.05469,0.76172 -0.33984,0.76171 -0.33984,2.69531 h 2.55469 q 0,-1.57031 -0.10548,-2.20313 -0.10546,-0.64453 -0.36327,-0.94922 -0.24609,-0.30468 -0.69141,-0.30468 z m 5.64843,-0.82032 q 0,-2.39062 1.37111,-3.67968 1.37108,-1.28907 3.80858,-1.28907 2.75392,0 4.01953,1.9336 1.27735,1.93359 1.27735,6.05859 0,2.64844 -0.75,4.46485 -0.73828,1.8164 -2.13282,2.74218 -1.39452,0.92578 -3.35156,0.92578 -1.94531,0 -3.64452,-0.5039 v -3.57422 h 1.01952 l 0.50392,2.27344 q 0.41014,0.29297 0.97264,0.45703 0.57423,0.16406 1.10157,0.16406 1.26562,0 1.96875,-1.42969 0.71484,-1.4414 0.83203,-4.16015 -1.21875,0.43359 -2.42578,0.43359 -2.1211,0 -3.35157,-1.26562 -1.21875,-1.26563 -1.21875,-3.55079 z m 3.44532,0.0469 q 0,3.35156 1.82812,3.35156 0.89063,0 1.75781,-0.21094 v -0.16406 q 0,-3.38672 -0.41014,-5.09765 -0.39844,-1.71094 -1.41798,-1.71094 -1.75781,0 -1.75781,3.83203 z m 14.29687,-0.38672 q 4.13673,0 4.13673,3.04688 v 7.16015 l 1.10156,0.28125 v 0.77344 h -4.05469 l -0.25781,-0.84375 q -0.91406,0.62109 -1.65234,0.84375 -0.73828,0.23437 -1.48828,0.23437 -3.41016,0 -3.41016,-3.28125 0,-1.24218 0.50391,-1.98046 0.5039,-0.75 1.45312,-1.10157 0.94922,-0.36328 2.98828,-0.41015 l 1.42969,-0.0352 v -1.60547 q 0,-1.99219 -1.6289,-1.99219 -0.98438,0 -2.20313,0.60938 l -0.44531,1.37109 h -0.77344 v -2.66015 q 1.76953,-0.26953 2.60156,-0.33985 0.83203,-0.0703 1.69922,-0.0703 z m 0.75,5.73047 -0.98437,0.0352 q -1.13672,0.0469 -1.58203,0.59765 -0.4336,0.55078 -0.4336,1.78125 0,0.9961 0.35156,1.46485 0.35157,0.46875 0.91407,0.46875 0.79687,0 1.73437,-0.41016 z m 10.64063,-5.75391 q 2.23828,0 3.23437,1.19532 1.00781,1.19531 1.00781,3.71484 v 0.96094 h -5.77733 v 0.1875 q 0,1.74609 0.28125,2.48437 0.28125,0.73828 0.91406,1.125 0.63281,0.38672 1.73438,0.38672 1.03125,0 2.60156,-0.33984 v 0.90234 q -0.64453,0.38672 -1.67578,0.64453 -1.01953,0.2461 -1.99219,0.2461 -2.70703,0 -4.00781,-1.40625 -1.28906,-1.41797 -1.28906,-4.38282 0,-2.88281 1.23047,-4.30078 1.24218,-1.41797 3.73827,-1.41797 z m -0.12891,1.1836 q -0.70312,0 -1.05469,0.76172 -0.33984,0.76171 -0.33984,2.69531 h 2.55469 q 0,-1.57031 -0.10547,-2.20313 -0.10547,-0.64453 -0.36328,-0.94922 -0.2461,-0.30468 -0.69141,-0.30468 z m 7.38281,-1.125 h -1.01953 v -4.48828 h 10.04298 v 0.92578 l -6.10548,14.78906 h -2.80077 l 6.62108,-13.10156 h -6.19921 z m 15.39844,-0.0586 q 2.23828,0 3.23438,1.19532 1.00781,1.19531 1.00781,3.71484 v 0.96094 h -5.77735 v 0.1875 q 0,1.74609 0.28125,2.48437 0.28125,0.73828 0.91407,1.125 0.63281,0.38672 1.73437,0.38672 1.03125,0 2.60156,-0.33984 v 0.90234 q -0.64453,0.38672 -1.67578,0.64453 -1.01953,0.2461 -1.99218,0.2461 -2.70704,0 -4.00782,-1.40625 -1.28906,-1.41799 -1.28906,-4.38284 0,-2.88281 1.23047,-4.30078 1.24219,-1.41797 3.73828,-1.41797 z m -0.12891,1.1836 q -0.70312,0 -1.05468,0.76172 -0.33985,0.76171 -0.33985,2.69531 h 2.55469 q 0,-1.57031 -0.10547,-2.20313 -0.10547,-0.64453 -0.36328,-0.94922 -0.24609,-0.30468 -0.69141,-0.30468 z"
    aria-label="#e9ae7e" />
  <path
    style="fill:#e3eaf2"
    d="m 341.70702,583.39259 -0.89062,4.81641 h -1.67578 l 0.89062,-4.81641 h -3.16406 l -0.86719,4.81641 h -1.71093 l 0.89062,-4.81641 h -1.83984 v -1.4414 h 2.13281 l 0.62109,-3.36328 h -2.7539 v -1.44141 h 3.02343 l 0.85548,-4.65234 h 1.6875 l -0.86719,4.65234 h 3.16406 l 0.86719,-4.65234 h 1.67578 l -0.86719,4.65234 h 1.82812 v 1.44141 h -2.08593 l -0.59766,3.36328 h 2.68359 v 1.4414 z m -3.9375,-4.80468 -0.62109,3.36328 h 3.16406 l 0.63282,-3.36328 z m 13.04297,-1.66407 q 2.23828,0 3.23438,1.19532 1.00781,1.19531 1.00781,3.71484 v 0.96094 h -5.77734 v 0.1875 q 0,1.74609 0.28125,2.48437 0.28125,0.73828 0.91406,1.125 0.63281,0.38672 1.73437,0.38672 1.03125,0 2.60157,-0.33984 v 0.90234 q -0.64453,0.38672 -1.67578,0.64453 -1.01954,0.2461 -1.99219,0.2461 -2.70702,0 -4.00781,-1.40625 -1.28906,-1.41797 -1.28906,-4.38282 0,-2.88281 1.23047,-4.30078 1.24219,-1.41797 3.73827,-1.41797 z m -0.1289,1.1836 q -0.70313,0 -1.05469,0.76172 -0.33984,0.76171 -0.33984,2.69531 h 2.55469 q 0,-1.57031 -0.10548,-2.20313 -0.10546,-0.64453 -0.36327,-0.94922 -0.24609,-0.30468 -0.69141,-0.30468 z m 16.28906,5.22656 q 0,2.47266 -1.27734,3.79687 -1.27735,1.3125 -3.63281,1.3125 -2.69532,0 -4.13673,-2.05078 -1.42968,-2.05078 -1.42968,-5.9414 0,-2.53125 0.75,-4.3711 0.76172,-1.83984 2.12109,-2.80078 1.35938,-0.96094 3.12891,-0.96094 1.82812,0 3.52734,0.50391 v 3.57422 h -1.01953 l -0.50391,-2.27344 q -0.80859,-0.60937 -1.76953,-0.60937 -1.17187,0 -1.91015,1.5 -0.72656,1.5 -0.85547,4.19531 1.27734,-0.55078 2.53125,-0.55078 2.14453,0 3.30468,1.20703 1.17188,1.20703 1.17188,3.46875 z m -4.95703,3.92578 q 0.85548,0 1.18359,-0.92578 0.32813,-0.92578 0.32813,-2.77734 0,-1.65235 -0.45703,-2.54297 -0.45704,-0.89063 -1.35938,-0.89063 -0.86718,0 -1.76952,0.26953 v 0.0586 q 0,6.80859 2.07421,6.80859 z m 14.25,0.32813 q -0.65625,0.42187 -1.00781,0.5625 -0.35156,0.1289 -0.79688,0.21093 -0.44531,0.082 -0.98437,0.082 -2.4375,0 -3.63281,-1.39453 -1.19532,-1.40625 -1.19532,-4.3125 0,-2.85937 1.27734,-4.34765 1.28907,-1.48828 3.72657,-1.48828 1.27734,0 2.57812,0.3164 -0.0703,-0.38672 -0.0703,-1.8164 v -2.78907 l -1.125,-0.28125 v -0.77343 h 4.51173 v 15.59765 l 1.20702,0.28125 v 0.77344 h -4.24218 z m -4.1836,-4.94532 q 0,2.19141 0.55079,3.35157 0.55078,1.14843 1.58203,1.14843 0.9375,0 1.94531,-0.5039 v -8.29688 q -0.91406,-0.24609 -1.85156,-0.24609 -1.05469,0 -1.64063,1.16015 -0.58594,1.14844 -0.58594,3.38672 z m 20.1211,1.28907 q 0,2.14453 -1.53516,3.32812 -1.53515,1.18359 -4.26562,1.18359 -2.17969,0 -4.33594,-0.46875 l -0.14063,-3.80859 h 1.07813 l 0.60937,2.51953 q 1.01954,0.57422 2.13282,0.57422 1.41797,0 2.21484,-0.90234 0.79688,-0.91407 0.79688,-2.54297 0,-1.41797 -0.64454,-2.16797 -0.63281,-0.76172 -2.0625,-0.85547 l -1.35937,-0.082 v -1.41797 l 1.3125,-0.0937 q 1.04297,-0.0703 1.53516,-0.76172 0.5039,-0.70312 0.5039,-2.10937 0,-1.3125 -0.59765,-2.0625 -0.58594,-0.75 -1.67579,-0.75 -0.63281,0 -1.04296,0.19922 -0.39844,0.1875 -0.76172,0.41015 l -0.50391,2.27344 h -1.01953 v -3.57422 q 1.19531,-0.30469 2.0625,-0.39844 0.86719,-0.10547 1.71094,-0.10547 5.28515,0 5.28515,3.86719 0,1.59375 -0.84375,2.57813 -0.84375,0.98437 -2.41406,1.21875 3.96094,0.48047 3.96094,3.94922 z m 3.21094,-6.94922 h -1.01954 v -4.48828 h 10.04298 v 0.92578 l -6.10548,14.78906 h -2.80077 l 6.6211,-13.10156 h -6.19923 z m 16.00781,-0.0352 q 4.13673,0 4.13673,3.04688 v 7.16015 l 1.10156,0.28125 v 0.77344 h -4.05469 l -0.25781,-0.84375 q -0.91406,0.62109 -1.65234,0.84375 -0.73829,0.23437 -1.48829,0.23437 -3.41015,0 -3.41015,-3.28125 0,-1.24218 0.5039,-1.98046 0.50391,-0.75 1.45313,-1.10157 0.94922,-0.36328 2.98827,-0.41015 l 1.42969,-0.0352 v -1.60547 q 0,-1.99219 -1.62891,-1.99219 -0.98437,0 -2.20312,0.60938 l -0.44532,1.37109 h -0.77343 v -2.66015 q 1.76953,-0.26953 2.60156,-0.33985 0.83203,-0.0703 1.69922,-0.0703 z m 0.75,5.73047 -0.98437,0.0352 q -1.13673,0.0469 -1.58203,0.59765 -0.43359,0.55078 -0.43359,1.78125 0,0.9961 0.35156,1.46485 0.35156,0.46875 0.91406,0.46875 0.79688,0 1.73438,-0.41016 z"
    aria-label="#e6d37a" />
  <path
    style="fill:#e3eaf2"
    d="m 491.20312,583.39257 -0.89062,4.81641 h -1.67578 l 0.89062,-4.81641 h -3.16406 l -0.86719,4.81641 h -1.71093 l 0.89062,-4.81641 h -1.83984 v -1.4414 h 2.13281 l 0.62109,-3.36328 h -2.7539 v -1.44141 h 3.02343 l 0.85547,-4.65234 h 1.6875 l -0.86718,4.65234 h 3.16406 l 0.86719,-4.65234 h 1.67578 l -0.86719,4.65234 h 1.82812 v 1.44141 h -2.08593 l -0.59766,3.36328 h 2.68359 v 1.4414 z m -3.9375,-4.80468 -0.62109,3.36328 h 3.16406 l 0.63282,-3.36328 z m 7.91016,-1.30079 q 0,-2.39062 1.37109,-3.67968 1.3711,-1.28907 3.8086,-1.28907 2.7539,0 4.01953,1.9336 1.27734,1.93359 1.27734,6.05859 0,2.64844 -0.75,4.46485 -0.73828,1.8164 -2.13281,2.74218 -1.39453,0.92578 -3.35156,0.92578 -1.94531,0 -3.64453,-0.5039 v -3.57422 h 1.01953 l 0.5039,2.27344 q 0.41016,0.29297 0.97266,0.45703 0.57422,0.16406 1.10156,0.16406 1.26563,0 1.96875,-1.42969 0.71485,-1.4414 0.83203,-4.16015 -1.21875,0.43359 -2.42578,0.43359 -2.12109,0 -3.35156,-1.26562 -1.21875,-1.26563 -1.21875,-3.55079 z m 3.44531,0.0469 q 0,3.35156 1.82813,3.35156 0.89062,0 1.75781,-0.21094 v -0.16406 q 0,-3.38672 -0.41016,-5.09765 -0.39843,-1.71094 -1.41796,-1.71094 -1.75782,0 -1.75782,3.83203 z m 15.92578,9.58594 2.73047,0.28125 v 1.00781 h -8.83593 v -1.00781 l 2.71875,-0.28125 v -11.84766 l -2.70704,0.89063 v -0.9961 l 4.42969,-2.60156 h 1.66406 z m 12.5625,0.66797 q -0.65625,0.42187 -1.00781,0.5625 -0.35156,0.1289 -0.79687,0.21093 -0.44532,0.082 -0.98438,0.082 -2.4375,0 -3.63281,-1.39453 -1.19531,-1.40625 -1.19531,-4.3125 0,-2.85937 1.27734,-4.34765 1.28906,-1.48828 3.72656,-1.48828 1.27735,0 2.57813,0.3164 -0.0703,-0.38672 -0.0703,-1.8164 v -2.78907 l -1.125,-0.28125 v -0.77343 h 4.51171 v 15.59765 l 1.20704,0.28125 v 0.77344 h -4.24219 z m -4.18359,-4.94532 q 0,2.19141 0.55078,3.35157 0.55078,1.14843 1.58203,1.14843 0.9375,0 1.94532,-0.5039 v -8.29688 q -0.91407,-0.24609 -1.85157,-0.24609 -1.05468,0 -1.64062,1.16015 -0.58594,1.14844 -0.58594,3.38672 z m 20.02734,-2.35547 q 0,8.15625 -5.15625,8.15625 -2.48437,0 -3.75,-2.08593 -1.26562,-2.08594 -1.26562,-6.07032 0,-3.90234 1.26562,-5.96484 1.26563,-2.07422 3.84375,-2.07422 2.48438,0 3.77344,2.05078 1.28906,2.03907 1.28906,5.98828 z m -3.43359,0 q 0,-3.65625 -0.41016,-5.25 -0.41015,-1.60546 -1.28906,-1.60546 -0.86719,0 -1.24219,1.54687 -0.36328,1.54688 -0.36328,5.30859 0,3.82032 0.375,5.40235 0.375,1.58203 1.23047,1.58203 0.86719,0 1.27735,-1.61719 0.42187,-1.6289 0.42187,-5.36719 z m 6.73828,-3.30468 h -1.01953 v -4.48828 h 10.04297 v 0.92578 L 549.17578,588.209 H 546.375 l 6.62109,-13.10156 h -6.19922 z m 20.90625,6.35156 q 0,2.47266 -1.27734,3.79687 -1.27735,1.3125 -3.63281,1.3125 -2.69532,0 -4.13672,-2.05078 -1.42969,-2.05078 -1.42969,-5.9414 0,-2.53125 0.75,-4.3711 0.76172,-1.83984 2.12109,-2.80078 1.35938,-0.96094 3.12891,-0.96094 1.82812,0 3.52734,0.50391 v 3.57422 h -1.01953 l -0.5039,-2.27344 q -0.8086,-0.60937 -1.76954,-0.60937 -1.17187,0 -1.91015,1.5 -0.72656,1.5 -0.85547,4.19531 1.27734,-0.55078 2.53125,-0.55078 2.14453,0 3.30469,1.20703 1.17187,1.20703 1.17187,3.46875 z m -4.95703,3.92578 q 0.85547,0 1.18359,-0.92578 0.32813,-0.92578 0.32813,-2.77734 0,-1.65235 -0.45703,-2.54297 -0.45703,-0.89063 -1.35938,-0.89063 -0.86718,0 -1.76953,0.26953 v 0.0586 q 0,6.80859 2.07422,6.80859 z"
    aria-label="#91d076" />
  <path
    style="fill:#e3eaf2"
    d="m 644.51953,583.01172 -0.89062,4.81641 h -1.67579 l 0.89063,-4.81641 h -3.16406 l -0.86719,4.81641 h -1.71093 l 0.89062,-4.81641 h -1.83984 v -1.4414 h 2.13281 l 0.62109,-3.36328 h -2.7539 v -1.44141 h 3.02343 l 0.85547,-4.65234 h 1.6875 l -0.86718,4.65234 h 3.16406 l 0.86719,-4.65234 h 1.67578 l -0.86719,4.65234 h 1.82812 v 1.44141 h -2.08593 l -0.59766,3.36328 h 2.68359 v 1.4414 z m -3.9375,-4.80468 -0.62109,3.36328 h 3.16406 l 0.63282,-3.36328 z m 18.55079,4.74609 q 0,2.47266 -1.27735,3.79687 -1.27735,1.3125 -3.63281,1.3125 -2.69532,0 -4.13672,-2.05078 -1.42969,-2.05078 -1.42969,-5.9414 0,-2.53125 0.75,-4.3711 0.76172,-1.83984 2.12109,-2.80078 1.35938,-0.96094 3.12891,-0.96094 1.82812,0 3.52734,0.50391 v 3.57422 h -1.01952 l -0.50391,-2.27344 q -0.80859,-0.60937 -1.76954,-0.60937 -1.17187,0 -1.91015,1.5 -0.72656,1.5 -0.85547,4.19531 1.27734,-0.55078 2.53125,-0.55078 2.14452,0 3.30469,1.20703 1.17187,1.20703 1.17188,3.46875 z m -4.95704,3.92578 q 0.85547,0 1.18359,-0.92578 0.32813,-0.92578 0.32813,-2.77734 0,-1.65235 -0.45703,-2.54297 -0.45703,-0.89063 -1.35937,-0.89063 -0.86719,0 -1.76953,0.26953 v 0.0586 q 0,6.80859 2.07421,6.80859 z m 16.95704,-3.92578 q 0,2.47266 -1.27735,3.79687 -1.27735,1.3125 -3.63281,1.3125 -2.69532,0 -4.13672,-2.05078 -1.42969,-2.05078 -1.42969,-5.9414 0,-2.53125 0.75,-4.3711 0.76172,-1.83984 2.12109,-2.80078 1.35938,-0.96094 3.12891,-0.96094 1.82812,0 3.52734,0.50391 v 3.57422 h -1.01952 l -0.50391,-2.27344 q -0.80859,-0.60937 -1.76954,-0.60937 -1.17187,0 -1.91015,1.5 -0.72656,1.5 -0.85547,4.19531 1.27734,-0.55078 2.53125,-0.55078 2.14452,0 3.30469,1.20703 1.17187,1.20703 1.17188,3.46875 z m -4.95704,3.92578 q 0.85547,0 1.18359,-0.92578 0.32813,-0.92578 0.32813,-2.77734 0,-1.65235 -0.45703,-2.54297 -0.45703,-0.89063 -1.35937,-0.89063 -0.86719,0 -1.76953,0.26953 v 0.0586 q 0,6.80859 2.07421,6.80859 z m 15.71484,0.28125 q -0.52734,0.42188 -1.46484,0.65625 -0.92578,0.23438 -1.91016,0.23438 -2.9414,0 -4.40625,-1.41797 -1.45312,-1.41797 -1.45312,-4.33594 0,-1.81641 0.65625,-3.10547 0.66797,-1.30078 1.89844,-1.98047 1.23047,-0.6914 2.85938,-0.6914 1.64062,0 3.57421,0.41015 v 3.25781 h -0.84375 l -0.49219,-1.93359 q -0.39843,-0.29297 -0.78515,-0.41016 -0.38673,-0.11718 -1.01953,-0.11718 -0.69141,0 -1.25391,0.55078 -0.5625,0.55078 -0.87891,1.55859 -0.30468,0.9961 -0.30468,2.39063 0,2.35547 0.72656,3.36328 0.73828,1.00781 2.33203,1.00781 1.61719,0 2.76562,-0.33984 z m 10.65235,0 q -0.52735,0.42188 -1.46485,0.65625 -0.92577,0.23438 -1.91015,0.23438 -2.9414,0 -4.40625,-1.41797 -1.45313,-1.41797 -1.45313,-4.33594 0,-1.81641 0.65625,-3.10547 0.66798,-1.30078 1.89844,-1.98047 1.23047,-0.6914 2.85938,-0.6914 1.64062,0 3.57421,0.41015 v 3.25781 h -0.84375 l -0.49218,-1.93359 q -0.39844,-0.29297 -0.78516,-0.41016 -0.38671,-0.11718 -1.01953,-0.11718 -0.6914,0 -1.2539,0.55078 -0.5625,0.55078 -0.87891,1.55859 -0.30469,0.9961 -0.30469,2.39063 0,2.35547 0.72657,3.36328 0.73827,1.00781 2.33202,1.00781 1.61719,0 2.76563,-0.33984 z m 10.65235,0 q -0.52735,0.42188 -1.46485,0.65625 -0.92578,0.23438 -1.91015,0.23438 -2.94141,0 -4.40625,-1.41797 -1.45313,-1.41797 -1.45313,-4.33594 0,-1.81641 0.65625,-3.10547 0.66797,-1.30078 1.89843,-1.98047 1.23048,-0.6914 2.85938,-0.6914 1.64062,0 3.57422,0.41015 v 3.25781 h -0.84375 l -0.49219,-1.93359 q -0.39843,-0.29297 -0.78515,-0.41016 -0.38672,-0.11718 -1.01953,-0.11718 -0.69141,0 -1.25391,0.55078 -0.5625,0.55078 -0.87891,1.55859 -0.30468,0.9961 -0.30468,2.39063 0,2.35547 0.72656,3.36328 0.73828,1.00781 2.33203,1.00781 1.61718,0 2.76563,-0.33984 z m 10.65234,0 q -0.52734,0.42188 -1.46484,0.65625 -0.92579,0.23438 -1.91016,0.23438 -2.94141,0 -4.40625,-1.41797 -1.45313,-1.41797 -1.45313,-4.33594 0,-1.81641 0.65625,-3.10547 0.66797,-1.30078 1.89844,-1.98047 1.23047,-0.6914 2.85937,-0.6914 1.64063,0 3.57423,0.41015 v 3.25781 h -0.84375 l -0.4922,-1.93359 q -0.39843,-0.29297 -0.78515,-0.41016 -0.38672,-0.11718 -1.01953,-0.11718 -0.69141,0 -1.25391,0.55078 -0.5625,0.55078 -0.87891,1.55859 -0.30468,0.9961 -0.30468,2.39063 0,2.35547 0.72656,3.36328 0.73828,1.00781 2.33203,1.00781 1.61719,0 2.76563,-0.33984 z"
    aria-label="#66cccc" />
  <path
    style="fill:#e3eaf2"
    d="m 792.55078,583.39258 -0.89062,4.81641 h -1.67579 l 0.89063,-4.81641 h -3.16406 l -0.86719,4.81641 h -1.71093 l 0.89062,-4.81641 h -1.83984 v -1.4414 h 2.13281 l 0.62109,-3.36328 h -2.7539 v -1.44141 h 3.02343 l 0.85547,-4.65234 h 1.6875 l -0.86718,4.65234 h 3.16406 l 0.86719,-4.65234 h 1.67578 l -0.86719,4.65234 h 1.82812 v 1.44141 h -2.08593 l -0.59766,3.36328 h 2.68359 v 1.4414 z m -3.9375,-4.80468 -0.62109,3.36328 h 3.16406 l 0.63282,-3.36328 z m 18.55079,4.74608 q 0,2.47267 -1.27735,3.79688 -1.27735,1.3125 -3.63281,1.3125 -2.69532,0 -4.13672,-2.05078 -1.42969,-2.05078 -1.42969,-5.9414 0,-2.53125 0.75,-4.3711 0.76172,-1.83984 2.12109,-2.80078 1.35938,-0.96094 3.12891,-0.96094 1.82812,0 3.52734,0.50391 v 3.57422 h -1.01952 l -0.50391,-2.27344 q -0.80859,-0.60937 -1.76954,-0.60937 -1.17187,0 -1.91015,1.5 -0.72656,1.5 -0.85547,4.19531 1.27734,-0.55078 2.53125,-0.55078 2.14452,0 3.30469,1.20703 1.17187,1.20703 1.17188,3.46874 z m -4.95704,3.92579 q 0.85547,0 1.18359,-0.92579 0.32813,-0.92577 0.32813,-2.77733 0,-1.65235 -0.45703,-2.54297 -0.45703,-0.89063 -1.35937,-0.89063 -0.86719,0 -1.76953,0.26953 v 0.0586 q 0,6.80859 2.07421,6.80859 z m 15.71484,0.28125 q -0.52734,0.42187 -1.46484,0.65625 -0.92578,0.23437 -1.91016,0.23437 -2.9414,0 -4.40625,-1.41797 -1.45312,-1.41797 -1.45312,-4.33594 0,-1.81641 0.65625,-3.10546 0.66797,-1.30079 1.89844,-1.98048 1.23047,-0.6914 2.85938,-0.6914 1.64062,0 3.57421,0.41015 v 3.25781 h -0.84375 l -0.49219,-1.93358 q -0.39843,-0.29298 -0.78515,-0.41017 -0.38673,-0.11718 -1.01953,-0.11718 -0.69141,0 -1.25391,0.55078 -0.5625,0.55078 -0.87891,1.55859 -0.30468,0.9961 -0.30468,2.39063 0,2.35547 0.72656,3.36328 0.73828,1.00781 2.33203,1.00781 1.61719,0 2.76562,-0.33984 z m 9.53907,-5.15625 q 0,-2.16797 -0.53907,-3.17579 -0.52734,-1.0078 -1.74609,-1.0078 -0.44531,0 -0.97266,0.10547 -0.52734,0.0937 -0.86718,0.29296 v 8.42579 q 0.75,0.1875 1.83984,0.1875 1.16016,0 1.72266,-1.125 0.5625,-1.13672 0.5625,-3.70313 z m -7.51172,-9.79688 -1.125,-0.26954 v -0.76171 h 4.51172 v 4.04296 q 0,1.08985 -0.11719,2.21485 0.46875,-0.38672 1.34766,-0.64452 0.89062,-0.26953 1.73437,-0.26953 2.39063,0 3.49219,1.3125 1.10156,1.3125 1.10156,4.18358 0,2.83595 -1.41796,4.44142 -1.40625,1.60546 -3.97266,1.60546 -1.89844,0 -5.55469,-0.79688 z m 22.75781,3.77344 q 0,1.28906 -0.63281,2.20312 -0.63281,0.90235 -1.78125,1.3125 1.34765,0.5039 2.0625,1.5586 0.71485,1.05468 0.71485,2.53125 0,2.22655 -1.28907,3.35155 -1.27734,1.125 -3.98438,1.125 -5.1328,0 -5.1328,-4.47655 0,-1.5 0.72655,-2.5547 0.72657,-1.05468 2.01563,-1.53515 -1.13672,-0.4336 -1.75781,-1.33593 -0.62109,-0.90234 -0.62109,-2.21484 0,-1.92188 1.26562,-3 1.27735,-1.07813 3.59766,-1.07813 2.27344,0 3.53906,1.10156 1.27734,1.08985 1.27734,3.01172 z m -2.96484,7.60547 q 0,-1.80469 -0.46875,-2.625 -0.46875,-0.82032 -1.47657,-0.82032 -0.96093,0 -1.3828,0.79688 -0.42188,0.79688 -0.42188,2.64844 0,1.81641 0.42188,2.55469 0.43359,0.73828 1.3828,0.73828 1.00782,0 1.47657,-0.77344 0.46875,-0.77343 0.46875,-2.51953 z m -0.36328,-7.60547 q 0,-1.53515 -0.38672,-2.22656 -0.38672,-0.70313 -1.17187,-0.70313 -0.75,0 -1.11329,0.69141 -0.35156,0.6914 -0.35156,2.23827 0,1.59375 0.35156,2.25 0.35156,0.65625 1.11329,0.65625 0.80859,0 1.18359,-0.66797 0.375,-0.67968 0.375,-2.23827 z m 10.27734,0.5625 q 2.23828,0 3.23437,1.19531 1.00782,1.19531 1.00782,3.71484 v 0.96094 h -5.77734 v 0.1875 q 0,1.7461 0.28125,2.48438 0.28125,0.73827 0.91406,1.125 0.63281,0.38672 1.73437,0.38672 1.03125,0 2.60157,-0.33984 v 0.90234 q -0.64453,0.38671 -1.67578,0.64453 -1.01954,0.24609 -1.99219,0.24609 -2.70703,0 -4.00781,-1.40625 -1.28907,-1.41797 -1.28907,-4.38281 0,-2.88281 1.23047,-4.30078 1.24219,-1.41797 3.73828,-1.41797 z m -0.1289,1.1836 q -0.70313,0 -1.05469,0.76172 -0.33984,0.76171 -0.33984,2.69531 h 2.55468 q 0,-1.57031 -0.10547,-2.20313 -0.10546,-0.64453 -0.36328,-0.94922 -0.24609,-0.30468 -0.6914,-0.30468 z m 16.28906,5.22655 q 0,2.47267 -1.27734,3.79688 -1.27735,1.3125 -3.63282,1.3125 -2.69531,0 -4.13672,-2.05078 -1.42968,-2.05078 -1.42968,-5.9414 0,-2.53125 0.75,-4.3711 0.76172,-1.83984 2.12109,-2.80078 1.35938,-0.96094 3.12891,-0.96094 1.82812,0 3.52734,0.50391 v 3.57422 h -1.01953 l -0.50391,-2.27344 q -0.80859,-0.60937 -1.76953,-0.60937 -1.17187,0 -1.91015,1.5 -0.72657,1.5 -0.85547,4.19531 1.27734,-0.55078 2.53125,-0.55078 2.14452,0 3.30468,1.20703 1.17188,1.20703 1.17188,3.46874 z m -4.95703,3.92579 q 0.85547,0 1.18359,-0.92579 0.32813,-0.92577 0.32813,-2.77733 0,-1.65235 -0.45703,-2.54297 -0.45704,-0.89063 -1.35938,-0.89063 -0.86719,0 -1.76953,0.26953 v 0.0586 q 0,6.80859 2.07422,6.80859 z"
    aria-label="#6cb8e6" />
  <path
    style="fill:#e3eaf2"
    d="m 943.28319,583.01171 -0.89062,4.81641 h -1.67578 l 0.89062,-4.81641 h -3.16406 l -0.86719,4.81641 h -1.71093 l 0.89062,-4.81641 h -1.83984 v -1.4414 h 2.13281 l 0.62109,-3.36328 h -2.7539 v -1.44141 h 3.02343 l 0.85547,-4.65234 h 1.6875 l -0.86718,4.65234 h 3.16406 l 0.86719,-4.65234 h 1.67578 l -0.86719,4.65234 h 1.82812 v 1.44141 h -2.08593 l -0.59766,3.36328 h 2.68359 v 1.4414 z m -3.9375,-4.80468 -0.62109,3.36328 h 3.16406 l 0.63282,-3.36328 z m 17.3086,8.95312 q -0.52735,0.42188 -1.46485,0.65625 -0.92578,0.23438 -1.91015,0.23438 -2.94141,0 -4.40625,-1.41797 -1.45313,-1.41797 -1.45313,-4.33594 0,-1.81641 0.65625,-3.10547 0.66797,-1.30078 1.89844,-1.98047 1.23047,-0.6914 2.85938,-0.6914 1.64062,0 3.57421,0.41015 v 3.25781 h -0.84375 l -0.49218,-1.93359 q -0.39844,-0.29297 -0.78516,-0.41016 -0.38672,-0.11718 -1.01953,-0.11718 -0.69141,0 -1.25391,0.55078 -0.5625,0.55078 -0.8789,1.55859 -0.30469,0.9961 -0.30469,2.39063 0,2.35547 0.72656,3.36328 0.73828,1.00781 2.33203,1.00781 1.61719,0 2.76563,-0.33984 z m 11.89453,-4.20703 q 0,2.47266 -1.27734,3.79687 -1.27735,1.3125 -3.63282,1.3125 -2.69531,0 -4.13672,-2.05078 -1.42968,-2.05078 -1.42968,-5.9414 0,-2.53125 0.75,-4.3711 0.76172,-1.83984 2.12109,-2.80078 1.35938,-0.96094 3.12891,-0.96094 1.82812,0 3.52734,0.50391 v 3.57422 h -1.01953 l -0.50391,-2.27344 q -0.80859,-0.60937 -1.76953,-0.60937 -1.17187,0 -1.91015,1.5 -0.72657,1.5 -0.85547,4.19531 1.27734,-0.55078 2.53125,-0.55078 2.14453,0 3.30468,1.20703 1.17188,1.20703 1.17188,3.46875 z m -4.95703,3.92578 q 0.85547,0 1.18359,-0.92578 0.32813,-0.92578 0.32813,-2.77734 0,-1.65235 -0.45703,-2.54297 -0.45704,-0.89063 -1.35938,-0.89063 -0.86719,0 -1.76953,0.26953 v 0.0586 q 0,6.80859 2.07422,6.80859 z m 6.3164,-9.97266 q 0,-2.39062 1.3711,-3.67968 1.37109,-1.28907 3.80859,-1.28907 2.75391,0 4.01953,1.9336 1.27735,1.93359 1.27735,6.05859 0,2.64844 -0.75,4.46485 -0.73828,1.8164 -2.13282,2.74218 -1.39453,0.92578 -3.35156,0.92578 -1.94531,0 -3.64453,-0.5039 v -3.57422 h 1.01953 l 0.50391,2.27344 q 0.41015,0.29297 0.97265,0.45703 0.57422,0.16406 1.10157,0.16406 1.26562,0 1.96875,-1.42969 0.71484,-1.4414 0.83203,-4.16015 -1.21875,0.43359 -2.42578,0.43359 -2.1211,0 -3.35157,-1.26562 -1.21875,-1.26563 -1.21875,-3.55079 z m 3.44532,0.0469 q 0,3.35156 1.82812,3.35156 0.89063,0 1.75781,-0.21094 v -0.16406 q 0,-3.38672 -0.41015,-5.09765 -0.39844,-1.71094 -1.41797,-1.71094 -1.75781,0 -1.75781,3.83203 z m 8.55468,-0.0469 q 0,-2.39062 1.3711,-3.67968 1.37109,-1.28907 3.80859,-1.28907 2.75391,0 4.01953,1.9336 1.27735,1.93359 1.27735,6.05859 0,2.64844 -0.75,4.46485 -0.73828,1.8164 -2.13282,2.74218 -1.39453,0.92578 -3.35156,0.92578 -1.94531,0 -3.64453,-0.5039 v -3.57422 h 1.01953 l 0.50391,2.27344 q 0.41015,0.29297 0.97265,0.45703 0.57422,0.16406 1.10157,0.16406 1.26562,0 1.96875,-1.42969 0.71484,-1.4414 0.83203,-4.16015 -1.21875,0.43359 -2.42578,0.43359 -2.1211,0 -3.35157,-1.26562 -1.21875,-1.26563 -1.21875,-3.55079 z m 3.44532,0.0469 q 0,3.35156 1.82812,3.35156 0.89063,0 1.75781,-0.21094 v -0.16406 q 0,-3.38672 -0.41015,-5.09765 -0.39844,-1.71094 -1.41797,-1.71094 -1.75781,0 -1.75781,3.83203 z m 13.6875,-0.41016 q 2.23829,0 3.23439,1.19532 1.0078,1.19531 1.0078,3.71484 v 0.96094 h -5.77735 v 0.1875 q 0,1.74609 0.28125,2.48437 0.28125,0.73828 0.91406,1.125 0.63282,0.38672 1.73434,0.38672 1.0313,0 2.6016,-0.33984 v 0.90234 q -0.6445,0.38672 -1.6758,0.64453 -1.0195,0.2461 -1.99217,0.2461 -2.70703,0 -4.00781,-1.40625 -1.28906,-1.41797 -1.28906,-4.38282 0,-2.88281 1.23047,-4.30078 1.24218,-1.41797 3.73828,-1.41797 z m -0.12891,1.1836 q -0.70312,0 -1.05469,0.76172 -0.33984,0.76171 -0.33984,2.69531 h 2.55473 q 0,-1.57031 -0.10551,-2.20313 -0.10547,-0.64453 -0.36328,-0.94922 -0.2461,-0.30468 -0.69141,-0.30468 z m 16.1719,5.82422 q 0,2.14453 -1.5352,3.32812 -1.5351,1.18359 -4.2656,1.18359 -2.1797,0 -4.3359,-0.46875 l -0.1407,-3.80859 h 1.0782 l 0.6093,2.51953 q 1.0196,0.57422 2.1328,0.57422 1.418,0 2.2149,-0.90234 0.7969,-0.91407 0.7969,-2.54297 0,-1.41797 -0.6446,-2.16797 -0.6328,-0.76172 -2.0625,-0.85547 l -1.3593,-0.082 v -1.41797 l 1.3125,-0.0937 q 1.0429,-0.0703 1.5351,-0.76172 0.5039,-0.70312 0.5039,-2.10937 0,-1.3125 -0.5976,-2.0625 -0.586,-0.75 -1.6758,-0.75 -0.6328,0 -1.043,0.19922 -0.3984,0.1875 -0.7617,0.41015 l -0.5039,2.27344 h -1.0195 v -3.57422 q 1.1953,-0.30469 2.0625,-0.39844 0.8671,-0.10547 1.7109,-0.10547 5.2852,0 5.2852,3.86719 0,1.59375 -0.8438,2.57813 -0.8437,0.98437 -2.4141,1.21875 3.961,0.48047 3.961,3.94922 z"
    aria-label="#c699e3" />
  <path
    style="fill:#e3eaf2"
    d="m 1095.082,583.51562 -0.8906,4.81642 h -1.6758 l 0.8906,-4.81642 h -3.164 l -0.8672,4.81642 h -1.7109 l 0.8906,-4.81642 h -1.8399 v -1.44139 h 2.1329 l 0.621,-3.36328 h -2.7539 v -1.44141 h 3.0235 l 0.8554,-4.65234 h 1.6875 l -0.8671,4.65234 h 3.164 l 0.8672,-4.65234 h 1.6758 l -0.8672,4.65234 h 1.8281 v 1.44141 h -2.0859 l -0.5977,3.36328 h 2.6836 v 1.44139 z m -3.9375,-4.80467 -0.6211,3.36327 h 3.1641 l 0.6328,-3.36327 z m 9.0938,-0.17579 h -1.6641 v -0.8086 l 1.6641,-0.45702 v -1.18359 q 0,-2.25 1.1484,-3.44533 1.1485,-1.20702 3.293,-1.20702 1.1601,0 1.9453,0.22266 v 2.625 h -0.75 l -0.3398,-1.27735 q -0.2813,-0.28125 -0.7383,-0.28125 -1.1719,0 -1.1719,2.98829 v 1.60546 h 2.2383 v 1.21875 h -2.2383 v 8.74219 l 1.793,0.28125 v 0.77344 h -6.375 v -0.77344 l 1.1953,-0.28125 z m 16.1367,6.6914 v 3.10548 h -3.1523 v -3.10548 h -6.504 v -1.91015 l 7.0782,-10.78125 h 2.5781 v 10.28906 h 1.5703 v 2.40234 z m -3.1523,-7.05469 q 0,-1.3125 0.1171,-2.48437 l -4.6757,7.13673 h 4.5586 z m 11.5664,-1.10156 q 4.1367,0 4.1367,3.04689 v 7.16014 l 1.1015,0.28125 v 0.77344 h -4.0546 l -0.2579,-0.84375 q -0.914,0.62109 -1.6523,0.84375 -0.7383,0.23438 -1.4883,0.23438 -3.4101,0 -3.4101,-3.28125 0,-1.24219 0.5039,-1.98046 0.5039,-0.75 1.4531,-1.10158 0.9492,-0.36328 2.9883,-0.41014 l 1.4297,-0.0352 v -1.60547 q 0,-1.99219 -1.6289,-1.99219 -0.9844,0 -2.2032,0.60937 l -0.4453,1.37109 h -0.7734 v -2.66015 q 1.7695,-0.26952 2.6015,-0.33985 0.8321,-0.0703 1.6993,-0.0703 z m 0.75,5.73048 -0.9844,0.0352 q -1.1367,0.0469 -1.582,0.59765 -0.4336,0.55078 -0.4336,1.78125 0,0.9961 0.3515,1.46485 0.3516,0.46875 0.9141,0.46875 0.7969,0 1.7344,-0.41015 z m 13.4414,4.91016 q -0.6563,0.42187 -1.0078,0.5625 -0.3516,0.12889 -0.7969,0.21092 -0.4453,0.082 -0.9844,0.082 -2.4375,0 -3.6328,-1.39453 -1.1953,-1.40625 -1.1953,-4.3125 0,-2.85937 1.2773,-4.34765 1.2891,-1.48828 3.7266,-1.48828 1.2773,0 2.5781,0.3164 -0.07,-0.38672 -0.07,-1.8164 v -2.78907 l -1.125,-0.28125 v -0.77343 h 4.5117 v 15.59765 l 1.2071,0.28125 v 0.77344 h -4.2422 z m -4.1836,-4.94533 q 0,2.19142 0.5508,3.35158 0.5507,1.14842 1.582,1.14842 0.9375,0 1.9453,-0.50389 v -8.29688 q -0.9141,-0.24609 -1.8516,-0.24609 -1.0547,0 -1.6406,1.16015 -0.5859,1.14844 -0.5859,3.38671 z m 10.7812,-4.23046 h -1.664 v -0.80859 l 1.664,-0.45703 v -1.18359 q 0,-2.25 1.1485,-3.44532 1.1484,-1.20703 3.2929,-1.20703 1.1602,0 1.9453,0.22266 v 2.625 h -0.75 l -0.3398,-1.27735 q -0.2813,-0.28125 -0.7383,-0.28125 -1.1719,0 -1.1719,2.98829 v 1.60546 h 2.2383 v 1.21875 h -2.2383 v 8.74219 l 1.793,0.28125 v 0.77344 h -6.375 v -0.77344 l 1.1953,-0.28125 z m 16.1367,6.69141 v 3.10547 h -3.1523 v -3.10547 h -6.5039 v -1.91016 l 7.0781,-10.78125 h 2.5781 v 10.28907 h 1.5704 v 2.40233 z m -3.1523,-7.0547 q 0,-1.3125 0.1172,-2.48436 l -4.6758,7.13672 h 4.5586 z"
    aria-label="#f4adf4" />
  <path
    style="fill:#e3eaf2"
    d="m 405.75008,100.27084 q 0,-12.083325 -4.41666,-17.708323 -4.41667,-5.666664 -14.375,-5.666664 h -3.08333 V 123.4375 q 4,0.33333 7.25,0.33333 5.41666,0 8.54166,-2.33333 3.16666,-2.33333 4.625,-7.29166 1.45833,-5 1.45833,-13.875 z M 390.16675,72.312521 q 15.04166,0 22.20833,6.833331 7.20833,6.791664 7.20833,20.791658 0,14.37499 -6.875,21.41666 -6.875,6.99999 -20.79166,6.99999 l -18.70832,-0.16666 h -9.58333 v -3.04167 l 7.16666,-1.125 V 76.43752 l -7.16666,-1.083333 v -3.041666 z m 56.33331,15.833327 q 14.70833,0 14.70833,10.833329 V 124.4375 l 3.91666,1 v 2.75 h -14.41666 l -0.91667,-3 q -3.24999,2.20833 -5.87499,3 -2.625,0.83333 -5.29167,0.83333 -12.12499,0 -12.12499,-11.66666 0,-4.41667 1.79167,-7.04166 1.79166,-2.66667 5.16666,-3.91667 3.375,-1.29167 10.62499,-1.45833 l 5.08333,-0.125 v -5.708333 q 0,-7.08333 -5.79166,-7.08333 -3.5,0 -7.83333,2.166665 l -1.58333,4.874998 h -2.75 v -9.458329 q 6.29166,-0.958333 9.24999,-1.208333 2.95834,-0.25 6.04167,-0.25 z m 2.66666,20.374992 -3.49999,0.125 q -4.04167,0.16667 -5.625,2.125 -1.54167,1.95833 -1.54167,6.33333 0,3.54167 1.25,5.20833 1.25,1.66667 3.25,1.66667 2.83333,0 6.16666,-1.45834 z m 36.45833,-11.374996 q 4.49999,-4.999998 8.04166,-7.166663 3.58333,-2.208333 6.54166,-2.208333 h 2.25 v 14.291662 h -2.33333 l -2.45833,-5.249999 q -2.625,0 -5.95833,1.166666 -3.33333,1.125 -5.875,2.666663 v 23.79166 l 6.29166,1 v 2.75 h -23.41665 v -2.75 l 5.08333,-1 V 92.770846 l -5.08333,-0.999999 v -2.749999 h 16.45832 z m 36.83331,12.249996 15.29167,-16.66666 -4.16667,-0.958333 v -2.749999 h 14.91666 v 2.749999 l -4.5,0.916666 -9.33333,9.833327 13.45833,21.91666 3.5,1 v 2.75 h -18.83333 v -2.75 l 2.29167,-1 -7.83333,-13.70833 -4.79167,3.33333 v 10.375 l 3.875,1 v 2.75 h -19.62499 v -2.75 l 3.70833,-1 V 72.729188 l -4,-1 v -2.749999 h 16.04166 z m 73.37498,-21.249992 q 14.70832,0 14.70832,10.833329 V 124.4375 l 3.91667,1 v 2.75 h -14.41666 l -0.91667,-3 q -3.25,2.20833 -5.87499,3 -2.625,0.83333 -5.29167,0.83333 -12.12499,0 -12.12499,-11.66666 0,-4.41667 1.79166,-7.04166 1.79167,-2.66667 5.16667,-3.91667 3.37499,-1.29167 10.62499,-1.45833 l 5.08333,-0.125 v -5.708333 q 0,-7.08333 -5.79166,-7.08333 -3.5,0 -7.83333,2.166665 l -1.58333,4.874998 h -2.75 v -9.458329 q 6.29166,-0.958333 9.24999,-1.208333 2.95834,-0.25 6.04167,-0.25 z m 2.66666,20.374992 -3.5,0.125 q -4.04166,0.16667 -5.62499,2.125 -1.54167,1.95833 -1.54167,6.33333 0,3.54167 1.25,5.20833 1.25,1.66667 3.25,1.66667 2.83333,0 6.16666,-1.45834 z m 52.99997,17.29166 q -1.875,1.5 -5.20833,2.33333 -3.29166,0.83333 -6.79166,0.83333 -10.45833,0 -15.66666,-5.04166 -5.16667,-5.04167 -5.16667,-15.41666 0,-6.45833 2.33334,-11.041662 2.375,-4.624998 6.74999,-7.041664 4.375,-2.458332 10.16667,-2.458332 5.83333,0 12.70832,1.458332 v 11.583326 h -3 l -1.74999,-6.874994 q -1.41667,-1.041667 -2.79167,-1.458333 -1.375,-0.416667 -3.625,-0.416667 -2.45833,0 -4.45833,1.958333 -2,1.958332 -3.125,5.541664 -1.08333,3.541667 -1.08333,8.499997 0,8.375 2.58333,11.95833 2.625,3.58333 8.29166,3.58333 5.75,0 9.83333,-1.20833 z m 37.87499,0 q -1.875,1.5 -5.20833,2.33333 -3.29167,0.83333 -6.79167,0.83333 -10.45833,0 -15.66666,-5.04166 -5.16666,-5.04167 -5.16666,-15.41666 0,-6.45833 2.33333,-11.041662 2.375,-4.624998 6.75,-7.041664 4.375,-2.458332 10.16666,-2.458332 5.83333,0 12.70833,1.458332 v 11.583326 h -3 l -1.75,-6.874994 q -1.41667,-1.041667 -2.79167,-1.458333 -1.37499,-0.416667 -3.62499,-0.416667 -2.45834,0 -4.45834,1.958333 -1.99999,1.958332 -3.12499,5.541664 -1.08334,3.541667 -1.08334,8.499997 0,8.375 2.58334,11.95833 2.62499,3.58333 8.29166,3.58333 5.75,0 9.83333,-1.20833 z M 712.0833,88.062515 q 7.95833,0 11.49999,4.249998 3.58333,4.249998 3.58333,13.208327 v 3.41667 h -20.54165 v 0.66666 q 0,6.20833 1,8.83333 1,2.625 3.24999,4 2.25,1.375 6.16667,1.375 3.66666,0 9.25,-1.20833 v 3.20833 q -2.29167,1.375 -5.95834,2.29167 -3.62499,0.87499 -7.08333,0.87499 -9.62499,0 -14.24999,-4.99999 -4.58333,-5.04167 -4.58333,-15.58333 0,-10.249996 4.375,-15.291661 4.41666,-5.041664 13.29166,-5.041664 z m -0.45834,4.208331 q -2.49999,0 -3.74999,2.708333 -1.20834,2.708332 -1.20834,9.583331 h 9.08333 q 0,-5.583333 -0.375,-7.833332 -0.375,-2.291666 -1.29166,-3.374999 -0.875,-1.083333 -2.45834,-1.083333 z m 35.83331,0.166667 2.83333,-1.458333 q 5.83333,-2.999998 10.5,-2.999998 10.83332,0 10.83332,11.541661 V 124.4375 l 3.91667,1 v 2.75 h -19.45833 v -2.75 l 3.5,-1 v -23.29166 q 0,-3.499996 -1.5,-5.458328 -1.45833,-1.958333 -4.20833,-1.958333 -3.16666,0 -6.33333,1.416666 V 124.4375 l 3.58333,1 v 2.75 h -19.45832 v -2.75 l 3.83333,-1 V 92.770846 l -3.83333,-0.999999 v -2.749999 h 15.20833 z m 47.62498,36.583317 q -5.625,0 -8.70833,-2.54166 -3.04167,-2.54167 -3.04167,-7.33333 V 93.354179 h -5.125 v -2.708332 l 6.04167,-1.624999 4.875,-8.874996 h 6.24999 v 8.874996 h 8.25 v 4.333331 h -8.25 v 25.041661 q 0,2.70833 1.125,4.08333 1.125,1.375 2.95834,1.375 2.20833,0 5.41666,-0.66667 v 3.54166 q -1.25,0.875 -4.29166,1.58334 -3,0.70833 -5.5,0.70833 z m 41.29165,-13.24999 q 0,6.54166 -4.04167,9.91666 -3.99999,3.33333 -11.66666,3.33333 -3.16666,0 -6.99999,-0.70833 -3.79167,-0.66667 -5.75,-1.41667 v -10.66666 h 2.75 l 1.58333,5.5 q 1.45833,1.45833 3.83333,2.45833 2.375,0.95833 4.83333,0.95833 3.625,0 5.375,-1.54166 1.79167,-1.58334 1.79167,-4 0,-2.29167 -1.70834,-3.66667 -1.70833,-1.375 -7.45833,-3.16666 -6.04166,-1.875 -8.58333,-5.125 -2.5,-3.25 -2.5,-7.999997 0,-5.333331 3.95834,-8.499996 3.95833,-3.166665 10.20832,-3.166665 4.29167,0 11.54167,1.208332 v 10.041663 h -2.75 l -1.33333,-4.583332 q -1.20834,-1.208332 -3.41667,-1.958332 -2.16667,-0.791666 -4.125,-0.791666 -3,0 -4.45833,1.249999 -1.41667,1.208333 -1.41667,3.333332 0,2.208332 1.79167,3.625002 1.79167,1.41666 7.375,3.08333 6.08333,1.875 8.62499,4.95833 2.54167,3.04166 2.54167,7.625 z" />
</svg>
