<svg
  width="1200"
  height="630"
  viewBox="0 0 1200 630"
  xmlns="http://www.w3.org/2000/svg">
  <path
    style="fill:#111b27;"
    d="M 0,0 H 1200 V 188 H 0 Z"
  />
  <path
    style="fill:#111b27;"
    d="m 0,540 h 1200 v 90 H 0 Z"
  />
  <path
    style="fill:#c22f2e;"
    d="M 0,286 H 150 V 536 H 0 Z"
  />
  <path
    style="fill:#a04900;"
    d="M 150,286 H 300 V 536 H 150 Z"
  />
  <path
    style="fill:#755f00;"
    d="M 300,286 H 450 V 536 H 300 Z"
    id="path5" />
  <path
    style="fill:#116b00;"
    d="M 450,286 H 600 V 536 H 450 Z"
  />
  <path
    style="fill:#006d6d;"
    d="M 600,286 H 750 V 536 H 600 Z"
  />
  <path
    style="fill:#005a8e;"
    d="M 750,286 H 900 V 536 H 750 Z"
  />
  <path
    style="fill:#7c00aa;"
    d="m 900,286 h 150 V 536 H 900 Z"
  />
  <path
    style="fill:#af00af;"
    d="m 1050,286 h 150 v 250 h -150 z"
  />
  <path
    style="fill:#111b27;"
    d="m 0,192 h 1200 v 90 H 0 Z"
  />
  <path
    d="m 33.708984,244.54101 q -0.527344,0.42188 -1.464844,0.65625 -0.925781,0.23438 -1.910156,0.23438 -2.941406,0 -4.40625,-1.41797 -1.453125,-1.41797 -1.453125,-4.33594 0,-1.81641 0.65625,-3.10547 0.667969,-1.30078 1.898437,-1.98047 1.230469,-0.6914 2.859375,-0.6914 1.640625,0 3.574219,0.41015 v 3.25782 h -0.84375 l -0.492187,-1.9336 q -0.398438,-0.29297 -0.785157,-0.41015 -0.386718,-0.11719 -1.019531,-0.11719 -0.691406,0 -1.253906,0.55078 -0.5625,0.55078 -0.878906,1.55859 -0.304688,0.9961 -0.304688,2.39063 0,2.35547 0.726563,3.36328 0.738281,1.00781 2.332031,1.00781 1.617187,0 2.765625,-0.33984 z m 11.683594,-4.89844 q 0,2.96485 -1.277344,4.38282 -1.265625,1.41797 -3.878906,1.41797 -2.53125,0 -3.773438,-1.42969 -1.242187,-1.44141 -1.242187,-4.3711 0,-2.91796 1.253906,-4.32421 1.265625,-1.41797 3.855469,-1.41797 2.613281,0 3.832031,1.46484 1.230469,1.45313 1.230469,4.27734 z m -3.433594,0 q 0,-2.57812 -0.386719,-3.5625 -0.375,-0.99609 -1.3125,-0.99609 -0.902344,0 -1.253906,0.94922 -0.351563,0.94922 -0.351563,3.60937 0,2.70704 0.351563,3.66797 0.363281,0.96094 1.253906,0.96094 0.925781,0 1.3125,-1.00781 0.386719,-1.01953 0.386719,-3.6211 z m 9.398437,4.51172 1.207032,0.28125 v 0.77344 H 46.77539 v -0.77344 l 1.195313,-0.28125 v -14.54297 l -1.125,-0.28125 v -0.77343 h 4.511718 z m 10.207032,0.4336 q -0.65625,0.42187 -1.007813,0.5625 -0.351562,0.1289 -0.796875,0.21093 -0.445312,0.082 -0.984375,0.082 -2.4375,0 -3.632812,-1.39454 -1.195313,-1.40621 -1.195313,-4.31246 0,-2.85937 1.277344,-4.34765 1.289062,-1.48828 3.726562,-1.48828 1.277344,0 2.578125,0.3164 -0.07031,-0.38672 -0.07031,-1.8164 v -2.78907 l -1.125,-0.28125 v -0.77343 h 4.511719 v 15.59765 l 1.207031,0.28125 v 0.77344 h -4.242188 z m -4.183594,-4.94532 q 0,2.19141 0.550781,3.35157 0.550781,1.14843 1.582031,1.14843 0.9375,0 1.945313,-0.5039 v -8.29688 q -0.914063,-0.24609 -1.851563,-0.24609 -1.054687,0 -1.640625,1.16016 -0.585937,1.14843 -0.585937,3.38671 z m 15.339844,-5.69531 q 4.136718,0 4.136718,3.04688 v 7.16015 l 1.101563,0.28125 v 0.77344 h -4.054688 l -0.257812,-0.84375 q -0.914063,0.62109 -1.652344,0.84375 -0.738281,0.23438 -1.488281,0.23438 -3.410156,0 -3.410156,-3.28125 0,-1.24219 0.503906,-1.98047 0.503906,-0.75 1.453125,-1.10157 0.949219,-0.36328 2.988281,-0.41015 l 1.429688,-0.0352 v -1.60547 q 0,-1.99218 -1.628907,-1.99218 -0.984375,0 -2.203125,0.60937 l -0.445312,1.37109 h -0.773438 v -2.66015 q 1.769532,-0.26953 2.601563,-0.33985 0.832031,-0.0703 1.699219,-0.0703 z m 0.75,5.73047 -0.984375,0.0352 q -1.136719,0.0469 -1.582032,0.59765 -0.433593,0.55078 -0.433593,1.78125 0,0.9961 0.351562,1.46485 0.351563,0.46875 0.914063,0.46875 0.796875,0 1.734375,-0.41016 z m 10.253906,-3.19922 q 1.265625,-1.40625 2.261719,-2.01562 1.007812,-0.6211 1.839843,-0.6211 h 0.632813 v 4.01953 h -0.65625 l -0.691406,-1.47656 q -0.738282,0 -1.675782,0.32813 -0.9375,0.3164 -1.652343,0.75 v 6.6914 l 1.769531,0.28125 v 0.77344 h -6.585938 v -0.77344 l 1.429688,-0.28125 v -8.90625 l -1.429688,-0.28125 v -0.77343 h 4.628907 z m 10.359375,3.44531 4.300781,-4.6875 -1.171875,-0.26953 v -0.77343 h 4.19531 v 0.77343 l -1.26562,0.25782 -2.625002,2.76562 3.785152,6.16406 0.98438,0.28125 v 0.77344 h -5.296876 v -0.77344 l 0.644531,-0.28125 -2.203125,-3.85547 -1.347656,0.9375 v 2.91797 l 1.089844,0.28125 v 0.77344 h -5.519532 v -0.77344 l 1.042969,-0.28125 v -14.54297 l -1.125,-0.28125 v -0.77343 h 4.511719 z m 19.324216,-2.63671 q 0,8.15625 -5.15625,8.15625 -2.48437,0 -3.75,-2.08594 -1.26562,-2.08594 -1.26562,-6.07031 0,-3.90235 1.26562,-5.96485 1.26563,-2.07422 3.84375,-2.07422 2.48438,0 3.77344,2.05078 1.28906,2.03907 1.28906,5.98829 z m -3.43359,0 q 0,-3.65625 -0.41016,-5.25 -0.41015,-1.60547 -1.28906,-1.60547 -0.86719,0 -1.24219,1.54687 -0.36328,1.54688 -0.36328,5.3086 0,3.82031 0.375,5.40234 0.375,1.58203 1.23047,1.58203 0.86719,0 1.27734,-1.61719 0.42188,-1.6289 0.42188,-5.36718 z m 15.1875,-3.92579 q 0,1.28907 -0.63281,2.20313 -0.63282,0.90234 -1.78125,1.3125 1.34765,0.50391 2.0625,1.55859 0.71484,1.05469 0.71484,2.53125 0,2.22657 -1.28906,3.35157 -1.27735,1.125 -3.98438,1.125 -5.13281,0 -5.13281,-4.47657 0,-1.5 0.72656,-2.55468 0.72657,-1.05469 2.01563,-1.53516 -1.13672,-0.43359 -1.75781,-1.33594 -0.6211,-0.90234 -0.6211,-2.21484 0,-1.92188 1.26563,-3 1.27734,-1.07813 3.59765,-1.07813 2.27344,0 3.53907,1.10157 1.27734,1.08984 1.27734,3.01171 z m -2.96484,7.60547 q 0,-1.80468 -0.46875,-2.625 -0.46875,-0.82031 -1.47657,-0.82031 -0.96093,0 -1.38281,0.79688 -0.42187,0.79687 -0.42187,2.64843 0,1.81641 0.42187,2.55469 0.43359,0.73828 1.38281,0.73828 1.00782,0 1.47657,-0.77344 0.46875,-0.77343 0.46875,-2.51953 z m -0.36329,-7.60547 q 0,-1.53515 -0.38671,-2.22656 -0.38672,-0.70312 -1.17188,-0.70312 -0.75,0 -1.11328,0.6914 -0.35156,0.69141 -0.35156,2.23828 0,1.59375 0.35156,2.25 0.35156,0.65625 1.11328,0.65625 0.80859,0 1.18359,-0.66796 0.375,-0.67969 0.375,-2.23829 z"
    style="fill:#e3eaf2"
    aria-label="coldark08"
  />
  <path
    d="m 183.74414,244.54101 q -0.52734,0.42188 -1.46484,0.65625 -0.92578,0.23438 -1.91016,0.23438 -2.94141,0 -4.40625,-1.41797 -1.45312,-1.41797 -1.45312,-4.33594 0,-1.81641 0.65625,-3.10547 0.66796,-1.30078 1.89843,-1.98047 1.23047,-0.6914 2.85938,-0.6914 1.64062,0 3.57422,0.41015 v 3.25782 h -0.84375 l -0.49219,-1.9336 q -0.39844,-0.29297 -0.78516,-0.41015 -0.38672,-0.11719 -1.01953,-0.11719 -0.6914,0 -1.2539,0.55078 -0.5625,0.55078 -0.87891,1.55859 -0.30469,0.9961 -0.30469,2.39063 0,2.35547 0.72656,3.36328 0.73829,1.00781 2.33204,1.00781 1.61718,0 2.76562,-0.33984 z m 11.68359,-4.89844 q 0,2.96485 -1.27734,4.38282 -1.26562,1.41797 -3.87891,1.41797 -2.53125,0 -3.77343,-1.42969 -1.24219,-1.44141 -1.24219,-4.3711 0,-2.91796 1.25391,-4.32421 1.26562,-1.41797 3.85546,-1.41797 2.61329,0 3.83204,1.46484 1.23046,1.45313 1.23046,4.27734 z m -3.43359,0 q 0,-2.57812 -0.38672,-3.5625 -0.375,-0.99609 -1.3125,-0.99609 -0.90234,0 -1.2539,0.94922 -0.35157,0.94922 -0.35157,3.60937 0,2.70704 0.35157,3.66797 0.36328,0.96094 1.2539,0.96094 0.92578,0 1.3125,-1.00781 0.38672,-1.01953 0.38672,-3.6211 z m 9.39844,4.51172 1.20703,0.28125 v 0.77344 h -5.78906 v -0.77344 l 1.19531,-0.28125 v -14.54297 l -1.125,-0.28125 v -0.77343 h 4.51172 z m 10.20703,0.4336 q -0.65625,0.42187 -1.00781,0.5625 -0.35157,0.1289 -0.79688,0.21093 -0.44531,0.082 -0.98437,0.082 -2.4375,0 -3.63282,-1.39454 -1.19531,-1.40621 -1.19531,-4.31246 0,-2.85937 1.27735,-4.34765 1.28906,-1.48828 3.72656,-1.48828 1.27734,0 2.57812,0.3164 -0.0703,-0.38672 -0.0703,-1.8164 v -2.78907 l -1.125,-0.28125 v -0.77343 h 4.51172 v 15.59765 l 1.20703,0.28125 v 0.77344 h -4.24219 z m -4.18359,-4.94532 q 0,2.19141 0.55078,3.35157 0.55078,1.14843 1.58203,1.14843 0.9375,0 1.94531,-0.5039 v -8.29688 q -0.91406,-0.24609 -1.85156,-0.24609 -1.05469,0 -1.64063,1.16016 -0.58593,1.14843 -0.58593,3.38671 z m 15.33984,-5.69531 q 4.13672,0 4.13672,3.04688 v 7.16015 l 1.10156,0.28125 v 0.77344 h -4.05469 l -0.25781,-0.84375 q -0.91406,0.62109 -1.65234,0.84375 -0.73828,0.23438 -1.48828,0.23438 -3.41016,0 -3.41016,-3.28125 0,-1.24219 0.50391,-1.98047 0.5039,-0.75 1.45312,-1.10157 0.94922,-0.36328 2.98828,-0.41015 l 1.42969,-0.0352 v -1.60547 q 0,-1.99218 -1.62891,-1.99218 -0.98437,0 -2.20312,0.60937 l -0.44531,1.37109 h -0.77344 v -2.66015 q 1.76953,-0.26953 2.60156,-0.33985 0.83203,-0.0703 1.69922,-0.0703 z m 0.75,5.73047 -0.98438,0.0352 q -1.13671,0.0469 -1.58203,0.59765 -0.43359,0.55078 -0.43359,1.78125 0,0.9961 0.35156,1.46485 0.35156,0.46875 0.91406,0.46875 0.79688,0 1.73438,-0.41016 z m 10.25391,-3.19922 q 1.26562,-1.40625 2.26171,-2.01562 1.00782,-0.6211 1.83985,-0.6211 h 0.63281 v 4.01953 h -0.65625 l -0.69141,-1.47656 q -0.73828,0 -1.67578,0.32813 -0.9375,0.3164 -1.65234,0.75 v 6.6914 l 1.76953,0.28125 v 0.77344 h -6.58594 v -0.77344 l 1.42969,-0.28125 v -8.90625 l -1.42969,-0.28125 v -0.77343 h 4.62891 z m 10.35937,3.44531 4.30078,-4.6875 -1.17187,-0.26953 v -0.77343 h 4.19531 v 0.77343 l -1.26563,0.25782 -2.625,2.76562 3.78516,6.16406 0.98438,0.28125 v 0.77344 h -5.29688 v -0.77344 l 0.64453,-0.28125 -2.20312,-3.85547 -1.34766,0.9375 v 2.91797 l 1.08984,0.28125 v 0.77344 h -5.51953 v -0.77344 l 1.04297,-0.28125 v -14.54297 l -1.125,-0.28125 v -0.77343 h 4.51172 z m 19.32422,-2.63671 q 0,8.15625 -5.15625,8.15625 -2.48438,0 -3.75,-2.08594 -1.26563,-2.08594 -1.26563,-6.07031 0,-3.90235 1.26563,-5.96485 1.26562,-2.07422 3.84375,-2.07422 2.48437,0 3.77344,2.05078 1.28906,2.03907 1.28906,5.98829 z m -3.43359,0 q 0,-3.65625 -0.41016,-5.25 -0.41016,-1.60547 -1.28906,-1.60547 -0.86719,0 -1.24219,1.54687 -0.36328,1.54688 -0.36328,5.3086 0,3.82031 0.375,5.40234 0.375,1.58203 1.23047,1.58203 0.86718,0 1.27734,-1.61719 0.42188,-1.6289 0.42188,-5.36718 z m 5.0039,-3 q 0,-2.39063 1.3711,-3.67969 1.37109,-1.28906 3.80859,-1.28906 2.75391,0 4.01953,1.93359 1.27734,1.93359 1.27734,6.05859 0,2.64844 -0.75,4.46485 -0.73828,1.8164 -2.13281,2.74218 -1.39453,0.92579 -3.35156,0.92579 -1.94531,0 -3.64453,-0.50391 v -3.57422 h 1.01953 l 0.50391,2.27344 q 0.41015,0.29297 0.97265,0.45703 0.57422,0.16406 1.10156,0.16406 1.26563,0 1.96875,-1.42969 0.71485,-1.4414 0.83204,-4.16015 -1.21875,0.43359 -2.42579,0.43359 -2.12109,0 -3.35156,-1.26562 -1.21875,-1.26563 -1.21875,-3.55078 z m 3.44531,0.0469 q 0,3.35156 1.82813,3.35156 0.89062,0 1.75781,-0.21093 v -0.16407 q 0,-3.38672 -0.41015,-5.09765 -0.39844,-1.71094 -1.41797,-1.71094 -1.75782,0 -1.75782,3.83203 z"
    style="fill:#e3eaf2"
    aria-label="coldark09"
  />
  <path
    d="m 333.76758,244.54101 q -0.52734,0.42188 -1.46484,0.65625 -0.92579,0.23438 -1.91016,0.23438 -2.94141,0 -4.40625,-1.41797 -1.45313,-1.41797 -1.45313,-4.33594 0,-1.81641 0.65625,-3.10547 0.66797,-1.30078 1.89844,-1.98047 1.23047,-0.6914 2.85938,-0.6914 1.64062,0 3.57422,0.41015 v 3.25782 h -0.84375 l -0.49219,-1.9336 q -0.39844,-0.29297 -0.78516,-0.41015 -0.38672,-0.11719 -1.01953,-0.11719 -0.69141,0 -1.25391,0.55078 -0.5625,0.55078 -0.8789,1.55859 -0.30469,0.9961 -0.30469,2.39063 0,2.35547 0.72656,3.36328 0.73828,1.00781 2.33203,1.00781 1.61719,0 2.76563,-0.33984 z m 11.68359,-4.89844 q 0,2.96485 -1.27734,4.38282 -1.26563,1.41797 -3.87891,1.41797 -2.53125,0 -3.77343,-1.42969 -1.24219,-1.44141 -1.24219,-4.3711 0,-2.91796 1.2539,-4.32421 1.26563,-1.41797 3.85547,-1.41797 2.61328,0 3.83203,1.46484 1.23047,1.45313 1.23047,4.27734 z m -3.43359,0 q 0,-2.57812 -0.38672,-3.5625 -0.375,-0.99609 -1.3125,-0.99609 -0.90234,0 -1.25391,0.94922 -0.35156,0.94922 -0.35156,3.60937 0,2.70704 0.35156,3.66797 0.36329,0.96094 1.25391,0.96094 0.92578,0 1.3125,-1.00781 0.38672,-1.01953 0.38672,-3.6211 z m 9.39844,4.51172 1.20703,0.28125 v 0.77344 h -5.78906 v -0.77344 l 1.19531,-0.28125 v -14.54297 l -1.125,-0.28125 v -0.77343 h 4.51172 z m 10.20703,0.4336 q -0.65625,0.42187 -1.00781,0.5625 -0.35157,0.1289 -0.79688,0.21093 -0.44531,0.082 -0.98437,0.082 -2.4375,0 -3.63282,-1.39454 -1.19531,-1.40621 -1.19531,-4.31246 0,-2.85937 1.27734,-4.34765 1.28907,-1.48828 3.72657,-1.48828 1.27734,0 2.57812,0.3164 -0.0703,-0.38672 -0.0703,-1.8164 v -2.78907 l -1.125,-0.28125 v -0.77343 h 4.51172 v 15.59765 l 1.20703,0.28125 v 0.77344 h -4.24219 z m -4.1836,-4.94532 q 0,2.19141 0.55079,3.35157 0.55078,1.14843 1.58203,1.14843 0.9375,0 1.94531,-0.5039 v -8.29688 q -0.91406,-0.24609 -1.85156,-0.24609 -1.05469,0 -1.64063,1.16016 -0.58594,1.14843 -0.58594,3.38671 z m 15.33985,-5.69531 q 4.13672,0 4.13672,3.04688 v 7.16015 l 1.10156,0.28125 v 0.77344 h -4.05469 l -0.25781,-0.84375 q -0.91406,0.62109 -1.65234,0.84375 -0.73829,0.23438 -1.48829,0.23438 -3.41015,0 -3.41015,-3.28125 0,-1.24219 0.5039,-1.98047 0.50391,-0.75 1.45313,-1.10157 0.94922,-0.36328 2.98828,-0.41015 l 1.42969,-0.0352 v -1.60547 q 0,-1.99218 -1.62891,-1.99218 -0.98437,0 -2.20312,0.60937 l -0.44532,1.37109 h -0.77343 v -2.66015 q 1.76953,-0.26953 2.60156,-0.33985 0.83203,-0.0703 1.69922,-0.0703 z m 0.75,5.73047 -0.98438,0.0352 q -1.13672,0.0469 -1.58203,0.59765 -0.43359,0.55078 -0.43359,1.78125 0,0.9961 0.35156,1.46485 0.35156,0.46875 0.91406,0.46875 0.79688,0 1.73438,-0.41016 z m 10.2539,-3.19922 q 1.26563,-1.40625 2.26172,-2.01562 1.00782,-0.6211 1.83985,-0.6211 h 0.63281 v 4.01953 h -0.65625 l -0.69141,-1.47656 q -0.73828,0 -1.67578,0.32813 -0.9375,0.3164 -1.65234,0.75 v 6.6914 l 1.76953,0.28125 v 0.77344 h -6.58594 v -0.77344 l 1.42969,-0.28125 v -8.90625 l -1.42969,-0.28125 v -0.77343 h 4.62891 z m 10.35938,3.44531 4.30078,-4.6875 -1.17187,-0.26953 v -0.77343 h 4.19531 v 0.77343 l -1.26563,0.25782 -2.625,2.76562 3.78516,6.16406 0.98437,0.28125 v 0.77344 h -5.29687 v -0.77344 l 0.64453,-0.28125 -2.20312,-3.85547 -1.34766,0.9375 v 2.91797 l 1.08984,0.28125 v 0.77344 h -5.51953 v -0.77344 l 1.04297,-0.28125 v -14.54297 l -1.125,-0.28125 v -0.77343 h 4.51172 z m 16.26562,3.9961 2.73047,0.28125 v 1.00781 h -8.83593 v -1.00781 l 2.71875,-0.28125 v -11.84766 l -2.70704,0.89063 v -0.9961 l 4.42969,-2.60156 h 1.66406 z m 15.0586,-6.63281 q 0,8.15625 -5.15625,8.15625 -2.48438,0 -3.75,-2.08594 -1.26563,-2.08594 -1.26563,-6.07031 0,-3.90235 1.26563,-5.96485 1.26562,-2.07422 3.84375,-2.07422 2.48437,0 3.77344,2.05078 1.28906,2.03907 1.28906,5.98829 z m -3.4336,0 q 0,-3.65625 -0.41015,-5.25 -0.41016,-1.60547 -1.28906,-1.60547 -0.86719,0 -1.24219,1.54687 -0.36328,1.54688 -0.36328,5.3086 0,3.82031 0.375,5.40234 0.375,1.58203 1.23047,1.58203 0.86718,0 1.27734,-1.61719 0.42187,-1.6289 0.42187,-5.36718 z"
    style="fill:#e3eaf2"
    aria-label="coldark10"
  />
  <path
    d="m 484.59375,244.54101 q -0.52734,0.42188 -1.46484,0.65625 -0.92579,0.23438 -1.91016,0.23438 -2.94141,0 -4.40625,-1.41797 -1.45313,-1.41797 -1.45313,-4.33594 0,-1.81641 0.65625,-3.10547 0.66797,-1.30078 1.89845,-1.98047 1.23047,-0.6914 2.85938,-0.6914 1.64062,0 3.57421,0.41015 v 3.25782 h -0.84375 l -0.49219,-1.9336 q -0.39844,-0.29297 -0.78516,-0.41015 -0.38672,-0.11719 -1.01953,-0.11719 -0.69141,0 -1.25391,0.55078 -0.5625,0.55078 -0.8789,1.55859 -0.30469,0.9961 -0.30469,2.39063 0,2.35547 0.72656,3.36328 0.73828,1.00781 2.33203,1.00781 1.61719,0 2.76563,-0.33984 z m 11.68359,-4.89844 q 0,2.96485 -1.27734,4.38282 -1.26563,1.41797 -3.87891,1.41797 -2.53125,0 -3.77343,-1.42969 -1.24219,-1.44141 -1.24219,-4.3711 0,-2.91796 1.2539,-4.32421 1.26563,-1.41797 3.85547,-1.41797 2.61328,0 3.83203,1.46484 1.23047,1.45313 1.23047,4.27734 z m -3.43359,0 q 0,-2.57812 -0.38671,-3.5625 -0.375,-0.99609 -1.3125,-0.99609 -0.90234,0 -1.25392,0.94922 -0.35155,0.94922 -0.35155,3.60937 0,2.70704 0.35155,3.66797 0.36329,0.96094 1.25392,0.96094 0.92578,0 1.3125,-1.00781 0.38671,-1.01953 0.38671,-3.6211 z m 9.39845,4.51172 1.20703,0.28125 v 0.77344 h -5.78906 v -0.77344 l 1.19531,-0.28125 v -14.54297 l -1.125,-0.28125 v -0.77343 h 4.51172 z m 10.20703,0.4336 q -0.65625,0.42187 -1.00781,0.5625 -0.35157,0.1289 -0.79688,0.21093 -0.44531,0.082 -0.98437,0.082 -2.4375,0 -3.63282,-1.39454 -1.19531,-1.40621 -1.19531,-4.31246 0,-2.85937 1.27734,-4.34765 1.28907,-1.48828 3.72657,-1.48828 1.27734,0 2.57812,0.3164 -0.0703,-0.38672 -0.0703,-1.8164 v -2.78907 l -1.125,-0.28125 v -0.77343 h 4.51172 v 15.59765 l 1.20703,0.28125 v 0.77344 h -4.24219 z m -4.1836,-4.94532 q 0,2.19141 0.55079,3.35157 0.55078,1.14843 1.58203,1.14843 0.9375,0 1.94531,-0.5039 v -8.29688 q -0.91406,-0.24609 -1.85156,-0.24609 -1.05469,0 -1.64063,1.16016 -0.58594,1.14843 -0.58594,3.38671 z m 15.33985,-5.69531 q 4.13672,0 4.13672,3.04688 v 7.16015 l 1.10155,0.28125 v 0.77344 h -4.05469 l -0.25781,-0.84375 q -0.91405,0.62109 -1.65234,0.84375 -0.73829,0.23438 -1.48829,0.23438 -3.41015,0 -3.41015,-3.28125 0,-1.24219 0.5039,-1.98047 0.50392,-0.75 1.45313,-1.10157 0.94922,-0.36328 2.98829,-0.41015 l 1.42969,-0.0352 v -1.60547 q 0,-1.99218 -1.62891,-1.99218 -0.98437,0 -2.20312,0.60937 l -0.44533,1.37109 h -0.77342 v -2.66015 q 1.76953,-0.26953 2.60155,-0.33985 0.83204,-0.0703 1.69922,-0.0703 z m 0.75,5.73047 -0.98438,0.0352 q -1.13672,0.0469 -1.58203,0.59765 -0.43359,0.55078 -0.43359,1.78125 0,0.9961 0.35156,1.46485 0.35155,0.46875 0.91405,0.46875 0.79688,0 1.73438,-0.41016 z m 10.2539,-3.19922 q 1.26563,-1.40625 2.26172,-2.01562 1.00782,-0.6211 1.83985,-0.6211 h 0.6328 v 4.01953 h -0.65625 l -0.69141,-1.47656 q -0.73828,0 -1.67578,0.32813 -0.9375,0.3164 -1.65234,0.75 v 6.6914 l 1.76953,0.28125 v 0.77344 h -6.58594 v -0.77344 l 1.42969,-0.28125 v -8.90625 l -1.42969,-0.28125 v -0.77343 h 4.62891 z m 10.35938,3.44531 4.30078,-4.6875 -1.17188,-0.26953 v -0.77343 h 4.19532 v 0.77343 l -1.26563,0.25782 -2.625,2.76562 3.78516,6.16406 0.98437,0.28125 v 0.77344 h -5.29687 v -0.77344 l 0.64453,-0.28125 -2.20313,-3.85547 -1.34765,0.9375 v 2.91797 l 1.08983,0.28125 v 0.77344 h -5.51952 v -0.77344 l 1.04297,-0.28125 v -14.54297 l -1.125,-0.28125 v -0.77343 h 4.51172 z m 16.26562,3.9961 2.73047,0.28125 v 1.00781 h -8.83593 v -1.00781 l 2.71875,-0.28125 v -11.84766 l -2.70704,0.89063 v -0.9961 l 4.42969,-2.60156 h 1.66406 z m 10.67579,0 2.73046,0.28125 v 1.00781 h -8.83593 v -1.00781 l 2.71875,-0.28125 v -11.84766 l -2.70703,0.89063 v -0.9961 l 4.42968,-2.60156 h 1.66407 z"
    style="fill:#e3eaf2"
    aria-label="coldark11"
  />
  <path
    d="m 633.82617,244.54101 q -0.52734,0.42188 -1.46484,0.65625 -0.92579,0.23438 -1.91016,0.23438 -2.94141,0 -4.40625,-1.41797 -1.45313,-1.41797 -1.45313,-4.33594 0,-1.81641 0.65625,-3.10547 0.66797,-1.30078 1.89844,-1.98047 1.23047,-0.6914 2.85938,-0.6914 1.64062,0 3.57422,0.41015 v 3.25782 h -0.84375 l -0.49219,-1.9336 q -0.39844,-0.29297 -0.78516,-0.41015 -0.38672,-0.11719 -1.01953,-0.11719 -0.69141,0 -1.25391,0.55078 -0.5625,0.55078 -0.8789,1.55859 -0.30469,0.9961 -0.30469,2.39063 0,2.35547 0.72656,3.36328 0.73828,1.00781 2.33203,1.00781 1.61719,0 2.76563,-0.33984 z m 11.68359,-4.89844 q 0,2.96485 -1.27734,4.38282 -1.26563,1.41797 -3.87891,1.41797 -2.53125,0 -3.77343,-1.42969 -1.24219,-1.44141 -1.24219,-4.3711 0,-2.91796 1.2539,-4.32421 1.26563,-1.41797 3.85547,-1.41797 2.61328,0 3.83203,1.46484 1.23047,1.45313 1.23047,4.27734 z m -3.43359,0 q 0,-2.57812 -0.38672,-3.5625 -0.375,-0.99609 -1.3125,-0.99609 -0.90234,0 -1.25391,0.94922 -0.35156,0.94922 -0.35156,3.60937 0,2.70704 0.35156,3.66797 0.36329,0.96094 1.25391,0.96094 0.92578,0 1.3125,-1.00781 0.38672,-1.01953 0.38672,-3.6211 z m 9.39844,4.51172 1.20703,0.28125 v 0.77344 h -5.78906 v -0.77344 l 1.19531,-0.28125 v -14.54297 l -1.125,-0.28125 v -0.77343 h 4.51172 z m 10.20703,0.4336 q -0.65625,0.42187 -1.00781,0.5625 -0.35157,0.1289 -0.79688,0.21093 -0.44531,0.082 -0.98437,0.082 -2.4375,0 -3.63282,-1.39454 -1.19531,-1.40621 -1.19531,-4.31246 0,-2.85937 1.27734,-4.34765 1.28907,-1.48828 3.72657,-1.48828 1.27734,0 2.57812,0.3164 -0.0703,-0.38672 -0.0703,-1.8164 v -2.78907 l -1.125,-0.28125 v -0.77343 h 4.51172 v 15.59765 l 1.20703,0.28125 v 0.77344 h -4.24219 z m -4.1836,-4.94532 q 0,2.19141 0.55079,3.35157 0.55078,1.14843 1.58203,1.14843 0.9375,0 1.94531,-0.5039 v -8.29688 q -0.91406,-0.24609 -1.85156,-0.24609 -1.05469,0 -1.64063,1.16016 -0.58594,1.14843 -0.58594,3.38671 z m 15.33985,-5.69531 q 4.13672,0 4.13672,3.04688 v 7.16015 l 1.10156,0.28125 v 0.77344 h -4.05469 l -0.25781,-0.84375 q -0.91406,0.62109 -1.65234,0.84375 -0.73829,0.23438 -1.48829,0.23438 -3.41015,0 -3.41015,-3.28125 0,-1.24219 0.5039,-1.98047 0.50391,-0.75 1.45313,-1.10157 0.94922,-0.36328 2.98828,-0.41015 l 1.42969,-0.0352 v -1.60547 q 0,-1.99218 -1.62891,-1.99218 -0.98437,0 -2.20312,0.60937 l -0.44532,1.37109 h -0.77343 v -2.66015 q 1.76953,-0.26953 2.60156,-0.33985 0.83203,-0.0703 1.69922,-0.0703 z m 0.75,5.73047 -0.98438,0.0352 q -1.13672,0.0469 -1.58203,0.59765 -0.43359,0.55078 -0.43359,1.78125 0,0.9961 0.35156,1.46485 0.35156,0.46875 0.91406,0.46875 0.79688,0 1.73438,-0.41016 z m 10.2539,-3.19922 q 1.26563,-1.40625 2.26172,-2.01562 1.00782,-0.6211 1.83985,-0.6211 h 0.63281 v 4.01953 h -0.65625 l -0.69141,-1.47656 q -0.73828,0 -1.67578,0.32813 -0.9375,0.3164 -1.65234,0.75 v 6.6914 l 1.76953,0.28125 v 0.77344 h -6.58594 v -0.77344 l 1.42969,-0.28125 v -8.90625 l -1.42969,-0.28125 v -0.77343 h 4.62891 z m 10.35938,3.44531 4.30078,-4.6875 -1.17187,-0.26953 v -0.77343 h 4.19531 v 0.77343 l -1.26563,0.25782 -2.625,2.76562 3.78516,6.16406 0.98437,0.28125 v 0.77344 h -5.29687 v -0.77344 l 0.64453,-0.28125 -2.20312,-3.85547 -1.34766,0.9375 v 2.91797 l 1.08984,0.28125 v 0.77344 h -5.51953 v -0.77344 l 1.04297,-0.28125 v -14.54297 l -1.125,-0.28125 v -0.77343 h 4.51172 z m 16.26562,3.9961 2.73048,0.28125 v 1.00781 h -8.83594 v -1.00781 l 2.71875,-0.28125 v -11.84766 l -2.70704,0.89063 v -0.9961 l 4.42969,-2.60156 h 1.66406 z m 14.94141,1.28906 h -9.96093 v -2.21484 q 1.00781,-1.07813 1.86327,-1.9336 1.875,-1.85156 2.74219,-2.90625 0.86719,-1.0664 1.26563,-2.20312 0.41015,-1.13672 0.41015,-2.58985 0,-1.27734 -0.62109,-2.0625 -0.62109,-0.78515 -1.65234,-0.78515 -0.72656,0 -1.16016,0.15234 -0.43359,0.15235 -0.79688,0.45703 l -0.5039,2.27344 h -1.01953 v -3.57422 q 0.9375,-0.21094 1.82812,-0.35156 0.90236,-0.15234 1.95704,-0.15234 2.58984,0 3.96093,1.0664 1.38282,1.06641 1.38282,3.03516 0,1.23047 -0.41016,2.23828 -0.41016,0.99609 -1.30077,1.94531 -0.87892,0.94922 -3.51564,3.09375 -1.00781,0.82031 -2.17968,1.86328 h 7.71093 z"
    style="fill:#e3eaf2"
    aria-label="coldark12"
  />
  <path
    d="m 783.7207,244.54101 q -0.52734,0.42188 -1.46484,0.65625 -0.92579,0.23438 -1.91016,0.23438 -2.94141,0 -4.40625,-1.41797 -1.45313,-1.41797 -1.45313,-4.33594 0,-1.81641 0.65625,-3.10547 0.66797,-1.30078 1.89844,-1.98047 1.23047,-0.6914 2.85938,-0.6914 1.64062,0 3.57422,0.41015 v 3.25782 h -0.84375 l -0.49219,-1.9336 q -0.39844,-0.29297 -0.78516,-0.41015 -0.38672,-0.11719 -1.01953,-0.11719 -0.69141,0 -1.25391,0.55078 -0.5625,0.55078 -0.8789,1.55859 -0.30469,0.9961 -0.30469,2.39063 0,2.35547 0.72656,3.36328 0.73828,1.00781 2.33203,1.00781 1.61719,0 2.76563,-0.33984 z m 11.68359,-4.89844 q 0,2.96485 -1.27734,4.38282 -1.26563,1.41797 -3.87891,1.41797 -2.53125,0 -3.77343,-1.42969 -1.24219,-1.44141 -1.24219,-4.3711 0,-2.91796 1.2539,-4.32421 1.26563,-1.41797 3.85547,-1.41797 2.61328,0 3.83203,1.46484 1.23047,1.45313 1.23047,4.27734 z m -3.43359,0 q 0,-2.57812 -0.38672,-3.5625 -0.375,-0.99609 -1.3125,-0.99609 -0.90234,0 -1.25391,0.94922 -0.35156,0.94922 -0.35156,3.60937 0,2.70704 0.35156,3.66797 0.36329,0.96094 1.25391,0.96094 0.92578,0 1.3125,-1.00781 0.38672,-1.01953 0.38672,-3.6211 z m 9.39844,4.51172 1.20703,0.28125 v 0.77344 h -5.78906 v -0.77344 l 1.19531,-0.28125 v -14.54297 l -1.125,-0.28125 v -0.77343 h 4.51172 z m 10.20703,0.4336 q -0.65625,0.42187 -1.00781,0.5625 -0.35157,0.1289 -0.79688,0.21093 -0.4453,0.082 -0.98437,0.082 -2.4375,0 -3.63282,-1.39454 -1.19531,-1.40621 -1.19531,-4.31246 0,-2.85937 1.27734,-4.34765 1.28907,-1.48828 3.72657,-1.48828 1.27734,0 2.57813,0.3164 -0.0703,-0.38672 -0.0703,-1.8164 v -2.78907 l -1.125,-0.28125 v -0.77343 h 4.51171 v 15.59765 l 1.20704,0.28125 v 0.77344 h -4.2422 z m -4.1836,-4.94532 q 0,2.19141 0.55079,3.35157 0.55078,1.14843 1.58203,1.14843 0.9375,0 1.94531,-0.5039 v -8.29688 q -0.91406,-0.24609 -1.85156,-0.24609 -1.05469,0 -1.64062,1.16016 -0.58595,1.14843 -0.58595,3.38671 z m 15.33985,-5.69531 q 4.13672,0 4.13672,3.04688 v 7.16015 l 1.10156,0.28125 v 0.77344 h -4.05469 l -0.25781,-0.84375 q -0.91406,0.62109 -1.65234,0.84375 -0.73829,0.23438 -1.48829,0.23438 -3.41015,0 -3.41015,-3.28125 0,-1.24219 0.5039,-1.98047 0.50391,-0.75 1.45313,-1.10157 0.94922,-0.36328 2.98828,-0.41015 l 1.42969,-0.0352 v -1.60547 q 0,-1.99218 -1.62891,-1.99218 -0.98437,0 -2.20312,0.60937 l -0.44532,1.37109 h -0.77343 v -2.66015 q 1.76953,-0.26953 2.60156,-0.33985 0.83203,-0.0703 1.69922,-0.0703 z m 0.75,5.73047 -0.98438,0.0352 q -1.13672,0.0469 -1.58203,0.59765 -0.43359,0.55078 -0.43359,1.78125 0,0.9961 0.35156,1.46485 0.35156,0.46875 0.91406,0.46875 0.79688,0 1.73438,-0.41016 z m 10.2539,-3.19922 q 1.26563,-1.40625 2.26172,-2.01562 1.00782,-0.6211 1.83985,-0.6211 h 0.63281 v 4.01953 h -0.65625 l -0.69141,-1.47656 q -0.73828,0 -1.67578,0.32813 -0.9375,0.3164 -1.65234,0.75 v 6.6914 l 1.76953,0.28125 v 0.77344 h -6.58594 v -0.77344 l 1.42969,-0.28125 v -8.90625 l -1.42969,-0.28125 v -0.77343 h 4.62891 z m 10.35938,3.44531 4.30078,-4.6875 -1.17187,-0.26953 v -0.77343 h 4.19531 v 0.77343 l -1.26563,0.25782 -2.625,2.76562 3.78516,6.16406 0.98437,0.28125 v 0.77344 h -5.29687 v -0.77344 l 0.64453,-0.28125 -2.20312,-3.85547 -1.34766,0.9375 v 2.91797 l 1.08984,0.28125 v 0.77344 h -5.51953 v -0.77344 l 1.04297,-0.28125 v -14.54297 l -1.125,-0.28125 v -0.77343 h 4.51172 z m 16.26562,3.9961 2.73047,0.28125 v 1.00781 h -8.83593 v -1.00781 l 2.71875,-0.28125 v -11.84766 l -2.70704,0.89063 v -0.9961 l 4.4297,-2.60156 h 1.66405 z m 15.15235,-2.98828 q 0,2.14453 -1.53516,3.32812 -1.53515,1.1836 -4.26562,1.1836 -2.17969,0 -4.33594,-0.46875 l -0.14063,-3.8086 h 1.07813 l 0.60937,2.51953 q 1.01954,0.57422 2.13282,0.57422 1.41797,0 2.21484,-0.90234 0.79688,-0.91406 0.79688,-2.54297 0,-1.41797 -0.64454,-2.16797 -0.63281,-0.76172 -2.0625,-0.85547 l -1.35937,-0.082 v -1.41797 l 1.3125,-0.0937 q 1.04297,-0.0703 1.53516,-0.76172 0.5039,-0.70312 0.5039,-2.10937 0,-1.3125 -0.59765,-2.0625 -0.58594,-0.75 -1.67579,-0.75 -0.63281,0 -1.04296,0.19922 -0.39844,0.1875 -0.76172,0.41015 l -0.50391,2.27336 h -1.01953 v -3.57422 q 1.19531,-0.30469 2.0625,-0.39844 0.86719,-0.10546 1.71094,-0.10546 5.28515,0 5.28515,3.86718 0,1.59375 -0.84375,2.57813 -0.84375,0.98437 -2.41406,1.21875 3.96095,0.48047 3.96094,3.94922 z"
    style="fill:#e3eaf2"
    aria-label="coldark13"
  />
  <path
    d="m 933.5332,244.54101 q -0.52734,0.42188 -1.46484,0.65625 -0.92579,0.23438 -1.91016,0.23438 -2.94141,0 -4.40625,-1.41797 -1.45313,-1.41797 -1.45313,-4.33594 0,-1.81641 0.65625,-3.10547 0.66797,-1.30078 1.89844,-1.98047 1.23047,-0.6914 2.85938,-0.6914 1.64062,0 3.57422,0.41015 v 3.25782 h -0.84375 l -0.49219,-1.9336 q -0.39844,-0.29297 -0.78516,-0.41015 -0.38672,-0.11719 -1.01953,-0.11719 -0.69141,0 -1.25391,0.55078 -0.5625,0.55078 -0.8789,1.55859 -0.30469,0.9961 -0.30469,2.39063 0,2.35547 0.72656,3.36328 0.73828,1.00781 2.33203,1.00781 1.61719,0 2.76563,-0.33984 z m 11.68359,-4.89844 q 0,2.96485 -1.27734,4.38282 -1.26563,1.41797 -3.87891,1.41797 -2.53125,0 -3.77343,-1.42969 -1.24219,-1.44141 -1.24219,-4.3711 0,-2.91796 1.2539,-4.32421 1.26563,-1.41797 3.85547,-1.41797 2.61328,0 3.83203,1.46484 1.23047,1.45313 1.23047,4.27734 z m -3.43359,0 q 0,-2.57812 -0.38672,-3.5625 -0.375,-0.99609 -1.3125,-0.99609 -0.90234,0 -1.25391,0.94922 -0.35156,0.94922 -0.35156,3.60937 0,2.70704 0.35156,3.66797 0.36329,0.96094 1.25391,0.96094 0.92578,0 1.3125,-1.00781 0.38672,-1.01953 0.38672,-3.6211 z m 9.39844,4.51172 1.20703,0.28125 v 0.77344 h -5.78906 v -0.77344 l 1.19531,-0.28125 v -14.54297 l -1.125,-0.28125 v -0.77343 h 4.51172 z m 10.20703,0.4336 q -0.65625,0.42187 -1.00781,0.5625 -0.35157,0.1289 -0.79688,0.21093 -0.4453,0.082 -0.98437,0.082 -2.4375,0 -3.63282,-1.39454 -1.19531,-1.40621 -1.19531,-4.31246 0,-2.85937 1.27734,-4.34765 1.28907,-1.48828 3.72657,-1.48828 1.27734,0 2.57813,0.3164 -0.0703,-0.38672 -0.0703,-1.8164 v -2.78907 l -1.125,-0.28125 v -0.77343 h 4.51171 v 15.59765 l 1.20704,0.28125 v 0.77344 h -4.2422 z m -4.1836,-4.94532 q 0,2.19141 0.55079,3.35157 0.55078,1.14843 1.58203,1.14843 0.9375,0 1.94531,-0.5039 v -8.29688 q -0.91406,-0.24609 -1.85156,-0.24609 -1.05469,0 -1.64062,1.16016 -0.58595,1.14843 -0.58595,3.38671 z m 15.33985,-5.69531 q 4.13672,0 4.13672,3.04688 v 7.16015 l 1.10156,0.28125 v 0.77344 h -4.05469 l -0.25781,-0.84375 q -0.91406,0.62109 -1.65234,0.84375 -0.73829,0.23438 -1.48829,0.23438 -3.41015,0 -3.41015,-3.28125 0,-1.24219 0.5039,-1.98047 0.50391,-0.75 1.45313,-1.10157 0.94922,-0.36328 2.98828,-0.41015 l 1.42969,-0.0352 v -1.60547 q 0,-1.99218 -1.62891,-1.99218 -0.98437,0 -2.20312,0.60937 l -0.44532,1.37109 h -0.77343 v -2.66015 q 1.76953,-0.26953 2.60156,-0.33985 0.83203,-0.0703 1.69922,-0.0703 z m 0.75,5.73047 -0.98438,0.0352 q -1.13672,0.0469 -1.58203,0.59765 -0.43359,0.55078 -0.43359,1.78125 0,0.9961 0.35156,1.46485 0.35156,0.46875 0.91406,0.46875 0.79688,0 1.73438,-0.41016 z m 10.2539,-3.19922 q 1.26563,-1.40625 2.26172,-2.01562 1.00782,-0.6211 1.83985,-0.6211 h 0.63281 v 4.01953 h -0.65625 l -0.69141,-1.47656 q -0.73828,0 -1.67578,0.32813 -0.9375,0.3164 -1.65234,0.75 v 6.6914 l 1.76953,0.28125 v 0.77344 h -6.58594 v -0.77344 l 1.42969,-0.28125 v -8.90625 l -1.42969,-0.28125 v -0.77343 h 4.62891 z m 10.35938,3.44531 4.30078,-4.6875 -1.17187,-0.26953 v -0.77343 h 4.19529 v 0.77343 l -1.26561,0.25782 -2.625,2.76562 3.78521,6.16406 0.9843,0.28125 v 0.77344 h -5.29685 v -0.77344 l 0.64453,-0.28125 -2.20312,-3.85547 -1.34766,0.9375 v 2.91797 l 1.08984,0.28125 v 0.77344 h -5.51953 v -0.77344 l 1.04297,-0.28125 v -14.54297 l -1.125,-0.28125 v -0.77343 h 4.51172 z m 16.2656,3.9961 2.7305,0.28125 v 1.00781 h -8.8359 v -1.00781 l 2.7187,-0.28125 v -11.84766 l -2.707,0.89063 v -0.9961 l 4.4297,-2.60156 h 1.664 z m 13.9571,-1.81641 v 3.10547 h -3.1524 v -3.10547 h -6.5039 v -1.91015 l 7.0781,-10.78125 h 2.5782 v 10.28906 h 1.5703 v 2.40234 z m -3.1524,-7.05469 q 0,-1.3125 0.1172,-2.48437 l -4.6758,7.13672 h 4.5586 z"
    style="fill:#e3eaf2"
    aria-label="coldark14"
  />
  <path
    d="m 1083.75,244.54101 q -0.5273,0.42188 -1.4648,0.65625 -0.9258,0.23438 -1.9102,0.23438 -2.9414,0 -4.4062,-1.41797 -1.4532,-1.41797 -1.4532,-4.33594 0,-1.81641 0.6563,-3.10547 0.6679,-1.30078 1.8984,-1.98047 1.2305,-0.6914 2.8594,-0.6914 1.6406,0 3.5742,0.41015 v 3.25782 h -0.8437 l -0.4922,-1.9336 q -0.3985,-0.29297 -0.7852,-0.41015 -0.3867,-0.11719 -1.0195,-0.11719 -0.6914,0 -1.2539,0.55078 -0.5625,0.55078 -0.8789,1.55859 -0.3047,0.9961 -0.3047,2.39063 0,2.35547 0.7265,3.36328 0.7383,1.00781 2.3321,1.00781 1.6172,0 2.7656,-0.33984 z m 11.6836,-4.89844 q 0,2.96485 -1.2773,4.38282 -1.2657,1.41797 -3.879,1.41797 -2.5312,0 -3.7734,-1.42969 -1.2422,-1.44141 -1.2422,-4.3711 0,-2.91796 1.2539,-4.32421 1.2657,-1.41797 3.8555,-1.41797 2.6133,0 3.832,1.46484 1.2305,1.45313 1.2305,4.27734 z m -3.4336,0 q 0,-2.57812 -0.3867,-3.5625 -0.375,-0.99609 -1.3125,-0.99609 -0.9024,0 -1.2539,0.94922 -0.3516,0.94922 -0.3516,3.60937 0,2.70704 0.3516,3.66797 0.3633,0.96094 1.2539,0.96094 0.9258,0 1.3125,-1.00781 0.3867,-1.01953 0.3867,-3.6211 z m 9.3984,4.51172 1.2071,0.28125 v 0.77344 h -5.7891 v -0.77344 l 1.1953,-0.28125 v -14.54297 l -1.125,-0.28125 v -0.77343 h 4.5117 z m 10.2071,0.4336 q -0.6563,0.42187 -1.0078,0.5625 -0.3516,0.1289 -0.7969,0.21093 -0.4453,0.082 -0.9844,0.082 -2.4375,0 -3.6328,-1.39454 -1.1953,-1.40621 -1.1953,-4.31246 0,-2.85937 1.2773,-4.34765 1.2891,-1.48828 3.7266,-1.48828 1.2773,0 2.5781,0.3164 -0.07,-0.38672 -0.07,-1.8164 v -2.78907 l -1.125,-0.28125 v -0.77343 h 4.5117 v 15.59765 l 1.2071,0.28125 v 0.77344 h -4.2422 z m -4.1836,-4.94532 q 0,2.19141 0.5508,3.35157 0.5507,1.14843 1.582,1.14843 0.9375,0 1.9453,-0.5039 v -8.29688 q -0.9141,-0.24609 -1.8516,-0.24609 -1.0546,0 -1.6406,1.16016 -0.5859,1.14843 -0.5859,3.38671 z m 15.3398,-5.69531 q 4.1367,0 4.1367,3.04688 v 7.16015 l 1.1016,0.28125 v 0.77344 h -4.0547 l -0.2578,-0.84375 q -0.9141,0.62109 -1.6523,0.84375 -0.7383,0.23438 -1.4883,0.23438 -3.4102,0 -3.4102,-3.28125 0,-1.24219 0.5039,-1.98047 0.5039,-0.75 1.4532,-1.10157 0.9492,-0.36328 2.9882,-0.41015 l 1.4297,-0.0352 v -1.60547 q 0,-1.99218 -1.6289,-1.99218 -0.9844,0 -2.2031,0.60937 l -0.4453,1.37109 h -0.7735 v -2.66015 q 1.7696,-0.26953 2.6016,-0.33985 0.832,-0.0703 1.6992,-0.0703 z m 0.75,5.73047 -0.9844,0.0352 q -1.1367,0.0469 -1.582,0.59765 -0.4336,0.55078 -0.4336,1.78125 0,0.9961 0.3516,1.46485 0.3515,0.46875 0.914,0.46875 0.7969,0 1.7344,-0.41016 z m 10.2539,-3.19922 q 1.2657,-1.40625 2.2617,-2.01562 1.0079,-0.6211 1.8399,-0.6211 h 0.6328 v 4.01953 h -0.6562 l -0.6915,-1.47656 q -0.7382,0 -1.6757,0.32813 -0.9375,0.3164 -1.6524,0.75 v 6.6914 l 1.7696,0.28125 v 0.77344 h -6.586 v -0.77344 l 1.4297,-0.28125 v -8.90625 l -1.4297,-0.28125 v -0.77343 h 4.6289 z m 10.3594,3.44531 4.3008,-4.6875 -1.1719,-0.26953 v -0.77343 h 4.1953 v 0.77343 l -1.2656,0.25782 -2.625,2.76562 3.7852,6.16406 0.9843,0.28125 v 0.77344 h -5.2968 v -0.77344 l 0.6445,-0.28125 -2.2031,-3.85547 -1.3477,0.9375 v 2.91797 l 1.0898,0.28125 v 0.77344 h -5.5195 v -0.77344 l 1.043,-0.28125 v -14.54297 l -1.125,-0.28125 v -0.77343 h 4.5117 z m 16.2656,3.9961 2.7305,0.28125 v 1.00781 h -8.8359 v -1.00781 l 2.7187,-0.28125 v -11.84766 l -2.707,0.89063 v -0.9961 l 4.4297,-2.60156 h 1.664 z m 9.5977,-8.00391 q 2.789,0 4.1367,1.14844 1.3594,1.14844 1.3594,3.46875 0,2.36719 -1.4766,3.64453 -1.4648,1.26563 -4.207,1.26563 -2.1797,0 -4.336,-0.46875 l -0.1406,-3.8086 h 1.0781 l 0.6094,2.51953 q 0.4571,0.25782 1.125,0.42188 0.668,0.15234 1.2071,0.15234 2.6953,0 2.6953,-3.60937 0,-1.875 -0.6914,-2.70703 -0.6797,-0.84375 -2.1797,-0.84375 -0.8321,0 -1.5235,0.30468 l -0.3632,0.15235 h -1.1719 v -8.0625 h 8.2031 v 2.61328 h -6.9023 v 4.125 q 1.4296,-0.31641 2.5781,-0.31641 z"
    style="fill:#e3eaf2"
    aria-label="coldark15"
  />
  <path
    d="m 440.8125,69.515625 -6.46875,0.8125 v 35.500005 h 8.53125 q 6.65625,0 9.78125,-0.625 l 2.5625,-8.718755 h 2.8125 l -1.1875,12.656255 H 419.125 v -2.28125 l 5.375,-0.84375 V 70.328125 l -5.34375,-0.8125 v -2.28125 h 21.65625 z m 33.53125,36.812505 3.21875,0.75 v 2.0625 H 462.125 v -2.0625 l 3.1875,-0.75 V 82.578125 l -3,-0.75 v -2.0625 h 12.03125 z M 465,69.515625 q 0,-2.03125 1.40625,-3.40625 1.4375,-1.375 3.40625,-1.375 2,0 3.375,1.40625 1.40625,1.375 1.40625,3.375 0,1.96875 -1.375,3.40625 -1.375,1.40625 -3.40625,1.40625 -2,0 -3.40625,-1.375 Q 465,71.546875 465,69.515625 Z m 21.53125,28.78125 q -5.5625,-2.34375 -5.5625,-9.15625 0,-4.875 3.40625,-7.5 3.40625,-2.65625 9.75,-2.65625 1.34375,0 3.4375,0.25 2.125,0.21875 3.09375,0.53125 l 7.03125,-3.46875 1.09375,1.34375 -3.5625,5.0625 q 1.9375,2.375 1.9375,6.4375 0,4.96875 -3.375,7.65625 -3.34375,2.65625 -9.78125,2.65625 -2.46875,0 -4.78125,-0.375 l -0.75,2.375005 q 0.0625,0.90625 1.15625,1.71875 1.09375,0.78125 2.6875,0.78125 h 6.84375 q 10.71875,0 10.71875,8.25 0,3.40625 -1.875,5.84375 -1.84375,2.46875 -5.46875,3.84375 -3.59375,1.375 -8.96875,1.375 -6.375,0 -9.875,-1.84375 -3.5,-1.8125 -3.5,-5 0,-1.40625 1.125,-2.71875 1.15625,-1.3125 4.4375,-3.21875 -1.84375,-0.71875 -3.15625,-2.5 -1.28125,-1.78125 -1.28125,-3.75 z m 16.5,16.031255 q 0,-2.96875 -3.96875,-2.96875 h -9.90625 q -2.75,2 -2.75,4.53125 0,2 1.90625,3 1.9375,1 5.28125,1 4.53125,0 6.96875,-1.46875 2.46875,-1.46875 2.46875,-4.09375 z M 493.9375,96.328125 q 2.3125,0 3.34375,-1.78125 1.03125,-1.8125 1.03125,-5.40625 0,-3.59375 -1.03125,-5.28125 -1,-1.71875 -3.34375,-1.71875 -2.15625,0 -3.15625,1.71875 -0.96875,1.6875 -0.96875,5.28125 0,3.59375 0.96875,5.40625 0.96875,1.78125 3.15625,1.78125 z m 30.1875,-18.875 q 0,2.0625 -0.1875,4.875 l 2.15625,-1.09375 q 4.4375,-2.25 7.96875,-2.25 8.125,0 8.125,8.65625 v 18.687505 l 2.9375,0.75 v 2.0625 h -14.59375 v -2.0625 l 2.625,-0.75 V 88.859375 q 0,-2.625 -1.125,-4.09375 -1.09375,-1.46875 -3.15625,-1.46875 -2.375,0 -4.75,1.0625 v 21.968755 l 2.6875,0.75 v 2.0625 h -14.59375 v -2.0625 l 2.875,-0.75 V 67.546875 l -3,-0.75 v -2.0625 H 524.125 Z m 35.65625,32.312505 q -4.21875,0 -6.53125,-1.90625 -2.28125,-1.90625 -2.28125,-5.5 V 83.015625 H 547.125 v -2.03125 l 4.53125,-1.21875 3.65625,-6.65625 H 560 v 6.65625 h 6.1875 v 3.25 H 560 v 18.781255 q 0,2.03125 0.84375,3.0625 0.84375,1.03125 2.21875,1.03125 1.65625,0 4.0625,-0.5 v 2.65625 q -0.9375,0.65625 -3.21875,1.1875 -2.25,0.53125 -4.125,0.53125 z m 40.6875,-30.656255 q 11.03125,0 11.03125,8.125 v 19.093755 l 2.9375,0.75 v 2.0625 H 603.625 l -0.6875,-2.25 q -2.4375,1.65625 -4.40625,2.25 -1.96875,0.625 -3.96875,0.625 -9.09375,0 -9.09375,-8.75 0,-3.312505 1.34375,-5.281255 1.34375,-2 3.875,-2.9375 2.53125,-0.96875 7.96875,-1.09375 l 3.8125,-0.0937 v -4.28125 q 0,-5.3125 -4.34375,-5.3125 -2.625,0 -5.875,1.625 l -1.1875,3.65625 H 589 v -7.09375 q 4.71875,-0.71875 6.9375,-0.90625 2.21875,-0.1875 4.53125,-0.1875 z m 2,15.28125 -2.625,0.0937 q -3.03125,0.125 -4.21875,1.59375 -1.15625,1.46875 -1.15625,4.750005 0,2.65625 0.9375,3.90625 0.9375,1.25 2.4375,1.25 2.125,0 4.625,-1.09375 z m 39.75,12.968755 q -1.40625,1.125 -3.90625,1.75 -2.46875,0.625 -5.09375,0.625 -7.84375,0 -11.75,-3.78125 -3.875,-3.78125 -3.875,-11.562505 0,-4.84375 1.75,-8.28125 1.78125,-3.46875 5.0625,-5.28125 3.28125,-1.84375 7.625,-1.84375 4.375,0 9.53125,1.09375 v 8.6875 h -2.25 L 638,83.609375 q -1.0625,-0.78125 -2.09375,-1.09375 -1.03125,-0.3125 -2.71875,-0.3125 -1.84375,0 -3.34375,1.46875 -1.5,1.46875 -2.34375,4.15625 -0.8125,2.65625 -0.8125,6.375 0,6.281255 1.9375,8.968755 1.96875,2.6875 6.21875,2.6875 4.3125,0 7.375,-0.90625 z m 28.40625,0 q -1.40625,1.125 -3.90625,1.75 -2.46875,0.625 -5.09375,0.625 -7.84375,0 -11.75,-3.78125 Q 646,102.17188 646,94.390625 q 0,-4.84375 1.75,-8.28125 1.78125,-3.46875 5.0625,-5.28125 3.28125,-1.84375 7.625,-1.84375 4.375,0 9.53125,1.09375 v 8.6875 h -2.25 l -1.3125,-5.15625 q -1.0625,-0.78125 -2.09375,-1.09375 -1.03125,-0.3125 -2.71875,-0.3125 -1.84375,0 -3.34375,1.46875 -1.5,1.46875 -2.34375,4.15625 -0.8125,2.65625 -0.8125,6.375 0,6.281255 1.9375,8.968755 1.96875,2.6875 6.21875,2.6875 4.3125,0 7.375,-0.90625 z m 17.03125,-28.312505 q 5.96875,0 8.625,3.1875 2.6875,3.1875 2.6875,9.90625 v 2.5625 H 683.5625 v 0.5 q 0,4.65625 0.75,6.625005 0.75,1.96875 2.4375,3 1.6875,1.03125 4.625,1.03125 2.75,0 6.9375,-0.90625 v 2.40625 q -1.71875,1.03125 -4.46875,1.71875 -2.71875,0.65625 -5.3125,0.65625 -7.21875,0 -10.6875,-3.75 -3.4375,-3.78125 -3.4375,-11.687505 0,-7.6875 3.28125,-11.46875 3.3125,-3.78125 9.96875,-3.78125 z m -0.34375,3.15625 q -1.875,0 -2.8125,2.03125 -0.90625,2.03125 -0.90625,7.1875 h 6.8125 q 0,-4.1875 -0.28125,-5.875 -0.28125,-1.71875 -0.96875,-2.53125 -0.65625,-0.8125 -1.84375,-0.8125 z m 26.875,0.125 2.125,-1.09375 q 4.375,-2.25 7.875,-2.25 8.125,0 8.125,8.65625 v 18.687505 l 2.9375,0.75 v 2.0625 h -14.59375 v -2.0625 l 2.625,-0.75 V 88.859375 q 0,-2.625 -1.125,-4.09375 -1.09375,-1.46875 -3.15625,-1.46875 -2.375,0 -4.75,1.0625 v 21.968755 l 2.6875,0.75 v 2.0625 h -14.59375 v -2.0625 l 2.875,-0.75 V 82.578125 l -2.875,-0.75 v -2.0625 H 713.75 Z m 35.71875,27.437505 q -4.21875,0 -6.53125,-1.90625 -2.28125,-1.90625 -2.28125,-5.5 V 83.015625 H 737.25 v -2.03125 l 4.53125,-1.21875 3.65625,-6.65625 h 4.6875 v 6.65625 h 6.1875 v 3.25 h -6.1875 v 18.781255 q 0,2.03125 0.84375,3.0625 0.84375,1.03125 2.21875,1.03125 1.65625,0 4.0625,-0.5 v 2.65625 q -0.9375,0.65625 -3.21875,1.1875 -2.25,0.53125 -4.125,0.53125 z M 780.875,99.828125 q 0,4.906255 -3.03125,7.437505 -3,2.5 -8.75,2.5 -2.375,0 -5.25,-0.53125 -2.84375,-0.5 -4.3125,-1.0625 v -8 h 2.0625 l 1.1875,4.125 q 1.09375,1.09375 2.875,1.84375 1.78125,0.71875 3.625,0.71875 2.71875,0 4.03125,-1.15625 1.34375,-1.1875 1.34375,-3 0,-1.71875 -1.28125,-2.750005 -1.28125,-1.03125 -5.59375,-2.375 -4.53125,-1.40625 -6.4375,-3.84375 -1.875,-2.4375 -1.875,-6 0,-4 2.96875,-6.375 2.96875,-2.375 7.65625,-2.375 3.21875,0 8.65625,0.90625 v 7.53125 h -2.0625 l -1,-3.4375 q -0.90625,-0.90625 -2.5625,-1.46875 -1.625,-0.59375 -3.09375,-0.59375 -2.25,0 -3.34375,0.9375 -1.0625,0.90625 -1.0625,2.5 0,1.65625 1.34375,2.71875 1.34375,1.0625 5.53125,2.3125 4.5625,1.40625 6.46875,3.71875 1.90625,2.28125 1.90625,5.71875 z"
    style="fill:#e3eaf2"
    aria-label="Light accents"
  />
  <path
    d="m 45.187495,588.52148 -0.89062,4.81641 h -1.67578 l 0.89062,-4.81641 h -3.16406 l -0.86719,4.81641 h -1.71093 l 0.89062,-4.81641 h -1.83984 v -1.4414 h 2.13281 l 0.62109,-3.36328 h -2.7539 v -1.44141 h 3.02343 l 0.85547,-4.65234 h 1.6875 l -0.86718,4.65234 h 3.16406 l 0.86719,-4.65234 h 1.67578 l -0.86719,4.65234 h 1.82812 v 1.44141 h -2.08593 l -0.59766,3.36328 h 2.68359 v 1.4414 z m -3.9375,-4.80468 -0.62109,3.36328 h 3.16406 l 0.63282,-3.36328 z m 17.3086,8.95313 q -0.52735,0.42187 -1.46485,0.65625 -0.92578,0.23437 -1.91015,0.23437 -2.94141,0 -4.40625,-1.41797 -1.45313,-1.41798 -1.45313,-4.33594 0,-1.81641 0.65625,-3.10546 0.66797,-1.30079 1.89844,-1.98047 1.23047,-0.69141 2.85938,-0.69141 1.64062,0 3.57421,0.41016 v 3.25781 h -0.84375 l -0.49218,-1.93359 q -0.39844,-0.29297 -0.78516,-0.41016 -0.38672,-0.11719 -1.01953,-0.11719 -0.69141,0 -1.25391,0.55078 -0.5625,0.55078 -0.8789,1.5586 -0.30469,0.99609 -0.30469,2.39062 0,2.35547 0.72656,3.36328 0.73828,1.00782 2.33203,1.00782 1.61719,0 2.76563,-0.33985 z m 11.5664,0.66796 h -9.96093 v -2.21484 q 1.00781,-1.07813 1.86328,-1.9336 1.875,-1.85157 2.74219,-2.90625 0.86718,-1.0664 1.26562,-2.20313 0.41016,-1.13672 0.41016,-2.58984 0,-1.27735 -0.6211,-2.0625 -0.62109,-0.78516 -1.65234,-0.78516 -0.72656,0 -1.16016,0.15236 -0.43359,0.15234 -0.79687,0.45702 l -0.50391,2.27344 h -1.01953 v -3.57421 q 0.9375,-0.21095 1.82813,-0.35158 0.90234,-0.15233 1.95703,-0.15233 2.58984,0 3.96093,1.0664 1.38282,1.0664 1.38282,3.03515 0,1.23047 -0.41016,2.23828 -0.41016,0.9961 -1.30078,1.94532 -0.87891,0.94921 -3.51563,3.09375 -1.00781,0.82031 -2.17968,1.86328 h 7.71093 z m 12,0 h -9.96093 v -2.21484 q 1.00781,-1.07813 1.86328,-1.9336 1.875,-1.85157 2.74219,-2.90625 0.86718,-1.0664 1.26562,-2.20313 0.41016,-1.13672 0.41016,-2.58984 0,-1.27735 -0.6211,-2.0625 -0.62109,-0.78516 -1.65234,-0.78516 -0.72656,0 -1.16016,0.15236 -0.43359,0.15234 -0.79687,0.45702 l -0.50391,2.27344 h -1.01953 v -3.57421 q 0.9375,-0.21095 1.82813,-0.35158 0.90234,-0.15233 1.95703,-0.15233 2.58984,0 3.96093,1.0664 1.38282,1.0664 1.38282,3.03515 0,1.23047 -0.41016,2.23828 -0.41016,0.9961 -1.30078,1.94532 -0.87891,0.94921 -3.51563,3.09375 -1.00781,0.82031 -2.17968,1.86328 h 7.71093 z m 2.8711,-9.79687 h -1.66406 v -0.8086 l 1.66406,-0.45704 v -1.18359 q 0,-2.25 1.14844,-3.44531 1.14843,-1.20703 3.29296,-1.20703 1.16016,0 1.94532,0.22265 v 2.625 h -0.75 l -0.33985,-1.27734 q -0.28125,-0.28125 -0.73828,-0.28125 -1.17187,0 -1.17187,2.98828 v 1.60547 h 2.23828 v 1.21875 h -2.23828 v 8.74219 l 1.79297,0.28125 v 0.77343 h -6.375 v -0.77343 l 1.19531,-0.28125 z m 17.121095,9.79687 h -9.960945 v -2.21484 q 1.00782,-1.07813 1.86329,-1.9336 1.875,-1.85157 2.74218,-2.90625 0.86719,-1.0664 1.26563,-2.20313 0.41015,-1.13672 0.41015,-2.58984 0,-1.27735 -0.62109,-2.0625 -0.62109,-0.78516 -1.65234,-0.78516 -0.72657,0 -1.16016,0.15236 -0.43359,0.15234 -0.79687,0.45702 l -0.50391,2.27344 h -1.01953 v -3.57421 q 0.9375,-0.21095 1.82812,-0.35158 0.90235,-0.15233 1.95703,-0.15233 2.58985,0 3.960945,1.0664 1.38281,1.0664 1.38281,3.03515 0,1.23047 -0.41016,2.23828 -0.41016,0.9961 -1.30078,1.94532 -0.878905,0.94921 -3.515625,3.09375 -1.00781,0.82031 -2.17969,1.86328 h 7.710935 z m 6.82031,-11.28516 q 2.23829,0 3.23438,1.19532 1.0078,1.1953 1.0078,3.71484 v 0.96094 h -5.77734 v 0.1875 q 0,1.7461 0.28125,2.48437 0.28125,0.73828 0.91406,1.125 0.63281,0.38673 1.73438,0.38673 1.03125,0 2.60156,-0.33986 v 0.90236 q -0.64453,0.38671 -1.67578,0.64452 -1.01953,0.2461 -1.99219,0.2461 -2.70703,0 -4.00781,-1.40625 -1.28907,-1.41797 -1.28907,-4.38282 0,-2.8828 1.23047,-4.30078 1.24219,-1.41797 3.73829,-1.41797 z m -0.12891,1.1836 q -0.70313,0 -1.05469,0.76172 -0.33984,0.76172 -0.33984,2.6953 h 2.55468 q 0,-1.5703 -0.10546,-2.20312 -0.10547,-0.64453 -0.36329,-0.94921 -0.24609,-0.30469 -0.6914,-0.30469 z"
    style="fill:#e3eaf2"
    aria-label="#c22f2e"
  />
  <path
    d="m 191.98242,588.04686 -0.89062,4.8164 h -1.67578 l 0.89062,-4.8164 h -3.16406 l -0.86719,4.8164 h -1.71093 l 0.89062,-4.8164 h -1.83984 v -1.44141 h 2.13281 l 0.62109,-3.36328 h -2.75391 v -1.44141 h 3.02343 l 0.85547,-4.65234 h 1.6875 l -0.86718,4.65234 h 3.16406 l 0.86719,-4.65234 h 1.67578 l -0.86719,4.65234 h 1.82812 v 1.44141 h -2.08593 l -0.59766,3.36328 h 2.68359 v 1.44141 z m -3.9375,-4.80469 -0.62109,3.36328 h 3.16406 l 0.63282,-3.36328 z m 13.65235,-1.64062 q 4.13671,0 4.13671,3.04687 v 7.16016 l 1.10156,0.28125 v 0.77343 h -4.05469 l -0.25781,-0.84375 q -0.91406,0.6211 -1.65234,0.84375 -0.73829,0.23438 -1.48829,0.23438 -3.41015,0 -3.41015,-3.28125 0,-1.24219 0.5039,-1.98047 0.50391,-0.75 1.45313,-1.10156 0.94922,-0.36328 2.98828,-0.41016 l 1.4297,-0.0351 v -1.60547 q 0,-1.99219 -1.62892,-1.99219 -0.98437,0 -2.20312,0.60937 l -0.44532,1.3711 h -0.77343 v -2.66016 q 1.76954,-0.26953 2.60156,-0.33984 0.83203,-0.0703 1.69922,-0.0703 z m 0.75,5.73046 -0.98438,0.0352 q -1.13672,0.0469 -1.58204,0.59766 -0.43358,0.55078 -0.43358,1.78125 0,0.99609 0.35155,1.46484 0.35156,0.46875 0.91406,0.46875 0.79688,0 1.73438,-0.41016 z m 15.9375,-2.39062 q 0,8.15625 -5.15625,8.15625 -2.48438,0 -3.75,-2.08594 -1.26563,-2.08594 -1.26563,-6.07031 0,-3.90234 1.26563,-5.96484 1.26562,-2.07422 3.84375,-2.07422 2.48437,0 3.77344,2.05078 1.28906,2.03906 1.28906,5.98828 z m -3.4336,0 q 0,-3.65625 -0.41015,-5.25 -0.41017,-1.60547 -1.28906,-1.60547 -0.86719,0 -1.24219,1.54688 -0.36329,1.54687 -0.36329,5.30859 0,3.82031 0.375,5.40234 0.375,1.58203 1.23047,1.58203 0.86718,0 1.27734,-1.61718 0.42187,-1.62891 0.42188,-5.36719 z m 14.33204,4.81641 v 3.10546 h -3.15235 v -3.10546 h -6.5039 v -1.91016 l 7.07812,-10.78125 h 2.57813 v 10.28906 h 1.57031 v 2.40235 z m -3.15235,-7.05469 q 0,-1.3125 0.11719,-2.48438 l -4.67578,7.13672 h 4.55859 z m 5.82422,-0.76172 q 0,-2.39063 1.37109,-3.67969 1.3711,-1.28906 3.8086,-1.28906 2.7539,0 4.01953,1.93359 1.27734,1.9336 1.27734,6.0586 0,2.64843 -0.75,4.46484 -0.73829,1.81641 -2.13281,2.74219 -1.39453,0.92578 -3.35156,0.92578 -1.94531,0 -3.64453,-0.50391 v -3.57422 h 1.01953 l 0.5039,2.27344 q 0.41016,0.29297 0.97266,0.45703 0.57422,0.16407 1.10156,0.16407 1.26563,0 1.96875,-1.42969 0.71485,-1.44141 0.83203,-4.16016 -1.21875,0.4336 -2.42578,0.4336 -2.12109,0 -3.35156,-1.26563 -1.21875,-1.26562 -1.21875,-3.55078 z m 3.44531,0.0469 q 0,3.35157 1.82813,3.35157 0.89062,0 1.7578,-0.21094 v -0.16406 q 0,-3.38672 -0.41016,-5.09766 -0.39843,-1.71094 -1.41796,-1.71094 -1.75782,0 -1.75781,3.83203 z m 18.98438,2.95313 q 0,8.15625 -5.15625,8.15625 -2.48438,0 -3.75,-2.08594 -1.26563,-2.08594 -1.26563,-6.07031 0,-3.90234 1.26563,-5.96484 1.26562,-2.07422 3.84375,-2.07422 2.48437,0 3.77344,2.05078 1.28906,2.03906 1.28906,5.98828 z m -3.4336,0 q 0,-3.65625 -0.41015,-5.25 -0.41017,-1.60547 -1.28906,-1.60547 -0.86719,0 -1.24219,1.54688 -0.36329,1.54687 -0.36329,5.30859 0,3.82031 0.375,5.40234 0.375,1.58203 1.23047,1.58203 0.86718,0 1.27734,-1.61718 0.42187,-1.62891 0.42188,-5.36719 z m 15.4336,0 q 0,8.15625 -5.15625,8.15625 -2.48438,0 -3.75,-2.08594 -1.26563,-2.08594 -1.26563,-6.07031 0,-3.90234 1.26563,-5.96484 1.26562,-2.07422 3.84375,-2.07422 2.48437,0 3.77344,2.05078 1.28906,2.03906 1.28906,5.98828 z m -3.4336,0 q 0,-3.65625 -0.41015,-5.25 -0.41017,-1.60547 -1.28906,-1.60547 -0.86719,0 -1.24219,1.54688 -0.36329,1.54687 -0.36329,5.30859 0,3.82031 0.375,5.40234 0.375,1.58203 1.23047,1.58203 0.86718,0 1.27734,-1.61718 0.42187,-1.62891 0.42188,-5.36719 z"
    style="fill:#e3eaf2"
    aria-label="#a04900"
  />
  <path
    d="m 343.98632,588.51562 -0.89062,4.8164 h -1.67578 l 0.89062,-4.8164 h -3.16406 l -0.86719,4.8164 h -1.71093 l 0.89062,-4.8164 h -1.83984 v -1.44141 h 2.13281 l 0.62109,-3.36328 h -2.7539 v -1.44141 h 3.02343 l 0.85547,-4.65234 h 1.6875 l -0.86718,4.65234 h 3.16406 l 0.86719,-4.65234 h 1.67578 l -0.86719,4.65234 h 1.82812 v 1.44141 h -2.08593 l -0.59766,3.36328 h 2.68359 v 1.44141 z m -3.9375,-4.80469 -0.62109,3.36328 h 3.16406 l 0.63282,-3.36328 z m 9.64454,-1.60547 h -1.01954 v -4.48828 h 10.04297 v 0.92578 l -6.10547,14.78906 h -2.80078 l 6.6211,-13.10156 h -6.19922 z m 15.23437,1.9336 q 2.78906,0 4.13672,1.14844 1.35937,1.14843 1.35937,3.46875 0,2.36718 -1.47656,3.64452 -1.46484,1.26564 -4.20703,1.26564 -2.17969,0 -4.33594,-0.46875 l -0.14062,-3.8086 h 1.07812 l 0.60938,2.51953 q 0.45703,0.25782 1.125,0.42187 0.66797,0.15235 1.20703,0.15235 2.69531,0 2.69531,-3.60938 0,-1.875 -0.6914,-2.70702 -0.67969,-0.84375 -2.17969,-0.84375 -0.83203,0 -1.52344,0.30468 l -0.36328,0.15234 h -1.17188 v -8.0625 h 8.20313 v 2.61328 h -6.90234 v 4.125 q 1.42968,-0.3164 2.57812,-0.3164 z m 12,0 q 2.78906,0 4.13672,1.14844 1.35937,1.14843 1.35937,3.46875 0,2.36718 -1.47656,3.64452 -1.46484,1.26564 -4.20703,1.26564 -2.17969,0 -4.33594,-0.46875 l -0.14062,-3.8086 h 1.07812 l 0.60938,2.51953 q 0.45703,0.25782 1.125,0.42187 0.66797,0.15235 1.20703,0.15235 2.69531,0 2.69531,-3.60938 0,-1.875 -0.6914,-2.70702 -0.67969,-0.84375 -2.17969,-0.84375 -0.83203,0 -1.52344,0.30468 l -0.36328,0.15234 h -1.17188 v -8.0625 h 8.20313 v 2.61328 h -6.90234 v 4.125 q 1.42968,-0.3164 2.57812,-0.3164 z m 8.21484,-0.5039 h -1.66406 v -0.8086 l 1.66406,-0.45704 v -1.18359 q 0,-2.25 1.14844,-3.44531 1.14844,-1.20703 3.29297,-1.20703 1.16016,0 1.94531,0.22266 v 2.625 h -0.75 l -0.33984,-1.27734 q -0.28125,-0.28125 -0.73828,-0.28125 -1.17188,0 -1.17188,2.98827 v 1.60548 h 2.23828 v 1.21875 h -2.23828 v 8.74218 l 1.79297,0.28125 v 0.77343 h -6.375 v -0.77343 l 1.19531,-0.28125 z m 17.23829,1.875 q 0,8.15625 -5.15625,8.15625 -2.48438,0 -3.75,-2.08595 -1.26563,-2.08594 -1.26563,-6.0703 0,-3.90235 1.26563,-5.96485 1.26562,-2.07422 3.84375,-2.07422 2.48437,0 3.77343,2.05078 1.28907,2.03906 1.28907,5.98829 z m -3.4336,0 q 0,-3.65625 -0.41015,-5.25 -0.41016,-1.60548 -1.28907,-1.60548 -0.86718,0 -1.24218,1.54688 -0.36329,1.54687 -0.36329,5.3086 0,3.8203 0.375,5.40234 0.375,1.58202 1.23047,1.58202 0.86719,0 1.27735,-1.61718 0.42187,-1.62891 0.42187,-5.36718 z m 15.4336,0 q 0,8.15625 -5.15625,8.15625 -2.48438,0 -3.75,-2.08595 -1.26563,-2.08594 -1.26563,-6.0703 0,-3.90235 1.26563,-5.96485 1.26562,-2.07422 3.84375,-2.07422 2.48437,0 3.77343,2.05078 1.28907,2.03906 1.28907,5.98829 z m -3.4336,0 q 0,-3.65625 -0.41015,-5.25 -0.41016,-1.60548 -1.28907,-1.60548 -0.86718,0 -1.24218,1.54688 -0.36329,1.54687 -0.36329,5.3086 0,3.8203 0.375,5.40234 0.375,1.58202 1.23047,1.58202 0.86719,0 1.27735,-1.61718 0.42187,-1.62891 0.42187,-5.36718 z"
    style="fill:#e3eaf2"
    aria-label="#755f00"
  />
  <path
    d="m 491.9707,588.39258 -0.89062,4.8164 h -1.67578 l 0.89062,-4.8164 h -3.16406 l -0.86719,4.8164 h -1.71093 l 0.89062,-4.8164 h -1.83984 v -1.44141 h 2.13281 l 0.62109,-3.36328 h -2.7539 v -1.44141 h 3.02342 l 0.85547,-4.65234 h 1.6875 l -0.86718,4.65234 h 3.16406 l 0.86719,-4.65234 h 1.67579 l -0.8672,4.65234 h 1.82812 v 1.44141 h -2.08592 l -0.59767,3.36328 h 2.68359 v 1.44141 z m -3.9375,-4.80469 -0.62109,3.36328 h 3.16406 l 0.63282,-3.36328 z m 15.28125,8.33203 2.73047,0.28125 v 1.00781 h -8.83593 v -1.00781 l 2.71875,-0.28125 v -11.84765 l -2.70704,0.89062 v -0.99609 l 4.42969,-2.60157 h 1.66406 z m 10.67579,0 2.73046,0.28125 v 1.00781 h -8.83593 v -1.00781 l 2.71875,-0.28125 v -11.84765 l -2.70703,0.89062 v -0.99609 l 4.42968,-2.60157 h 1.66407 z m 15.26953,-3.58594 q 0,2.47266 -1.27735,3.79688 -1.27734,1.3125 -3.63281,1.3125 -2.69531,0 -4.13672,-2.05078 -1.42969,-2.05078 -1.42969,-5.94141 0,-2.53125 0.75,-4.37109 0.76172,-1.83985 2.1211,-2.80078 1.35937,-0.96094 3.1289,-0.96094 1.82813,0 3.52735,0.50391 v 3.57421 h -1.01953 l -0.50391,-2.27343 q -0.80859,-0.60938 -1.76953,-0.60938 -1.17188,0 -1.91016,1.5 -0.72656,1.5 -0.85547,4.19531 1.27735,-0.55078 2.53125,-0.55078 2.14454,0 3.30469,1.20703 1.17188,1.20704 1.17188,3.46875 z m -4.95703,3.92579 q 0.85546,0 1.18359,-0.92579 0.32812,-0.92578 0.32812,-2.77734 0,-1.65234 -0.45703,-2.54297 -0.45703,-0.89062 -1.35937,-0.89062 -0.8672,0 -1.76953,0.26953 v 0.0586 q 0,6.8086 2.07421,6.8086 z m 14.60156,-4.875 q 0,-2.16797 -0.53906,-3.17579 -0.52735,-1.00781 -1.7461,-1.00781 -0.44531,0 -0.97265,0.10547 -0.52735,0.0937 -0.86719,0.29297 v 8.42578 q 0.75,0.1875 1.83984,0.1875 1.16016,0 1.72266,-1.125 0.5625,-1.13672 0.5625,-3.70312 z m -7.51172,-9.79688 -1.125,-0.26953 v -0.76172 h 4.51172 v 4.04297 q 0,1.08984 -0.1172,2.21484 0.46875,-0.38672 1.34767,-0.64453 0.89062,-0.26953 1.73437,-0.26953 2.39063,0 3.49219,1.3125 1.10156,1.3125 1.10156,4.18359 0,2.83594 -1.41797,4.44141 -1.40625,1.60547 -3.97265,1.60547 -1.89845,0 -5.5547,-0.79688 z m 23.00391,7.69922 q 0,8.15625 -5.15625,8.15625 -2.48438,0 -3.75,-2.08594 -1.26563,-2.08594 -1.26563,-6.07031 0,-3.90234 1.26563,-5.96484 1.26562,-2.07422 3.84375,-2.07422 2.48437,0 3.77343,2.05078 1.28907,2.03906 1.28907,5.98828 z m -3.4336,0 q 0,-3.65625 -0.41015,-5.25 -0.41016,-1.60547 -1.28907,-1.60547 -0.86718,0 -1.24218,1.54688 -0.36329,1.54687 -0.36329,5.30859 0,3.82031 0.375,5.40234 0.375,1.58203 1.23047,1.58203 0.86719,0 1.27735,-1.61718 0.42187,-1.62891 0.42187,-5.36719 z m 15.4336,0 q 0,8.15625 -5.15625,8.15625 -2.48438,0 -3.75,-2.08594 -1.26563,-2.08594 -1.26563,-6.07031 0,-3.90234 1.26563,-5.96484 1.26562,-2.07422 3.84375,-2.07422 2.48437,0 3.77343,2.05078 1.28907,2.03906 1.28907,5.98828 z m -3.4336,0 q 0,-3.65625 -0.41015,-5.25 -0.41016,-1.60547 -1.28907,-1.60547 -0.86718,0 -1.24218,1.54688 -0.36329,1.54687 -0.36329,5.30859 0,3.82031 0.375,5.40234 0.375,1.58203 1.23047,1.58203 0.86719,0 1.27735,-1.61718 0.42187,-1.62891 0.42187,-5.36719 z"
    style="fill:#e3eaf2"
    aria-label="#116b00"
  />
  <path
    d="m 640.31249,588.3926 -0.89062,4.81639 h -1.67578 l 0.89062,-4.81639 h -3.16406 l -0.86719,4.81639 h -1.71093 l 0.89062,-4.81639 h -1.83984 v -1.44142 h 2.13281 l 0.62109,-3.36328 h -2.7539 v -1.44141 h 3.02343 l 0.85547,-4.65234 h 1.6875 l -0.86718,4.65234 h 3.16406 l 0.86719,-4.65234 h 1.67578 l -0.86719,4.65234 h 1.82812 v 1.44141 h -2.08593 l -0.59766,3.36328 h 2.68359 v 1.44142 z m -3.9375,-4.8047 -0.62109,3.36328 h 3.16406 l 0.63282,-3.36328 z m 18.33985,1.69922 q 0,8.15626 -5.15625,8.15626 -2.48438,0 -3.75,-2.08595 -1.26563,-2.08594 -1.26563,-6.0703 0,-3.90235 1.26563,-5.96485 1.26562,-2.07422 3.84375,-2.07422 2.48437,0 3.77344,2.05079 1.28906,2.03905 1.28906,5.98827 z m -3.4336,0 q 0,-3.65625 -0.41015,-5.25 -0.41016,-1.60547 -1.28906,-1.60547 -0.86719,0 -1.24219,1.54688 -0.36328,1.54687 -0.36328,5.30859 0,3.82031 0.375,5.40235 0.375,1.58202 1.23047,1.58202 0.86718,0 1.27734,-1.61718 0.42187,-1.62891 0.42187,-5.36719 z m 15.4336,0 q 0,8.15626 -5.15625,8.15626 -2.48438,0 -3.75,-2.08595 -1.26563,-2.08594 -1.26563,-6.0703 0,-3.90235 1.26563,-5.96485 1.26562,-2.07422 3.84375,-2.07422 2.48437,0 3.77344,2.05079 1.28906,2.03905 1.28906,5.98827 z m -3.4336,0 q 0,-3.65625 -0.41015,-5.25 -0.41016,-1.60547 -1.28906,-1.60547 -0.86719,0 -1.24219,1.54688 -0.36328,1.54687 -0.36328,5.30859 0,3.82031 0.375,5.40235 0.375,1.58202 1.23047,1.58202 0.86718,0 1.27734,-1.61718 0.42187,-1.62891 0.42187,-5.36719 z m 15.64454,3.04687 q 0,2.47266 -1.27735,3.79689 -1.27734,1.3125 -3.63281,1.3125 -2.69531,0 -4.13672,-2.05078 -1.42969,-2.05079 -1.42969,-5.94142 0,-2.53125 0.75,-4.37108 0.76172,-1.83986 2.1211,-2.80079 1.35937,-0.96094 3.1289,-0.96094 1.82813,0 3.52735,0.50391 v 3.57421 h -1.01953 l -0.50391,-2.27343 q -0.80859,-0.60938 -1.76953,-0.60938 -1.17188,0 -1.91016,1.5 -0.72656,1.5 -0.85547,4.19531 1.27735,-0.55077 2.53125,-0.55077 2.14453,0 3.30469,1.20702 1.17188,1.20704 1.17188,3.46875 z m -4.95704,3.92579 q 0.85547,0 1.1836,-0.92579 0.32812,-0.92577 0.32812,-2.77734 0,-1.65234 -0.45703,-2.54297 -0.45703,-0.89062 -1.35937,-0.89062 -0.86719,0 -1.76953,0.26954 v 0.0586 q 0,6.8086 2.07421,6.8086 z m 14.25,0.32812 q -0.65625,0.42188 -1.00781,0.5625 -0.35156,0.12891 -0.79687,0.21095 -0.44532,0.082 -0.98438,0.082 -2.4375,0 -3.63281,-1.39454 -1.19531,-1.40625 -1.19531,-4.3125 0,-2.85938 1.27734,-4.34766 1.28906,-1.48828 3.72656,-1.48828 1.27735,0 2.57813,0.31641 -0.0703,-0.38672 -0.0703,-1.81641 v -2.78906 l -1.125,-0.28125 v -0.77344 H 691.5 v 15.59766 l 1.20704,0.28125 v 0.77344 h -4.24219 z m -4.18359,-4.9453 q 0,2.19139 0.55078,3.35155 0.55078,1.14845 1.58203,1.14845 0.9375,0 1.94532,-0.50392 v -8.29687 q -0.91407,-0.24609 -1.85157,-0.24609 -1.05468,0 -1.64062,1.16016 -0.58594,1.14843 -0.58594,3.38672 z m 20.23828,0.69139 q 0,2.47266 -1.27734,3.79689 -1.27735,1.3125 -3.63281,1.3125 -2.69532,0 -4.13672,-2.05078 -1.42969,-2.05079 -1.42969,-5.94142 0,-2.53125 0.75,-4.37108 0.76172,-1.83986 2.12109,-2.80079 1.35938,-0.96094 3.12891,-0.96094 1.82812,0 3.52734,0.50391 v 3.57421 h -1.01953 l -0.5039,-2.27343 q -0.8086,-0.60938 -1.76954,-0.60938 -1.17187,0 -1.91015,1.5 -0.72656,1.5 -0.85547,4.19531 1.27734,-0.55077 2.53125,-0.55077 2.14453,0 3.30469,1.20702 1.17187,1.20704 1.17187,3.46875 z m -4.95703,3.92579 q 0.85547,0 1.18359,-0.92579 0.32813,-0.92577 0.32813,-2.77734 0,-1.65234 -0.45703,-2.54297 -0.45703,-0.89062 -1.35938,-0.89062 -0.86718,0 -1.76953,0.26954 v 0.0586 q 0,6.8086 2.07422,6.8086 z m 14.25,0.32812 q -0.65625,0.42188 -1.00781,0.5625 -0.35156,0.12891 -0.79688,0.21095 -0.44531,0.082 -0.98437,0.082 -2.4375,0 -3.63281,-1.39454 -1.19532,-1.40625 -1.19532,-4.3125 0,-2.85938 1.27735,-4.34766 1.28906,-1.48828 3.72656,-1.48828 1.27734,0 2.57812,0.31641 -0.0703,-0.38672 -0.0703,-1.81641 v -2.78906 l -1.125,-0.28125 v -0.77344 h 4.51172 v 15.59766 l 1.20703,0.28125 v 0.77344 h -4.24219 z m -4.18359,-4.9453 q 0,2.19139 0.55078,3.35155 0.55078,1.14845 1.58203,1.14845 0.9375,0 1.94531,-0.50392 v -8.29687 q -0.91406,-0.24609 -1.85156,-0.24609 -1.05469,0 -1.64063,1.16016 -0.58593,1.14843 -0.58593,3.38672 z"
    style="fill:#e3eaf2"
    aria-label="#006d6d"
  />
  <path
    d="m 792.50976,588.04687 -0.89062,4.8164 h -1.67578 l 0.89062,-4.8164 h -3.16406 l -0.86719,4.8164 h -1.71093 l 0.89062,-4.8164 h -1.83984 v -1.44141 h 2.13281 l 0.62109,-3.36328 h -2.7539 v -1.44141 h 3.02343 l 0.85547,-4.65234 h 1.6875 l -0.86718,4.65234 h 3.16406 l 0.86719,-4.65234 h 1.67578 l -0.86719,4.65234 h 1.82812 v 1.44141 h -2.08593 l -0.59766,3.36328 h 2.68359 v 1.44141 z m -3.9375,-4.80469 -0.62109,3.36328 h 3.16406 l 0.63282,-3.36328 z m 18.33985,1.69923 q 0,8.15625 -5.15625,8.15625 -2.48438,0 -3.75,-2.08595 -1.26563,-2.08594 -1.26563,-6.0703 0,-3.90235 1.26563,-5.96485 1.26562,-2.07422 3.84375,-2.07422 2.48437,0 3.77344,2.05078 1.28906,2.03906 1.28906,5.98829 z m -3.4336,0 q 0,-3.65625 -0.41015,-5.25 -0.41016,-1.60548 -1.28906,-1.60548 -0.86719,0 -1.24219,1.54688 -0.36328,1.54687 -0.36328,5.3086 0,3.8203 0.375,5.40234 0.375,1.58202 1.23047,1.58202 0.86718,0 1.27734,-1.61718 0.42187,-1.62891 0.42187,-5.36718 z m 15.4336,0 q 0,8.15625 -5.15625,8.15625 -2.48438,0 -3.75,-2.08595 -1.26563,-2.08594 -1.26563,-6.0703 0,-3.90235 1.26563,-5.96485 1.26562,-2.07422 3.84375,-2.07422 2.48437,0 3.77344,2.05078 1.28906,2.03906 1.28906,5.98829 z m -3.4336,0 q 0,-3.65625 -0.41015,-5.25 -0.41016,-1.60548 -1.28906,-1.60548 -0.86719,0 -1.24219,1.54688 -0.36328,1.54687 -0.36328,5.3086 0,3.8203 0.375,5.40234 0.375,1.58202 1.23047,1.58202 0.86718,0 1.27734,-1.61718 0.42187,-1.62891 0.42187,-5.36718 z m 9.97266,-1.3711 q 2.78906,0 4.13672,1.14844 1.35937,1.14843 1.35937,3.46875 0,2.36718 -1.47656,3.64452 -1.46484,1.26564 -4.20703,1.26564 -2.17969,0 -4.33594,-0.46875 l -0.14062,-3.8086 h 1.07812 l 0.60938,2.51953 q 0.45703,0.25782 1.125,0.42187 0.66797,0.15235 1.20703,0.15235 2.69531,0 2.69531,-3.60938 0,-1.875 -0.6914,-2.70702 -0.67969,-0.84375 -2.17969,-0.84375 -0.83203,0 -1.52344,0.30468 l -0.36328,0.15234 h -1.17188 v -8.0625 h 8.20313 v 2.61328 h -6.90234 v 4.125 q 1.42968,-0.3164 2.57812,-0.3164 z m 12.77344,-1.96875 q 4.13672,0 4.13672,3.04687 v 7.16016 l 1.10156,0.28125 v 0.77343 h -4.05469 l -0.25781,-0.84375 q -0.91406,0.6211 -1.65234,0.84375 -0.73829,0.23439 -1.48829,0.23439 -3.41015,0 -3.41015,-3.28125 0,-1.2422 0.5039,-1.98048 0.50391,-0.75 1.45313,-1.10156 0.94922,-0.36328 2.98828,-0.41016 l 1.42969,-0.0351 v -1.60548 q 0,-1.99218 -1.62891,-1.99218 -0.98437,0 -2.20312,0.60937 l -0.44532,1.37109 h -0.77343 v -2.66016 q 1.76953,-0.26953 2.60156,-0.33984 0.83203,-0.0703 1.69922,-0.0703 z m 0.75,5.73046 -0.98438,0.0352 q -1.13672,0.0469 -1.58203,0.59766 -0.43359,0.55079 -0.43359,1.78125 0,0.99609 0.35156,1.46484 0.35156,0.46875 0.91406,0.46875 0.79688,0 1.73438,-0.41016 z m 15.6914,-6.3164 q 0,1.28906 -0.63281,2.20313 -0.63281,0.90234 -1.78125,1.3125 1.34766,0.50391 2.0625,1.55859 0.71485,1.05468 0.71485,2.53125 0,2.22657 -1.28907,3.35157 -1.27734,1.125 -3.98437,1.125 -5.13281,0 -5.13281,-4.47657 0,-1.5 0.72656,-2.55468 0.72656,-1.0547 2.01562,-1.53516 -1.13672,-0.43359 -1.75781,-1.33594 -0.62109,-0.90235 -0.62109,-2.21485 0,-1.92187 1.26562,-3 1.27735,-1.07812 3.59766,-1.07812 2.27344,0 3.53906,1.10157 1.27734,1.08984 1.27734,3.01171 z m -2.96484,7.60547 q 0,-1.80468 -0.46875,-2.625 -0.46875,-0.82032 -1.47656,-0.82032 -0.96094,0 -1.38281,0.79689 -0.42188,0.79686 -0.42188,2.64843 0,1.81641 0.42188,2.55468 0.43359,0.73829 1.38281,0.73829 1.00781,0 1.47656,-0.77344 0.46875,-0.77344 0.46875,-2.51953 z m -0.36328,-7.60547 q 0,-1.53516 -0.38672,-2.22656 -0.38672,-0.70313 -1.17187,-0.70313 -0.75,0 -1.11329,0.69141 -0.35156,0.69141 -0.35156,2.23828 0,1.59375 0.35156,2.25 0.35157,0.65625 1.11329,0.65625 0.80859,0 1.18359,-0.66796 0.375,-0.6797 0.375,-2.23829 z m 10.27734,0.5625 q 2.23828,0 3.23438,1.19531 1.00781,1.19532 1.00781,3.71484 v 0.96094 h -5.77734 v 0.1875 q 0,1.7461 0.28125,2.48438 0.28125,0.73828 0.91406,1.125 0.63281,0.38672 1.73437,0.38672 1.03125,0 2.60157,-0.33985 v 0.90235 q -0.64453,0.38671 -1.67578,0.64453 -1.01954,0.24609 -1.99219,0.24609 -2.70703,0 -4.00781,-1.40625 -1.28907,-1.41797 -1.28907,-4.38281 0,-2.88281 1.23047,-4.30078 1.24219,-1.41797 3.73828,-1.41797 z m -0.1289,1.18359 q -0.70313,0 -1.05469,0.76172 -0.33984,0.76172 -0.33984,2.69532 h 2.55468 q 0,-1.57032 -0.10547,-2.20313 -0.10546,-0.64453 -0.36328,-0.94921 -0.24609,-0.3047 -0.6914,-0.3047 z"
    style="fill:#e3eaf2"
    aria-label="#005a8e"
  />
  <path
    d="m 942.38086,588.04687 -0.89062,4.8164 h -1.67578 l 0.89062,-4.8164 h -3.16406 l -0.86719,4.8164 h -1.71093 l 0.89062,-4.8164 h -1.83984 v -1.44141 h 2.13281 l 0.62109,-3.36328 h -2.7539 v -1.44141 h 3.02343 l 0.85547,-4.65234 h 1.6875 l -0.86718,4.65234 h 3.16406 l 0.86719,-4.65234 h 1.67578 l -0.86719,4.65234 h 1.82812 v 1.44141 h -2.08593 l -0.59766,3.36328 h 2.68359 v 1.44141 z m -3.9375,-4.80469 -0.62109,3.36328 h 3.16406 l 0.63282,-3.36328 z m 9.64454,-1.60547 h -1.01954 v -4.48828 h 10.04297 v 0.92578 l -6.10547,14.78906 h -2.80078 l 6.6211,-13.10156 h -6.19922 z m 19.66406,10.5586 q -0.52735,0.42188 -1.46485,0.65625 -0.92578,0.23438 -1.91015,0.23438 -2.94141,0 -4.40625,-1.41798 -1.45313,-1.41796 -1.45313,-4.33593 0,-1.81641 0.65625,-3.10546 0.66797,-1.30079 1.89844,-1.98048 1.23047,-0.6914 2.85938,-0.6914 1.64062,0 3.57421,0.41015 v 3.25782 h -0.84375 l -0.49218,-1.93359 q -0.39844,-0.29298 -0.78516,-0.41016 -0.38672,-0.11719 -1.01953,-0.11719 -0.69141,0 -1.25391,0.55078 -0.5625,0.55078 -0.8789,1.5586 -0.30469,0.99609 -0.30469,2.39062 0,2.35547 0.72656,3.36328 0.73828,1.00782 2.33203,1.00782 1.61719,0 2.76563,-0.33985 z m 11.68359,-7.2539 q 0,8.15625 -5.15625,8.15625 -2.48437,0 -3.75,-2.08595 -1.26562,-2.08593 -1.26562,-6.0703 0,-3.90235 1.26562,-5.96485 1.26563,-2.07422 3.84375,-2.07422 2.48438,0 3.77344,2.05078 1.28906,2.03907 1.28906,5.98829 z m -3.43359,0 q 0,-3.65625 -0.41016,-5.25 -0.41015,-1.60547 -1.28906,-1.60547 -0.86719,0 -1.24219,1.54687 -0.36328,1.54688 -0.36328,5.3086 0,3.8203 0.375,5.40234 0.375,1.58203 1.23047,1.58203 0.86719,0 1.27734,-1.61719 0.42188,-1.6289 0.42188,-5.36718 z m 15.43359,0 q 0,8.15625 -5.15625,8.15625 -2.48437,0 -3.75,-2.08595 -1.26562,-2.08593 -1.26562,-6.0703 0,-3.90235 1.26562,-5.96485 1.26563,-2.07422 3.84375,-2.07422 2.48438,0 3.77344,2.05078 1.28906,2.03907 1.28906,5.98829 z m -3.43359,0 q 0,-3.65625 -0.41016,-5.25 -0.41015,-1.60547 -1.28906,-1.60547 -0.86719,0 -1.24219,1.54687 -0.36328,1.54688 -0.36328,5.3086 0,3.8203 0.375,5.40234 0.375,1.58203 1.23047,1.58203 0.86719,0 1.27734,-1.61719 0.42188,-1.6289 0.42188,-5.36718 z m 10.74609,-3.33985 q 4.13675,0 4.13675,3.04688 v 7.16015 l 1.1015,0.28125 v 0.77343 h -4.05465 l -0.25782,-0.84375 q -0.91406,0.6211 -1.65234,0.84375 -0.73828,0.23439 -1.48828,0.23439 -3.41016,0 -3.41016,-3.28125 0,-1.2422 0.50391,-1.98048 0.5039,-0.75 1.45312,-1.10156 0.94922,-0.36328 2.98828,-0.41016 l 1.42969,-0.0351 v -1.60548 q 0,-1.99218 -1.6289,-1.99218 -0.98438,0 -2.20313,0.60937 l -0.44531,1.37109 h -0.77344 v -2.66016 q 1.76953,-0.26952 2.60156,-0.33984 0.83203,-0.0703 1.69922,-0.0703 z m 0.75,5.73046 -0.98437,0.0352 q -1.13672,0.0469 -1.58203,0.59766 -0.4336,0.55079 -0.4336,1.78125 0,0.99609 0.35156,1.46484 0.35157,0.46875 0.91407,0.46875 0.79687,0 1.73437,-0.41015 z m 11.24995,-5.73046 q 4.1368,0 4.1368,3.04688 v 7.16015 l 1.1015,0.28125 v 0.77343 h -4.0547 l -0.2578,-0.84375 q -0.914,0.6211 -1.6523,0.84375 -0.7383,0.23439 -1.4883,0.23439 -3.4102,0 -3.4102,-3.28125 0,-1.2422 0.504,-1.98048 0.5039,-0.75 1.4531,-1.10156 0.9492,-0.36328 2.9883,-0.41016 l 1.4296,-0.0351 v -1.60548 q 0,-1.99218 -1.6289,-1.99218 -0.9843,0 -2.2031,0.60937 l -0.4453,1.37109 h -0.7734 v -2.66016 q 1.7695,-0.26952 2.6015,-0.33984 0.8321,-0.0703 1.6992,-0.0703 z m 0.75,5.73046 -0.9843,0.0352 q -1.1367,0.0469 -1.5821,0.59766 -0.4336,0.55079 -0.4336,1.78125 0,0.99609 0.3516,1.46484 0.3516,0.46875 0.9141,0.46875 0.7968,0 1.7343,-0.41015 z"
    style="fill:#e3eaf2"
    aria-label="#7c00aa"
  />
  <path
    d="m 1095.416,588.51563 -0.8906,4.8164 h -1.6758 l 0.8906,-4.8164 h -3.164 l -0.8672,4.8164 h -1.7109 l 0.8906,-4.8164 h -1.8399 v -1.44141 h 2.1328 l 0.6211,-3.36328 h -2.7539 v -1.44141 h 3.0235 l 0.8554,-4.65234 h 1.6875 l -0.8671,4.65234 h 3.164 l 0.8672,-4.65234 h 1.6758 l -0.8672,4.65234 h 1.8281 v 1.44141 h -2.0859 l -0.5977,3.36328 h 2.6836 v 1.44141 z m -3.9375,-4.80469 -0.6211,3.36328 h 3.1641 l 0.6328,-3.36328 z m 13.6524,-1.64062 q 4.1367,0 4.1367,3.04687 v 7.16016 l 1.1015,0.28125 v 0.77343 h -4.0546 l -0.2579,-0.84375 q -0.914,0.6211 -1.6523,0.84375 -0.7383,0.23438 -1.4883,0.23438 -3.4101,0 -3.4101,-3.28125 0,-1.24219 0.5039,-1.98047 0.5039,-0.75 1.4531,-1.10157 0.9492,-0.36327 2.9883,-0.41015 l 1.4297,-0.0351 v -1.60547 q 0,-1.99219 -1.6289,-1.99219 -0.9844,0 -2.2032,0.60937 l -0.4453,1.3711 h -0.7734 v -2.66016 q 1.7695,-0.26953 2.6015,-0.33984 0.8321,-0.0703 1.6993,-0.0703 z m 0.75,5.73046 -0.9844,0.0352 q -1.1367,0.0469 -1.582,0.59766 -0.4336,0.55078 -0.4336,1.78125 0,0.99609 0.3515,1.46484 0.3516,0.46875 0.9141,0.46875 0.7969,0 1.7344,-0.41016 z m 6.6914,-4.26562 h -1.6641 v -0.80859 l 1.6641,-0.45704 v -1.18359 q 0,-2.25 1.1484,-3.44532 1.1484,-1.20703 3.293,-1.20703 1.1601,0 1.9453,0.22266 v 2.625 h -0.75 l -0.3399,-1.27734 q -0.2812,-0.28125 -0.7382,-0.28125 -1.1719,0 -1.1719,2.98828 v 1.60547 h 2.2383 v 1.21875 h -2.2383 v 8.74218 l 1.793,0.28125 v 0.77343 h -6.375 v -0.77342 l 1.1953,-0.28125 z m 17.2383,1.875 q 0,8.15625 -5.1563,8.15625 -2.4844,0 -3.75,-2.08594 -1.2656,-2.08594 -1.2656,-6.07031 0,-3.90234 1.2656,-5.96484 1.2656,-2.07422 3.8438,-2.07422 2.4843,0 3.7734,2.05077 1.2891,2.03907 1.2891,5.98829 z m -3.4336,0 q 0,-3.65625 -0.4102,-5.25 -0.4102,-1.60547 -1.2891,-1.60547 -0.8671,0 -1.2421,1.54688 -0.3633,1.54687 -0.3633,5.30859 0,3.82031 0.375,5.40234 0.375,1.58203 1.2304,1.58203 0.8672,0 1.2774,-1.61718 0.4219,-1.62891 0.4219,-5.36719 z m 15.4336,0 q 0,8.15625 -5.1563,8.15625 -2.4844,0 -3.75,-2.08594 -1.2656,-2.08594 -1.2656,-6.07031 0,-3.90234 1.2656,-5.96484 1.2656,-2.07422 3.8438,-2.07422 2.4843,0 3.7734,2.05077 1.2891,2.03907 1.2891,5.98829 z m -3.4336,0 q 0,-3.65625 -0.4102,-5.25 -0.4102,-1.60547 -1.2891,-1.60547 -0.8671,0 -1.2421,1.54688 -0.3633,1.54687 -0.3633,5.30859 0,3.82031 0.375,5.40234 0.375,1.58203 1.2304,1.58203 0.8672,0 1.2774,-1.61718 0.4219,-1.62891 0.4219,-5.36719 z m 10.7461,-3.33984 q 4.1367,0 4.1367,3.04687 v 7.16016 l 1.1015,0.28125 v 0.77343 h -4.0547 l -0.2578,-0.84375 q -0.914,0.62109 -1.6523,0.84375 -0.7383,0.23438 -1.4883,0.23438 -3.4101,0 -3.4101,-3.28125 0,-1.24219 0.5039,-1.98047 0.5039,-0.75 1.4531,-1.10157 0.9492,-0.36328 2.9883,-0.41015 l 1.4297,-0.0351 v -1.60547 q 0,-1.99219 -1.629,-1.99219 -0.9843,0 -2.2031,0.60937 l -0.4453,1.3711 h -0.7734 v -2.66016 q 1.7695,-0.26953 2.6015,-0.33984 0.8321,-0.0703 1.6993,-0.0703 z m 0.75,5.73046 -0.9844,0.0352 q -1.1367,0.0469 -1.5821,0.59766 -0.4335,0.55078 -0.4335,1.78125 0,0.99609 0.3515,1.46484 0.3516,0.46875 0.9141,0.46875 0.7969,0 1.7344,-0.41016 z m 6.6914,-4.26562 h -1.6641 v -0.80859 l 1.6641,-0.45704 v -1.18359 q 0,-2.25 1.1484,-3.44532 1.1484,-1.20703 3.293,-1.20703 1.1601,0 1.9453,0.22266 v 2.625 h -0.75 l -0.3399,-1.27734 q -0.2812,-0.28125 -0.7382,-0.28125 -1.1719,0 -1.1719,2.98827 v 1.60548 h 2.2383 v 1.21875 h -2.2383 v 8.74218 l 1.7929,0.28125 v 0.77343 h -6.375 v -0.77342 l 1.1954,-0.28125 z"
    style="fill:#e3eaf2"
    aria-label="#af00af"
  />
</svg>
