<svg
  width="1200"
  height="630"
  viewBox="0 0 1200 630"
  xmlns="http://www.w3.org/2000/svg">
  <path
    style="fill:#111b27"
    d="M 0,530 H 1200 V 630 H 0 Z" />
  <path
    style="fill:#111b27"
    d="m 0,202 h 1200 v 20 H 0 Z" />
  <path
    style="fill:#111b27"
    d="M 0,0 H 1200 V 198 H 0 Z" />
  <path
    style="fill:#c22f2e"
    d="M 0,526 V 226 h 150 v 300 z" />
  <path
    style="fill:#a04900"
    d="M 150,526 V 226 h 150 v 300 z" />
  <path
    style="fill:#755f00"
    d="M 300,526 V 226 h 150 v 300 z" />
  <path
    style="fill:#116b00"
    d="M 450,526 V 226 h 150 v 300 z" />
  <path
    style="fill:#006d6d"
    d="M 600,526 V 226 h 150 v 300 z" />
  <path
    style="fill:#005a8e"
    d="M 750,526 V 226 h 150 v 300 z" />
  <path
    style="fill:#7c00aa"
    d="M 900,526 V 226 h 150 v 300 z" />
  <path
    style="fill:#af00af"
    d="M 1050,526 V 226 h 150 v 300 z" />
  <path
    style="fill:#e3eaf2"
    d="m 45.187495,583.52148 -0.89062,4.81641 h -1.67578 l 0.89062,-4.81641 h -3.16406 l -0.86719,4.81641 h -1.71093 l 0.89062,-4.81641 h -1.83984 v -1.4414 h 2.13281 l 0.62109,-3.36328 h -2.7539 v -1.44141 h 3.02343 l 0.85547,-4.65234 h 1.6875 l -0.86718,4.65234 h 3.16406 l 0.86719,-4.65234 h 1.67578 l -0.86719,4.65234 h 1.82812 v 1.44141 h -2.08593 l -0.59766,3.36328 h 2.68359 v 1.4414 z m -3.9375,-4.80468 -0.62109,3.36328 h 3.16406 l 0.63282,-3.36328 z m 17.3086,8.95312 q -0.52735,0.42188 -1.46485,0.65625 -0.92578,0.23438 -1.91015,0.23438 -2.94141,0 -4.40625,-1.41797 -1.45313,-1.41797 -1.45313,-4.33594 0,-1.81641 0.65625,-3.10547 0.66797,-1.30078 1.89844,-1.98047 1.23047,-0.6914 2.85938,-0.6914 1.64062,0 3.57421,0.41015 v 3.25781 h -0.84375 l -0.49218,-1.93359 q -0.39844,-0.29297 -0.78516,-0.41016 -0.38672,-0.11718 -1.01953,-0.11718 -0.69141,0 -1.25391,0.55078 -0.5625,0.55078 -0.8789,1.55859 -0.30469,0.9961 -0.30469,2.39063 0,2.35547 0.72656,3.36328 0.73828,1.00781 2.33203,1.00781 1.61719,0 2.76563,-0.33984 z m 11.5664,0.66797 h -9.96093 v -2.21484 q 1.00781,-1.07813 1.86328,-1.9336 1.875,-1.85156 2.74219,-2.90625 0.86718,-1.0664 1.26562,-2.20312 0.41016,-1.13672 0.41016,-2.58985 0,-1.27734 -0.6211,-2.0625 -0.62109,-0.78515 -1.65234,-0.78515 -0.72656,0 -1.16016,0.15234 -0.43359,0.15234 -0.79687,0.45703 l -0.50391,2.27344 h -1.01953 v -3.57422 q 0.9375,-0.21094 1.82813,-0.35156 0.90234,-0.15235 1.95703,-0.15235 2.58984,0 3.96093,1.06641 1.38282,1.06641 1.38282,3.03516 0,1.23047 -0.41016,2.23828 -0.41016,0.99609 -1.30078,1.94531 -0.87891,0.94922 -3.51563,3.09375 -1.00781,0.82031 -2.17968,1.86328 h 7.71093 z m 12,0 h -9.96093 v -2.21484 q 1.00781,-1.07813 1.86328,-1.9336 1.875,-1.85156 2.74219,-2.90625 0.86718,-1.0664 1.26562,-2.20312 0.41016,-1.13672 0.41016,-2.58985 0,-1.27734 -0.6211,-2.0625 -0.62109,-0.78515 -1.65234,-0.78515 -0.72656,0 -1.16016,0.15234 -0.43359,0.15234 -0.79687,0.45703 l -0.50391,2.27344 h -1.01953 v -3.57422 q 0.9375,-0.21094 1.82813,-0.35156 0.90234,-0.15235 1.95703,-0.15235 2.58984,0 3.96093,1.06641 1.38282,1.06641 1.38282,3.03516 0,1.23047 -0.41016,2.23828 -0.41016,0.99609 -1.30078,1.94531 -0.87891,0.94922 -3.51563,3.09375 -1.00781,0.82031 -2.17968,1.86328 h 7.71093 z m 2.8711,-9.79688 h -1.66406 v -0.80859 l 1.66406,-0.45703 v -1.18359 q 0,-2.25 1.14844,-3.44532 1.14843,-1.20703 3.29296,-1.20703 1.16016,0 1.94532,0.22266 v 2.625 h -0.75 l -0.33985,-1.27735 q -0.28125,-0.28125 -0.73828,-0.28125 -1.17187,0 -1.17187,2.98829 v 1.60546 h 2.23828 v 1.21875 h -2.23828 v 8.74219 l 1.79297,0.28125 v 0.77344 h -6.375 v -0.77344 l 1.19531,-0.28125 z m 17.121095,9.79688 h -9.960945 v -2.21484 q 1.00782,-1.07813 1.86329,-1.9336 1.875,-1.85156 2.74218,-2.90625 0.86719,-1.0664 1.26563,-2.20312 0.41015,-1.13672 0.41015,-2.58985 0,-1.27734 -0.62109,-2.0625 -0.62109,-0.78515 -1.65234,-0.78515 -0.72657,0 -1.16016,0.15234 -0.43359,0.15234 -0.79687,0.45703 l -0.50391,2.27344 h -1.01953 v -3.57422 q 0.9375,-0.21094 1.82812,-0.35156 0.90235,-0.15235 1.95703,-0.15235 2.58985,0 3.960945,1.06641 1.38281,1.06641 1.38281,3.03516 0,1.23047 -0.41015,2.23828 -0.41016,0.99609 -1.30078,1.94531 -0.878915,0.94922 -3.515635,3.09375 -1.00781,0.82031 -2.17969,1.86328 h 7.710945 z m 6.82031,-11.28516 q 2.23829,0 3.23438,1.19532 1.00781,1.19531 1.00781,3.71484 v 0.96094 h -5.77734 v 0.1875 q 0,1.74609 0.28125,2.48437 0.28125,0.73828 0.91406,1.125 0.63281,0.38672 1.73438,0.38672 1.03125,0 2.60156,-0.33984 v 0.90234 q -0.64453,0.38672 -1.67578,0.64453 -1.01953,0.2461 -1.99219,0.2461 -2.70703,0 -4.00781,-1.40625 -1.28907,-1.41797 -1.28907,-4.38282 0,-2.88281 1.23047,-4.30078 1.24219,-1.41797 3.73828,-1.41797 z m -0.1289,1.1836 q -0.70313,0 -1.05469,0.76172 -0.33984,0.76171 -0.33984,2.69531 h 2.55468 q 0,-1.57031 -0.10546,-2.20313 -0.10547,-0.64453 -0.36329,-0.94922 -0.24609,-0.30468 -0.6914,-0.30468 z"
    aria-label="#c22f2e" />
  <path
    style="fill:#e3eaf2"
    d="m 191.98241,583.04687 -0.89062,4.8164 h -1.67578 l 0.89062,-4.8164 h -3.16406 l -0.86719,4.8164 h -1.71093 l 0.89062,-4.8164 h -1.83984 v -1.44141 h 2.13281 l 0.62109,-3.36327 h -2.7539 v -1.44142 h 3.02343 l 0.85548,-4.65233 h 1.6875 l -0.86719,4.65233 h 3.16407 l 0.86718,-4.65233 h 1.67578 l -0.86719,4.65233 h 1.82812 v 1.44142 h -2.08593 l -0.59766,3.36327 h 2.68359 v 1.44141 z m -3.9375,-4.80469 -0.62109,3.36328 h 3.16406 l 0.63282,-3.36328 z m 13.65235,-1.64063 q 4.13672,0 4.13672,3.04688 v 7.16015 l 1.10156,0.28125 v 0.77344 h -4.05469 l -0.25781,-0.84375 q -0.91406,0.62109 -1.65234,0.84375 -0.73829,0.23437 -1.48829,0.23437 -3.41014,0 -3.41014,-3.28125 0,-1.24218 0.50389,-1.98046 0.50392,-0.75 1.45313,-1.10156 0.94923,-0.36329 2.98828,-0.41016 l 1.42969,-0.0352 v -1.60548 q 0,-1.99219 -1.62891,-1.99219 -0.98437,0 -2.20312,0.60939 l -0.44532,1.37108 h -0.77343 v -2.66015 q 1.76953,-0.26953 2.60156,-0.33985 0.83203,-0.0703 1.69922,-0.0703 z m 0.75,5.73047 -0.98438,0.0352 q -1.13672,0.0469 -1.58203,0.59765 -0.43358,0.55078 -0.43358,1.78125 0,0.9961 0.35156,1.46485 0.35156,0.46875 0.91406,0.46875 0.79688,0 1.73438,-0.41016 z m 15.9375,-2.39062 q 0,8.15625 -5.15625,8.15625 -2.48438,0 -3.75,-2.08594 -1.26563,-2.08594 -1.26563,-6.07031 0,-3.90235 1.26563,-5.96485 1.26562,-2.07422 3.84375,-2.07422 2.48437,0 3.77344,2.05079 1.28906,2.03906 1.28906,5.98828 z m -3.4336,0 q 0,-3.65625 -0.41015,-5.25 -0.41016,-1.60546 -1.28906,-1.60546 -0.86719,0 -1.24219,1.54686 -0.36328,1.54689 -0.36328,5.3086 0,3.82031 0.375,5.40235 0.375,1.58202 1.23047,1.58202 0.86719,0 1.27734,-1.61719 0.42187,-1.62889 0.42187,-5.36718 z m 14.33204,4.8164 v 3.10548 h -3.15235 v -3.10548 h -6.5039 v -1.91015 l 7.07812,-10.78125 h 2.57813 v 10.28906 h 1.57031 v 2.40234 z m -3.15235,-7.05468 q 0,-1.3125 0.11719,-2.48437 l -4.67578,7.13672 h 4.55859 z m 5.82422,-0.76172 q 0,-2.39063 1.37109,-3.67969 1.3711,-1.28906 3.8086,-1.28906 2.7539,0 4.01953,1.9336 1.27734,1.93358 1.27734,6.05858 0,2.64844 -0.75,4.46486 -0.73828,1.81639 -2.13281,2.74218 -1.39453,0.92578 -3.35156,0.92578 -1.94531,0 -3.64453,-0.5039 v -3.57423 h 1.01953 l 0.5039,2.27344 q 0.41016,0.29298 0.97266,0.45703 0.57422,0.16406 1.10156,0.16406 1.26563,0 1.96875,-1.42968 0.71485,-1.44141 0.83203,-4.16016 -1.21875,0.43359 -2.42578,0.43359 -2.12109,0 -3.35156,-1.26562 -1.21875,-1.26563 -1.21875,-3.55078 z m 3.44531,0.0469 q 0,3.35156 1.82813,3.35156 0.89062,0 1.75781,-0.21094 v -0.16406 q 0,-3.38672 -0.41016,-5.09764 -0.39843,-1.71094 -1.41796,-1.71094 -1.75782,0 -1.75782,3.83202 z m 18.98438,2.95312 q 0,8.15625 -5.15625,8.15625 -2.48438,0 -3.75,-2.08592 -1.26563,-2.08595 -1.26563,-6.07033 0,-3.90233 1.26563,-5.96483 1.26562,-2.07423 3.84375,-2.07423 2.48437,0 3.77344,2.05078 1.28906,2.03908 1.28906,5.98828 z m -3.4336,0 q 0,-3.65625 -0.41015,-5.25 -0.41016,-1.60545 -1.28906,-1.60545 -0.86719,0 -1.24219,1.54687 -0.36328,1.54688 -0.36328,5.30858 0,3.82033 0.375,5.40236 0.375,1.58202 1.23047,1.58202 0.86719,0 1.27734,-1.61719 0.42187,-1.62889 0.42187,-5.36719 z m 15.4336,0 q 0,8.15625 -5.15625,8.15625 -2.48438,0 -3.75,-2.08592 -1.26563,-2.08595 -1.26563,-6.07033 0,-3.90233 1.26563,-5.96483 1.26562,-2.07423 3.84375,-2.07423 2.48437,0 3.77344,2.05078 1.28906,2.03908 1.28906,5.98828 z m -3.4336,0 q 0,-3.65625 -0.41015,-5.25 -0.41016,-1.60545 -1.28906,-1.60545 -0.86719,0 -1.24219,1.54687 -0.36328,1.54688 -0.36328,5.30858 0,3.82033 0.375,5.40236 0.375,1.58202 1.23047,1.58202 0.86719,0 1.27734,-1.61719 0.42187,-1.62889 0.42187,-5.36719 z"
    aria-label="#a04900" />
  <path
    style="fill:#e3eaf2"
    d="m 343.98632,583.51562 -0.89062,4.81642 h -1.67578 l 0.89062,-4.81642 h -3.16406 l -0.86719,4.81642 h -1.71093 l 0.89062,-4.81642 h -1.83984 v -1.44139 h 2.13281 l 0.62109,-3.36328 h -2.7539 v -1.44141 h 3.02343 l 0.85547,-4.65234 h 1.6875 l -0.86718,4.65234 h 3.16406 l 0.86719,-4.65234 h 1.67578 l -0.86719,4.65234 h 1.82812 v 1.44141 h -2.08593 l -0.59766,3.36328 h 2.68359 v 1.44139 z m -3.9375,-4.80467 -0.62109,3.36327 h 3.16406 l 0.63282,-3.36327 z m 9.64454,-1.60548 h -1.01954 v -4.48827 h 10.04297 v 0.92577 l -6.10547,14.78906 h -2.80078 l 6.6211,-13.10156 h -6.19922 z m 15.23437,1.93359 q 2.78906,0 4.13672,1.14844 1.35937,1.14844 1.35937,3.46875 0,2.36719 -1.47656,3.64453 -1.46484,1.26562 -4.20703,1.26562 -2.17969,0 -4.33594,-0.46875 l -0.14062,-3.80859 h 1.07812 l 0.60938,2.51953 q 0.45703,0.25781 1.125,0.42188 0.66797,0.15234 1.20703,0.15234 2.69531,0 2.69531,-3.60937 0,-1.875 -0.6914,-2.70704 -0.67969,-0.84375 -2.17969,-0.84375 -0.83203,0 -1.52344,0.30469 l -0.36328,0.15235 h -1.17188 v -8.0625 h 8.20313 v 2.61328 h -6.90234 v 4.125 q 1.42968,-0.31641 2.57812,-0.31641 z m 12,0 q 2.78906,0 4.13672,1.14844 1.35937,1.14844 1.35937,3.46875 0,2.36719 -1.47656,3.64453 -1.46484,1.26562 -4.20703,1.26562 -2.17969,0 -4.33594,-0.46875 l -0.14062,-3.80859 h 1.07812 l 0.60938,2.51953 q 0.45703,0.25781 1.125,0.42188 0.66797,0.15234 1.20703,0.15234 2.69531,0 2.69531,-3.60937 0,-1.875 -0.6914,-2.70704 -0.67969,-0.84375 -2.17969,-0.84375 -0.83203,0 -1.52344,0.30469 l -0.36328,0.15235 h -1.17188 v -8.0625 h 8.20313 v 2.61328 h -6.90234 v 4.125 q 1.42968,-0.31641 2.57812,-0.31641 z m 8.21484,-0.50391 h -1.66406 v -0.80859 l 1.66406,-0.45703 v -1.18358 q 0,-2.25 1.14844,-3.44533 1.14844,-1.20703 3.29297,-1.20703 1.16016,0 1.94531,0.22267 v 2.625 h -0.75 l -0.33984,-1.27735 q -0.28125,-0.28125 -0.73828,-0.28125 -1.17188,0 -1.17188,2.98829 v 1.60546 h 2.23828 v 1.21875 h -2.23828 v 8.74218 l 1.79297,0.28125 v 0.77345 h -6.375 v -0.77345 l 1.19531,-0.28125 z m 17.23829,1.875 q 0,8.15625 -5.15625,8.15625 -2.48438,0 -3.75,-2.08593 -1.26563,-2.08594 -1.26563,-6.07032 0,-3.90234 1.26563,-5.96484 1.26562,-2.07422 3.84375,-2.07422 2.48437,0 3.77343,2.05078 1.28907,2.03907 1.28907,5.98828 z m -3.4336,0 q 0,-3.65625 -0.41015,-5.25 -0.41016,-1.60546 -1.28907,-1.60546 -0.86718,0 -1.24218,1.54687 -0.36329,1.54688 -0.36329,5.30859 0,3.82032 0.375,5.40235 0.375,1.58203 1.23047,1.58203 0.86719,0 1.27735,-1.61719 0.42187,-1.6289 0.42187,-5.36719 z m 15.4336,0 q 0,8.15625 -5.15625,8.15625 -2.48438,0 -3.75,-2.08593 -1.26563,-2.08594 -1.26563,-6.07032 0,-3.90234 1.26563,-5.96484 1.26562,-2.07422 3.84375,-2.07422 2.48437,0 3.77343,2.05078 1.28907,2.03907 1.28907,5.98828 z m -3.4336,0 q 0,-3.65625 -0.41015,-5.25 -0.41016,-1.60546 -1.28907,-1.60546 -0.86718,0 -1.24218,1.54687 -0.36329,1.54688 -0.36329,5.30859 0,3.82032 0.375,5.40235 0.375,1.58203 1.23047,1.58203 0.86719,0 1.27735,-1.61719 0.42187,-1.6289 0.42187,-5.36719 z"
    aria-label="#755f00" />
  <path
    style="fill:#e3eaf2"
    d="m 491.97069,583.39258 -0.89062,4.81641 h -1.67578 l 0.89062,-4.81641 h -3.16406 l -0.86719,4.81641 h -1.71093 l 0.89062,-4.81641 h -1.83983 v -1.4414 h 2.13281 l 0.62108,-3.36328 h -2.75389 v -1.44141 h 3.02343 l 0.85547,-4.65234 h 1.6875 l -0.86718,4.65234 h 3.16406 l 0.86719,-4.65234 h 1.67578 l -0.86719,4.65234 h 1.82812 v 1.44141 h -2.08593 l -0.59767,3.36328 h 2.68359 v 1.4414 z m -3.9375,-4.80468 -0.62109,3.36328 h 3.16406 l 0.63282,-3.36328 z m 15.28125,8.33203 2.73047,0.28125 v 1.0078 h -8.83593 v -1.0078 l 2.71875,-0.28125 v -11.84766 l -2.70704,0.89062 v -0.99609 l 4.42969,-2.60157 h 1.66406 z m 10.67579,0 2.73046,0.28125 v 1.0078 h -8.83593 v -1.0078 l 2.71875,-0.28125 v -11.84766 l -2.70703,0.89062 v -0.99609 l 4.42968,-2.60157 h 1.66407 z m 15.26954,-3.58595 q 0,2.47267 -1.27736,3.79688 -1.27734,1.3125 -3.63281,1.3125 -2.69531,0 -4.13672,-2.05078 -1.42969,-2.05078 -1.42969,-5.9414 0,-2.53125 0.75,-4.3711 0.76172,-1.83984 2.1211,-2.80078 1.35937,-0.96094 3.1289,-0.96094 1.82813,0 3.52735,0.50391 v 3.57422 h -1.01952 l -0.50392,-2.27344 q -0.80858,-0.60937 -1.76953,-0.60937 -1.17188,0 -1.91016,1.5 -0.72656,1.5 -0.85547,4.19531 1.27735,-0.55078 2.53125,-0.55078 2.14454,0 3.30469,1.20703 1.17188,1.20703 1.17189,3.46874 z m -4.95704,3.92579 q 0.85546,0 1.18359,-0.92579 0.32812,-0.92577 0.32812,-2.77733 0,-1.65235 -0.45703,-2.54297 -0.45702,-0.89063 -1.35936,-0.89063 -0.8672,0 -1.76953,0.26953 v 0.0586 q 0,6.80859 2.07421,6.80859 z m 14.60157,-4.875 q 0,-2.16797 -0.53907,-3.17579 -0.52735,-1.0078 -1.7461,-1.0078 -0.44531,0 -0.97265,0.10547 -0.52735,0.0937 -0.86718,0.29296 v 8.42579 q 0.75,0.1875 1.83983,0.1875 1.16017,0 1.72267,-1.125 0.5625,-1.13672 0.5625,-3.70313 z m -7.51173,-9.79688 -1.125,-0.26954 v -0.76171 h 4.51173 v 4.04296 q 0,1.08985 -0.1172,2.21485 0.46875,-0.38672 1.34767,-0.64452 0.89062,-0.26953 1.73437,-0.26953 2.39063,0 3.49219,1.3125 1.10156,1.3125 1.10156,4.18358 0,2.83595 -1.41798,4.44142 -1.40625,1.60546 -3.97264,1.60546 -1.89844,0 -5.55469,-0.79688 z m 23.00391,7.69921 q 0,8.15625 -5.15625,8.15625 -2.48438,0 -3.75,-2.08593 -1.26563,-2.08594 -1.26563,-6.07032 0,-3.90233 1.26563,-5.96483 1.26562,-2.07422 3.84375,-2.07422 2.48437,0 3.77343,2.05077 1.28907,2.03907 1.28907,5.98828 z m -3.4336,0 q 0,-3.65625 -0.41015,-5.25 -0.41016,-1.60546 -1.28907,-1.60546 -0.86718,0 -1.24218,1.54688 -0.36329,1.54687 -0.36329,5.30858 0,3.82032 0.375,5.40235 0.375,1.58203 1.23047,1.58203 0.86719,0 1.27736,-1.61718 0.42187,-1.62891 0.42186,-5.3672 z m 15.4336,0 q 0,8.15625 -5.15625,8.15625 -2.48438,0 -3.75,-2.08593 -1.26563,-2.08594 -1.26563,-6.07032 0,-3.90233 1.26563,-5.96483 1.26562,-2.07422 3.84375,-2.07422 2.48437,0 3.77343,2.05077 1.28907,2.03907 1.28907,5.98828 z m -3.4336,0 q 0,-3.65625 -0.41015,-5.25 -0.41016,-1.60546 -1.28907,-1.60546 -0.86718,0 -1.24218,1.54688 -0.36329,1.54687 -0.36329,5.30858 0,3.82032 0.375,5.40235 0.375,1.58203 1.23047,1.58203 0.86719,0 1.27736,-1.61718 0.42187,-1.62891 0.42186,-5.3672 z"
    aria-label="#116b00" />
  <path
    style="fill:#e3eaf2"
    d="m 640.31249,583.39259 -0.89062,4.81641 h -1.67578 l 0.89062,-4.81641 h -3.16406 l -0.86719,4.81641 h -1.71093 l 0.89062,-4.81641 h -1.83984 v -1.4414 h 2.13281 l 0.62109,-3.36328 h -2.7539 v -1.44141 h 3.02343 l 0.85547,-4.65234 h 1.6875 l -0.86718,4.65234 h 3.16406 l 0.86719,-4.65234 h 1.67578 l -0.86719,4.65234 h 1.82812 v 1.44141 h -2.08593 l -0.59766,3.36328 h 2.68359 v 1.4414 z m -3.9375,-4.80468 -0.62109,3.36328 h 3.16406 l 0.63282,-3.36328 z m 18.33985,1.69921 q 0,8.15625 -5.15625,8.15625 -2.48438,0 -3.75,-2.08593 -1.26563,-2.08594 -1.26563,-6.07032 0,-3.90234 1.26563,-5.96484 1.26562,-2.07422 3.84375,-2.07422 2.48437,0 3.77344,2.05078 1.28906,2.03907 1.28906,5.98828 z m -3.4336,0 q 0,-3.65625 -0.41015,-5.25 -0.41016,-1.60546 -1.28906,-1.60546 -0.86719,0 -1.24219,1.54687 -0.36328,1.54688 -0.36328,5.30859 0,3.82032 0.375,5.40235 0.375,1.58203 1.23047,1.58203 0.86718,0 1.27734,-1.61719 0.42187,-1.6289 0.42187,-5.36719 z m 15.4336,0 q 0,8.15625 -5.15625,8.15625 -2.48438,0 -3.75,-2.08593 -1.26563,-2.08594 -1.26563,-6.07032 0,-3.90234 1.26563,-5.96484 1.26562,-2.07422 3.84375,-2.07422 2.48437,0 3.77344,2.05078 1.28906,2.03907 1.28906,5.98828 z m -3.4336,0 q 0,-3.65625 -0.41015,-5.25 -0.41016,-1.60546 -1.28906,-1.60546 -0.86719,0 -1.24219,1.54687 -0.36328,1.54688 -0.36328,5.30859 0,3.82032 0.375,5.40235 0.375,1.58203 1.23047,1.58203 0.86718,0 1.27734,-1.61719 0.42187,-1.6289 0.42187,-5.36719 z m 15.64454,3.04688 q 0,2.47266 -1.27735,3.79687 -1.27734,1.3125 -3.63281,1.3125 -2.69531,0 -4.13672,-2.05078 -1.42969,-2.05078 -1.42969,-5.9414 0,-2.53125 0.75,-4.3711 0.76172,-1.83984 2.1211,-2.80078 1.35937,-0.96094 3.1289,-0.96094 1.82813,0 3.52735,0.50391 v 3.57422 h -1.01953 l -0.50391,-2.27344 q -0.80859,-0.60937 -1.76953,-0.60937 -1.17188,0 -1.91016,1.5 -0.72656,1.5 -0.85547,4.19531 1.27735,-0.55078 2.53125,-0.55078 2.14453,0 3.30469,1.20703 1.17188,1.20703 1.17188,3.46875 z m -4.95704,3.92578 q 0.85547,0 1.1836,-0.92578 0.32812,-0.92578 0.32812,-2.77734 0,-1.65235 -0.45703,-2.54297 -0.45703,-0.89063 -1.35937,-0.89063 -0.86719,0 -1.76953,0.26953 v 0.0586 q 0,6.80859 2.07421,6.80859 z m 14.25,0.32813 q -0.65625,0.42187 -1.00781,0.5625 -0.35156,0.1289 -0.79687,0.21093 -0.44532,0.082 -0.98438,0.082 -2.4375,0 -3.63281,-1.39453 -1.19531,-1.40625 -1.19531,-4.3125 0,-2.85937 1.27734,-4.34765 1.28906,-1.48828 3.72656,-1.48828 1.27735,0 2.57813,0.3164 -0.0703,-0.38672 -0.0703,-1.8164 v -2.78907 l -1.125,-0.28125 v -0.77343 H 691.5 v 15.59765 l 1.20704,0.28125 v 0.77344 h -4.24219 z m -4.18359,-4.94532 q 0,2.19141 0.55078,3.35157 0.55078,1.14843 1.58203,1.14843 0.9375,0 1.94532,-0.5039 v -8.29688 q -0.91407,-0.24609 -1.85157,-0.24609 -1.05468,0 -1.64062,1.16015 -0.58594,1.14844 -0.58594,3.38672 z m 20.23828,0.69141 q 0,2.47266 -1.27734,3.79687 -1.27735,1.3125 -3.63281,1.3125 -2.69532,0 -4.13672,-2.05078 -1.42969,-2.05078 -1.42969,-5.9414 0,-2.53125 0.75,-4.3711 0.76172,-1.83984 2.12109,-2.80078 1.35938,-0.96094 3.12891,-0.96094 1.82812,0 3.52734,0.50391 v 3.57422 h -1.01953 l -0.5039,-2.27344 q -0.8086,-0.60937 -1.76954,-0.60937 -1.17187,0 -1.91015,1.5 -0.72656,1.5 -0.85547,4.19531 1.27734,-0.55078 2.53125,-0.55078 2.14453,0 3.30469,1.20703 1.17187,1.20703 1.17187,3.46875 z m -4.95703,3.92578 q 0.85547,0 1.18359,-0.92578 0.32813,-0.92578 0.32813,-2.77734 0,-1.65235 -0.45703,-2.54297 -0.45703,-0.89063 -1.35938,-0.89063 -0.86718,0 -1.76953,0.26953 v 0.0586 q 0,6.80859 2.07422,6.80859 z m 14.25,0.32813 q -0.65625,0.42187 -1.00781,0.5625 -0.35156,0.1289 -0.79688,0.21093 -0.44531,0.082 -0.98437,0.082 -2.4375,0 -3.63281,-1.39453 -1.19532,-1.40625 -1.19532,-4.3125 0,-2.85937 1.27735,-4.34765 1.28906,-1.48828 3.72656,-1.48828 1.27734,0 2.57812,0.3164 -0.0703,-0.38672 -0.0703,-1.8164 v -2.78907 l -1.125,-0.28125 v -0.77343 h 4.51172 v 15.59765 l 1.20703,0.28125 v 0.77344 h -4.24219 z m -4.18359,-4.94532 q 0,2.19141 0.55078,3.35157 0.55078,1.14843 1.58203,1.14843 0.9375,0 1.94531,-0.5039 v -8.29688 q -0.91406,-0.24609 -1.85156,-0.24609 -1.05469,0 -1.64063,1.16015 -0.58593,1.14844 -0.58593,3.38672 z"
    aria-label="#006d6d" />
  <path
    style="fill:#e3eaf2"
    d="m 792.50976,583.04687 -0.89062,4.81642 h -1.67578 l 0.89062,-4.81642 h -3.16406 l -0.86719,4.81642 h -1.71093 l 0.89062,-4.81642 h -1.83984 v -1.44139 h 2.13281 l 0.62109,-3.36328 h -2.7539 v -1.44141 h 3.02343 l 0.85547,-4.65234 h 1.6875 l -0.86718,4.65234 h 3.16406 l 0.86719,-4.65234 h 1.67578 l -0.86719,4.65234 h 1.82812 v 1.44141 h -2.08593 l -0.59766,3.36328 h 2.68359 v 1.44139 z m -3.9375,-4.80467 -0.62109,3.36327 h 3.16406 l 0.63282,-3.36327 z m 18.33985,1.69921 q 0,8.15625 -5.15625,8.15625 -2.48438,0 -3.75,-2.08594 -1.26563,-2.08594 -1.26563,-6.07031 0,-3.90235 1.26563,-5.96485 1.26562,-2.07422 3.84375,-2.07422 2.48437,0 3.77344,2.05078 1.28906,2.03907 1.28906,5.98829 z m -3.4336,0 q 0,-3.65625 -0.41015,-5.25 -0.41016,-1.60546 -1.28906,-1.60546 -0.86719,0 -1.24219,1.54686 -0.36328,1.54689 -0.36328,5.3086 0,3.82031 0.375,5.40234 0.375,1.58203 1.23047,1.58203 0.86718,0 1.27734,-1.61719 0.42187,-1.62889 0.42187,-5.36718 z m 15.4336,0 q 0,8.15625 -5.15625,8.15625 -2.48438,0 -3.75,-2.08594 -1.26563,-2.08594 -1.26563,-6.07031 0,-3.90235 1.26563,-5.96485 1.26562,-2.07422 3.84375,-2.07422 2.48437,0 3.77344,2.05078 1.28906,2.03907 1.28906,5.98829 z m -3.4336,0 q 0,-3.65625 -0.41015,-5.25 -0.41016,-1.60546 -1.28906,-1.60546 -0.86719,0 -1.24219,1.54686 -0.36328,1.54689 -0.36328,5.3086 0,3.82031 0.375,5.40234 0.375,1.58203 1.23047,1.58203 0.86718,0 1.27734,-1.61719 0.42187,-1.62889 0.42187,-5.36718 z m 9.97266,-1.3711 q 2.78906,0 4.13672,1.14844 1.35937,1.14845 1.35937,3.46875 0,2.3672 -1.47656,3.64453 -1.46484,1.26563 -4.20703,1.26563 -2.17969,0 -4.33594,-0.46875 l -0.14062,-3.8086 h 1.07812 l 0.60938,2.51953 q 0.45703,0.25782 1.125,0.42188 0.66797,0.15234 1.20703,0.15234 2.69531,0 2.69531,-3.60937 0,-1.875 -0.6914,-2.70704 -0.67969,-0.84375 -2.17969,-0.84375 -0.83203,0 -1.52344,0.30469 l -0.36328,0.15235 h -1.17188 v -8.0625 h 8.20313 v 2.61328 h -6.90234 v 4.125 q 1.42968,-0.31641 2.57812,-0.31641 z m 12.77344,-1.96875 q 4.13672,0 4.13672,3.04689 v 7.16014 l 1.10156,0.28125 v 0.77344 h -4.05469 l -0.25781,-0.84375 q -0.91406,0.62109 -1.65234,0.84375 -0.73829,0.23438 -1.48829,0.23438 -3.41015,0 -3.41015,-3.28125 0,-1.24219 0.5039,-1.98046 0.50391,-0.75 1.45313,-1.10158 0.94922,-0.36328 2.98828,-0.41014 l 1.42969,-0.0352 v -1.60547 q 0,-1.99219 -1.62891,-1.99219 -0.98437,0 -2.20312,0.60937 l -0.44532,1.37109 h -0.77343 v -2.66015 q 1.76953,-0.26952 2.60156,-0.33985 0.83203,-0.0703 1.69922,-0.0703 z m 0.75,5.73048 -0.98438,0.0352 q -1.13672,0.0469 -1.58203,0.59765 -0.43359,0.55078 -0.43359,1.78125 0,0.9961 0.35156,1.46485 0.35156,0.46875 0.91406,0.46875 0.79688,0 1.73438,-0.41015 z m 15.6914,-6.31642 q 0,1.28908 -0.63281,2.20313 -0.63281,0.90234 -1.78125,1.3125 1.34766,0.50391 2.0625,1.55859 0.71485,1.05469 0.71485,2.53125 0,2.22657 -1.28907,3.35157 -1.27734,1.125 -3.98437,1.125 -5.13281,0 -5.13281,-4.47657 0,-1.5 0.72656,-2.55468 0.72656,-1.05469 2.01562,-1.53516 -1.13672,-0.43359 -1.75781,-1.33594 -0.62109,-0.90233 -0.62109,-2.21483 0,-1.92189 1.26562,-3 1.27735,-1.07814 3.59766,-1.07814 2.27344,0 3.53906,1.10157 1.27734,1.08985 1.27734,3.01171 z m -2.96484,7.60547 q 0,-1.80468 -0.46875,-2.625 -0.46875,-0.8203 -1.47656,-0.8203 -0.96094,0 -1.38281,0.79687 -0.42188,0.79688 -0.42188,2.64843 0,1.81642 0.42188,2.5547 0.43359,0.73827 1.38281,0.73827 1.00781,0 1.47656,-0.77344 0.46875,-0.77342 0.46875,-2.51953 z m -0.36328,-7.60547 q 0,-1.53514 -0.38672,-2.22656 -0.38672,-0.70311 -1.17187,-0.70311 -0.75,0 -1.11329,0.69139 -0.35156,0.69141 -0.35156,2.23828 0,1.59375 0.35156,2.25 0.35157,0.65625 1.11329,0.65625 0.80859,0 1.18359,-0.66797 0.375,-0.67968 0.375,-2.23828 z m 10.27734,0.5625 q 2.23828,0 3.23438,1.19533 1.00781,1.1953 1.00781,3.71483 v 0.96094 h -5.77734 v 0.1875 q 0,1.74609 0.28125,2.48437 0.28125,0.73828 0.91406,1.125 0.63281,0.38672 1.73437,0.38672 1.03125,0 2.60157,-0.33983 v 0.90233 q -0.64453,0.38673 -1.67578,0.64453 -1.01954,0.24611 -1.99219,0.24611 -2.70703,0 -4.00781,-1.40625 -1.28907,-1.41798 -1.28907,-4.38283 0,-2.88281 1.23047,-4.30078 1.24219,-1.41797 3.73828,-1.41797 z m -0.1289,1.18361 q -0.70313,0 -1.05469,0.76172 -0.33984,0.76171 -0.33984,2.69531 h 2.55468 q 0,-1.57031 -0.10547,-2.20314 -0.10546,-0.64452 -0.36328,-0.94921 -0.24609,-0.30468 -0.6914,-0.30468 z"
    aria-label="#005a8e" />
  <path
    style="fill:#e3eaf2"
    d="m 942.38085,583.04688 -0.89062,4.81641 h -1.67578 l 0.89063,-4.81641 h -3.16406 l -0.86719,4.81641 h -1.71094 l 0.89063,-4.81641 h -1.83984 v -1.4414 h 2.1328 l 0.6211,-3.36328 h -2.7539 v -1.44141 h 3.02343 l 0.85547,-4.65234 h 1.6875 l -0.86718,4.65234 h 3.16406 l 0.86719,-4.65234 h 1.67578 l -0.8672,4.65234 h 1.82813 v 1.44141 h -2.08593 l -0.59766,3.36328 h 2.68358 v 1.4414 z m -3.9375,-4.80468 -0.62108,3.36328 h 3.16406 l 0.63281,-3.36328 z m 9.64454,-1.60547 h -1.01954 v -4.48828 h 10.04298 v 0.92578 l -6.10548,14.78906 h -2.80077 l 6.6211,-13.10156 h -6.19923 z m 19.66406,10.55859 q -0.52735,0.42188 -1.46485,0.65625 -0.92577,0.23438 -1.91015,0.23438 -2.9414,0 -4.40625,-1.41797 -1.45312,-1.41798 -1.45312,-4.33594 0,-1.81642 0.65625,-3.10548 0.66797,-1.30077 1.89844,-1.98047 1.23046,-0.69139 2.85937,-0.69139 1.64063,0 3.57421,0.41014 v 3.25782 h -0.84375 l -0.49218,-1.9336 q -0.39844,-0.29297 -0.78515,-0.41015 -0.38673,-0.11719 -1.01954,-0.11719 -0.69141,0 -1.25391,0.55078 -0.5625,0.55078 -0.8789,1.55859 -0.30469,0.9961 -0.30469,2.39063 0,2.35547 0.72657,3.36328 0.73827,1.00781 2.33202,1.00781 1.6172,0 2.76563,-0.33984 z m 11.6836,-7.25391 q 0,8.15625 -5.15625,8.15625 -2.48438,0 -3.75,-2.08593 -1.26563,-2.08594 -1.26563,-6.07032 0,-3.90234 1.26563,-5.96484 1.26562,-2.07423 3.84375,-2.07423 2.48437,0 3.77343,2.05078 1.28907,2.03908 1.28907,5.98829 z m -3.4336,0 q 0,-3.65625 -0.41015,-5.25 -0.41016,-1.60546 -1.28907,-1.60546 -0.86718,0 -1.24218,1.54687 -0.36328,1.54688 -0.36328,5.30859 0,3.82032 0.375,5.40235 0.375,1.58203 1.23046,1.58203 0.8672,0 1.27735,-1.6172 0.42187,-1.62889 0.42187,-5.36718 z m 15.4336,0 q 0,8.15625 -5.15625,8.15625 -2.48438,0 -3.75,-2.08593 -1.26563,-2.08594 -1.26563,-6.07032 0,-3.90234 1.26563,-5.96484 1.26562,-2.07423 3.84375,-2.07423 2.48437,0 3.77343,2.05078 1.28907,2.03908 1.28907,5.98829 z m -3.4336,0 q 0,-3.65625 -0.41015,-5.25 -0.41016,-1.60546 -1.28907,-1.60546 -0.86718,0 -1.24218,1.54687 -0.36328,1.54688 -0.36328,5.30859 0,3.82032 0.375,5.40235 0.375,1.58203 1.23046,1.58203 0.8672,0 1.27735,-1.6172 0.42187,-1.62889 0.42187,-5.36718 z m 10.7461,-3.33984 q 4.13675,0 4.13675,3.04688 v 7.16014 l 1.1015,0.28125 v 0.77345 h -4.05466 l -0.25781,-0.84375 q -0.91406,0.62108 -1.65235,0.84375 -0.73827,0.23437 -1.48827,0.23437 -3.41016,0 -3.41016,-3.28125 0,-1.24218 0.50391,-1.98046 0.5039,-0.75 1.45312,-1.10158 0.94922,-0.36327 2.98828,-0.41014 l 1.42969,-0.0352 v -1.60547 q 0,-1.99219 -1.6289,-1.99219 -0.98438,0 -2.20313,0.60937 l -0.44531,1.3711 h -0.77344 v -2.66015 q 1.76953,-0.26953 2.60156,-0.33985 0.83203,-0.0703 1.69922,-0.0703 z m 0.75,5.73047 -0.98438,0.0352 q -1.13672,0.0469 -1.58203,0.59765 -0.43359,0.55078 -0.43359,1.78125 0,0.9961 0.35155,1.46485 0.35157,0.46875 0.91407,0.46875 0.79688,0 1.73438,-0.41016 z m 11.24995,-5.73047 q 4.1368,0 4.1368,3.04688 v 7.16014 l 1.1015,0.28125 v 0.77345 h -4.0547 l -0.2578,-0.84375 q -0.914,0.62108 -1.6523,0.84375 -0.7383,0.23437 -1.4883,0.23437 -3.4102,0 -3.4102,-3.28125 0,-1.24218 0.504,-1.98046 0.5039,-0.75 1.4531,-1.10158 0.9492,-0.36327 2.9883,-0.41014 l 1.4296,-0.0352 v -1.60547 q 0,-1.99219 -1.6289,-1.99219 -0.9843,0 -2.2031,0.60937 l -0.4453,1.3711 h -0.7734 v -2.66015 q 1.7695,-0.26953 2.6015,-0.33985 0.8321,-0.0703 1.6992,-0.0703 z m 0.75,5.73047 -0.9843,0.0352 q -1.1367,0.0469 -1.5821,0.59765 -0.4336,0.55078 -0.4336,1.78125 0,0.9961 0.3516,1.46485 0.3516,0.46875 0.9141,0.46875 0.7968,0 1.7343,-0.41016 z"
    aria-label="#7c00aa" />
  <path
    style="fill:#e3eaf2"
    d="m 1095.416,583.51562 -0.8906,4.81641 h -1.6758 l 0.8906,-4.81641 h -3.164 l -0.8672,4.81641 h -1.7109 l 0.8906,-4.81641 h -1.8399 v -1.4414 h 2.1328 l 0.6211,-3.36328 h -2.7539 v -1.44141 h 3.0235 l 0.8554,-4.65234 h 1.6875 l -0.8671,4.65234 h 3.164 l 0.8672,-4.65234 h 1.6758 l -0.8672,4.65234 h 1.8281 v 1.44141 h -2.0859 l -0.5977,3.36328 h 2.6836 v 1.4414 z m -3.9375,-4.80468 -0.6211,3.36328 h 3.1641 l 0.6328,-3.36328 z m 13.6524,-1.64063 q 4.1367,0 4.1367,3.04688 v 7.16015 l 1.1015,0.28125 v 0.77344 h -4.0546 l -0.2579,-0.84375 q -0.914,0.62109 -1.6523,0.84375 -0.7383,0.23437 -1.4883,0.23437 -3.4101,0 -3.4101,-3.28125 0,-1.24218 0.5039,-1.98046 0.5039,-0.75 1.4531,-1.10157 0.9492,-0.36328 2.9883,-0.41015 l 1.4297,-0.0352 v -1.60547 q 0,-1.99219 -1.6289,-1.99219 -0.9844,0 -2.2032,0.60938 l -0.4453,1.37109 h -0.7734 v -2.66015 q 1.7695,-0.26953 2.6015,-0.33985 0.8321,-0.0703 1.6993,-0.0703 z m 0.75,5.73047 -0.9844,0.0352 q -1.1367,0.0469 -1.582,0.59765 -0.4336,0.55078 -0.4336,1.78125 0,0.9961 0.3515,1.46485 0.3516,0.46875 0.9141,0.46875 0.7969,0 1.7344,-0.41016 z m 6.6914,-4.26563 h -1.6641 v -0.80859 l 1.6641,-0.45703 v -1.18358 q 0,-2.25 1.1484,-3.44533 1.1484,-1.20703 3.293,-1.20703 1.1601,0 1.9453,0.22267 v 2.625 h -0.75 l -0.3399,-1.27735 q -0.2812,-0.28125 -0.7382,-0.28125 -1.1719,0 -1.1719,2.98829 v 1.60546 h 2.2383 v 1.21875 h -2.2383 v 8.74218 l 1.793,0.28125 v 0.77345 h -6.375 v -0.77345 l 1.1953,-0.28125 z m 17.2383,1.875 q 0,8.15625 -5.1563,8.15625 -2.4844,0 -3.75,-2.08593 -1.2656,-2.08594 -1.2656,-6.07032 0,-3.90234 1.2656,-5.96484 1.2656,-2.07422 3.8438,-2.07422 2.4843,0 3.7734,2.05078 1.2891,2.03907 1.2891,5.98828 z m -3.4336,0 q 0,-3.65625 -0.4102,-5.25 -0.4102,-1.60546 -1.2891,-1.60546 -0.8671,0 -1.2421,1.54687 -0.3633,1.54688 -0.3633,5.30859 0,3.82032 0.375,5.40235 0.375,1.58203 1.2304,1.58203 0.8672,0 1.2774,-1.61719 0.4219,-1.6289 0.4219,-5.36719 z m 15.4336,0 q 0,8.15625 -5.1563,8.15625 -2.4844,0 -3.75,-2.08593 -1.2656,-2.08594 -1.2656,-6.07032 0,-3.90234 1.2656,-5.96484 1.2656,-2.07422 3.8438,-2.07422 2.4843,0 3.7734,2.05078 1.2891,2.03907 1.2891,5.98828 z m -3.4336,0 q 0,-3.65625 -0.4102,-5.25 -0.4102,-1.60546 -1.2891,-1.60546 -0.8671,0 -1.2421,1.54687 -0.3633,1.54688 -0.3633,5.30859 0,3.82032 0.375,5.40235 0.375,1.58203 1.2304,1.58203 0.8672,0 1.2774,-1.61719 0.4219,-1.6289 0.4219,-5.36719 z m 10.7461,-3.33984 q 4.1367,0 4.1367,3.04688 v 7.16015 l 1.1015,0.28125 v 0.77344 h -4.0547 l -0.2578,-0.84375 q -0.914,0.62109 -1.6523,0.84375 -0.7383,0.23437 -1.4883,0.23437 -3.4101,0 -3.4101,-3.28125 0,-1.24218 0.5039,-1.98046 0.5039,-0.75 1.4531,-1.10157 0.9492,-0.36328 2.9883,-0.41015 l 1.4297,-0.0352 v -1.60548 q 0,-1.99219 -1.629,-1.99219 -0.9843,0 -2.2031,0.60938 l -0.4453,1.37109 h -0.7734 v -2.66015 q 1.7695,-0.26953 2.6015,-0.33985 0.8321,-0.0703 1.6993,-0.0703 z m 0.75,5.73047 -0.9844,0.0352 q -1.1367,0.0469 -1.5821,0.59765 -0.4335,0.55078 -0.4335,1.78125 0,0.9961 0.3515,1.46485 0.3516,0.46875 0.9141,0.46875 0.7969,0 1.7344,-0.41016 z m 6.6914,-4.26562 h -1.6641 v -0.8086 l 1.6641,-0.45702 v -1.18359 q 0,-2.25 1.1484,-3.44533 1.1484,-1.20702 3.293,-1.20702 1.1601,0 1.9453,0.22266 v 2.625 h -0.75 l -0.3399,-1.27735 q -0.2812,-0.28125 -0.7382,-0.28125 -1.1719,0 -1.1719,2.98829 v 1.60546 h 2.2383 v 1.21875 h -2.2383 v 8.74219 l 1.7929,0.28125 v 0.77344 h -6.375 v -0.77344 l 1.1954,-0.28125 z"
    aria-label="#af00af" />
  <path
    style="fill:#e3eaf2"
    d="m 387.75009,66.35418 -8.625,1.083333 v 47.333317 h 11.375 q 8.87499,0 13.04166,-0.83334 l 3.41666,-11.62499 h 3.75 l -1.58333,16.87499 h -50.29165 v -3.04166 l 7.16667,-1.125 V 67.437513 l -7.125,-1.083333 v -3.041666 h 28.87499 z m 44.70832,49.08331 4.29166,1 v 2.75 h -20.58333 v -2.75 l 4.25,-1 V 83.770839 l -4,-0.999999 v -2.749999 h 16.04167 z M 420.00007,66.35418 q 0,-2.708332 1.875,-4.541665 1.91667,-1.833333 4.54167,-1.833333 2.66666,0 4.5,1.875 1.875,1.833332 1.875,4.499998 0,2.624999 -1.83333,4.541665 -1.83334,1.874999 -4.54167,1.874999 -2.66667,0 -4.54167,-1.833333 -1.875,-1.874999 -1.875,-4.583331 z m 28.70833,38.37498 q -7.41667,-3.12499 -7.41667,-12.208324 0,-6.499998 4.54167,-9.999996 4.54166,-3.541665 12.99999,-3.541665 1.79167,0 4.58333,0.333333 2.83334,0.291666 4.125,0.708333 l 9.375,-4.624998 1.45833,1.791667 -4.75,6.749996 q 2.58333,3.166666 2.58333,8.583331 0,6.624997 -4.49999,10.208333 -4.45834,3.54166 -13.04167,3.54166 -3.29166,0 -6.37499,-0.5 l -1,3.16667 q 0.0833,1.20833 1.54166,2.29166 1.45834,1.04167 3.58334,1.04167 h 9.12499 q 14.29166,0 14.29166,10.99999 0,4.54167 -2.5,7.79167 -2.45833,3.29166 -7.29166,5.12499 -4.79166,1.83334 -11.95833,1.83334 -8.49999,0 -13.16666,-2.45834 -4.66666,-2.41666 -4.66666,-6.66666 0,-1.875 1.5,-3.625 1.54166,-1.75 5.91666,-4.29166 -2.45833,-0.95834 -4.20833,-3.33333 -1.70833,-2.375 -1.70833,-5 z m 21.99999,21.375 q 0,-3.95834 -5.29167,-3.95834 h -13.20833 q -3.66666,2.66667 -3.66666,6.04167 0,2.66666 2.54166,4 2.58334,1.33333 7.04167,1.33333 6.04166,0 9.29166,-1.95833 3.29167,-1.95834 3.29167,-5.45833 z m -12.125,-23.99999 q 3.08333,0 4.45833,-2.375004 1.375,-2.416666 1.375,-7.20833 0,-4.791665 -1.375,-7.041664 -1.33333,-2.291666 -4.45833,-2.291666 -2.875,0 -4.20833,2.291666 -1.29167,2.249999 -1.29167,7.041664 0,4.791664 1.29167,7.20833 1.29167,2.375004 4.20833,2.375004 z m 40.24998,-25.166661 q 0,2.749999 -0.25,6.499997 l 2.875,-1.458333 q 5.91667,-2.999998 10.625,-2.999998 10.83333,0 10.83333,11.541661 v 24.916654 l 3.91666,1 v 2.75 h -19.45832 v -2.75 l 3.5,-1 V 92.145837 q 0,-3.5 -1.5,-5.458332 -1.45834,-1.958333 -4.20833,-1.958333 -3.16667,0 -6.33334,1.416666 v 29.291652 l 3.58334,1 v 2.75 h -19.45833 v -2.75 l 3.83333,-1 V 63.729181 l -4,-1 v -2.749999 h 16.04166 z m 47.54165,43.083311 q -5.625,0 -8.70833,-2.54166 -3.04166,-2.54167 -3.04166,-7.33333 V 84.354172 h -5.125 V 81.64584 l 6.04166,-1.624999 4.875,-8.874996 h 6.25 v 8.874996 h 8.24999 v 4.333331 h -8.24999 v 25.041658 q 0,2.70833 1.125,4.08333 1.125,1.375 2.95833,1.375 2.20833,0 5.41666,-0.66667 v 3.54167 q -1.25,0.875 -4.29166,1.58333 -3,0.70833 -5.5,0.70833 z M 600.625,79.145841 q 14.70833,0 14.70833,10.833329 v 25.45832 l 3.91667,1 v 2.75 h -14.41666 l -0.91667,-3 q -3.25,2.20834 -5.875,3 -2.625,0.83333 -5.29166,0.83333 -12.125,0 -12.125,-11.66666 0,-4.41666 1.79167,-7.04166 1.79166,-2.666666 5.16666,-3.916665 3.375,-1.291667 10.625,-1.458334 l 5.08333,-0.125 V 90.10417 q 0,-7.08333 -5.79166,-7.08333 -3.5,0 -7.83333,2.166665 l -1.58334,4.874998 h -2.75 v -9.458329 q 6.29167,-0.958333 9.25,-1.208333 2.95833,-0.25 6.04166,-0.25 z m 2.66667,20.374992 -3.5,0.125 q -4.04166,0.166667 -5.625,2.124997 -1.54166,1.95833 -1.54166,6.33333 0,3.54167 1.25,5.20833 1.25,1.66667 3.25,1.66667 2.83333,0 6.16666,-1.45833 z m 52.99999,17.291657 q -1.875,1.5 -5.20834,2.33333 -3.29166,0.83334 -6.79166,0.83334 -10.45833,0 -15.66666,-5.04167 -5.16666,-5.04166 -5.16666,-15.416657 0,-6.458331 2.33333,-11.041662 2.375,-4.624998 6.74999,-7.041664 4.375,-2.458332 10.16667,-2.458332 5.83333,0 12.70833,1.458332 v 11.58333 h -3 l -1.75,-6.874998 q -1.41667,-1.041666 -2.79167,-1.458333 -1.375,-0.416667 -3.625,-0.416667 -2.45833,0 -4.45833,1.958334 -2,1.958331 -3.125,5.541664 -1.08333,3.541665 -1.08333,8.499996 0,8.374997 2.58333,11.958327 2.625,3.58333 8.29167,3.58333 5.74999,0 9.83333,-1.20833 z m 37.87496,0 q -1.87499,1.5 -5.20833,2.33333 -3.29166,0.83334 -6.79166,0.83334 -10.45833,0 -15.66666,-5.04167 -5.16667,-5.04166 -5.16667,-15.416657 0,-6.458331 2.33334,-11.041662 2.375,-4.624998 6.74999,-7.041664 4.375,-2.458332 10.16667,-2.458332 5.83333,0 12.70832,1.458332 v 11.58333 h -2.99999 l -1.75,-6.874998 q -1.41667,-1.041666 -2.79167,-1.458333 -1.375,-0.416667 -3.625,-0.416667 -2.45833,0 -4.45833,1.958334 -2,1.958331 -3.125,5.541664 -1.08333,3.541665 -1.08333,8.499996 0,8.374997 2.58333,11.958327 2.625,3.58333 8.29167,3.58333 5.74999,0 9.83332,-1.20833 z m 22.70834,-37.749982 q 7.95833,0 11.5,4.249998 3.58333,4.249998 3.58333,13.208328 V 99.9375 h -20.54166 v 0.66667 q 0,6.20833 1,8.83333 1,2.62499 3.25,3.99999 2.25,1.375 6.16667,1.375 3.66666,0 9.24999,-1.20833 v 3.20833 q -2.29166,1.375 -5.95833,2.29167 -3.625,0.875 -7.08333,0.875 -9.625,0 -14.24999,-5 -4.58334,-5.04166 -4.58334,-15.583326 0,-10.249996 4.375,-15.291661 4.41667,-5.041664 13.29166,-5.041665 z m -0.45833,4.208331 q -2.5,0 -3.75,2.708334 -1.20833,2.708331 -1.20833,9.583328 h 9.08333 q 0,-5.583331 -0.375,-7.83333 -0.375,-2.291666 -1.29167,-3.374999 -0.875,-1.083333 -2.45833,-1.083333 z m 35.8333,0.166667 2.83334,-1.458333 q 5.83333,-2.999998 10.49999,-2.999998 10.83333,0 10.83333,11.541661 v 24.916654 l 3.91667,1 v 2.75 h -19.45833 v -2.75 l 3.5,-1 V 92.145837 q 0,-3.5 -1.5,-5.458332 -1.45833,-1.958333 -4.20833,-1.958333 -3.16667,0 -6.33333,1.416666 v 29.291652 l 3.58333,1 v 2.75 h -19.45833 v -2.75 l 3.83334,-1 V 83.770839 l -3.83334,-0.999999 v -2.749999 h 15.20833 z m 47.62498,36.583314 q -5.62499,0 -8.70833,-2.54166 -3.04166,-2.54167 -3.04166,-7.33333 V 84.354172 h -5.125 V 81.64584 l 6.04167,-1.624999 4.87499,-8.874996 h 6.25 v 8.874996 h 8.25 v 4.333331 h -8.25 v 25.041658 q 0,2.70833 1.125,4.08333 1.125,1.375 2.95833,1.375 2.20833,0 5.41667,-0.66667 v 3.54167 q -1.25,0.875 -4.29167,1.58333 -3,0.70833 -5.5,0.70833 z m 41.29166,-13.24999 q 0,6.54166 -4.04167,9.91666 -4,3.33333 -11.66666,3.33333 -3.16667,0 -7,-0.70833 -3.79166,-0.66666 -5.75,-1.41666 v -10.66667 h 2.75 l 1.58334,5.5 q 1.45833,1.45833 3.83333,2.45833 2.375,0.95834 4.83333,0.95834 3.625,0 5.375,-1.54167 1.79166,-1.58333 1.79166,-4 0,-2.29166 -1.70833,-3.66666 -1.70833,-1.375 -7.45833,-3.16667 -6.04166,-1.875 -8.58333,-5.124997 -2.5,-3.249999 -2.5,-7.999997 0,-5.333331 3.95833,-8.499996 3.95833,-3.166665 10.20833,-3.166665 4.29167,0 11.54166,1.208332 V 90.22917 h -2.75 l -1.33333,-4.583332 q -1.20833,-1.208332 -3.41666,-1.958332 -2.16667,-0.791666 -4.125,-0.791666 -3,0 -4.45833,1.249999 -1.41667,1.208333 -1.41667,3.333332 0,2.208332 1.79167,3.624999 1.79166,1.416666 7.37499,3.083332 6.08333,1.874999 8.625,4.958331 2.54167,3.041667 2.54167,7.624997 z" />
</svg>
