<svg
  width="48"
  height="48"
  viewBox="0 0 48 48"
  xmlns="http://www.w3.org/2000/svg">
  <path
    style="fill:#0b121b;stroke-width:1.13008"
    d="M 48,24 A 24,24 0 0 1 24,48 24,24 0 0 1 0,24 24,24 0 0 1 24,0 24,24 0 0 1 48,24 Z" />
  <path
    style="fill:#111b27;fill-opacity:1;stroke-width:1.08299"
    d="M 24,47 C 11.297451,47 1,36.702549 1,24 1,11.297451 11.297451,1 24,1 Z" />
  <path
    style="fill:#e3eaf2;fill-opacity:1;stroke-width:1.08299"
    d="M 6.5703125 21.3125 C 5.6510417 21.3125 4.9557292 21.545573 4.484375 22.011719 C 4.015625 22.47526 3.78125 23.154948 3.78125 24.050781 C 3.78125 24.876302 4.0273437 25.522135 4.5195312 25.988281 C 5.0117187 26.454427 5.6966145 26.6875 6.5742188 26.6875 C 6.8971354 26.6875 7.2460938 26.65625 7.6210938 26.59375 C 7.9960938 26.528646 8.3007812 26.450521 8.5351562 26.359375 L 8.5585938 25.03125 L 8.203125 25.03125 L 8.078125 25.890625 C 7.953125 25.997396 7.7799479 26.089843 7.5585938 26.167969 C 7.3398438 26.246093 7.0833333 26.285156 6.7890625 26.285156 C 6.2317708 26.285156 5.8072917 26.09375 5.515625 25.710938 C 5.2239583 25.328126 5.078125 24.770834 5.078125 24.039062 C 5.078125 23.247396 5.2174479 22.664062 5.4960938 22.289062 C 5.7747396 21.911458 6.2161458 21.722656 6.8203125 21.722656 C 7.2760416 21.722656 7.6757812 21.839843 8.0195312 22.074219 L 8.1289062 22.832031 L 8.4804688 22.832031 L 8.4570312 21.574219 C 7.8059896 21.399739 7.1770833 21.3125 6.5703125 21.3125 z M 12.28125 21.3125 C 10.466146 21.3125 9.5585938 22.203125 9.5585938 23.984375 C 9.5585938 24.875 9.7916667 25.548177 10.257812 26.003906 C 10.723958 26.459636 11.398438 26.6875 12.28125 26.6875 C 13.166667 26.6875 13.841146 26.459636 14.304688 26.003906 C 14.768229 25.545573 15 24.872396 15 23.984375 C 15 23.106771 14.770833 22.442709 14.3125 21.992188 C 13.854167 21.539063 13.177083 21.3125 12.28125 21.3125 z M 15.53125 21.371094 L 15.53125 21.65625 L 16.199219 21.757812 L 16.199219 26.21875 L 15.527344 26.324219 L 15.527344 26.609375 L 20.242188 26.609375 L 20.390625 25.027344 L 20.039062 25.027344 L 19.71875 26.117188 C 19.458333 26.169274 19.050781 26.195312 18.496094 26.195312 L 17.429688 26.195312 L 17.429688 21.757812 L 18.238281 21.65625 L 18.238281 21.371094 L 15.53125 21.371094 z M 20.867188 21.371094 L 20.867188 21.65625 L 21.539062 21.757812 L 21.539062 26.21875 L 20.867188 26.324219 L 20.867188 26.609375 L 21.765625 26.609375 L 23.519531 26.625 C 23.687936 26.625 23.848093 26.61601 24 26.599609 L 24 26.109375 C 23.843542 26.167285 23.658646 26.195312 23.445312 26.195312 C 23.242188 26.195313 23.015625 26.184896 22.765625 26.164062 L 22.765625 21.800781 L 23.054688 21.800781 C 23.43417 21.800781 23.749275 21.866386 24 21.998047 L 24 21.410156 C 23.799824 21.384702 23.58498 21.371094 23.355469 21.371094 L 20.867188 21.371094 z M 12.28125 21.707031 C 12.773437 21.707031 13.132812 21.880208 13.359375 22.226562 C 13.588542 22.572917 13.703125 23.158854 13.703125 23.984375 C 13.703125 24.8125 13.588542 25.404947 13.359375 25.761719 C 13.132812 26.118489 12.773437 26.296875 12.28125 26.296875 C 11.786458 26.296875 11.424479 26.119792 11.195312 25.765625 C 10.96875 25.408854 10.855469 24.815104 10.855469 23.984375 C 10.855469 23.158854 10.96875 22.572917 11.195312 22.226562 C 11.424479 21.880208 11.786458 21.707031 12.28125 21.707031 z " />
  <path
    style="fill:#e3eaf2;fill-opacity:1;stroke-width:1.08299"
    d="m 23.80557,46.96875 c 12.702549,0 23,-10.297451 23,-23 0,-12.702549 -10.297451,-23 -23,-23 z" />
  <path
    style="fill:#111b27;fill-opacity:1;stroke-width:1.08299"
    d="M 28.835938 21.328125 L 26.972656 26.21875 L 26.582031 26.324219 L 26.582031 26.609375 L 28.175781 26.609375 L 28.175781 26.324219 L 27.503906 26.21875 L 27.984375 24.863281 L 29.996094 24.863281 L 30.496094 26.21875 L 29.890625 26.324219 L 29.890625 26.609375 L 32.222656 26.609375 L 32.222656 26.324219 L 31.824219 26.21875 L 29.96875 21.328125 L 28.835938 21.328125 z M 32.417969 21.371094 L 32.417969 21.65625 L 33.089844 21.757812 L 33.089844 26.21875 L 32.46875 26.324219 L 32.46875 26.609375 L 34.996094 26.609375 L 34.996094 26.324219 L 34.324219 26.21875 L 34.324219 24.390625 L 34.972656 24.390625 L 36.433594 26.609375 L 38.128906 26.609375 L 38.128906 26.324219 L 37.5625 26.21875 L 36.164062 24.28125 C 36.867187 24.067708 37.21875 23.585938 37.21875 22.835938 C 37.21875 22.333333 37.028646 21.963542 36.648438 21.726562 C 36.268229 21.489584 35.692708 21.371094 34.921875 21.371094 L 32.417969 21.371094 z M 38.195312 21.371094 L 38.195312 21.65625 L 38.867188 21.757812 L 38.867188 26.21875 L 38.195312 26.324219 L 38.195312 26.609375 L 40.851562 26.609375 L 40.851562 26.324219 L 40.097656 26.21875 L 40.097656 24.476562 L 40.550781 24.085938 L 42.507812 26.609375 L 44.21875 26.609375 L 44.21875 26.324219 L 43.730469 26.21875 L 41.425781 23.285156 L 43.15625 21.757812 L 43.796875 21.65625 L 43.796875 21.371094 L 42.003906 21.371094 L 42.003906 21.65625 L 42.484375 21.757812 L 40.097656 23.890625 L 40.097656 21.757812 L 40.773438 21.65625 L 40.773438 21.371094 L 38.195312 21.371094 z M 24 21.410156 L 24 21.998047 C 24.160494 22.082326 24.294608 22.193804 24.402344 22.332031 C 24.678386 22.683594 24.816406 23.23698 24.816406 23.992188 C 24.816406 24.546875 24.770833 24.980469 24.679688 25.292969 C 24.588541 25.602864 24.44401 25.830729 24.246094 25.976562 C 24.173858 26.030498 24.091827 26.075387 24 26.109375 L 24 26.599609 C 24.632674 26.531303 25.122256 26.321543 25.46875 25.96875 C 25.898437 25.528646 26.113281 24.859376 26.113281 23.960938 C 26.113281 23.085937 25.888021 22.436197 25.4375 22.011719 C 25.098935 21.688901 24.619769 21.488967 24 21.410156 z M 34.324219 21.800781 L 34.871094 21.800781 C 35.300781 21.800781 35.596354 21.877604 35.757812 22.03125 C 35.919271 22.182291 36 22.453125 36 22.84375 C 36 23.255208 35.915364 23.544271 35.746094 23.710938 C 35.576823 23.877604 35.291667 23.960938 34.890625 23.960938 L 34.324219 23.960938 L 34.324219 21.800781 z M 29.007812 22.117188 L 29.847656 24.433594 L 28.144531 24.433594 L 29.007812 22.117188 z " />
</svg>
